<svg xmlns="http://www.w3.org/2000/svg" viewBox="0 0 120 60"><path fill="#1f3d8a" d="M3.69 14a34.43 34.43 0 0 1 16.09-4H20a34.43 34.43 0 0 1 16.1 4l.31.35a41.23 41.23 0 0 1 3.38 15.49v.64a38.62 38.62 0 0 1-3.38 15.44l-.35.34A40.14 40.14 0 0 1 19.89 50a40.14 40.14 0 0 1-16.16-3.72l-.35-.34A38.62 38.62 0 0 1 0 30.5v-.64a41.23 41.23 0 0 1 3.38-15.49l.31-.37Zm16.2-2.65h-.11a33.1 33.1 0 0 0-15.26 3.78 39.79 39.79 0 0 0-3.18 14.75A36.84 36.84 0 0 0 4.5 45.13a38.91 38.91 0 0 0 15.39 3.5 38.92 38.92 0 0 0 15.4-3.5 36.84 36.84 0 0 0 3.16-15.25 39.79 39.79 0 0 0-3.18-14.75A33.1 33.1 0 0 0 20 11.37Zm.36 29.8c-.28-3.85-.1-7.85-1.22-11.51-1.05-3.42-5-5.37-5.1-9.14a6.15 6.15 0 0 1 6.22-6.33 6.36 6.36 0 0 1 6.51 6c.34 3.68-4 6.16-5.19 9.66s-.85 7.54-1.22 11.31Zm1.52-.93a26.78 26.78 0 0 1 .75-9.37c1-3.22 3.1-5.94 6.3-6.83 2.19-.6 5.4 2 4.89 4.69a6.56 6.56 0 0 1-5.94 5c-1.58.14-2.25 1.43-3.24 2.18a15.36 15.36 0 0 0 9.28-4.07c.3 1.57.49 4.21-.71 5.11-2.37 1.71-4.56.32-7.34 1.13-1.56.46-2.53 1.47-4 2.19Zm-3 0a26.79 26.79 0 0 0-.77-9.35c-1-3.22-3.1-5.94-6.3-6.83-2.19-.6-5.42 2-4.89 4.69a6.56 6.56 0 0 0 5.94 5c1.56.14 2.25 1.43 3.24 2.18a15.31 15.31 0 0 1-9.28-4.07c-.3 1.57-.49 4.21.71 5.11 2.37 1.71 4.56.32 7.34 1.13 1.56.46 2.51 1.47 4 2.19Zm10.52 5v-.54l.39-.1-.41-.58v-1l1.78 2.51-.64.16L30 45l-.71.2Zm0-2.25v1l-.28-.4-.11 1.21.39-.1v.54l-.45.1-.08.75-.63.16.41-3.28.63-.16.12.18Zm-5.88 4v-.52h.14a2.45 2.45 0 0 0 .41-.06.37.37 0 0 0 .2-.14.4.4 0 0 0 .08-.26.47.47 0 0 0-.1-.25.34.34 0 0 0-.2-.12 2.18 2.18 0 0 0-.53 0v-.52h.29a.48.48 0 0 0 .24-.14.25.25 0 0 0 .06-.24.26.26 0 0 0-.1-.22.27.27 0 0 0-.24-.1h-.25v-.53a1.78 1.78 0 0 1 .47 0 .67.67 0 0 1 .34.1.6.6 0 0 1 .25.23 1 1 0 0 1 .12.36.73.73 0 0 1-.37.7.79.79 0 0 1 .45.24.7.7 0 0 1 .2.45 1.52 1.52 0 0 1-.06.42 1 1 0 0 1-.24.34 1.17 1.17 0 0 1-.39.18l-.73.08Zm3.73-1.69.61.08a1.48 1.48 0 0 1-.32.83 1.37 1.37 0 0 1-.75.38 1.34 1.34 0 0 1-1-.24 1.66 1.66 0 0 1-.68-1.08 1.76 1.76 0 0 1 .22-1.25 1.35 1.35 0 0 1 .93-.6 1.27 1.27 0 0 1 1 .18 1 1 0 0 1 .39.5l-.57.25a.66.66 0 0 0-.28-.33.63.63 0 0 0-.43-.08.7.7 0 0 0-.49.35 1.18 1.18 0 0 0-.08.82 1.57 1.57 0 0 0 .35.79.63.63 0 0 0 1-.09.94.94 0 0 0 .18-.52Zm-3.73-1.41v.53h-.61l.06.7h.41a.34.34 0 0 0 .14 0v.52h-.48l.06.83h.44V47l-1 .1-.31-3.1 1.21-.1a.07.07 0 0 1 .06 0Zm-3.81 2v-.53a.83.83 0 0 0 .28 0 .49.49 0 0 0 .19-.14.53.53 0 0 0 .06-.24.34.34 0 0 0-.08-.28.37.37 0 0 0-.23-.14h-.22V44a1.7 1.7 0 0 1 .57.06.75.75 0 0 1 .44.31.9.9 0 0 1 .15.6 1.21 1.21 0 0 1-.1.48 1.05 1.05 0 0 1-.25.3 2.52 2.52 0 0 1-.34.15 3.11 3.11 0 0 1-.47 0Zm0-1.92v.53h-.53v.88h.53v.53H19v1.16h-.62l.07-3.05h1Zm-5.7 1.61v-.94a1.43 1.43 0 0 0 .35 0 .38.38 0 0 0 .2-.1.56.56 0 0 0 .1-.22.42.42 0 0 0 0-.27.38.38 0 0 0-.22-.16 3.26 3.26 0 0 0-.39-.08v-.52h.25a2.25 2.25 0 0 1 .67.2.67.67 0 0 1 .3.36.87.87 0 0 1 0 .51.81.81 0 0 1-.3.52 1 1 0 0 1-.63.18 1.28 1.28 0 0 1 .28.3 3 3 0 0 1 .25.57l.26.66-.71-.14-.31-.64a1.76 1.76 0 0 1-.09-.2Zm1.73-1.91.59.06-.13 1.67v.51a.53.53 0 0 0 .15.32.61.61 0 0 0 .4.16.54.54 0 0 0 .39-.08.47.47 0 0 0 .2-.24c0-.1 0-.29.06-.53l.14-1.71.61.06-.14 1.61a2.64 2.64 0 0 1-.12.79.88.88 0 0 1-.19.36.87.87 0 0 1-.4.22 1.25 1.25 0 0 1-.57 0 1.53 1.53 0 0 1-.65-.16 1.21 1.21 0 0 1-.34-.28.9.9 0 0 1-.14-.36 5.09 5.09 0 0 1 0-.79Zm-4.79.91.11-.51 1.29.35-.32 1.18a1.31 1.31 0 0 1-.63.18 2.21 2.21 0 0 1-.73-.06 1.58 1.58 0 0 1-.75-.4 1.42 1.42 0 0 1-.38-.7 2.44 2.44 0 0 1 0-.85 1.85 1.85 0 0 1 .44-.75 1.24 1.24 0 0 1 .69-.38 1.4 1.4 0 0 1 .75 0 1.43 1.43 0 0 1 .79.46 1.05 1.05 0 0 1 .22.74h-.62a.68.68 0 0 0-.13-.42.8.8 0 0 0-.4-.24.85.85 0 0 0-.67.08 1.11 1.11 0 0 0-.43.68 1.26 1.26 0 0 0 0 .87.78.78 0 0 0 .53.42 1.33 1.33 0 0 0 .39 0 2.11 2.11 0 0 0 .38-.1l.1-.38-.67-.18Zm3.06-1.25-1-.18-.51 3 .59.1.16-1.23h.14a1.51 1.51 0 0 1 .3.08 1.21 1.21 0 0 1 .16.16c0 .06.08.16.14.3v-.94h-.2l-.44-.08.12-.77.48.08v-.52Zm94.06-3.76V33.9h2.45v-10l-2.45 5V16.46h9.61L120 45.15h-9.61v-5.57Zm0-23.12v12.48l-2.45 5h2.45v5.68h-4.62l-1.89 5.27h-6v-6.57l6.65-14.63h-1.36l3.79-7.2ZM95.47 26l3-7.21-3-1.69Zm-23.71-2.74a6.85 6.85 0 0 0 0-2.39Zm23.71-6.14V26l-.4 1c-5.88-4.3-14.56-.4-15.07 4.13-.49 4.73 3 8.55 12.06 5.69L89 45.27c-11.9 1.35-16.52-3.46-17.21-9.07V33a18 18 0 0 1 1.07-4.23C78.69 13.94 88.2 17.28 91.82 17l.53-1.65 3.12 1.77Zm0 21.17-3 6.56h3Zm-34.4 6.38c6.37-1.29 12.63-9.1 6.35-15.31a8.55 8.55 0 0 0 4.34-6.1v-2.39c-.43-2.48-2.31-4.49-5.84-4.55l-4.85-.1v5.51h2c2.15 0 1.87 5.67-.81 5.67h-1.2v4.35c2.9.56 1.87 4.67 0 5.94v7ZM71.76 33v3.2a14.09 14.09 0 0 1 0-3.18Zm-19.1-17-3.93 7.8 1.76-.14-4.74 21.19h13.56a8.84 8.84 0 0 0 1.76-.18v-7a1.9 1.9 0 0 1-1.09.38h-4.87l1.61-6.38h3.65a3.65 3.65 0 0 1 .7.06V27.4h-3.4L59 21.73h2v-5.51L52.66 16Z"/></svg>
