<svg xmlns="http://www.w3.org/2000/svg" viewBox="0 0 120 60"><path fill="#0b7798" fill-rule="evenodd" d="M41.44 0c1.41 1 2.84 2.43 2.84 3.84v24.89a6.15 6.15 0 0 1-2.51 4.16h12.65c8.18-.34 13.14-3.3 13.73-9.51.42-4.35-1.88-7.74-7.51-9.65 2.81-1.07 4.32-3.41 4.46-6.63.24-5.54-6.2-7.1-10.25-7.1Zm7.85 13.33V2.95h3.88c4.41 0 6.48 2.17 6.48 5.43s-3 4.95-6.69 4.95Zm4.14 16.39h-4.14V16.28H54c7 0 9.1 4.21 8.72 7.65s-3.34 5.79-9.29 5.79ZM79.29 0h-6.87c1.53 1.7 2.19 2.6 2.19 5.24v22.69a6 6 0 0 1-2.81 5.35h9.14a6 6 0 0 1-2.82-5.41v-20L92 26.38a36.36 36.36 0 0 0 9.2 8.62V5.12A5.17 5.17 0 0 1 104 0h-8.92a5.56 5.56 0 0 1 2.47 5v20L79.29 0Zm29.76 33.28c1.85-1.23 2.79-2.67 2.79-4.55V4.97c0-2.81-.81-3.45-2.39-5H120a6.16 6.16 0 0 0-3.1 5v23.7a6 6 0 0 0 2.53 4.61Z"/><path fill="#ec6724" fill-rule="evenodd" d="M0 0h10.19c-.53.91-.94 3 .09 7.59.92 4.11 3.57 8.39 6.33 11.78l-3.47 2.86L0 5.69V0Zm14.88 0h17.93v4.36c-1.38-.82-3.91-1.6-7.63-.11-6 2.4-6.51 9.43-6.51 9.43-3.31-4-5.49-10.59-3.79-13.68Zm17.93 10.13v13c-4.07 1.55-9.79-2.48-11.23-7.26-2.08-6.94 2.83-9.44 6.34-8.75a8 8 0 0 1 4.89 3.01Zm0 15.09v7.66h-11L24 31.07a7.1 7.1 0 0 1-5.63-2.23l-3.87-4.88 3.53-2.91a21.29 21.29 0 0 0 5.42 4.65c2.5 1.11 5.33 1.64 9.34-.48Zm-17.13 7.66h-12l7.49-6.15 1.76 2.22a43.46 43.46 0 0 1 2.76 3.93Zm-15.5 0H0v-20.2l9.78 12.31-9.6 7.89Z"/></svg>
