<svg xmlns="http://www.w3.org/2000/svg" viewBox="0 0 120 60"><path fill="#04539c" d="M0 38.07V32h1.46l1.88 5 1.85-5h1.42v6.07h-.86v-5.26l-2 5.26H2.9l-2-5.26v5.26Zm11.42-1v.82l-.27.1-.29.09-.36.07a3.28 3.28 0 0 1-.47 0 2.45 2.45 0 0 1-1.26-.3 1.75 1.75 0 0 1-.72-.85 2.91 2.91 0 0 1-.25-1.27 2.57 2.57 0 0 1 .15-.9 2.09 2.09 0 0 1 .42-.71 1.78 1.78 0 0 1 .63-.43 2.06 2.06 0 0 1 .84-.16 1.89 1.89 0 0 1 1.13.32 1.81 1.81 0 0 1 .62.87 4.28 4.28 0 0 1 .2 1.28H8.66a1.49 1.49 0 0 0 .2.76 1.42 1.42 0 0 0 .53.53 1.39 1.39 0 0 0 .72.19 2.18 2.18 0 0 0 .76-.15 2 2 0 0 0 .59-.3m-2.8-1.64h2.27a1.44 1.44 0 0 0-.13-.62 1 1 0 0 0-.37-.45 1.16 1.16 0 0 0-.59-.16 1.06 1.06 0 0 0-1 .64 1.68 1.68 0 0 0-.17.59M13 31.54h.8v6.53H13Zm2.56 3.1v-.69a2.73 2.73 0 0 1 1.44-.42 1.75 1.75 0 0 1 1.3.47 2 2 0 0 1 .42 1.38v1.82a5.92 5.92 0 0 0 0 .87H18v-.58a1.88 1.88 0 0 1-.53.47 1.53 1.53 0 0 1-.83.21 1.84 1.84 0 0 1-1.18-.34 1.25 1.25 0 0 1-.43-1 1.18 1.18 0 0 1 .19-.68 1.39 1.39 0 0 1 .5-.46 2.41 2.41 0 0 1 .65-.24 3.42 3.42 0 0 1 .7-.08h.86a1.28 1.28 0 0 0-.25-.88 1 1 0 0 0-.84-.28 2.09 2.09 0 0 0-.69.12 1.72 1.72 0 0 0-.58.33m2.36 1.71V36h-.53a3.24 3.24 0 0 0-1 .17.66.66 0 0 0-.48.68.61.61 0 0 0 .25.52.91.91 0 0 0 .56.2 1.38 1.38 0 0 0 .67-.15 1 1 0 0 0 .42-.42 1.25 1.25 0 0 0 .14-.59M19.78 40l.05-.67a1.33 1.33 0 0 0 .38.07.74.74 0 0 0 .54-.23 1.62 1.62 0 0 0 .25-.57 1.69 1.69 0 0 0 .1-.36.52.52 0 0 0 0-.11 1.62 1.62 0 0 1-.06-.17c0-.07-.05-.13-.07-.19l-1.49-4.14h.88l1.18 3.68 1.2-3.68h.82L22 38.16a8.32 8.32 0 0 1-.39 1 1.67 1.67 0 0 1-.48.61 1.25 1.25 0 0 1-.81.26 3.05 3.05 0 0 1-.55-.06m4.94-5.3v-.69a2.73 2.73 0 0 1 1.44-.42 1.77 1.77 0 0 1 1.35.45 2 2 0 0 1 .42 1.38v1.81a8.56 8.56 0 0 0 0 .87h-.75v-.58a1.75 1.75 0 0 1-.53.47 1.53 1.53 0 0 1-.83.21 1.86 1.86 0 0 1-1.18-.34 1.28 1.28 0 0 1-.43-1 1.18 1.18 0 0 1 .19-.68 1.48 1.48 0 0 1 .5-.46 2.61 2.61 0 0 1 .66-.24 3.25 3.25 0 0 1 .69-.08h.86a1.28 1.28 0 0 0-.25-.88 1 1 0 0 0-.83-.28 2.09 2.09 0 0 0-.69.12 1.77 1.77 0 0 0-.59.33M27 36.35V36h-.52a3.13 3.13 0 0 0-1 .17.66.66 0 0 0-.49.68.6.6 0 0 0 .26.52.89.89 0 0 0 .56.2 1.34 1.34 0 0 0 .66-.15 1 1 0 0 0 .42-.42 1.25 1.25 0 0 0 .14-.59m2.2 1.72v-4.5H30v.71a1.21 1.21 0 0 1 .57-.59 1.69 1.69 0 0 1 .86-.22 1.5 1.5 0 0 1 1.24.49 2.17 2.17 0 0 1 .4 1.41v2.64h-.8v-2.3a2.49 2.49 0 0 0-.21-1.17.82.82 0 0 0-.72-.41 1.11 1.11 0 0 0-1 .49A2.37 2.37 0 0 0 30 36v2Zm6.23-5.43h-.9v-.91h.9Zm-.85 1h.8v4.44h-.8Zm4.75 4.44V32h1.77a3.58 3.58 0 0 1 1.24.2 3 3 0 0 1 1 .59 2.71 2.71 0 0 1 .68 1 2.92 2.92 0 0 1 .28 1.21 3.92 3.92 0 0 1-.22 1.34 2.81 2.81 0 0 1-.63 1 2.65 2.65 0 0 1-1 .58 4.22 4.22 0 0 1-1.33.2Zm.86-5.31v4.55h.9a2 2 0 0 0 2.3-2.38 2.43 2.43 0 0 0-.28-1.21 1.91 1.91 0 0 0-.79-.78 2.29 2.29 0 0 0-1.12-.27Zm8.7 4.3v.82l-.26.1-.3.09-.36.07a3.13 3.13 0 0 1-.46 0 2.46 2.46 0 0 1-1.27-.3 1.8 1.8 0 0 1-.76-.83 3.06 3.06 0 0 1-.25-1.27 2.57 2.57 0 0 1 .15-.9 2.09 2.09 0 0 1 .42-.71 1.78 1.78 0 0 1 .65-.47 2.1 2.1 0 0 1 .84-.16 1.87 1.87 0 0 1 1.13.32 1.75 1.75 0 0 1 .62.87 4.26 4.26 0 0 1 .2 1.24h-3.14a1.49 1.49 0 0 0 .2.76 1.44 1.44 0 0 0 .54.53 1.35 1.35 0 0 0 .71.19 2.23 2.23 0 0 0 .77-.15 2 2 0 0 0 .58-.3m-2.8-1.64h2.28a1.6 1.6 0 0 0-.13-.62 1.12 1.12 0 0 0-.38-.45 1.1 1.1 0 0 0-.59-.16 1.05 1.05 0 0 0-.62.18 1.16 1.16 0 0 0-.39.46 1.92 1.92 0 0 0-.17.59m4.24 2.65v-4.41h.78v.71a1.3 1.3 0 0 1 .57-.59 1.73 1.73 0 0 1 .87-.22 1.49 1.49 0 0 1 1.23.49 2.17 2.17 0 0 1 .41 1.41v2.64h-.81v-2.3a2.49 2.49 0 0 0-.21-1.17.81.81 0 0 0-.72-.41 1.12 1.12 0 0 0-1 .49 2.37 2.37 0 0 0-.31 1.32v2Zm9.15-4.44v4.25a2.75 2.75 0 0 1-.13.9 1.72 1.72 0 0 1-.41.66 1.62 1.62 0 0 1-.71.42 3.33 3.33 0 0 1-1 .14 4.08 4.08 0 0 1-.71-.06c-.23 0-.52-.13-.86-.24l.08-.76a5.59 5.59 0 0 0 .82.31 3 3 0 0 0 .77.09 1.26 1.26 0 0 0 1-.41 1.57 1.57 0 0 0 .37-1.11v-.44a1.65 1.65 0 0 1-.65.51 2 2 0 0 1-.82.18 1.74 1.74 0 0 1-1-.3 1.81 1.81 0 0 1-.64-.8 2.74 2.74 0 0 1-.21-1.08 3.12 3.12 0 0 1 .22-1.14 2.1 2.1 0 0 1 .67-.88 1.69 1.69 0 0 1 1.07-.34 1.47 1.47 0 0 1 1.45.76v-.66Zm-2.09 3.78a1.14 1.14 0 0 0 .66-.2 1.38 1.38 0 0 0 .46-.55 1.73 1.73 0 0 0 .17-.76 2.39 2.39 0 0 0-.15-.86 1.34 1.34 0 0 0-.43-.62 1.14 1.14 0 0 0-.71-.23 1 1 0 0 0-.89.51 2.05 2.05 0 0 0-.33 1.14 2 2 0 0 0 .15.78 1.31 1.31 0 0 0 .43.57 1 1 0 0 0 .64.22m3.73-2.77v-.69a2.79 2.79 0 0 1 1.45-.42 1.76 1.76 0 0 1 1.34.45 2 2 0 0 1 .42 1.38v1.87a8.56 8.56 0 0 0 0 .87h-.75v-.58a1.71 1.71 0 0 1-.52.47 1.59 1.59 0 0 1-.84.21 1.83 1.83 0 0 1-1.17-.34 1.39 1.39 0 0 1-.25-1.72 1.57 1.57 0 0 1 .5-.46 2.61 2.61 0 0 1 .66-.24 3.32 3.32 0 0 1 .69-.08h.86a1.34 1.34 0 0 0-.24-.88 1.08 1.08 0 0 0-.84-.28 2.09 2.09 0 0 0-.69.12 1.88 1.88 0 0 0-.59.33m2.36 1.71V36H63a3.19 3.19 0 0 0-1 .17.67.67 0 0 0-.49.68.62.62 0 0 0 .26.52.91.91 0 0 0 .56.2 1.41 1.41 0 0 0 .67-.15 1 1 0 0 0 .41-.42 1.15 1.15 0 0 0 .14-.59m2.2 1.72v-4.5h.78v.71a1.3 1.3 0 0 1 .57-.59 1.76 1.76 0 0 1 .87-.22 1.49 1.49 0 0 1 1.23.49 2.17 2.17 0 0 1 .41 1.41v2.64h-.81v-2.3a2.49 2.49 0 0 0-.21-1.17.81.81 0 0 0-.72-.41 1.12 1.12 0 0 0-1 .49 2.37 2.37 0 0 0-.34 1.32v2Zm10.6-6-.11.8c-.25-.09-.44-.16-.59-.2a2.68 2.68 0 0 0-.54-.05 1.36 1.36 0 0 0-.74.19.67.67 0 0 0-.3.62.63.63 0 0 0 .24.55 9.77 9.77 0 0 0 .94.53 3.36 3.36 0 0 1 1 .75 1.57 1.57 0 0 1 .35 1.07 1.59 1.59 0 0 1-.6 1.33 2.57 2.57 0 0 1-1.58.45 4.37 4.37 0 0 1-1.22-.25l.09-.81a3.23 3.23 0 0 0 1.24.3 1.49 1.49 0 0 0 .54-.11 1.06 1.06 0 0 0 .45-.33.85.85 0 0 0 .18-.55.8.8 0 0 0-.3-.68 5.34 5.34 0 0 0-1-.55 3.46 3.46 0 0 1-1-.66 1.35 1.35 0 0 1-.34-1 1.52 1.52 0 0 1 .94-1.46 2.38 2.38 0 0 1 1-.19 3.85 3.85 0 0 1 1.27.21m4.77 5v.82l-.26.1-.3.09a2.56 2.56 0 0 1-.36.07 3.13 3.13 0 0 1-.46 0 2.46 2.46 0 0 1-1.27-.3 1.8 1.8 0 0 1-.76-.83 3.06 3.06 0 0 1-.24-1.27 2.83 2.83 0 0 1 .14-.9 2.09 2.09 0 0 1 .42-.71 1.78 1.78 0 0 1 .65-.47 2.13 2.13 0 0 1 .84-.16 1.85 1.85 0 0 1 1.13.32 1.69 1.69 0 0 1 .62.87 4 4 0 0 1 .24 1.28H78.3a1.39 1.39 0 0 0 .2.76 1.42 1.42 0 0 0 .53.53 1.38 1.38 0 0 0 .71.19 2.23 2.23 0 0 0 .77-.15 1.9 1.9 0 0 0 .58-.3m-2.79-1.61h2.27a1.6 1.6 0 0 0-.13-.62 1 1 0 0 0-.38-.45 1.09 1.09 0 0 0-.58-.16 1.07 1.07 0 0 0-.63.18 1.16 1.16 0 0 0-.39.46 1.91 1.91 0 0 0-.16.59m6.56-1.79v.66H83.7v2.43a.83.83 0 0 0 .19.58.64.64 0 0 0 .49.21.91.91 0 0 0 .54-.16v.7a2.63 2.63 0 0 1-.68.12 1.46 1.46 0 0 1-1-.32 1.26 1.26 0 0 1-.35-1v-2.56h-1v-.66h1v-1l.81-.26v1.29Zm4.92 0v4.44H89v-.71a1.18 1.18 0 0 1-.34.43 1.58 1.58 0 0 1-.51.28 1.66 1.66 0 0 1-.59.1 1.72 1.72 0 0 1-.92-.23 1.34 1.34 0 0 1-.54-.65 2.6 2.6 0 0 1-.18-1v-2.66h.81v2.29a4 4 0 0 0 .08.87 1 1 0 0 0 .29.52.94.94 0 0 0 .56.2 1.16 1.16 0 0 0 1-.49 2.37 2.37 0 0 0 .34-1.34v-2Zm1.49-2.09h.81v6.53h-.81Zm6.19 2.09v4.44h-.78v-.71a1.3 1.3 0 0 1-.34.43 1.58 1.58 0 0 1-.51.28 1.89 1.89 0 0 1-1.51-.13 1.24 1.24 0 0 1-.54-.65 2.6 2.6 0 0 1-.18-1v-2.66h.81v2.29a3.47 3.47 0 0 0 .08.87 1 1 0 0 0 .29.52.94.94 0 0 0 .55.2 1.16 1.16 0 0 0 1-.49 2.37 2.37 0 0 0 .33-1.34v-2Zm1 4.29.05-.73a1.69 1.69 0 0 0 .51.23 1.77 1.77 0 0 0 .49.09 1 1 0 0 0 .58-.16.53.53 0 0 0 .25-.48.48.48 0 0 0-.21-.41 6.25 6.25 0 0 0-.7-.4 2.56 2.56 0 0 1-.74-.5.9.9 0 0 1-.25-.67 1.4 1.4 0 0 1 .2-.75 1.3 1.3 0 0 1 .55-.46 2 2 0 0 1 .79-.15 3.8 3.8 0 0 1 1 .17l-.07.72a1.31 1.31 0 0 0-.4-.16 1.83 1.83 0 0 0-.45-.07 1 1 0 0 0-.55.14.44.44 0 0 0-.22.4.52.52 0 0 0 .2.44 5.65 5.65 0 0 0 .7.37 2.78 2.78 0 0 1 .75.5 1.09 1.09 0 0 1 .25.75 1.24 1.24 0 0 1-.22.76 1.35 1.35 0 0 1-.56.47 1.86 1.86 0 0 1-.75.15 2.45 2.45 0 0 1-1.21-.25m6.27.15V32h.86v2.54h2.87V32h.86v6.07h-.86V35.3h-2.87v2.77Zm6.36-3.43v-.69a2.73 2.73 0 0 1 1.44-.42 1.73 1.73 0 0 1 1.34.45 2 2 0 0 1 .42 1.38v1.84a5.92 5.92 0 0 0 0 .87h-.76v-.58a1.75 1.75 0 0 1-.52.51 1.53 1.53 0 0 1-.83.21 1.84 1.84 0 0 1-1.18-.34 1.25 1.25 0 0 1-.43-1 1.18 1.18 0 0 1 .19-.68 1.48 1.48 0 0 1 .5-.46 2.36 2.36 0 0 1 .66-.24 3.25 3.25 0 0 1 .69-.08h.86a1.28 1.28 0 0 0-.25-.88 1 1 0 0 0-.84-.28 2 2 0 0 0-.68.12 1.77 1.77 0 0 0-.59.33m2.36 1.71V36H113a3.24 3.24 0 0 0-1 .17.66.66 0 0 0-.48.68.61.61 0 0 0 .25.52.91.91 0 0 0 .56.2 1.38 1.38 0 0 0 .67-.15 1 1 0 0 0 .42-.42 1.25 1.25 0 0 0 .14-.59m4.44-2.78v.66h-1.16v2.43a.83.83 0 0 0 .19.58.64.64 0 0 0 .49.21 1 1 0 0 0 .55-.16v.7a2.76 2.76 0 0 1-.69.12 1.42 1.42 0 0 1-1-.32 1.23 1.23 0 0 1-.36-1v-2.56h-1v-.66h1v-1l.81-.26v1.29Zm2-1h-.9v-.91h.9Zm-.85 1h.8v4.44h-.8ZM32.46 7.18h6.46c2.62 0 4.57 1.16 4.57 3.61A3.22 3.22 0 0 1 41 14.11c1.88.39 2.84 1.41 2.84 3.14 0 3.41-3 4.12-5.48 4.12h-5.9Zm3.74 5.63h1c1.23 0 2.5-.31 2.5-1.51s-1.21-1.43-2.46-1.43H36.2Zm0 5.91h1.11c1.37 0 2.8-.21 2.8-1.65s-1.47-1.7-2.76-1.7H36.2ZM48.77 7.18h4.59l5.42 14.23h-4.11l-1.05-3h-5.27l-1.11 3h-3.81Zm2.29 2.93-1.81 5.57h3.53Zm8.24-2.93h4.77l4.75 9.66-.06-9.66h3.42v14.23h-4.61l-4.91-9.73.12 9.73H59.3Zm14.2 0h3.74V13l4.23-5.81H86l-5.2 6.62 5.6 7.61h-4.75L77.28 15v6.46H73.5Zm17.57 0h6.46c2.62 0 4.57 1.16 4.57 3.61a3.21 3.21 0 0 1-2.47 3.32c1.87.39 2.83 1.41 2.83 3.14 0 3.41-3 4.12-5.47 4.12h-5.92Zm3.74 5.63h1c1.23 0 2.5-.31 2.5-1.51s-1.21-1.43-2.46-1.43h-1.04Zm0 5.91h1.11c1.37 0 2.8-.21 2.8-1.65s-1.47-1.7-2.76-1.7h-1.15Zm8.48-11.54H110c2.5 0 4.53 1.14 4.53 3.59a3.31 3.31 0 0 1-2.7 3.58c1.21.33 1.29 1.41 2 3.15l1.36 3.87h-3.9l-.81-2.57c-.76-2.45-1.25-3.06-2.64-3.06H107v5.63h-3.75Zm3.71 5.91h1c1.2 0 2.74 0 2.74-1.65 0-1.33-1.31-1.57-2.74-1.57h-1Zm9.17-5.91H120v14.23h-3.74ZM23.91 0H4.31A4.39 4.39 0 0 0 0 4.47v19.66a4.4 4.4 0 0 0 4.24 4.47H23.9a4.39 4.39 0 0 0 4.31-4.47V4.47A4.39 4.39 0 0 0 23.91 0M6.64 26.31H5.57a2.38 2.38 0 0 1-2.35-2.41V4.59A2.32 2.32 0 0 1 5.5 2.27h2.18a3.7 3.7 0 0 1 3.56 3.78 3.79 3.79 0 0 1-1 2.6l-5.55 5.7 5.2 5.36A3.79 3.79 0 0 1 11 22.33a4.15 4.15 0 0 1-4.31 4m16 0h-9.76a12.86 12.86 0 0 0 1.12-4 7 7 0 0 0-1.57-4.6l-3.31-3.44 3.38-3.54a6.42 6.42 0 0 0 1.68-4.6 6.89 6.89 0 0 0-1.1-3.88h2.35a3.71 3.71 0 0 1 3.57 3.78 3.75 3.75 0 0 1-1 2.6l-5.44 5.64L23.88 26a2.35 2.35 0 0 1-1.26.33M25 22.64l-8.1-8.35 3.86-4A6.85 6.85 0 0 0 22 6.15a7 7 0 0 0-1.11-3.92h1.73A2.38 2.38 0 0 1 25 4.69Z"/></svg>
