<svg xmlns="http://www.w3.org/2000/svg" viewBox="0 0 120 60"><path fill="#7b1622" fill-rule="evenodd" d="M18.91 39H0V21h18.91Zm12.81-11.53a2.75 2.75 0 0 0-2.25-1c-2 0-3.44 1.64-3.44 3.91s1.46 3.91 3.35 3.91A2.83 2.83 0 0 0 31.84 33L34 34.65a5.14 5.14 0 0 1-4.3 2.11 6.07 6.07 0 0 1-6.41-5.71v-.66A6.08 6.08 0 0 1 29 24h.68a5.07 5.07 0 0 1 4 1.78l-2 1.68Zm3.7-3.15H38v12.13h-2.58Zm5 0h4l2.74 7.91 2.76-7.91h4v12.13h-2.68v-9.3l-3.12 9.3h-2l-3-9.3v9.3h-2.7Zm15.86 0h4.44c2.08 0 4.35.45 4.35 3.09a2.72 2.72 0 0 1-2 2.67 2.9 2.9 0 0 1 2.61 3c0 2.53-2.36 3.37-4.48 3.37h-4.91V24.32Zm2.62 4.85h1.91c.8 0 1.64-.34 1.64-1.31s-.94-1.27-1.77-1.27H58.9Zm0 5h2.36c.82 0 1.74-.36 1.74-1.43s-1.25-1.34-2.11-1.34h-2v2.76ZM69 24.52h1.72l6.69 9.89v-9.89h1.36v11.9H77l-6.68-9.89v9.89H69Zm12.68 0H83v11.9h-1.36Zm8 0H91l4.9 11.9h-1.6l-1.2-2.93h-5.82l-1.19 2.93h-1.55l5.09-11.9Zm.62 1.81-2.4 5.86h4.71l-2.29-5.86Zm16.93 9.28a8.72 8.72 0 0 1-4.32 1.11A5.94 5.94 0 0 1 96.74 31a5.23 5.23 0 0 1 0-.56 6 6 0 0 1 5.74-6.25 3.69 3.69 0 0 1 .47 0 5.41 5.41 0 0 1 4 1.57l-1 1.1a4.27 4.27 0 0 0-3.15-1.36 4.67 4.67 0 0 0-4.67 4.67 2.44 2.44 0 0 0 0 .27 4.69 4.69 0 0 0 4.42 4.94h.45a6.63 6.63 0 0 0 2.87-.69v-3.63h-2.66v-1.3h4v5.85Zm6.62-11.09h1.28l4.87 11.9h-1.59l-1.18-2.93h-5.78l-1.19 2.93h-1.55l5.09-11.9Zm.62 1.81L112 32.19h4.71Z"/><path fill="#e21121" fill-rule="evenodd" d="M2.38 23.9h10.14l5.07 5.83-5.07 6.37H2.38l4.54-6.37Z"/><path fill="#fff" fill-rule="evenodd" d="m17.59 29.73-5.07-5.83H2.38l4.54 5.83Z"/></svg>
