<svg xmlns="http://www.w3.org/2000/svg" viewBox="0 0 120 60"><path fill="#ea5c24" fill-rule="evenodd" d="m0 0 41.74 9.02H0V0z"/><path fill="#fed105" fill-rule="evenodd" d="m19.05 0 22.69 9.02H19.05V0z"/><path fill="#f49a13" fill-rule="evenodd" d="M120 25.87 41.74 9.02H120v16.85z"/><path fill="#fed105" fill-rule="evenodd" d="M89.21 25.87 41.74 9.02h47.47v16.85z"/><path fill="#007343" d="M2.91 34.48v8.42h1.24A2.06 2.06 0 0 0 6 42.09a7.16 7.16 0 0 0 .52-3.4A7.05 7.05 0 0 0 6 35.28a2.08 2.08 0 0 0-1.89-.8ZM0 32.63h4.54q2.65 0 3.72 1.35t1.08 4.74c0 2.26-.37 3.84-1.08 4.74s-2 1.34-3.72 1.34H0Zm11.29 5.9v-.16a1.84 1.84 0 0 1 1-1.68 5.48 5.48 0 0 1 2.81-.58 4.68 4.68 0 0 1 2.67.6 2.12 2.12 0 0 1 .85 1.87v4.23c0 .37 0 .73.05 1.06a8.64 8.64 0 0 0 .14.93h-2.42l-.21-1a2.56 2.56 0 0 1-1.08.75 4 4 0 0 1-1.5.28 2.48 2.48 0 0 1-1.88-.71 2.68 2.68 0 0 1-.72-1.91 2.38 2.38 0 0 1 1-2.11 6.41 6.41 0 0 1 3.24-.8h.85v-.39a2.22 2.22 0 0 0-.25-1.23.94.94 0 0 0-.82-.35 1.36 1.36 0 0 0-1 .3 1.18 1.18 0 0 0-.32.89h-2.41Zm4.84 2.06a3.88 3.88 0 0 0-2 .35 1.29 1.29 0 0 0-.55 1.21 1.57 1.57 0 0 0 .27 1 1 1 0 0 0 .76.35 1.3 1.3 0 0 0 1.12-.55 2.69 2.69 0 0 0 .39-1.58v-.76Zm7.17 4.21h-2.7v-7.9a5.87 5.87 0 0 0-.07-.62h2.71l.07.88a2 2 0 0 1 .86-.81 2.87 2.87 0 0 1 1.28-.28 2.83 2.83 0 0 1 1.92.58 2 2 0 0 1 .63 1.7v6.45h-2.7V39a2.3 2.3 0 0 0-.2-1.14.74.74 0 0 0-.69-.31 1.07 1.07 0 0 0-.83.33 1.2 1.2 0 0 0-.31.87v6Zm6.7-6.27v-.16a1.85 1.85 0 0 1 .95-1.68 5.48 5.48 0 0 1 2.81-.58 4.72 4.72 0 0 1 2.68.6 2.14 2.14 0 0 1 .85 1.87V43.87a8.64 8.64 0 0 0 .14.93h-2.38l-.2-1a2.63 2.63 0 0 1-1.08.75 4 4 0 0 1-1.51.28 2.48 2.48 0 0 1-1.88-.71 2.68 2.68 0 0 1-.69-1.94 2.4 2.4 0 0 1 1-2.11 6.48 6.48 0 0 1 3.25-.8h.85v-.39a2.22 2.22 0 0 0-.25-1.23 1 1 0 0 0-.83-.35 1.34 1.34 0 0 0-1 .3 1.14 1.14 0 0 0-.32.89H30Zm4.83 2.06a3.9 3.9 0 0 0-2 .35 1.31 1.31 0 0 0-.55 1.21 1.51 1.51 0 0 0 .28 1 .92.92 0 0 0 .76.35 1.27 1.27 0 0 0 1.11-.55 2.69 2.69 0 0 0 .39-1.58v-.76ZM42 37.2a2.06 2.06 0 0 1 .87-.81 2.83 2.83 0 0 1 1.27-.28 3.38 3.38 0 0 1 1.57.34 1.93 1.93 0 0 1 .9 1 2.54 2.54 0 0 1 .94-1 2.69 2.69 0 0 1 1.32-.33 2.85 2.85 0 0 1 1.93.58 2.07 2.07 0 0 1 .66 1.66v6.44h-2.73V39a2.19 2.19 0 0 0-.2-1.15.75.75 0 0 0-.68-.3 1.12 1.12 0 0 0-.84.33 1.21 1.21 0 0 0-.32.87v6H44V39a2.17 2.17 0 0 0-.21-1.14.76.76 0 0 0-.69-.31 1.08 1.08 0 0 0-.83.33 1.26 1.26 0 0 0-.31.88v6h-2.69v-7.9c0-.21 0-.42-.06-.62h2.7l.07.88Zm15.18-1.09a3.89 3.89 0 0 1 3 1 4.76 4.76 0 0 1 .82 3.27 5.64 5.64 0 0 1-.83 3.62 4 4 0 0 1-3.08 1A4 4 0 0 1 54 44c-.58-.65-.87-1.87-.87-3.63a4.72 4.72 0 0 1 .93-3.29 4.13 4.13 0 0 1 3.08-.97Zm-1.31 4.37a6.82 6.82 0 0 0 .28 2.42 1.08 1.08 0 0 0 2 0 7.07 7.07 0 0 0 .28-2.42 6 6 0 0 0-.28-2.31 1 1 0 0 0-1-.56 1 1 0 0 0-1 .57 6.28 6.28 0 0 0-.27 2.31Zm9.64 4.32h-2.73v-7.9c0-.2 0-.42-.06-.62h2.7l.07.88a2 2 0 0 1 .87-.81 3.3 3.3 0 0 1 3.2.3 2.07 2.07 0 0 1 .66 1.66v6.49h-2.71V39a2.17 2.17 0 0 0-.21-1.14.74.74 0 0 0-.69-.31 1.08 1.08 0 0 0-.83.33 1.25 1.25 0 0 0-.31.87v6Z"/><path fill="#ea5c24" fill-rule="evenodd" d="M89.21 19.24 41.74 9.02h47.47v10.22z"/><path fill="#f49a13" fill-rule="evenodd" d="m19.05 4.11 22.69 4.91H19.05V4.11z"/></svg>
