<svg xmlns="http://www.w3.org/2000/svg" viewBox="0 0 120 60"><path fill="#3686c7" fill-rule="evenodd" d="M15.82 12.56A17.11 17.11 0 0 0 2.5 20.91 17.74 17.74 0 0 0 .05 31.36a17.27 17.27 0 0 0 18.56 16.08 17.6 17.6 0 0 0 12.12-28.2A18.35 18.35 0 0 0 28.66 17a17.9 17.9 0 0 0-5.33-3.32 17 17 0 0 0-7.51-1.1Zm31.63 26.31c2.28.16 4.93-1.61 5.87-2.62a9 9 0 0 0 .06-12.31c-1.22-1.37-4.08-2.89-5.9-2.67h-6.57v17.58Zm-2.85-3.81a21.73 21.73 0 0 0 3 0c4.49-.41 6.08-6.55 2.3-9.13a4.9 4.9 0 0 0-2.24-.87 24.38 24.38 0 0 0-3.08 0v10Zm60.45 3.84h3.74v-3.79h7.42v3.79H120v-6.28a25.25 25.25 0 0 0-.3-5.94 7.42 7.42 0 0 0-14.29-.08 23.38 23.38 0 0 0-.34 5.95v6.35Zm3.74-7.6h7.44c0-1.62.19-3.2-.54-4.44a3.66 3.66 0 0 0-3.16-1.86 3.62 3.62 0 0 0-3.19 1.81c-.74 1.24-.57 2.9-.55 4.49Zm-46.53 7.6H66a36.33 36.33 0 0 1 0-3.79h7.4v3.79h3.74v-6.28c0-1.79.17-4.36-.3-5.94a7.42 7.42 0 0 0-14.29-.08c-.5 1.64-.33 4.14-.33 5.95v6.35ZM66 31.3h7.45c0-1.6.19-3.21-.54-4.45a3.68 3.68 0 0 0-6.36 0C65.8 28 66 29.74 66 31.3Zm17.75-3.17v2.63c0 2.2-.11 6.31 0 8.09h3.65c.09-1.25-.13-10.18.1-10.47A3.72 3.72 0 0 1 91.09 25a3.64 3.64 0 0 1 2.54 1 3.56 3.56 0 0 1 1.17 2.37c.17.1 0 9.42.09 10.46h3.66V28.16a6.35 6.35 0 0 0-.74-2.78 7.4 7.4 0 0 0-13.27-.09 6.4 6.4 0 0 0-.8 2.84Z"/><path fill="#fff" fill-rule="evenodd" d="M7.23 24.9c-.22.63-.09 7.68-.09 9s-.28 1.86 1.93 2.62c5.86 2 11.65-4.79 17.47-1.43.27.15.6.47.68 0V26c0-1 .09-1.28-.56-1.74-5.2-3.62-10.84 2.58-16.13 1.89-2-.26-2.76-1.26-3.3-1.22Z"/></svg>
