<svg xmlns="http://www.w3.org/2000/svg" viewBox="0 0 120 60"><path fill="#20a637" d="M65.21 44.59a5.38 5.38 0 0 1-3.15 4.93 1 1 0 0 1-1.37-.52.93.93 0 0 1 .57-1.23 3.32 3.32 0 0 0 2-3.16 3.32 3.32 0 0 0-6-1.89 3.39 3.39 0 0 0 1.34 5 1 1 0 1 1-.86 1.75 5.21 5.21 0 0 1-2.95-3.86A5.25 5.25 0 0 1 65 43.37a11.15 11.15 0 0 1 .19 1.22Zm-7.22 0a2 2 0 1 1 3.91.06 2 2 0 0 1-2 2 2 2 0 0 1-1.93-2Z"/><path fill="#00aed7" d="M13.09 10a12.94 12.94 0 0 1 13.09 12.78 12.94 12.94 0 0 1-13.09 12.78A12.94 12.94 0 0 1 0 22.78 12.94 12.94 0 0 1 13.09 10Z"/><path fill="#fff" fill-rule="evenodd" d="M20.73 22.39a3 3 0 0 0-3.19-2.8H9.27a.54.54 0 1 1 0-1.07h8.38a2.55 2.55 0 0 0-1.91-2.34 21.27 21.27 0 0 0-7.38 0A3.42 3.42 0 0 0 5.74 19a25.21 25.21 0 0 0 0 7.56 3.62 3.62 0 0 0 3 2.85 37.6 37.6 0 0 0 9.12 0 3.14 3.14 0 0 0 2.53-2.69 19.81 19.81 0 0 0 .35-4.35ZM18 24.18v.47a.55.55 0 0 1-1.09 0v-.47a.74.74 0 0 1-.27-.6.82.82 0 0 1 1.63 0 .82.82 0 0 1-.27.6Z"/><path fill="#fff" d="M72.8 41.72v-.61h1.54v5.83A2.84 2.84 0 0 1 73 49.58a4.07 4.07 0 0 1-4.32-.46c-.11-.09-.21-.19-.33-.3l1-1a2.84 2.84 0 0 0 1.92.66c1.13 0 1.69-.66 1.54-1.88a3 3 0 0 1-3 .42 2.73 2.73 0 0 1-1.48-1.24 3.09 3.09 0 0 1 .48-3.83 3.16 3.16 0 0 1 4.07-.22Zm-.07 2.43a1.45 1.45 0 0 0-1.61-1.63 1.59 1.59 0 0 0-1.67 1.56 1.52 1.52 0 0 0 1.71 1.69 1.43 1.43 0 0 0 1.57-1.62Zm26.1-3.06-2.68 2.56 2.69 3.62h-1.69a.64.64 0 0 1-.35-.27l-1.42-2c-.08-.12-.17-.22-.31-.41-.34.39-.78.7-.92 1.12a4.79 4.79 0 0 0 0 1.53h-1.56v-7.43c0-.45.13-.57.54-.53a8.39 8.39 0 0 0 1 0v4.23c.48-.43.88-.79 1.27-1.16l1.19-1.12a.56.56 0 0 1 .32-.17h1.94ZM87 44.7a1.5 1.5 0 0 0 1.42 1.21 2.25 2.25 0 0 0 1.66-.43c.08-.06.25-.11.31-.07.33.2.64.44 1 .69a3.61 3.61 0 0 1-3.68 1 2.75 2.75 0 0 1-2.24-2.1 3.06 3.06 0 0 1 3.62-3.87 2.83 2.83 0 0 1 2.44 2.3 8.11 8.11 0 0 1 .09 1.26H87Zm3-1.18c-.1-.77-.7-1.13-1.72-1.08A1.18 1.18 0 0 0 87 43.52ZM78.57 41a3.2 3.2 0 0 1 3.28 3 2.92 2.92 0 0 1-1.49 2.82 3.6 3.6 0 0 1-4.12-.44 3 3 0 0 1 .9-5 9.78 9.78 0 0 1 1.43-.38Zm1.64 3.18a1.53 1.53 0 0 0-1.6-1.66 1.59 1.59 0 0 0-1.67 1.67 1.63 1.63 0 0 0 1.66 1.64 1.54 1.54 0 0 0 1.61-1.65Zm2.58-3.09h1.6v7.11a1.62 1.62 0 0 1-1.77 1.8h-1.33v-1.48h.8c.59 0 .7-.15.7-.74v-6.69Zm-61.63.75h1.65a1.27 1.27 0 0 1 1.42 1.33 1.25 1.25 0 0 1-1.42 1.32h-1.15v1.66h-.5ZM22.77 44c.66 0 .95-.27.95-.84s-.31-.85-.95-.85h-1.11V44ZM26 42.79a1.74 1.74 0 1 1-1.52 1.73A1.55 1.55 0 0 1 26 42.79Zm0 .45c-.64 0-1.05.5-1.05 1.28s.41 1.27 1.05 1.27 1-.49 1-1.27-.37-1.28-1-1.28Zm1.82-.35h.47l.58 2.53.86-2.53h.43l.87 2.53.58-2.53h.47l-.77 3.26h-.45L30 43.48l-.91 2.67h-.46Zm6.1-.1a1.46 1.46 0 0 1 1.44 1.62v.25H32.9a1.07 1.07 0 0 0 1 1.15 1 1 0 0 0 1-.66l.39.24a1.42 1.42 0 0 1-1.36.85 1.53 1.53 0 0 1-1.5-1.72 1.55 1.55 0 0 1 1.49-1.73Zm1 1.48a1.14 1.14 0 0 0-.28-.74.87.87 0 0 0-.68-.3 1 1 0 0 0-1 1ZM36 42.89h.45v.27a.73.73 0 0 1 .67-.33 1.39 1.39 0 0 1 .32.05l-.1.5a1 1 0 0 0-.32-.06c-.38 0-.56.26-.56.87v2H36v-3.3Zm3.17-.1a1.46 1.46 0 0 1 1.44 1.62v.25h-2.42a1.07 1.07 0 0 0 1 1.15 1 1 0 0 0 1-.66l.4.24a1.43 1.43 0 0 1-1.37.85 1.52 1.52 0 0 1-1.49-1.72 1.54 1.54 0 0 1 1.49-1.73Zm1 1.48a1.09 1.09 0 0 0-.28-.74.87.87 0 0 0-.68-.3 1 1 0 0 0-1 1Zm2.48-1.48a1.2 1.2 0 0 1 1 .44v-1.57h.47v4.49h-.45v-.33a1.21 1.21 0 0 1-1 .42 1.75 1.75 0 0 1 0-3.45Zm1 1.41a1 1 0 0 0-1-1c-.57 0-1 .51-1 1.28s.4 1.27 1 1.27a1 1 0 0 0 .93-1v-.55ZM47 45.82v.33h-.46v-4.49H47v1.57a1.2 1.2 0 0 1 .95-.44 1.75 1.75 0 0 1 0 3.45 1.21 1.21 0 0 1-1-.42Zm1-2.58a1 1 0 0 0-1 1v.63a1 1 0 0 0 .93 1c.61 0 1-.5 1-1.27s-.4-1.28-1-1.28Zm2.84 2.63-1.24-3h.51l1 2.43 1-2.43h.5l-1.93 4.65h-.5Zm12.63-24.53a4.16 4.16 0 1 0-4.18 4h.06a3.92 3.92 0 0 0 4.16-3.64v-.39Zm-12.35 0c0-4.26 3.45-7.51 8.23-7.51s8.23 3.27 8.23 7.51-3.42 7.52-8.23 7.52-8.23-3.27-8.23-7.52Zm-6.54.78c0 1.76-1.83 3.2-4.16 3.2a3.86 3.86 0 0 1-4.25-3.39 2.75 2.75 0 0 1 0-.64c0-2.32 1.74-3.92 4.43-3.92 2.18 0 4 1.46 4 3.11Zm.16-8.3v1.69a6.76 6.76 0 0 0-4.87-1.68 7.49 7.49 0 1 0 .14 15A6.32 6.32 0 0 0 44.69 27v1.44c0 1.95-1.73 3.38-4 3.38A6.38 6.38 0 0 1 36 30.24l-2.65 2.49a10.25 10.25 0 0 0 7.47 2.83c4.65 0 7.84-3 7.84-7.1V13.82Zm25.26.44h3.9v1.26h.06a6.61 6.61 0 0 1 4.7-1.66 7.52 7.52 0 0 1 0 15 7.2 7.2 0 0 1-4.56-1.51v7.15H70V14.26Zm8 3.11c-2.19 0-4 1.48-4 3.09v1.8c0 1.71 1.75 3.13 4 3.13a4 4 0 1 0 .42-8 2.94 2.94 0 0 0-.42 0ZM93.86 20c2.67-.35 3.47-.72 3.47-1.45 0-.94-1-1.5-2.59-1.5a3.43 3.43 0 0 0-3.63 2.57l-3.84-.78c.55-2.9 3.6-5 7.36-5 4.26 0 6.9 2.13 6.9 5.58v9h-3.66v-1.53h-.05a6.06 6.06 0 0 1-4.92 2c-3.22 0-5.46-1.71-5.46-4.26s1.84-4 6.42-4.62Zm3.8 1.5h-.06c-.36.51-1.09.81-3.11 1.15-2.39.44-3.27.9-3.27 1.73s.71 1.23 2.25 1.23c2.34 0 4.15-1.06 4.15-2.41v-1.7Zm11.23 6.2-6.73-13.41h4.49l4.41 9.29h.07l4.36-9.29H120L109.92 34.5h-4.49Z"/></svg>
