<svg xmlns="http://www.w3.org/2000/svg" viewBox="0 0 120 60"><path fill="#20a3dd" d="M20.27 40.88A10.43 10.43 0 0 0 25.59 32c0-8.06-7.92-10.94-7.92-10.94a10.39 10.39 0 0 0-5.24-1.31h-.56a12.38 12.38 0 0 1 7.3-2.44c6.19 0 10.88 5.84 10.88 11.3a12.38 12.38 0 0 1-9.78 12.26Zm-4 0a12.17 12.17 0 0 1-8.75-7.39 8.38 8.38 0 0 0 6 2.31 7.83 7.83 0 0 0 8-7.73 8.44 8.44 0 0 0-.81-3.75 9.81 9.81 0 0 1 2.79 7.08c0 4.13-3.12 8-7.2 9.48Zm-3.6.66c-4.8 0-9.88-4.62-9.88-10.36a9.51 9.51 0 0 1 3.13-7.49 8.72 8.72 0 0 0-.78 3A9.73 9.73 0 0 0 5.06 28a14 14 0 0 0 8.8 13.43 9.23 9.23 0 0 1-1.18.08Zm.47-20.08c3.49 0 6.19 3.41 6.19 6.45 0 4.11-2.53 6.86-6.07 6.86-3.17 0-6-2.91-6-7a6.06 6.06 0 0 1 5.88-6.26Zm5-5.44c-3.27 0-7.9 1.39-10.64 4.79C3.16 22.67 0 26.86 0 31.44 0 38.55 6.1 42.8 13.46 42.8a13.67 13.67 0 0 0 3.44-.55 15.13 15.13 0 0 0 2.46.2 13 13 0 0 0 13.06-12.88c0-7.52-6-13.57-14.29-13.57Zm25.74 20.82c0 2.29-1.47 3.58-4.59 3.68V44c3.54 0 8-1.91 8-7.16V19.77h-3.41v17.07Zm9.89-10c.23-2.12 1.14-4 3.42-4s3.19 1.88 3.42 4Zm10.45.32c0-2.7-1.5-7.67-7-7.67-5.24 0-7 4.36-7 8.87S52 37.19 58 37.19a10.22 10.22 0 0 0 6.08-2.07l-1.75-2.71A8.16 8.16 0 0 1 58 33.83a4 4 0 0 1-4.19-3.67h7.25c2.15 0 3.16-.84 3.16-3Zm9.37-7.67a8.09 8.09 0 0 0-6.5 3.51v14h3.44V24.09a4.14 4.14 0 0 1 3.06-1.29A3.34 3.34 0 0 1 77 26.16V37h3.45V26.16a6.57 6.57 0 0 0-6.83-6.71ZM84.24 37h3.44V19.64h-3.44Zm29.52-10.51c-1.18-.32-2.7-.9-2.7-2.09 0-.87.91-1.59 2.63-1.59a11.86 11.86 0 0 1 4.43 1.13l1.1-3.06a13.67 13.67 0 0 0-5.53-1.42c-3 0-6.11 1.51-6.11 4.94 0 3.15 2.8 4.74 5.56 5.41 1.5.32 3.38.94 3.38 2.17s-1.52 1.87-3 1.87a12.77 12.77 0 0 1-5-1.75l-1.33 3.19a14.37 14.37 0 0 0 6.34 1.91c3.15 0 6.47-1.49 6.47-5.22s-3.64-4.85-6.24-5.49Zm-12.27 4a3.36 3.36 0 0 1-6.72 0V19.64h-3.45v10.84a6.58 6.58 0 0 0 6.79 6.71 6.57 6.57 0 0 0 6.78-6.71V19.64h-3.44v10.84Z"/></svg>
