<svg xmlns="http://www.w3.org/2000/svg" viewBox="0 0 120 60"><path fill="#e6282d" d="M57.05 47.82a14.52 14.52 0 0 1-2.16-1.26c.16-.16 6.08-1.44 10.22-2.2a289 289 0 0 1 30.19-3.75c4.37-.32 20.16-.33 22.9 0l1.8.21h-2c-3.6.06-11.84.64-18.3 1.29a270.47 270.47 0 0 0-35.64 6c-2 .5-3.9.91-4.19.91a12.2 12.2 0 0 1-2.8-1.18Zm17.09-12.39c-.18-.51.59-.74.92-.88A4.88 4.88 0 0 0 78 31.63c.17-.58.69-3.85 1.15-7.27s.88-6.06.92-6.21a.68.68 0 0 1 .61-.57h3.42c.71-.07.57.71.52 1.21s-.23 1.84-.42 3.31c-.24 1.81-.6 4.5-.79 6-.41 3.34-.69 4.37-1.41 6.1a7.15 7.15 0 0 1-4.83 4.09c-.51.16-2 .66-2.13.22-.33-1.07-.56-2-.85-3.08Zm29-1.12c-1.68-.68-1.6-3.32.16-4.41a3 3 0 0 1 3.49.25c1.98 2-.94 5.26-3.66 4.16Zm-12.72-1.58c-5-.85-4.92-6.78-3.81-10.17 1.39-3.93 4.77-5.07 7.55-5.17 2.34-.08 5.59.36 6.41.86.23.14.12 1.51-.51 6.55A59.2 59.2 0 0 1 99 31.5c-.79 1-6 1.7-8.58 1.23ZM94.73 28c.53-2 .75-3.79 1.13-5.89 0-.72-1.25-.72-1.56-.72-1.61 0-2.56.9-3.06 2.92-.69 2.77 0 4.31 2 4.31.63-.06 1.28 0 1.48-.62Zm-36.14 3.13c1.35-3.32 6.78-15.23 8.08-17.69a1.45 1.45 0 0 1 1.33-.78c1.28-.06 2.38 0 3.5 0s1.18.42 1.32 1.29 2.44 14.41 3 17.66c.07.54.2.71-.5.71-1 0-3.3.13-4.09.07a.49.49 0 0 1-.45-.39 12.31 12.31 0 0 1-.21-1.57l-.15-1.62h-5.8L64 30.33c-.23.55-.48 1.1-.66 1.46a.77.77 0 0 1-.61.55c-.71 0-3.22.09-4.17 0-.47-.22 0-.92.08-1.22Zm11.28-6.87c-.08-.88-.64-5.39-.77-6.06 0-.07 0-.05-.08 0a65 65 0 0 0-2.52 6.16c0 .15.06.2.2.19.47 0 2.39-.07 3-.09.14-.02.16-.07.17-.2Zm33.48 2.19c.08-.59.24-2.19.37-3.56s.33-3.5.45-4.74c.09-.95.17-1.86.2-2.34s.59-.49.93-.49c1.14 0 2.21-.06 3.23 0 .48.05.69.16.69.45-.46 2.38-2.12 10.59-2.25 11.1s-.15.56-.82.6-1.49 0-2.32 0c-.47 0-.6-.15-.48-1.09Zm-22.93-12.2a3.26 3.26 0 0 1 2.09-3 2.53 2.53 0 0 1 2.73.34c1.06 1.24.36 3.08-.88 4-1.59 1.1-3.91.45-3.94-1.36ZM50 33.62c-.34-.77-1.46-3.23-2.47-5.45a25.43 25.43 0 0 1-1.73-4.34c.07-.17 1.2-1.59 2.52-3.14l2.14-2.54c.14-.17.3-.38.49-.38 1.29 0 2.63.09 3.86.07.92 0 1.38-.06.7.63-.43.54-1.29 1.54-2.27 2.63-1.42 1.58-2.59 2.91-2.59 3s1.07 2.41 2.37 5.24c1 2.22 1.87 4.2 2.15 5 .12.29 0 .53-.24.59a10.88 10.88 0 0 1-2 .11h-1.6c-.39 0-.68 0-.83-.36l-.5-1.06ZM2.24 32A3.54 3.54 0 0 1 0 29c-.07-.82 1.27-11.9 1.86-15.43.15-.82.21-.87 1-.87h3.55c.64 0 .52.41.47.9C6.79 14.65 6.45 17 6 20c-.76 5.35-.95 7.24-.77 7.53s.75.39 4.33.45l3.21.05c.76-.05.92.14.84.83-.19 1.14-.29 2.05-.47 3.07-.13.64-.54.47-1.18.51l-3.74.06c-4.8.06-4.83 0-6-.53Zm36.93.41a21.31 21.31 0 0 1 .3-2.88l1-7.12c.94-6.88 1.25-9 1.38-9.75s.14-.88 1-.88h2.75c1.29 0 1.12-.07.8 1.93-.12.75-.53 4.08-.91 6.88-.94 7-1.56 11.36-1.68 11.7s-4.5.42-4.66.11Zm-24.41-.54c.6-5 1.17-8.84 1.83-13.52.05-.56.6-.63 1.24-.63h2.16c1.34 0 1.69.18 1.55 1.09-.59 4.39-1.33 8.32-2.1 12.79-.14.75-.32.73-1 .73h-3.08c-.44-.08-.54-.13-.56-.49Zm9.47-11.27c.37-1.94.63-2.25 1.16-2.6s5.54-.89 7.22-.67a6.13 6.13 0 0 1 .67.13c4.93 1.18 4.17 6.8 3.85 9.38s-.67 4.72-.74 5c-.12.49-.22.51-2.46.51a15.41 15.41 0 0 1-1.57-.06c-.69 0-.75-.21-.68-.71.25-2.06.59-3.84.84-5.77.34-2.63.25-5.23-3-4.67-.56.14-.71.18-.79.74-.4 2.6-.76 5.29-1.13 7.83-.08.6-.19 1.24-.31 1.8 0 .14 0 .27-.07.37s-.11.23-.18.11c-.52-1-3-.8-4-.09-.51.35-.62.55-.41-.55 0-.23.08-.46.11-.69.51-3.36.85-6.66 1.48-10.06Zm-7-5.76A3.12 3.12 0 0 1 20.14 11c2.48-.17 3.16 3.26.63 4.81-1.47.68-3 .54-3.54-1Z"/></svg>
