<svg xmlns="http://www.w3.org/2000/svg" viewBox="0 0 120 60"><defs><linearGradient id="a" x1="51.33" x2="115.62" y1="26.32" y2="52.93" gradientTransform="matrix(1 0 0 -1 .1 60.99)" gradientUnits="userSpaceOnUse"><stop offset="0" stop-color="#f6ad0a"/><stop offset=".2" stop-color="#fbea26"/><stop offset=".41" stop-color="#f6ad0a"/><stop offset=".66" stop-color="#fbea26"/><stop offset=".79" stop-color="#f6ad0a"/><stop offset="1" stop-color="#fbea26"/></linearGradient></defs><path fill="#0e62ad" d="M89 32.45h4.18v14.63H89ZM78.74 47.08V34.62c0-.76-.07-1.48-.12-2.16h3.83l.16 2.62a4 4 0 0 1 1.74-2 5.83 5.83 0 0 1 3-.69h.12v3.84h-.91a3.74 3.74 0 0 0-2.56.81 2.83 2.83 0 0 0-1 2.14v7.9Zm-6.32-14.63h4.18v14.63h-4.18Zm-6.78 14.63L65.5 45a5.22 5.22 0 0 1-1.86 1.77 5 5 0 0 1-2.47.6 5.13 5.13 0 0 1-4.24-2.08 8.68 8.68 0 0 1-1.63-5.51 8.83 8.83 0 0 1 1.59-5.52 5.09 5.09 0 0 1 4.23-2.07 5.2 5.2 0 0 1 2.49.57 5 5 0 0 1 1.83 1.71v-8.38h4.16v19.8c0 .46.06.84.11 1.15Zm-6.1-7.29a6.72 6.72 0 0 0 .77 3.51 2.4 2.4 0 0 0 2.15 1.25 2.56 2.56 0 0 0 2.24-1.28 6.35 6.35 0 0 0 .83-3.48 6.43 6.43 0 0 0-.83-3.5A2.56 2.56 0 0 0 62.46 35a2.39 2.39 0 0 0-2.15 1.26 6.81 6.81 0 0 0-.77 3.52Zm-19.77 7.29V33.94c0-.46-.06-.95-.1-1.49h4l.09 2.19a5.22 5.22 0 0 1 1.92-1.93 5.57 5.57 0 0 1 2.73-.62 4.35 4.35 0 0 1 3.53 1.38A6.45 6.45 0 0 1 53 37.66v9.42h-4.08v-8.84a3.88 3.88 0 0 0-.56-2.35 2.12 2.12 0 0 0-1.79-.71 2.55 2.55 0 0 0-1.94.79 3 3 0 0 0-.74 2.1v9Zm-39.66 0v-13.3c0-.48 0-.9-.08-1.33H4l.11 2.19A5.22 5.22 0 0 1 6 32.71a5.55 5.55 0 0 1 2.72-.62 4.91 4.91 0 0 1 2.75.74A4.22 4.22 0 0 1 13.09 35a5 5 0 0 1 1.83-2.17 5.46 5.46 0 0 1 2.88-.69 4.35 4.35 0 0 1 3.53 1.38 6.33 6.33 0 0 1 1.17 4.19v9.42h-4.16v-8.89a4 4 0 0 0-.55-2.35 2.16 2.16 0 0 0-1.8-.71 2.48 2.48 0 0 0-1.92.79 3 3 0 0 0-.73 2.1v9H9.19v-8.83a3.88 3.88 0 0 0-.55-2.34 2.06 2.06 0 0 0-1.76-.72A2.46 2.46 0 0 0 5 36a3 3 0 0 0-.71 2.1v9Zm33.63-1.53a9.81 9.81 0 0 1-3.61 1.8 6.22 6.22 0 0 1-1.41.15 4 4 0 0 1-3-1.3 4.65 4.65 0 0 1-1.22-3.31 5 5 0 0 1 .62-2.63 4.39 4.39 0 0 1 1.77-1.61 9.06 9.06 0 0 1 2.81-.84c1.11-.16 2.27-.29 3.47-.36v-.08c0-3.5-4.91-3.06-7-1.57L25.4 33a11.65 11.65 0 0 1 5.26-1.18c3.51 0 6.49 1.72 6.49 5.82v9.43h-3.41v-1.52Zm-.33-2.86v-2.82c-.64.07-1.33.15-2.07.25a9.4 9.4 0 0 0-1.69.37 2.33 2.33 0 0 0-1.07.75 2.09 2.09 0 0 0-.38 1.3c0 3.7 4.26 2.5 5.21.15Z"/><path fill="url(#a)" fill-rule="evenodd" d="M46.44 23.13c1.28 1.46 3.67 5.41 6.5 5.17 6.62-.57 10.4-7.86 18.57-7.34 3.36.22 4.95 5.95 8.28 6.44 5.25.78 10.28-7.43 18.84-7 3.52.19 5 6.2 8.48 6.55 3.27.33 8.39-4.39 12.89-6.83-1.15-2-3.28-5-5.54-5.18-4.47-.31-8 5.49-12 4.48-2.29-.59-4.89-7-8.65-7-7 0-11.78 7-17.94 7.59-3.49.31-5.17-7.59-9.85-6.86-6.41 1-13 6.36-19.62 9.9Z"/></svg>
