<svg xmlns="http://www.w3.org/2000/svg" viewBox="0 0 120 60"><path fill="#4c2f88" fill-rule="evenodd" d="M40.67 11.1h15.44v6.29h-3.8l9 21.72 8.86-21.7h-3.89v-6.29h12.36v3.59L63.75 50c-3.59 0-5.92-1.31-7.17-4.08L44.33 17.41h-3.66V11.1ZM19.44 10a19.68 19.68 0 0 1 19.44 19.9 19.68 19.68 0 0 1-19.44 19.89A19.67 19.67 0 0 1 0 29.9 19.67 19.67 0 0 1 19.44 10Zm-.06 6.51c-6.77 0-12.26 6.06-12.26 13.49s5.49 13.54 12.26 13.54S31.64 37.52 31.64 30s-5.49-13.49-12.26-13.49ZM100.56 10A19.67 19.67 0 0 1 120 29.9a19.45 19.45 0 1 1-38.88 0A19.68 19.68 0 0 1 100.56 10Zm-.06 6.51c-6.77 0-12.26 6.06-12.26 13.53s5.49 13.54 12.26 13.54 12.26-6.06 12.26-13.58-5.49-13.49-12.26-13.49Z"/></svg>
