<svg xmlns="http://www.w3.org/2000/svg" viewBox="0 0 120 60"><path fill="#fff" d="M115.09 35.08V23.47H96v-3.88h19v-7.74H84.61v19.36h19v3.87h-19v7.74h30.48Zm3-2.42v12.58a1 1 0 0 1-.28.69 1 1 0 0 1-.68.28h-12.37v1.94h14.29a1 1 0 0 0 .67-.29 1 1 0 0 0 .28-.68V32.66ZM15.24 7.5H1a1 1 0 0 0-.67.28 1 1 0 0 0-.33.69V23h1.9V10.4a1 1 0 0 1 .28-.68 1 1 0 0 1 .68-.29h12.38Zm12.23 45h7.62V35.08h-7.62Zm6.67-40.65H16v7.74h11.47v11.62h7.62V12.82a1 1 0 0 0-.28-.69 1 1 0 0 0-.68-.28Zm-21.91 0H5.57a1 1 0 0 0-1 1v29a1 1 0 0 0 1 1h18.09v-7.76H12.23V11.86Zm3.82 19.36h7.61v-7.74h-7.61ZM18 25.4h3.81v3.87H18Zm21-13.55v7.74h22.76v3.88H38.9v19.35h7.62v-11.5L58 42.82h11.38L57.45 31.21h11.92V11.85H38.9Zm34.29 31h7.62v-31h-7.72Z"/></svg>
