<svg xmlns="http://www.w3.org/2000/svg" viewBox="0 0 120 60"><path fill="#e95030" fill-rule="evenodd" d="M5.8 12h38.69a4.71 4.71 0 0 1 4.68 4.7v27.2a4.7 4.7 0 0 1-4.68 4.7H4.68A4.7 4.7 0 0 1 0 43.89v-33.6a2.33 2.33 0 0 1 2.21-2.22L37.88 3.5a2.22 2.22 0 0 1 2.21 2.22v3.8H3.57C3.57 11.12 4 12 5.8 12Zm21.7 29.8a11.17 11.17 0 0 1-9.71-2.92c-1-1.11.63-2.78 1.66-1.66a8.91 8.91 0 0 0 6.48 2.37c2.84-.06 5.36-2.65 3.75-5.55-2.23-4-7.72-2.89-10.55-6-2.28-2.54-1.2-6.54 1.48-8.31s7.63-1.78 9.93.87c1 1.14-.67 2.82-1.66 1.67-1.86-2.14-6.25-1.85-7.93.35-2.38 3.15 1.19 4.84 3.68 5.6 3.43 1 7.23 2.95 7.85 6.9a6.14 6.14 0 0 1-4.98 6.67Zm66.62-31.48a4.7 4.7 0 0 0-3.48 1.53v-1.09a.78.78 0 0 0-1.56 0V23.6a.78.78 0 0 0 1.56 0v-5.72a4.69 4.69 0 0 0 3.48 1.52 4.54 4.54 0 1 0 0-9.08Zm0 7.44a2.89 2.89 0 0 1-.48-5.76h.45a3 3 0 0 1 2.72 1.73 2.83 2.83 0 0 1 .24 1.16 2.93 2.93 0 0 1-3 2.89ZM82.56 19.4a4.54 4.54 0 1 1 4.66-4.54 4.59 4.59 0 0 1-4.66 4.54Zm0-7.44a2.9 2.9 0 1 0 3 2.9 2.95 2.95 0 0 0-3-2.86ZM120 14.77a4.2 4.2 0 0 0-3.4-4.38 4.82 4.82 0 0 0-5.08 2.43 4.78 4.78 0 0 0 1.21 5.69c1.85 1.39 4.72 1 6.62-.07.88-.48.09-1.8-.79-1.32a5.42 5.42 0 0 1-4.11.54 2.61 2.61 0 0 1-1.74-2.13h6.52a.78.78 0 0 0 .78-.76Zm-7.25-.77v-.17a3.1 3.1 0 0 1 3-2 2.5 2.5 0 0 1 2.59 2.17Zm-3.19.78a4.22 4.22 0 0 0-3.41-4.39 4.8 4.8 0 0 0-5.07 2.43 4.76 4.76 0 0 0 1.2 5.69c1.85 1.4 4.73 1 6.63-.07.88-.48.09-1.8-.8-1.32a5.41 5.41 0 0 1-4.11.54 2.62 2.62 0 0 1-1.74-2.12h6.52a.79.79 0 0 0 .78-.77Zm-7.25-.78a1.09 1.09 0 0 1 0-.17 3.08 3.08 0 0 1 3-2A2.5 2.5 0 0 1 107.9 14Zm-26.25-.71v5.31a.79.79 0 0 1-1.57 0v-5.2a1.87 1.87 0 0 0-1-1.51 3.89 3.89 0 0 0-4.35 1.27v5.44a.79.79 0 0 1-1.57 0V5a.79.79 0 0 1 1.57 0v6.12a5.37 5.37 0 0 1 5.52-.36 2.91 2.91 0 0 1 1.35 2.56Zm-11-7.69c-1.53-1.7-4.76-1.74-6.63-.55s-2.51 3.71-1 5.33c1.89 2 5.56 1.31 7.05 3.88 1.08 1.86-.61 3.52-2.5 3.56a6.15 6.15 0 0 1-4.34-1.53.77.77 0 0 0-1.1 1.07 7.67 7.67 0 0 0 6.46 1.9 4 4 0 0 0 3.33-4.32c-.42-2.54-2.95-3.76-5.25-4.43-1.66-.49-4.05-1.58-2.45-3.6a3.87 3.87 0 0 1 5.29-.22c.67.73 1.77-.34 1.11-1.07Zm40.86 50.9h-5l5.33-10.12-8.75-16.6h5.4l6 11.47 6-11.47h5Zm-49.6-7.91h4.17v-7.67h5.63c5.83 0 10.56-4.11 10.56-9.18S72 22.56 66.12 22.56h-9.8Zm4.17-11.86v-10h5.63c3.17 0 5.74 2.23 5.74 5s-2.57 5-5.74 5ZM92.31 30H96v18.43h-3.69v-2.08a9.41 9.41 0 1 1 0-14.33v-2.08Zm-6.06 3.8a5.44 5.44 0 1 1-5.41 5.44 5.42 5.42 0 0 1 5.41-5.49Z"/><path fill="#fff" fill-rule="evenodd" d="M27.5 41.79a11.17 11.17 0 0 1-9.71-2.92c-1-1.11.63-2.78 1.66-1.66a8.91 8.91 0 0 0 6.48 2.37c2.84-.06 5.36-2.65 3.75-5.55-2.22-4-7.72-2.89-10.55-6-2.28-2.55-1.2-6.55 1.48-8.32s7.63-1.78 9.93.87c1 1.14-.67 2.82-1.66 1.67-1.86-2.14-6.25-1.85-7.92.35-2.38 3.15 1.18 4.84 3.68 5.6 3.42 1 7.22 2.95 7.85 6.9a6.15 6.15 0 0 1-5 6.72Z"/></svg>
