<svg xmlns="http://www.w3.org/2000/svg" viewBox="0 0 120 60"><path fill="#e62533" fill-rule="evenodd" d="M9.61 24.17v12.4c0 1.74 0 2.87.69 3.46-2.46 1-4.63.26-4.63-3.46v-12.4H0v-1.28c0-1.83.85-2.66 2.2-2.66h3.09c3.17 0 4.32 2.22 4.32 3.94Zm78.1 5.37c0-3 3.07-4.19 5.67-4.19a8.52 8.52 0 0 1 4.39 1.15v3.35a8.08 8.08 0 0 0-4.32-1.51c-2.65-.07-3.45 2.33.73 3.11 2.53.47 4.49 2.17 4.49 4.41 0 3.32-3 4.6-6 4.6a7.91 7.91 0 0 1-5-1.58v-3.4a7.68 7.68 0 0 0 4.68 2.08c3.45-.12 3.64-2.5.09-3.23-3.82-.78-4.74-2.57-4.74-4.79ZM54.4 25.35a7.54 7.54 0 1 1-7.51 7.54 7.51 7.51 0 0 1 7.51-7.54Zm0 3.46A4 4 0 0 1 58.09 33a3.71 3.71 0 1 1-7.37 0 4 4 0 0 1 3.68-4.19ZM34.09 19.5H38V32l5.15-6.41h4.35l-4.79 6a3.45 3.45 0 0 1-2.13 1.27 3.71 3.71 0 0 1 2.22 1.27l5.2 6h-3.12A3 3 0 0 1 42.71 39l-4.65-5.35v6.55h-4V19.52Zm72.56 5.85c3.69 0 6.66 2.24 6.76 7.8 0 .82-.35.94-.64.94h-9.38a4.19 4.19 0 0 0 3.24 3.18 7.63 7.63 0 0 0 5.72-1.58V39a8.27 8.27 0 0 1-5.72 1.51 7.47 7.47 0 0 1-7-7.57 7.31 7.31 0 0 1 7-7.56Zm2.91 6a3 3 0 0 0-2.91-3.07c-1.51 0-2.78 1.3-3.21 3.07h6.12Zm9.75-9v14.22c0 1.74 0 2.87.69 3.46-2.46 1-4.63.26-4.63-3.46V19.5H117c1.63 0 2.31 1.16 2.31 2.88Zm-100.41 3c3.68 0 6.66 2.24 6.75 7.8 0 .82-.35.94-.63.94h-9.38a4.19 4.19 0 0 0 3.23 3.18 7.63 7.63 0 0 0 5.72-1.58V39a8.27 8.27 0 0 1-5.72 1.51 7.46 7.46 0 0 1-7-7.57 7.3 7.3 0 0 1 7-7.56Zm2.9 6a3 3 0 0 0-2.9-3.07 3.6 3.6 0 0 0-3.21 3.07h6.11Zm45.9.56v8.25h-3.94V25.63h1.65c1.61 0 2.29 1.15 2.29 2.87 0-3.18 6-5.16 8.15-.54 1.54-3.56 9.69-4.38 9.69 2.88v9.31h-4v-9.22c0-3.7-5-2.5-5 .95v8.25h-4v-9.22c0-3.7-5-2.5-5 .94Zm-36.14-9.53v14.19c0 1.74 0 2.87.68 3.46-2.45 1-4.63.26-4.63-3.46V19.5h1.66c1.6 0 2.29 1.16 2.29 2.88Zm-21.31.87c0 .52.33.89 1.3.89H14c1.11 0 1.33-.56 1.33-1.25v-2.68h-7a4.31 4.31 0 0 1 2 3Z"/></svg>
