<svg xmlns="http://www.w3.org/2000/svg" viewBox="0 0 120 60"><defs><linearGradient id="a" x1="14025.2" x2="14390.46" y1="-2195.99" y2="-2195.99" gradientTransform="matrix(.03 0 0 -.03 -387.68 -44.36)" gradientUnits="userSpaceOnUse"><stop offset="0" stop-color="#333765"/><stop offset=".18" stop-color="#623471"/><stop offset=".21" stop-color="#623471"/><stop offset=".27" stop-color="#623471"/><stop offset="1" stop-color="#a9487c"/></linearGradient><linearGradient id="b" x1="14207.83" x2="14207.83" y1="-1802.89" y2="-2161.78" gradientTransform="matrix(.03 0 0 -.03 -387.68 -44.36)" gradientUnits="userSpaceOnUse"><stop offset="0" stop-color="#df5e33"/><stop offset=".1" stop-color="#df5e33"/><stop offset=".2" stop-color="#df5e33"/><stop offset="1" stop-color="#d52f2d"/></linearGradient><linearGradient id="c" x1="14028.85" x2="14386.86" y1="-2409.71" y2="-2409.71" gradientTransform="matrix(.03 0 0 -.03 -387.68 -44.36)" gradientUnits="userSpaceOnUse"><stop offset="0" stop-color="#ac2f43"/><stop offset=".34" stop-color="#c13350"/><stop offset="1" stop-color="#d9345d"/></linearGradient></defs><path fill="#da4d7d" d="M0 23.65v.58l9.87 5.76V17.88L0 23.65z"/><path fill="#f1b545" d="m0 11.54 9.87-5.77L0 0v11.54z"/><path fill="#ea9332" d="M0 11.54v.57l9.87 5.77V5.77L0 11.54z"/><path fill="url(#a)" d="M20.22 23.94V11.82L9.87 17.88l10.35 6.06z"/><path fill="url(#b)" d="M9.87 5.77v12.11l10.35-6.06L9.87 5.77z"/><path fill="url(#c)" d="m9.87 30 10.35-6.06-10.35-6.06V30z"/><path fill="#275498" d="m81 39.92-4.41-6.63L81.06 27h-1.55a3.66 3.66 0 0 0-3.12 1.58c-.45.69-1.53 2.36-1.54 2.36v.07l-2.53-4h-4l4.54 6.49-4.41 6.43h3.66L74.8 36l2.66 3.92Zm4.54 0V26.65a6.38 6.38 0 0 0-2.7 1.42 1.77 1.77 0 0 0-.53 1.14v10.7h3.23Zm16.46-.58a3.33 3.33 0 0 0 2.48.8 5.31 5.31 0 0 0 2.76-.69v-2.24a3.93 3.93 0 0 1-1.66.37 1.32 1.32 0 0 1-1-.38 1.52 1.52 0 0 1-.32-1.08V29.7H107l1.49-2.7h-4.25v-4.89a7.15 7.15 0 0 0-2.69 1.61 2.29 2.29 0 0 0-.53 1.66v11a3.89 3.89 0 0 0 1 3Zm12.5-12.48a8 8 0 0 0-3.78.95 1 1 0 0 0-.43.84v1.73a12.82 12.82 0 0 1 3.67-.65 3.58 3.58 0 0 1 2.31.56 2.33 2.33 0 0 1 .69 1.77V32.35s-1.43-.16-2.92-.16a5.9 5.9 0 0 0-3.7 1 4 4 0 0 0-1.41 3 3.83 3.83 0 0 0 1.34 3 5.57 5.57 0 0 0 3.29.91 7 7 0 0 0 2.64-.43 2.48 2.48 0 0 0 .73-.41l.08-.08v.67H120V32.4a5.71 5.71 0 0 0-1.21-4.12c-1.18-1.22-2.57-1.42-4.29-1.42Zm-1.68 10.73a1.64 1.64 0 0 1-.72-1.43 1.89 1.89 0 0 1 .25-.95 2.52 2.52 0 0 1 2.27-1h.27a6.68 6.68 0 0 1 2 .26v1.06a2.19 2.19 0 0 1-1.28 2.07 3.71 3.71 0 0 1-1.47.32 2.68 2.68 0 0 1-1.38-.36ZM93.15 26.86a7.92 7.92 0 0 0-3.77.95 1 1 0 0 0-.44.84v1.73a12.82 12.82 0 0 1 3.67-.65 3.57 3.57 0 0 1 2.31.56 2.32 2.32 0 0 1 .69 1.77v.29s-1.43-.16-2.92-.16a5.93 5.93 0 0 0-3.71 1 4 4 0 0 0-1.41 3 3.8 3.8 0 0 0 1.35 3 5.57 5.57 0 0 0 3.29.91 6.85 6.85 0 0 0 2.62-.43 2.45 2.45 0 0 0 .75-.41l.09-.08v.67h3V32.4a5.79 5.79 0 0 0-1.2-4.11c-1.21-1.23-2.58-1.43-4.31-1.43Zm-1.68 10.73a1.64 1.64 0 0 1-.72-1.43 1.79 1.79 0 0 1 .25-.95 2.53 2.53 0 0 1 2.26-1h.28a6.8 6.8 0 0 1 2.06.26v1.06a2.19 2.19 0 0 1-1.29 2.07 3.71 3.71 0 0 1-1.47.32 2.67 2.67 0 0 1-1.37-.36ZM61.71 26.86a8 8 0 0 0-3.78.95 1.06 1.06 0 0 0-.43.84v1.73a12.82 12.82 0 0 1 3.67-.65 3.61 3.61 0 0 1 2.32.56 2.3 2.3 0 0 1 .68 1.77v.29s-1.42-.16-2.93-.16a5.92 5.92 0 0 0-3.7 1 4 4 0 0 0-1.4 3 3.83 3.83 0 0 0 1.34 3 5.57 5.57 0 0 0 3.29.91 7 7 0 0 0 2.63-.43 2.46 2.46 0 0 0 .74-.41l.08-.08v.67h3.06V32.4A5.75 5.75 0 0 0 66 28.29c-1.2-1.23-2.58-1.43-4.31-1.43ZM60 37.59a1.64 1.64 0 0 1-.72-1.43 1.88 1.88 0 0 1 .24-.95 2.57 2.57 0 0 1 2.28-1h.27a6.72 6.72 0 0 1 2.06.26v1.06a2.19 2.19 0 0 1-1.28 2.07 3.76 3.76 0 0 1-1.45.4 2.64 2.64 0 0 1-1.4-.41Zm-29.48-4.14-4.2-6.35h4.08l2.26 3.64 2.28-3.64h4l-4.2 6.32L39.1 40H35l-2.44-3.9-2.44 3.9h-4Zm9.92-6.35H44v9.8h6.18V40h-9.74Z"/></svg>
