<svg xmlns="http://www.w3.org/2000/svg" viewBox="0 0 120 60"><path fill="#eb611d" d="M78.3 8.21a5 5 0 1 1 .31 10.09H65.47a4.64 4.64 0 0 0-4.59 3.7 4.72 4.72 0 0 0-.1.87l-7.89-17a4.05 4.05 0 0 0-5.36-2.05 4 4 0 0 0-2.06 2.05L33.15 31.72l-.15.36-.16.31a2.56 2.56 0 0 0-.05.61 2.38 2.38 0 0 0 .21 1 2.33 2.33 0 0 0 3.14 1.08A2.22 2.22 0 0 0 37.22 34l.41-.87 11.5-24L60.21 32.7l.57 1.23a1 1 0 0 0 .2.3 2.45 2.45 0 0 0 3.25.93 2.55 2.55 0 0 0 1.18-1.64c0-.11.06-.16.06-.26V23H78.4a9.67 9.67 0 0 0 9.74-9.73V13a9.73 9.73 0 0 0-9.89-9.48H65.57a4.69 4.69 0 0 0-4.69 4.66H78.3ZM37 43l-4.5 9.25-3.75-7.61L28 43h-2.5l6.61 13.5h.82L39.54 43Zm21.17 7.88L50.29 43h-2v13.5h2.23V46.37L58.21 54v2.5h2.24V43h-2.24ZM60.94 43v2.22h4.94V56.5h2.23V45.22h5V43Zm-40.48 0H15v13.47h5.42a6.67 6.67 0 0 0 6.68-6.64v-.19A6.67 6.67 0 0 0 20.46 43Zm-3.22 2.22h3.12a4.55 4.55 0 1 1 0 9.09h-3.12ZM7.9 43h-.82L.47 56.5H3l4.5-9.25 1.91 3.89h-2.5l-1 2.06h4.49l1.6 3.3h2.47Zm33.28 0h-.79l-6.64 13.5h2.5l4.53-9.25 1.91 3.89h-2.5l-1 2.06h4.5l1.61 3.3h2.5Z"/><path fill="#b0aeae" d="M105.57 43h-.82l-6.61 13.5h2.46l4.54-9.25 1.91 3.89h-2.5l-1 2.06h4.51l1.61 3.3h2.5Zm7.23 7.13v6.37h2.2v-6.37l5.47-7.13h-2.8l-3.75 4.94-3.78-4.94h-2.76ZM82.45 43h-6.54V56.47h2.23v-5.36h4.31a4.07 4.07 0 1 0 .23-8.11.58.58 0 0 1-.23 0Zm1.42 5.39a1.88 1.88 0 0 1-1.32.56h-4.41v-3.73h4.41a1.89 1.89 0 0 1 1.87 1.87 2.05 2.05 0 0 1-.55 1.3Zm13.81 5.89h-8.45V43H87v13.5h10.68Z"/></svg>
