<svg xmlns="http://www.w3.org/2000/svg" viewBox="0 0 95 60"><path d="M42.36,0h10.55c.63,.08,1.28,.09,1.91,.16,2.44,.29,4.79,1.23,6.76,2.68,2.91,2.13,4.93,5.39,5.5,8.92,.25,1.36,.17,2.75,.18,4.12v16.5c-.01,1.65-1.07,3.23-2.59,3.93-1.13,.56-2.43,.39-3.65,.41-2.26-.03-4.26-1.99-4.3-4.21V14.89c0-.99-.17-2-.65-2.88-.93-1.79-2.89-3-4.93-3.03h-6.22c-.79,0-1.58,.09-2.31,.38-2.09,.77-3.61,2.82-3.66,5.03v7.88c0,.65,.12,1.31,.35,1.92,.76,2.07,2.86,3.58,5.11,3.64,1.65,0,3.3,0,4.95,0,.89,0,1.77,.24,2.52,.72,1.38,.86,2.18,2.51,2.03,4.1-.12,1.76-1.41,3.36-3.11,3.88-.83,.29-1.72,.19-2.58,.21h-5.6c-3.76,.04-7.5-1.48-10.13-4.12-2.38-2.34-3.85-5.54-4.08-8.84-.07-.88-.03-1.76-.04-2.63v-7.39c.06-3.03,1.14-6.03,3.06-8.39,2.13-2.67,5.29-4.51,8.69-5.09,.75-.14,1.51-.14,2.26-.26l-.02-.02Zm4.37,13.83c2.12-.51,4.48,.6,5.4,2.54,.69,1.37,.64,3.07-.11,4.4-.76,1.36-2.24,2.32-3.82,2.41-1.81,.17-3.66-.76-4.56-2.32-.82-1.35-.88-3.12-.17-4.52,.63-1.26,1.86-2.22,3.26-2.52h0ZM7.57,42.14c.79-.78,2.16-.82,3.03-.15,.36,.28,.61,.68,.81,1.09,2.24,4.79,4.48,9.59,6.72,14.38,.25,.49,.35,1.08,.15,1.61-.43,1-1.82,1.05-2.69,.65-.46-.24-.74-.7-.97-1.15-.41-.91-.8-1.82-1.2-2.73H4.92c-.39,.89-.76,1.78-1.16,2.66-.29,.6-.7,1.28-1.42,1.39-.67,.1-1.47,.07-1.95-.47-.5-.51-.47-1.32-.17-1.92,2.07-4.46,4.14-8.92,6.21-13.38,.33-.69,.58-1.44,1.15-1.98m-1.3,10.57h5.78c-.96-2.25-1.93-4.5-2.9-6.75-.96,2.25-1.92,4.5-2.88,6.76h0Zm33.8-10.5c.29-.41,.78-.63,1.27-.68,.62-.07,1.32,0,1.79,.44,.42,.38,.54,.97,.53,1.51,0,1.78,0,3.55,0,5.33,1.45-2.07,4.58-2.39,6.7-1.19,1.61,.92,2.5,2.71,2.72,4.48,.24,1.99,0,4.17-1.22,5.84-.88,1.22-2.36,1.96-3.87,2.04h-.74c-1.42-.08-2.85-.76-3.61-1.97-.04,.4-.09,.82-.32,1.17-.27,.46-.81,.71-1.33,.74-.61,.05-1.29-.03-1.74-.48-.43-.4-.52-1.01-.53-1.56v-14.14c0-.52,.03-1.08,.34-1.52m5.53,7.73c-.68,.19-1.25,.69-1.55,1.32-.44,.88-.45,1.89-.39,2.85,.07,.92,.39,1.89,1.17,2.46,1.04,.77,2.68,.66,3.54-.33,.69-.79,.85-1.88,.84-2.89,0-.97-.17-2.02-.87-2.75-.68-.73-1.79-.94-2.73-.67h-.01Zm21.33-8.16c.8-.4,1.92-.39,2.61,.23,.47,.44,.51,1.12,.52,1.72v11.25c0,.58,.18,1.23,.7,1.58,.53,.39,1.3,.13,1.81,.58,.74,.53,.81,1.72,.14,2.33-.43,.45-1.11,.47-1.69,.52h-.72c-1.14-.06-2.34-.42-3.1-1.31-.96-1.12-1.12-2.66-1.08-4.06v-11.26c-.02-.61,.24-1.27,.81-1.58h0Zm21.23,1.62c.93-.28,2.25-.08,2.6,.95,.26,.93,.07,1.91,.13,2.85,.89,0,1.78,0,2.67,0,.43,0,.88,.2,1.1,.58,.22,.4,.25,.89,.15,1.33-.12,.55-.67,.96-1.24,.96-.89,0-1.78,0-2.67,0,0,1.6-.02,3.19,.01,4.78,.01,.72,.31,1.54,1.06,1.79,.65,.3,1.39,.03,2.06,.25,.93,.32,1.28,1.58,.68,2.34-.45,.63-1.3,.65-2,.74h-.91c-1.23-.08-2.51-.4-3.44-1.24-.98-.89-1.34-2.24-1.37-3.51v-10.13c-.03-.74,.43-1.5,1.18-1.7h0Zm-68.5,3.77c.69-.26,1.54-.26,2.18,.15,.52,.35,.69,1,.69,1.59,.64-.9,1.58-1.61,2.68-1.84,1.15-.24,2.42-.17,3.44,.43,.68,.39,1.16,1.06,1.44,1.77,.65-1.12,1.8-1.96,3.09-2.21,.98-.19,2.03-.15,2.97,.18,.9,.32,1.61,1.06,1.97,1.93,.38,.94,.5,1.96,.49,2.97v6c0,.53-.19,1.09-.63,1.43-.55,.44-1.32,.43-1.99,.31-.77-.14-1.28-.89-1.29-1.63,0-1.96,0-3.92,0-5.87-.04-.64-.04-1.35-.45-1.89s-1.18-.58-1.8-.48c-.66,.1-1.22,.57-1.5,1.15-.26,.53-.33,1.13-.35,1.71v5.37c-.02,.71-.47,1.42-1.19,1.61-.72,.17-1.59,.15-2.17-.37-.46-.4-.58-1.04-.57-1.61v-5.88c-.03-.6-.13-1.29-.61-1.71-.95-.66-2.48-.32-3.02,.71-.41,.68-.44,1.49-.43,2.26v4.75c0,.57-.14,1.21-.62,1.58-.49,.37-1.14,.39-1.72,.34-.52-.05-1.05-.31-1.31-.77-.24-.38-.29-.84-.29-1.28v-9c-.01-.69,.31-1.44,.99-1.7Zm35.67,1.34c1.12-1.11,2.77-1.51,4.32-1.56,1.58-.03,3.22,.19,4.59,1.02,.91,.59,.61,2.15-.41,2.43-.64,.18-1.21-.22-1.79-.42-1.04-.37-2.21-.53-3.29-.22-.58,.16-1.08,.75-.92,1.36,.09,.44,.52,.72,.94,.81,1.21,.25,2.45,.4,3.65,.68,1.05,.26,2.13,.88,2.52,1.93,.5,1.36,.19,3.03-.91,4.03-1.07,.98-2.56,1.35-3.98,1.43h-1.1c-1.45-.11-2.96-.29-4.23-1.04-.78-.47-.92-1.67-.22-2.27,.39-.36,.97-.35,1.44-.14,1.05,.43,2.17,.74,3.32,.76,.61,0,1.27,.02,1.81-.29,.43-.24,.69-.76,.54-1.23-.11-.47-.63-.67-1.07-.76-1.06-.2-2.13-.37-3.19-.58-.85-.18-1.7-.55-2.29-1.2-1.18-1.32-1-3.54,.27-4.75h0Zm22.41-1.41c1.97-.32,4.13-.12,5.81,1.02,1.4,.93,2.28,2.49,2.49,4.12,.29,2.03-.11,4.28-1.57,5.82-1.16,1.28-2.91,1.85-4.6,1.94h-1.03c-.83-.07-1.66-.2-2.43-.51-1.8-.67-3.15-2.27-3.57-4.11-.38-1.77-.3-3.71,.57-5.34,.85-1.6,2.54-2.66,4.33-2.96m.88,2.86c-.83,.18-1.47,.84-1.75,1.62-.36,1.02-.36,2.14-.17,3.2,.15,.84,.64,1.66,1.43,2.06,1.01,.5,2.39,.34,3.14-.53,.77-.85,.91-2.06,.88-3.16-.05-.89-.22-1.87-.89-2.52-.67-.69-1.73-.89-2.64-.66h0Z" fill="#32b34a" fill-rule="evenodd"/></svg>
