<svg xmlns="http://www.w3.org/2000/svg" viewBox="0 0 120 60"><polygon points="0 38 5.99 4.69 40.04 4.69 34.11 38 0 38" fill="#e65d25"/><path d="M22.06,14.19l-5.21,7.03h7.91l-2.7-7.03Zm9.41,12.93l-1.08,5.59-.96,.54-3.3-8.12H14.57l-6.35,8.18H3.06L23.26,6.73l8.21,20.38Z" fill="#fff"/><polygon points="29.43 33.31 35.36 0 69.47 0 63.48 33.31 29.43 33.31" fill="#168fbc"/><path d="M72.95,27.9h4.8l-.96,4.63c-.54,.36-1.26,.66-2.1,.9-.84,.24-1.68,.36-2.52,.36-1.32,0-2.34-.3-3.06-.9-.96-.84-1.44-1.98-1.44-3.55,0-1.02,.18-2.04,.6-3.01,.48-1.14,1.2-2.04,2.1-2.71,.9-.66,1.98-.96,3.24-.96s2.22,.3,3,.84c.72,.6,1.26,1.38,1.5,2.53l-2.04,.24c-.18-.6-.48-1.08-.9-1.38-.42-.3-.9-.48-1.5-.48-.72,0-1.38,.18-1.98,.54s-1.08,.96-1.38,1.74c-.36,.78-.48,1.62-.48,2.53s.18,1.56,.6,1.98,1.02,.66,1.8,.66c.48,0,.96-.06,1.44-.18s.9-.3,1.26-.48l.36-1.62h-2.76l.42-1.68Zm8.15,.12l-2.04-.18c.24-.66,.66-1.2,1.2-1.62,.6-.36,1.38-.6,2.34-.6,1.02,0,1.74,.18,2.22,.6,.48,.42,.72,.9,.72,1.5,0,.24,0,.48-.06,.72s-.18,.96-.42,2.1c-.18,.9-.3,1.56-.3,1.92s.06,.72,.18,1.08h-2.04c-.06-.3-.12-.6-.12-.9-.3,.36-.66,.6-1.08,.78s-.78,.3-1.2,.3c-.66,0-1.2-.24-1.62-.66-.42-.42-.6-.96-.6-1.62,0-.72,.24-1.32,.66-1.8,.48-.42,1.26-.72,2.46-.78,1.02-.06,1.68-.18,1.98-.3,.06-.3,.12-.54,.12-.72,0-.24-.12-.42-.3-.54-.18-.18-.42-.24-.78-.24s-.66,.06-.9,.24c-.18,.24-.3,.48-.42,.72Zm2.04,1.98c-.12,.06-.3,.06-.48,.12-1.08,.12-1.74,.3-2.04,.54-.24,.18-.36,.42-.36,.72,0,.24,.06,.48,.24,.6,.18,.18,.42,.24,.72,.24s.6-.06,.9-.24c.3-.18,.48-.36,.6-.6,.12-.24,.24-.6,.36-1.14l.06-.24Zm4.44-4.15h1.98l-.18,.9c.78-.72,1.56-1.14,2.4-1.14,.6,0,1.02,.12,1.38,.36,.3,.24,.54,.6,.6,1.02,.24-.36,.66-.72,1.14-.96,.48-.24,1.02-.42,1.56-.42,.6,0,1.08,.18,1.44,.48,.36,.36,.54,.78,.54,1.32,0,.24-.06,.72-.24,1.38l-1.02,4.75h-2.1l1.02-4.75c.12-.6,.18-.9,.18-1.02,0-.24-.06-.42-.18-.54s-.3-.18-.6-.18c-.54,0-1.02,.3-1.44,.84-.3,.42-.54,1.08-.78,2.1l-.72,3.55h-2.1l.96-4.69c.12-.54,.18-.9,.18-1.08s-.06-.36-.18-.48-.36-.18-.6-.18-.48,.06-.72,.18c-.24,.12-.48,.3-.66,.54-.18,.24-.36,.54-.48,.9-.06,.18-.18,.6-.3,1.2l-.72,3.55h-2.1l1.74-7.64Zm13.49-2.95h2.1l-.42,1.92h-2.04l.36-1.92Zm-.6,2.95h2.1l-1.62,7.76h-2.1l1.62-7.76Zm3.72,0h1.98l-.18,1.02c.48-.42,.96-.72,1.38-.96,.42-.18,.9-.3,1.38-.3,.66,0,1.14,.18,1.5,.54s.54,.84,.54,1.5c0,.3-.12,.78-.24,1.56l-.96,4.39h-2.1l.96-4.39c.12-.66,.18-1.02,.24-1.2,0-.3-.06-.48-.24-.66-.18-.18-.36-.24-.66-.24s-.66,.12-1.02,.36-.66,.6-.9,1.02c-.18,.3-.36,.9-.54,1.86l-.66,3.19h-2.1l1.62-7.7Zm6.89,8.18l2.22,.3c0,.24,.06,.42,.12,.48,.06,.12,.18,.24,.36,.3,.18,.06,.36,.12,.66,.12,.48,0,.84-.06,1.14-.24,.24-.12,.36-.36,.54-.66,.06-.18,.18-.6,.3-1.26l.06-.36c-.78,.6-1.56,.9-2.34,.9s-1.38-.24-1.86-.78c-.48-.54-.72-1.32-.72-2.34,0-.9,.18-1.74,.48-2.53,.36-.78,.78-1.32,1.38-1.74,.6-.36,1.2-.6,1.86-.6,.54,0,.96,.12,1.44,.42,.42,.3,.78,.66,1.02,1.14l.3-1.38h1.98l-1.26,6.49c-.24,1.02-.42,1.8-.54,2.22-.18,.42-.36,.78-.54,1.08-.18,.24-.42,.48-.78,.66-.3,.18-.66,.3-1.08,.36-.42,.06-.84,.12-1.32,.12-1.08,0-1.92-.18-2.46-.54-.54-.36-.84-1.02-.84-1.86-.12-.06-.12-.18-.12-.3Zm2.52-3.73c0,.6,.12,1.02,.42,1.38,.24,.3,.6,.48,1.02,.48,.36,0,.72-.12,1.08-.42s.6-.66,.78-1.2c.18-.54,.3-1.02,.3-1.5,0-.54-.18-1.02-.48-1.32-.3-.36-.66-.48-1.08-.48-.36,0-.72,.12-1.02,.42-.3,.3-.6,.78-.78,1.38-.18,.42-.24,.84-.24,1.26Zm-36.56-10.82h-4.26l-1.38,2.34h-2.28l6.47-10.7h2.46l1.26,10.7h-1.98l-.3-2.34Zm-.18-1.8l-.42-4.33-2.52,4.33h2.94Zm3.42,1.98l2.04-.3c.18,.42,.36,.72,.6,.9,.24,.18,.6,.24,1.08,.24s.84-.12,1.14-.3c.18-.12,.3-.3,.3-.54,0-.12-.06-.24-.12-.36-.12-.12-.36-.24-.84-.42-1.26-.42-1.98-.78-2.28-1.02-.48-.36-.66-.9-.66-1.5s.3-1.14,.78-1.56c.66-.6,1.62-.9,2.88-.9,1.02,0,1.74,.18,2.22,.54s.78,.84,.9,1.5l-1.92,.36c-.06-.3-.24-.48-.48-.66-.3-.18-.66-.3-1.08-.3s-.78,.06-.96,.24c-.18,.12-.3,.3-.3,.48s.06,.36,.24,.48c.12,.06,.48,.24,1.14,.42,1.02,.3,1.68,.6,1.98,.9,.48,.42,.66,.9,.66,1.44-.06,.72-.36,1.38-1.02,1.92-.66,.54-1.5,.84-2.64,.84s-1.98-.18-2.58-.6c-.54-.48-.9-1.08-1.08-1.8Zm10.85-8.54h2.1l-.48,1.92h-2.1l.48-1.92Zm-.72,2.95h2.1l-1.98,7.76h-2.1l1.98-7.76Zm5.09,2.16l-2.04-.18c.24-.66,.72-1.2,1.32-1.62,.6-.36,1.38-.6,2.34-.6,1.02,0,1.74,.18,2.16,.6,.48,.42,.66,.9,.66,1.5,0,.24-.06,.48-.12,.72-.06,.24-.24,.96-.54,2.1-.24,.9-.36,1.56-.42,1.92,0,.36,0,.72,.12,1.08h-2.04c-.06-.3-.12-.6-.12-.9-.3,.36-.66,.6-1.08,.78s-.84,.3-1.2,.3c-.66,0-1.14-.24-1.56-.66-.42-.42-.6-.96-.54-1.62,.06-.72,.3-1.32,.78-1.8,.48-.42,1.32-.72,2.52-.78,1.02-.06,1.68-.18,2.04-.3,.12-.3,.18-.54,.18-.72,0-.24-.06-.42-.24-.54-.18-.18-.42-.24-.78-.24s-.66,.06-.9,.24c-.3,.24-.48,.42-.54,.72Zm1.86,1.92c-.12,.06-.3,.06-.48,.12-1.08,.12-1.74,.3-2.1,.54-.24,.18-.36,.42-.36,.72,0,.24,.06,.48,.24,.6,.18,.18,.42,.24,.66,.24,.3,0,.6-.06,.9-.24,.3-.18,.48-.36,.66-.6,.12-.24,.3-.6,.42-1.14l.06-.24Z"/><path d="M62.88,12.21h-5.27c-.9-2.04-2.46-4.09-6.65-4.09-2.94,0-5.39,1.2-7.37,3.55-1.56,1.86-2.46,3.97-2.64,6.19s.48,4.15,1.86,5.65c1.38,1.5,3.18,2.28,5.33,2.28,1.62,0,3.12-.42,4.5-1.2,1.38-.78,2.58-1.98,3.54-3.55h-6.59l.9-3.91h11.51c-.48,4.21-1.98,6.97-4.62,9.44-2.58,2.47-5.81,3.67-9.53,3.67-4.08,0-7.19-1.44-9.35-4.27-1.74-2.28-2.46-4.99-2.28-8.18,.24-3.85,1.86-7.16,4.86-9.98,2.94-2.83,6.35-4.21,10.19-4.21,1.44,0,2.82,.18,4.14,.6,1.32,.42,3.12,1.38,4.26,2.41,1.5,1.44,2.7,3.43,3.24,5.59Z" fill="#fff"/><polygon points="29.43 33.31 34.11 38 34.95 33.31 29.43 33.31" fill-rule="evenodd" fill="#ba2227"/></svg>
