<svg xmlns="http://www.w3.org/2000/svg" viewBox="0 0 120 60"><path fill="#e8413c" d="M61.63 0h13.06c-2.17 3.23-4.36 6.46-6.49 9.71h26.1a.84.84 0 0 1-.08.27c-2.06 3.08-4.1 6.16-6.15 9.24-.16.2-.35.44-.66.29h-8.18c-.4-.07-.47.46-.68.69-4.13 6.28-8.31 12.5-12.43 18.8H54.67c4.22-6.55 8.62-13 12.86-19.47h-5.5c-.3-.17-.44 0-.58.2-2.1 3.15-4.21 6.28-6.33 9.42H43.68C48 22.7 52.33 16.31 56.62 9.88 50.32 16 44.13 22.25 37.87 28.42c-.29.24-.51.63-.88.74H25.7C32.83 22 40 15 47.16 7.87 49 6.05 50.78 4 53.08 2.73A19.6 19.6 0 0 1 61.63 0ZM11.51 48.49c1.76-1.81 4.35-2.29 6.79-2.21h26.2c-.27.9-.79 2.66-1 3.55l-2.61.47c-1 3.22-2 6.4-3.13 9.57h-4.61q1.63-4.92 3.44-9.8c-4.94.19-10.32-1.33-14.95.78 4 .9 8.06.39 12.09.49-.93 2.85-1.9 5.7-2.91 8.52H17.03c.86-1.2 1.71-2.4 2.58-3.59 2.79-.14 5.84.59 8.35-1-3.55-.82-7.21-.44-10.81-.29-1.13 1.63-2.25 3.27-3.38 4.89H8.4c1.9-2.77 4-5.39 5.78-8.23-3.45 2.11-5.84 5.44-8.71 8.21L0 59.93c3.82-3.84 7.62-7.68 11.51-11.44Zm34.55-2.21h11l-3 9-3.4.34c.65 1.44 1.27 2.88 1.9 4.32h-4.19c-.49-.93-1-1.86-1.45-2.79-.24 3.35-3.24 2.85-5.75 2.85 1.57-4.58 3.06-9.19 4.89-13.68m2.85 3.61c-1.54 1.65 1.36 3.52 2.55 1.84 1.54-1.69-1.37-3.58-2.55-1.88Zm9.71-3.61h11.29c-1.58 4.52-3.06 9.08-4.62 13.61h-11.4c1.5-4.56 3.19-9.06 4.73-13.62m3.08 3.84c-.69 2-1.41 4-2.16 6 3.62 1.12 3.33-3.83 4.59-6-.61-.09-1.83-.06-2.43-.03Zm11.46-3.84h22.21c-.23.91-.71 2.7-.94 3.61-2.44.52-6.26-1.31-7.67 1.38 2.43.11 4.87.14 7.31.33l-1.71 3.24h-6.63l-.17 1.46h6.57c-.27.88-.78 2.64-1 3.51-3.87.14-7.74.1-11.61 0 1.18-3.21 2.26-6.46 3.55-9.62L79.91 50q-1.77 4.85-3.25 9.76l-4.78.24c1-3.31 2.41-6.5 3.26-9.85l-3.56-.2c.42-.95 1.18-2.75 1.58-3.67Zm23.76 0h10.36c-.32.94-1 2.83-1.29 3.78h-5.33c-.73 2-1.48 4-2.22 6.07h5.74c-.52 1.26-1 2.53-1.53 3.8H92.28c1.56-4.6 2.99-9.17 4.64-13.68Zm11.7.06h4.59c-.63 1.72-1.28 3.45-1.86 5.2 3.22.27 3.21-3 4.15-5.22h4.5c-1.48 4.58-3 9.12-4.56 13.66l-4.68-.09c.66-1.69 1.31-3.39 1.92-5.09-3.28-.39-3.23 3-4.17 5.16h-4.35c1.22-4.7 2.97-9.14 4.46-13.65Z"/></svg>
