<svg xmlns="http://www.w3.org/2000/svg" viewBox="0 0 120 60"><path fill="#fff" d="M22.5 29.18a6.42 6.42 0 0 0 1-3.52v-9.13a2.71 2.71 0 0 0 0-.57 6.38 6.38 0 0 0-2-4.24A6 6 0 0 0 17.19 10H11.3v19.18Zm-3.92-14.25a2.13 2.13 0 0 1 .66 1.42v9.31a2.14 2.14 0 0 1-2.09 2.17h-1.68V14.35h1.66a2 2 0 0 1 1.45.58Zm5.34 18.87a6.49 6.49 0 0 0-1-3h-11.6V50h6.3a6 6 0 0 0 4.46-1.91 6.43 6.43 0 0 0 1.85-4.6v-9.14a5 5 0 0 0-.01-.55Zm-4.23 9.68a2.14 2.14 0 0 1-.63 1.52 2 2 0 0 1-1.44.63h-2.09V32.19h2.1a2 2 0 0 1 1.41.57 2.19 2.19 0 0 1 .67 1.43v.18Zm25.37-14.34h4.19V14.35H53v-4.34H40.88v4.35h4.2Zm0 1.65L45 50h4.2V30.79Zm-7.18-1.65v-1.31h-6.74V14.35h6.71V10H27v19.14Zm-6.71 3h6.7v-1.4H27V50h10.85v-4.33h-6.7Z"/><path fill="#fde103" d="M103 29.13h4.21V14.35H111V10H98.79v4.35H103Zm0 1.65V50h4.21V30.78Zm-5.82-1.65v-1.31h-6.8V14.35h6.78V10h-11v19.13Zm-11 1.65V50h4.24V32.19h6.78v-1.41Zm-11.25-1.65v-12.6a2.15 2.15 0 0 1 .64-1.53 2 2 0 0 1 2.89-.06 2.25 2.25 0 0 1 .68 1.43v12.76h4.18V16.51a2.71 2.71 0 0 0 0-.57 6.43 6.43 0 0 0-2-4.24 6 6 0 0 0-4.26-1.7 5.9 5.9 0 0 0-4.41 1.91 6.5 6.5 0 0 0-1.86 4.6v12.6Zm4.21 1.65v12.69a2.14 2.14 0 0 1-2.09 2.18 2.1 2.1 0 0 1-2.11-2V30.78h-4.15v12.69a2.81 2.81 0 0 0 0 .58 6.47 6.47 0 0 0 2 4.24 6.12 6.12 0 0 0 8.69-.2 6.53 6.53 0 0 0 1.85-4.6V30.8h-4.19ZM57.7 29.13h6.88l-2.28-2A7.28 7.28 0 0 1 60 22.3v-5.78a2.14 2.14 0 0 1 2.09-2.17 2.1 2.1 0 0 1 1.42.56 2.23 2.23 0 0 1 .67 1.43v3.18h4.18v-3a5.42 5.42 0 0 0 0-.57 6.35 6.35 0 0 0-2-4.24 6.11 6.11 0 0 0-8.68.19 6.55 6.55 0 0 0-1.87 4.6v7.52a9.3 9.3 0 0 0 1.89 5.11Zm8.65 1.65h-6.89c.79.68 1.59 1.37 2.4 2a7.18 7.18 0 0 1 2.22 4.87v5.78a2.13 2.13 0 0 1-.62 1.57 2.05 2.05 0 0 1-2.9.06 2.09 2.09 0 0 1-.66-1.43v-3.18h-4.15v3a2.81 2.81 0 0 0 0 .58 6.36 6.36 0 0 0 2 4.24 6.21 6.21 0 0 0 8.92-.45 6.58 6.58 0 0 0 1.64-4.35V37.4a13.59 13.59 0 0 0 0-1.43 9.21 9.21 0 0 0-1.96-5.19ZM0 37.38v-15l7.37 7.58Zm120 .09v-15L112.63 30Z"/></svg>
