<svg xmlns="http://www.w3.org/2000/svg" viewBox="0 0 120 60"><path d="M2.15,12H18.36a8.47,8.47,0,0,1,3.29.62A13,13,0,0,1,24,14.13a.56.56,0,0,1,.29.33,1.87,1.87,0,0,0-.61.14,2.88,2.88,0,0,0-.13.31A3.83,3.83,0,0,0,21.38,13a10.71,10.71,0,0,0-3.81-.6H5.13c-.89.06-1.78,0-2.67,0-.33,1.86-.65,3.72-1,5.58.73,0,1.47,0,2.21,0Q2.1,26.3.52,34.58a1.3,1.3,0,0,1-.52,0l.18-.06c.05-.33.11-.67.18-1,.26-1.37.51-2.74.78-4.11a4.35,4.35,0,0,1,.1-.52c.14-.76.27-1.52.43-2.28s.22-1.22.34-1.83c.17-.93.35-1.87.53-2.8.13-.76.31-1.52.4-2.29-.63-.45-1.22-1-1.88-1.38L1.14,18c.11-.82.28-1.64.41-2.46.2-1.07.35-2.15.56-3.22C2.12,12.24,2.14,12.13,2.15,12Zm23,3.48a2.62,2.62,0,0,1,.63-.14c-.18-.15-.37-.29-.55-.42H25A1.2,1.2,0,0,1,25.1,15.49Zm1.3,1a1,1,0,0,1,.74-.2l-.77-.55A3.14,3.14,0,0,1,26.4,16.53Zm-2.49.64a7.86,7.86,0,0,1-.24,1.37l.07-.13a1,1,0,0,1,.49.35.64.64,0,0,1-.32.88,1.11,1.11,0,0,1-.65-.06c-.08.15-.17.31-.27.46a.51.51,0,0,1,0,.82c-.19.17-.43.05-.62-.05a5.22,5.22,0,0,1-.43.39,2,2,0,0,1,.28.21v.32c-.12.1-.23.25-.4.22s-.29-.21-.41-.33a10.28,10.28,0,0,1-1.36.7,4.09,4.09,0,0,1,2.65,2.08,5.28,5.28,0,0,1,.43,3l.18.07c0-.33,0-.67,0-1a1.73,1.73,0,0,1,.35-.41c.34-.3.58-.69.91-1a7.22,7.22,0,0,0,.81-.85c.34-.44.8-.77,1.14-1.22a13.44,13.44,0,0,1,1-1l-.19-.23,0-.3a.46.46,0,0,1,.71-.08,3.11,3.11,0,0,1,.83-.56,1.29,1.29,0,0,1-.44,0c-.17-.06-.23-.25-.31-.4.08-.22.2-.51.48-.51s.36.15.49.28a2.67,2.67,0,0,0,.67-.67.66.66,0,0,1-.65-.22.6.6,0,0,1,.19-.83,5,5,0,0,1,.49-.2c-.37-.27-.74-.54-1.12-.8a.74.74,0,0,1-.5,1.28.65.65,0,0,1-.48-1.07c.19-.32.56-.31.87-.28-.34-.28-.73-.51-1.07-.78a.93.93,0,0,1,.2.58.8.8,0,1,1-1.56-.26,1,1,0,0,1-.93.18,1,1,0,0,1-.54-1,1.09,1.09,0,0,1-.73.13A.76.76,0,0,1,23.91,17.17Zm1-.25.31.22a1,1,0,0,1,.15.45.8.8,0,0,1-.85.84.86.86,0,0,1-.64-.56.94.94,0,0,1,.35-.83C24.41,16.87,24.68,16.92,24.91,16.92Zm1.1.95A.66.66,0,0,1,26.49,19c-.18.3-.54.29-.84.26a1.4,1.4,0,0,1-.37-.47v-.31C25.4,18.14,25.65,17.82,26,17.87Zm1.88,1.55A.62.62,0,0,1,27,20a.6.6,0,0,1,0-1A.57.57,0,0,1,27.89,19.42Zm-2.65,0c.19.06.28.25.37.41a.76.76,0,0,1-.45.67h-.31c-.16-.13-.37-.26-.36-.5A.57.57,0,0,1,25.24,19.44Zm1.49,1.69a.45.45,0,0,1-.78-.06.51.51,0,0,1,.38-.7A.47.47,0,0,1,26.73,21.13ZM24,21a.43.43,0,0,1,.52.48.41.41,0,0,1-.8.06C23.63,21.25,23.82,21.08,24,21Zm-13.85-.16c1.29,0,2.58,0,3.88,0a4.62,4.62,0,0,0,1.81-.25,1.57,1.57,0,0,0,.84-1.12,1.13,1.13,0,0,0-.16-1.11A2,2,0,0,0,15.22,18c-1.51,0-3,0-4.53,0C10.49,18.9,10.33,19.85,10.13,20.79ZM8.55,29.1c1.61,0,3.23,0,4.84,0a3.14,3.14,0,0,0,2-.53,2.51,2.51,0,0,0,.7-1.69,1.07,1.07,0,0,0-.57-1.07,4.32,4.32,0,0,0-1.82-.28H9.24C9,26.71,8.78,27.9,8.55,29.1Zm4.65,5.62c-.52-.07-1,0-1.56,0a1,1,0,0,1-.19.72.72.72,0,0,1-1.13,0,1,1,0,0,1-.11-.7c-.71,0-1.42,0-2.13,0l1.83,0a1.26,1.26,0,0,1-.85.16,1,1,0,0,1,.29,1.08,1,1,0,0,1,1-.24.9.9,0,0,1,.24,1.46.91.91,0,0,1-.85.23A1,1,0,0,1,10,38.47c.23-.06.4-.29.66-.29a1,1,0,0,1,.63.25c.19-.09.37-.17.56-.24l.12-.12c-.31.08-.71.15-.93-.14a.79.79,0,0,1,.4-1.26c.39-.14.72.19.89.5l.13.16c.32-.29.61-.61.92-.91l.12.13a3.37,3.37,0,0,1,.3-.36,1.12,1.12,0,0,1-.05-.13,3.25,3.25,0,0,1,.85-.76.47.47,0,0,1,0-.46.43.43,0,0,1,.66-.06,8.7,8.7,0,0,0,1.69-.32l0-.13a17.63,17.63,0,0,1-3.4.39ZM13,36a.62.62,0,0,1-1,.2.67.67,0,0,1,.41-1.1A.63.63,0,0,1,13,36ZM1.34,35.69a1.09,1.09,0,0,1,.91-.4A1.36,1.36,0,0,1,2,34.68H1A.93.93,0,0,1,1.34,35.69Zm4.52-1c-.08.23-.35.15-.53.19a2,2,0,0,1,.2.63,1.41,1.41,0,0,1,.61-.15A1.36,1.36,0,0,1,6,34.67H5.65ZM3,36.28a2.49,2.49,0,0,1,.6-.2,1.94,1.94,0,0,1-.11-.63,1.49,1.49,0,0,1-.71.2A.83.83,0,0,1,3,36.28Zm4,.09a3.78,3.78,0,0,1,.67-.13,1.32,1.32,0,0,1-.19-.7.8.8,0,0,1-.61.22A1.63,1.63,0,0,1,7,36.37Zm1.53,1a1.17,1.17,0,0,1,.88-.11,1,1,0,0,1-.27-.94,1.09,1.09,0,0,1-.79.33A1.21,1.21,0,0,1,8.57,37.35Zm-3.91-.29a1.39,1.39,0,0,1,.45-.14c0-.17-.08-.33-.11-.5a1.81,1.81,0,0,1-.47.13A2.12,2.12,0,0,0,4.66,37.06Zm1.56.88.46-.12c0-.17-.09-.35-.12-.53l-.45.2C6.14,37.64,6.18,37.79,6.22,37.94Zm1.46.71c0,.07,0,.2,0,.27a1.32,1.32,0,0,1,.65-.14,2.4,2.4,0,0,1-.21-.64,2.66,2.66,0,0,1-.55.16A1.54,1.54,0,0,0,7.68,38.65ZM9.14,40c.13-.1.27-.19.41-.28a1.41,1.41,0,0,1,.67.13v-.1a.94.94,0,0,1-.32-1.12,1.21,1.21,0,0,1-.93.47A1.16,1.16,0,0,1,9.14,40Zm-.25.8c0-.14,0-.28,0-.42a1.29,1.29,0,0,0-.25.2C8.61,40.78,8.79,40.79,8.89,40.84Z" fill="#f16048"/><path d="M68.89,12.36a9.32,9.32,0,0,1,4.33,0,6.76,6.76,0,0,1,3.45,2.09l-2,1.9a4.59,4.59,0,0,0-2.78-1.5,4.79,4.79,0,0,0-4,1.15,4.63,4.63,0,0,0,.07,6.44,4.55,4.55,0,0,0,3.21,1.14A5.09,5.09,0,0,0,73.53,23c0-1.34,0-2.67,0-4h2.9c0,1.85,0,3.7,0,5.54a7.23,7.23,0,0,1-2.27,1.22,9.66,9.66,0,0,1-5.3.32,7.15,7.15,0,0,1-4-2.46,7.28,7.28,0,0,1,0-8.79A7.17,7.17,0,0,1,68.89,12.36ZM93,16.27a7,7,0,0,0,4.86,9.83,8.56,8.56,0,0,0,5.49-.51,6.83,6.83,0,0,0,3.15-2.93,7.35,7.35,0,0,0,.5-5.72,6.79,6.79,0,0,0-2.91-3.67,8.29,8.29,0,0,0-5.62-1A7.1,7.1,0,0,0,93,16.27Zm9.44-.63a4.18,4.18,0,0,1,1.61,2.56,4.74,4.74,0,0,1-.94,4,4.44,4.44,0,0,1-6.09.39,4.73,4.73,0,0,1-.75-5.87,4.07,4.07,0,0,1,2.63-1.79A4.53,4.53,0,0,1,102.47,15.64ZM1.48,18c.73,0,1.47,0,2.21,0Q2.1,26.3.52,34.58l0,.11H2c1.21,0,2.41,0,3.62,0H6c.68,0,1.37,0,2.05,0s1.42,0,2.13,0h1.43c.52,0,1,0,1.56,0a.2.2,0,0,1,.29,0,17.63,17.63,0,0,0,3.4-.39l.66-.18A8,8,0,0,0,21.06,32a8.21,8.21,0,0,0,2.09-4.65,5.28,5.28,0,0,0-.43-3,4.09,4.09,0,0,0-2.65-2.08,10.28,10.28,0,0,0,1.36-.7c.18-.13.36-.27.53-.42a5.22,5.22,0,0,0,.43-.39A6.36,6.36,0,0,0,23,20c.1-.15.19-.31.27-.46a6.25,6.25,0,0,0,.41-1,7.86,7.86,0,0,0,.24-1.37,4.46,4.46,0,0,0-.32-2.26A3.83,3.83,0,0,0,21.38,13a10.71,10.71,0,0,0-3.81-.6H5.13c-.89.06-1.78,0-2.67,0C2.13,14.3,1.81,16.16,1.48,18Zm13.74,0a2,2,0,0,1,1.28.34,1.13,1.13,0,0,1,.16,1.11,1.57,1.57,0,0,1-.84,1.12A4.62,4.62,0,0,1,14,20.8c-1.3,0-2.59,0-3.88,0,.2-.94.36-1.89.56-2.83C12.2,18,13.71,18,15.22,18Zm-1.56,7.53a4.32,4.32,0,0,1,1.82.28,1.07,1.07,0,0,1,.57,1.07,2.51,2.51,0,0,1-.7,1.69,3.14,3.14,0,0,1-2,.53c-1.61,0-3.23,0-4.84,0,.23-1.2.47-2.39.69-3.58Zm29.67.61h5.38a14.82,14.82,0,0,0,4.51-.38,3.68,3.68,0,0,0,2.31-1.8,3.88,3.88,0,0,0,0-3.2A3.53,3.53,0,0,0,53.4,19a3.86,3.86,0,0,0,1.07-.9,3.34,3.34,0,0,0-.29-4.47,6.25,6.25,0,0,0-4.08-1.24H43.33C43.33,16.93,43.34,21.53,43.33,26.12Zm6.51-11.37a2.9,2.9,0,0,1,1.6.44,1.5,1.5,0,0,1,0,2.35,3,3,0,0,1-1.69.44H46.48c0-1.08,0-2.16,0-3.24Zm-.18,5.55a4.36,4.36,0,0,1,2.42.44,1.66,1.66,0,0,1,.47,2,1.75,1.75,0,0,1-1.32.87,12.21,12.21,0,0,1-2.18.1c-.86,0-1.71,0-2.57,0,0-1.14,0-2.27,0-3.4C47.54,20.29,48.6,20.31,49.66,20.3ZM58,26.11c1.06,0,2.12,0,3.19,0,0-4.58,0-9.17,0-13.76-1.06,0-2.12,0-3.18,0C58,16.94,58.05,21.53,58,26.11Zm21.11,0h3.19c0-1.26,0-2.52,0-3.79,1.26-.05,2.53.05,3.79-.06a5.86,5.86,0,0,0,3.71-1.64A4.74,4.74,0,0,0,91,17.15a4.56,4.56,0,0,0-1.49-3.37,6.57,6.57,0,0,0-4.31-1.44H79.15C79.15,16.93,79.17,21.52,79.14,26.12Zm3.18-11.18c.94,0,1.89,0,2.83,0a3,3,0,0,1,2.11.78,2.39,2.39,0,0,1,.57,1.87,2.08,2.08,0,0,1-.8,1.54,3.37,3.37,0,0,1-2,.57H82.32Zm25.73,0h4.37c0,3.72,0,7.45,0,11.18h3.18c0-3.73,0-7.45,0-11.18H120c0-.86,0-1.73,0-2.59-4,0-8,0-12,0C108.05,13.21,108,14.08,108.05,14.94ZM90,30.72a1.27,1.27,0,0,0,1.56.83A1.25,1.25,0,0,0,92.49,30a1.29,1.29,0,0,0-1.64-.81A1.22,1.22,0,0,0,90,30.72ZM42.84,35.5a7.47,7.47,0,0,0,.52,4.84,6.72,6.72,0,0,0,2.56,2.8,7.8,7.8,0,0,0,4.35,1.07A8.06,8.06,0,0,0,55,42.6c.07-.07.19-.13.16-.25q0-2.64,0-5.28H53.25c0,1.5,0,3,0,4.5a6,6,0,0,1-4.11.83,5.3,5.3,0,0,1-3.36-1.85,5.31,5.31,0,0,1,4.58-8.69A5.3,5.3,0,0,1,54,33.45c.41-.41.82-.81,1.22-1.22A6.39,6.39,0,0,0,54,31.17a7.34,7.34,0,0,0-4.06-1.07,7.55,7.55,0,0,0-4.75,1.6A6.68,6.68,0,0,0,42.84,35.5Zm15.76.78a5.1,5.1,0,0,1,3.24-1.14,2.89,2.89,0,0,1,2.31.85,2.94,2.94,0,0,1,.52,2.06c-.48,0-1,0-1.43,0a13.08,13.08,0,0,0-3.48.23,2.86,2.86,0,0,0-1.36,4.89,4.5,4.5,0,0,0,3.36,1,3.81,3.81,0,0,0,3-1.46c0,.45,0,.89,0,1.34h1.78V37.62a4.39,4.39,0,0,0-.9-2.8,4,4,0,0,0-2.75-1.27,7.25,7.25,0,0,0-5.09,1.29C58.08,35.31,58.34,35.8,58.6,36.28Zm6.08,3.13c0,.5,0,1,0,1.49a2.81,2.81,0,0,1-1.34,1.46,3.84,3.84,0,0,1-2.43.28,1.82,1.82,0,0,1-1.37-1,1.52,1.52,0,0,1,.34-1.77,2.82,2.82,0,0,1,1.72-.5Zm7-5.81c-.6,0-1.2,0-1.8,0,0,3.48,0,7,0,10.44h1.9c0-1.79,0-3.58,0-5.37A3.68,3.68,0,0,1,72.67,36a3.22,3.22,0,0,1,2.73-.75,2.25,2.25,0,0,1,1.59,1,4.25,4.25,0,0,1,.51,2.45c0,1.8,0,3.59,0,5.38h1.88v-4.5a8.54,8.54,0,0,1,.12-2,3,3,0,0,1,1.12-1.78,3.46,3.46,0,0,1,2.61-.47,2.23,2.23,0,0,1,1.53,1.09,4.65,4.65,0,0,1,.42,2.39c0,1.76,0,3.53,0,5.29h1.89c0-2.08,0-4.17,0-6.26a4,4,0,0,0-4.69-4.26,4.65,4.65,0,0,0-3.56,1.91,3.26,3.26,0,0,0-1.26-1.34,4.91,4.91,0,0,0-3.17-.52,4,4,0,0,0-2.73,1.58C71.66,34.64,71.64,34.12,71.65,33.6Zm25.71,1.56c0-.52,0-1,0-1.57h-1.8V44h1.88c0-1.79,0-3.59,0-5.38a3.58,3.58,0,0,1,.89-2.57,3.29,3.29,0,0,1,2.47-.89,2.66,2.66,0,0,1,2,.8,3.37,3.37,0,0,1,.69,2.23c0,1.94,0,3.87,0,5.81h1.89c0-2.11,0-4.23,0-6.34A4.39,4.39,0,0,0,104,34.42a5,5,0,0,0-4-.82A4.28,4.28,0,0,0,97.36,35.16Zm10.37,3.42a4.93,4.93,0,0,0,1.81,3.89,5.7,5.7,0,0,0,4.91,1A4.57,4.57,0,0,0,116.73,42a6.22,6.22,0,0,1-.44,2.87,2.88,2.88,0,0,1-2.26,1.4,6.45,6.45,0,0,1-4.85-1.3c-.31.48-.6,1-.91,1.46a7.4,7.4,0,0,0,3.92,1.51,8.2,8.2,0,0,0,3.41-.3,4.08,4.08,0,0,0,1.91-1.27,4.81,4.81,0,0,0,1-2.27,17.59,17.59,0,0,0,.11-2.9c0-2.53,0-5.07,0-7.6-.6,0-1.19,0-1.78,0,0,.53,0,1.07,0,1.6a4.58,4.58,0,0,0-2.55-1.54,5.68,5.68,0,0,0-4.94,1.16A5,5,0,0,0,107.73,38.58Zm7.34-3a3.13,3.13,0,0,1,1.52,1.84,3.57,3.57,0,0,1-.55,3.24,3.75,3.75,0,0,1-3.74,1.18A3.29,3.29,0,0,1,110,40.22a3.54,3.54,0,0,1,.53-4.07,3.51,3.51,0,0,1,1.84-.92A4.14,4.14,0,0,1,115.07,35.6ZM90.3,44h1.9c0-.77,0-1.55,0-2.32,0-2.7,0-5.41,0-8.12-.63,0-1.26,0-1.89,0C90.31,37.08,90.32,40.56,90.3,44Z" fill="#fff"/><path d="M29.8,18.23h0c1.46,1.09,3,2.12,4.45,3.18C35.17,22,36,22.7,37,23.27A5.45,5.45,0,0,1,38.7,25a6.52,6.52,0,0,1,.81,3.67,10,10,0,0,1-2.1,5.43,9.51,9.51,0,0,1-5.28,3.18,22.84,22.84,0,0,1-6,.37,12,12,0,0,0-1.59.05,5.93,5.93,0,0,1-.16.84,1.55,1.55,0,0,1-.1.52c0,.15,0,.29,0,.44-.13.45-.16.93-.28,1.39-.14.79-.28,1.58-.43,2.36s-.3,1.67-.47,2.51c-2.28,0-4.57,0-6.86,0q-3.15-2.13-6.33-4.24l-.05-.11.24,0a1,1,0,0,0,.44-1c0-.21-.22-.33-.32-.49v-.14A.85.85,0,0,0,11.44,39a1,1,0,0,0-.2-.59c.19-.09.37-.17.56-.24l.12-.12a1,1,0,0,0,.36-.9l.13.16c.32-.29.61-.61.92-.91l.12.13c0,.28.14.63.46.61a.52.52,0,0,0,.55-.63,1.08,1.08,0,0,0-.26-.38l-.45,0a1.12,1.12,0,0,1-.05-.13,3.25,3.25,0,0,1,.85-.76l.31.19a.51.51,0,0,0,.36-.71,8.7,8.7,0,0,0,1.69-.32c.1.11.23.22.39.15s.14-.26.17-.4l.08-.06A8,8,0,0,0,21.06,32a8.21,8.21,0,0,0,2.09-4.65l.18.07c0-.33,0-.67,0-1a1.73,1.73,0,0,1,.35-.41c.34-.3.58-.69.91-1a7.22,7.22,0,0,0,.81-.85c.34-.44.8-.77,1.14-1.22a13.44,13.44,0,0,1,1-1,.42.42,0,0,0,.5-.61,3.11,3.11,0,0,1,.83-.56l.21-.28c0-.11,0-.22,0-.34a2.67,2.67,0,0,0,.67-.67c.21-.19.46-.46.32-.76a.6.6,0,0,0-.78-.29A5,5,0,0,1,29.8,18.23Zm1,1.19c-.3.1-.44.56-.14.74s.81-.18.62-.52A.39.39,0,0,0,30.8,19.42ZM32,20.74l.13.23a1.51,1.51,0,0,0,.3,0,.28.28,0,0,0,0-.48C32.16,20.33,32,20.59,32,20.74ZM29.79,21a.33.33,0,0,0-.08.51.34.34,0,0,0,.55-.07C30.47,21.13,30.05,20.68,29.79,21Zm3.49.43-.09.24.21.12.14-.1A.22.22,0,0,0,33.28,21.39Zm-2.36.41c0,.15.13.22.22.31.09-.09.26-.15.23-.31A.23.23,0,0,0,30.92,21.8Zm-4.78,6.5c0,.05,0,.17,0,.23-.16.78-.29,1.57-.44,2.35-.07.3-.12.61-.17.91,1.76,0,3.53,0,5.29,0a2.2,2.2,0,0,0,2-1.35,2,2,0,0,0,0-1.35,1.82,1.82,0,0,0-1.42-.79C29.65,28.29,27.9,28.29,26.14,28.3Zm-10,7.51V36l.12.17h.29c.12-.14.2-.43,0-.52S16.24,35.71,16.14,35.81Zm-1,1.51c0,.19-.07.45.15.55s.76-.35.44-.61S15.34,37.18,15.17,37.32Zm-2.4.44a.74.74,0,0,0-.3.75c.14.15.26.37.49.38a.62.62,0,0,0,.68-.67A.56.56,0,0,0,12.77,37.76Zm4.15.44c-.16.08-.09.27-.07.41a.37.37,0,0,0,.41-.15V38.3C17.15,38.24,17,38.12,16.92,38.2Zm-2.66.64a.48.48,0,0,0,0,.62.45.45,0,0,0,.76-.35.43.43,0,0,0-.58-.4Zm-2.75,1c0,.29.18.5.39.66h.47c.21-.17.45-.37.44-.66a.74.74,0,0,0-.44-.67A.72.72,0,0,0,11.51,39.89ZM16,39.77a.29.29,0,1,0,.44.2C16.42,39.74,16.12,39.69,16,39.77Zm-2.44.52a.53.53,0,0,0-.21.82.5.5,0,0,0,.85-.34A.47.47,0,0,0,13.52,40.29Zm-2.87.92a.75.75,0,0,0,.1.81.82.82,0,0,0,.56.18A.73.73,0,0,0,11.7,41,.68.68,0,0,0,10.65,41.21Zm4.39.12-.2.31c.08.12.13.31.3.32s.28-.09.39-.19,0-.27-.07-.36S15.18,41.32,15,41.33Zm-2.76,1a.49.49,0,0,0,.61.54.55.55,0,0,0,.38-.54c0-.22-.16-.36-.3-.49A.58.58,0,0,0,12.28,42.34Zm1.93.57a.36.36,0,0,0-.11.63c.27.24.71-.2.5-.48A.35.35,0,0,0,14.21,42.91Zm1.54,1-.12.22a.9.9,0,0,0,.19.15c.11,0,.16-.13.22-.21L15.93,44Z" fill="#f5874d"/></svg>