<svg xmlns="http://www.w3.org/2000/svg" xmlns:xlink="http://www.w3.org/1999/xlink" viewBox="0 0 120 60"><defs><radialGradient id="uuid-fbf029fb-1c3a-4eca-bb71-2dd8f646f52f" cx="60" cy="12.29" fx="60" fy="12.29" r="43.22" gradientTransform="translate(0 -.58) scale(1 .98)" gradientUnits="userSpaceOnUse"><stop offset="0" stop-color="#4597c9"/><stop offset="1" stop-color="#0d6eb3"/></radialGradient></defs><path d="M32.08,.02l5.22,15.8h.06L42.3,.02h6.91V23h-4.6V6.72h-.06l-5.47,16.28h-3.78L29.83,6.88h-.06V23h-4.6V.02h6.91ZM60.63,.02c1.37,0,2.66,.24,3.84,.71,1.19,.47,2.21,1.18,3.08,2.13,.87,.94,1.54,2.12,2.03,3.54,.49,1.42,.73,3.08,.73,4.99,0,1.67-.2,3.22-.6,4.64-.4,1.41-1,2.64-1.81,3.67-.81,1.03-1.81,1.84-3.02,2.43-1.2,.59-2.62,.88-4.26,.88h-9.21V.02h9.21Zm-.33,18.73c.68,0,1.34-.12,1.97-.36,.64-.24,1.21-.63,1.7-1.17,.5-.55,.9-1.26,1.2-2.14,.3-.88,.45-1.95,.45-3.22,0-1.16-.1-2.21-.31-3.14-.21-.93-.55-1.73-1.03-2.4-.48-.66-1.11-1.17-1.9-1.53-.79-.35-1.76-.53-2.91-.53h-3.35v14.48s4.18,0,4.18,0ZM19.48,0h-.43s.08,.03,.12,.04c.03,.01,.05,.02,.08,.03,1.05,.4,1.61,.96,1.67,1.66,.04,.42-.12,.89-.46,1.4-.18,.27-.41,.75-.69,1.04,0-1.77-3.41-2.13-4.64-2.02-2.62,.23-5.11,.99-6.84,3.5-1.73,2.5-2.02,4.9-1.74,8.02,.18,1.99,.92,3.52,2.19,4.58,1.14,.95,2.35,1.4,4.06,1.37,.31,0-.45,0-.12-.03,1.3-.12,2.53-.46,3.7-1.03,1.74-.84,3.34-2.16,4.8-3.97,.23,.4,.35,.72,.38,.96,0,.11,0,.22,0,.33-.09,1.11-1.12,2.29-3.09,3.52-1.67,1.05-3.44,1.64-5.21,2.13-2.45,.66-5.31,.21-5.31,.21-1-.26-2.1-.88-2.88-1.47-1.63-1.24-2.34-3.07-2.54-5.47-.33-3.79,.75-7.18,3.24-10.15C7.61,2.41,9.85,.94,12.45,.19h-.04c.2-.07,.4-.11,.6-.16,.03,0,.07-.02,.1-.03H3.47c-1.91,0-3.47,1.52-3.47,3.38V19.62c0,1.86,1.57,3.38,3.47,3.38H19.48c1.91,0,3.48-1.52,3.48-3.38V3.38c0-1.86-1.56-3.38-3.48-3.38ZM96.01,9.09c.23-.06,.46-.1,.69-.14,.23-.04,.47-.06,.72-.06,.96,0,1.83,.17,2.62,.5,.79,.34,1.46,.79,2.01,1.37,.56,.58,.99,1.26,1.29,2.06,.31,.79,.46,1.64,.46,2.53,0,1.03-.2,1.95-.59,2.78-.39,.83-.93,1.54-1.61,2.14-.68,.6-1.49,1.06-2.42,1.39-.93,.33-1.92,.49-2.98,.49s-2.07-.16-2.99-.49c-.92-.33-1.72-.79-2.4-1.39-.68-.6-1.22-1.31-1.61-2.14-.39-.83-.59-1.76-.59-2.78,0-.71,.07-1.36,.2-1.95,.13-.59,.31-1.14,.53-1.67,.22-.52,.48-1.02,.78-1.5,.3-.48,.61-.97,.94-1.47l4.46-6.77h5.27l-4.78,7.08Zm3.48,6.1c0-.9-.3-1.64-.91-2.22-.6-.59-1.4-.88-2.37-.88s-1.77,.29-2.37,.88c-.6,.59-.91,1.33-.91,2.22s.3,1.64,.91,2.23c.6,.59,1.4,.88,2.37,.88s1.77-.29,2.37-.88,.91-1.33,.91-2.23Zm6.53-8.06c0-.91,.18-1.71,.53-2.39,.35-.68,.84-1.25,1.47-1.71,.62-.46,1.35-.8,2.17-1.02,.82-.22,1.71-.34,2.65-.34s1.82,.11,2.65,.34c.82,.22,1.54,.56,2.16,1.02,.61,.46,1.1,1.03,1.47,1.71,.36,.68,.55,1.48,.55,2.39,0,1.08-.3,2.01-.91,2.77-.6,.77-1.45,1.31-2.55,1.62v.06c1.23,.32,2.17,.89,2.82,1.72,.65,.83,.98,1.86,.98,3.09,0,.95-.2,1.79-.59,2.52-.39,.73-.92,1.33-1.58,1.81-.66,.48-1.42,.84-2.29,1.08-.86,.24-1.77,.36-2.7,.36s-1.84-.12-2.7-.36c-.86-.24-1.63-.6-2.29-1.08-.66-.48-1.19-1.08-1.58-1.81-.39-.73-.59-1.57-.59-2.52,0-1.23,.33-2.26,.98-3.09,.65-.83,1.59-1.4,2.82-1.72v-.06c-1.09-.32-1.94-.86-2.55-1.62-.6-.77-.91-1.69-.91-2.77Zm3.97,8.68c0,.69,.26,1.28,.78,1.76,.52,.49,1.21,.73,2.07,.73s1.55-.24,2.07-.73c.52-.49,.78-1.07,.78-1.76s-.26-1.31-.78-1.79c-.52-.49-1.21-.73-2.07-.73s-1.55,.24-2.07,.73c-.52,.49-.78,1.08-.78,1.79Zm.34-8.09c0,.62,.23,1.14,.69,1.57,.46,.43,1.06,.64,1.81,.64s1.35-.21,1.81-.64c.46-.43,.69-.95,.69-1.57s-.23-1.11-.69-1.54c-.46-.43-1.06-.64-1.81-.64s-1.35,.21-1.81,.64c-.46,.43-.69,.94-.69,1.54ZM77.06,1.94c.78-.16,1.6-.27,2.46-.27s1.77,.11,2.6,.32c.83,.22,1.57,.55,2.2,1.01,.63,.46,1.14,1.03,1.51,1.72,.37,.69,.56,1.51,.56,2.46,0,1.1-.3,2.04-.89,2.83-.59,.78-1.46,1.29-2.59,1.51v.08c.61,.07,1.16,.25,1.63,.53,.47,.28,.87,.63,1.19,1.04,.33,.41,.58,.88,.75,1.4,.17,.52,.26,1.07,.26,1.65,0,.99-.2,1.86-.59,2.6-.39,.75-.92,1.37-1.58,1.86-.66,.49-1.44,.86-2.33,1.11-.89,.24-1.84,.36-2.83,.36-1.82,0-3.39-.41-4.7-1.23-1.31-.82-1.98-2.12-2.4-3.89l4.35-1.04c.15,.71,.46,1.27,.94,1.68,.47,.41,1.17,.62,2.09,.62s1.63-.24,2.09-.71c.45-.48,.68-1.48,.68-2.22,0-.56-.12-.99-.36-1.3-.24-.31-.55-.54-.94-.69-.38-.15-.82-.24-1.29-.27-.48-.03-.96-.04-1.44-.04h-1.01v-3.25h1.41c.4,0,.8-.03,1.18-.08,.38-.06,.73-.16,1.05-.32,.32-.16,.57-.38,.76-.67,.19-.29,.29-.67,.29-1.13,0-.6-.24-1.09-.73-1.48-.49-.39-1.09-.59-1.8-.59-.67,0-1.23,.18-1.67,.53-.44,.35-.73,.79-.86,1.32l-4.09-1.15s.45-3.52,4.13-4.3Z" fill="url(#uuid-fbf029fb-1c3a-4eca-bb71-2dd8f646f52f)"/></svg>
