<svg xmlns="http://www.w3.org/2000/svg" viewBox="0 0 120 60"><defs><linearGradient id="a2e65d7e-bd5a-488d-b884-7619cc19f2be" x1="254.41" x2="254.41" y1="1031.62" y2="1073.62" gradientTransform="translate(-194.39 -1030.62)" gradientUnits="userSpaceOnUse"><stop offset="0" stop-color="#fed005"/><stop offset=".26" stop-color="#f7b004"/><stop offset=".56" stop-color="#f29104"/><stop offset=".82" stop-color="#ef8006"/><stop offset="1" stop-color="#ee7907"/></linearGradient></defs><path fill="url(#a2e65d7e-bd5a-488d-b884-7619cc19f2be)" d="M99 1C89 1 81 8.28 81 17.26s8 16.26 18 16.26a18.43 18.43 0 0 0 15.21-7.63A15.69 15.69 0 0 1 99 37.67c-9 0-14.85-3.14-20.75-6.58l-1.12-.65a21 21 0 1 0-38.35.56l-.3.2c-5.31 3.48-10.06 6.51-17.41 6.5a15.67 15.67 0 1 1 13.29-24A24.88 24.88 0 0 1 37 8.35 21 21 0 1 0 21.06 43c9 0 15.1-3.93 20.35-7.38l.24-.16a21.07 21.07 0 0 0 29.63 2.66 20.59 20.59 0 0 0 3-3.12l1.17.69C81.46 39.2 88.64 43 99 43a21 21 0 0 0 0-42Zm0 27.19c-7 0-12.6-4.9-12.6-10.93S92 6.33 99 6.33s12.6 4.9 12.6 10.94-5.68 10.92-12.6 10.92Zm-41.19 9.48A15.71 15.71 0 1 1 73.52 22a15.49 15.49 0 0 1-1.11 5.83 30 30 0 0 0-14.48-4 26.1 26.1 0 0 0-11.16 2.5 11.87 11.87 0 0 0 3.09 4.47 20.54 20.54 0 0 1 8.07-1.64 24.37 24.37 0 0 1 11.67 3.18 15.7 15.7 0 0 1-11.79 5.33Z"/><path fill="#fff" d="M64.82 59h1.62v-9.71h-1.61ZM42 50.54a6.26 6.26 0 0 0-1.79-1.07 5.77 5.77 0 0 0-2.1-.37 5.71 5.71 0 0 0-2.63.64 4.85 4.85 0 0 0-1.87 1.76 5.5 5.5 0 0 0-.52 1.19 4.85 4.85 0 0 0-.16 1.31 6.06 6.06 0 0 0 .2 1.53 4.66 4.66 0 0 0 .57 1.24 4 4 0 0 0 .88 1 5.1 5.1 0 0 0 1.14.69 6.29 6.29 0 0 0 1.34.41 8.11 8.11 0 0 0 1.47.13H42v-5.37h-1.58v4.54h-1.3a5.39 5.39 0 0 1-1.87-.3 3.7 3.7 0 0 1-1.4-.83 3.64 3.64 0 0 1-.89-1.3 4.57 4.57 0 0 1-.3-1.71 4.76 4.76 0 0 1 .26-1.63 3.76 3.76 0 0 1 .75-1.28 3.29 3.29 0 0 1 1.2-.85 3.87 3.87 0 0 1 1.58-.27 4 4 0 0 1 .84.09 3.78 3.78 0 0 1 .81.24 3.94 3.94 0 0 1 .74.37 7.3 7.3 0 0 1 .72.52Zm45.05 0a6.7 6.7 0 0 0-1.8-1.07 5.77 5.77 0 0 0-2.1-.37 5.71 5.71 0 0 0-2.63.64 5.28 5.28 0 0 0-1 .76 4.91 4.91 0 0 0-.82 1 5.5 5.5 0 0 0-.52 1.19A4.87 4.87 0 0 0 78 54a5.63 5.63 0 0 0 .19 1.53 4.66 4.66 0 0 0 .57 1.24 4 4 0 0 0 .88 1 5.1 5.1 0 0 0 1.14.69 6.29 6.29 0 0 0 1.34.41 8.14 8.14 0 0 0 1.48.13h3.49v-5.37h-1.63v4.54h-1.3a5.39 5.39 0 0 1-1.87-.3 3.7 3.7 0 0 1-1.4-.83 3.49 3.49 0 0 1-.88-1.3A4.29 4.29 0 0 1 79.7 54a4.83 4.83 0 0 1 .3-1.6 3.76 3.76 0 0 1 .75-1.28 3.29 3.29 0 0 1 1.2-.85 3.85 3.85 0 0 1 1.54-.27 4 4 0 0 1 .84.09 3.78 3.78 0 0 1 .81.24 3.94 3.94 0 0 1 .74.37 7.3 7.3 0 0 1 .72.52Zm-39.68-1.25-.56 1.33L43.27 59h1l.73-1.67h4.71l.67 1.67h1.7L48 49.29Zm-2.06 7.22 2-4.74 2 4.73Zm30.08.24-5.33-7.46H69V59h.86v-7.16L75 59h1.23v-9.71h-.83Zm-17.57-3.7-3.2-3.76h-1.28V59h.86v-8l3.24 3.77L60.7 51v8h1.61v-9.71H61.1Z"/></svg>
