<svg xmlns="http://www.w3.org/2000/svg" viewBox="0 0 120 60"><path d="M30.16 2.86A27.77 27.77 0 0 1 42.09 0a36.74 36.74 0 0 1 12.12 2 26.18 26.18 0 0 1 9.2 5.51 24.1 24.1 0 0 1 4.82 6.22A18 18 0 0 1 69.65 17H58.78A18 18 0 0 0 50 10.71a21 21 0 0 0-8.25-1 20.31 20.31 0 0 0-18.64 20.41v21.97a42.15 42.15 0 0 1-4.91-6 29.68 29.68 0 0 1-4.61-13.23 30.35 30.35 0 0 1 7.22-22.79 29.29 29.29 0 0 1 9.35-7.21ZM71 22.35a5.3 5.3 0 0 0-.4 3.65 4.13 4.13 0 0 0 2.78 2.91 8 8 0 0 0 4.6.07 4.48 4.48 0 0 0 2.61-1.89 5.26 5.26 0 0 0 .65-3.72 4.24 4.24 0 0 0-2.77-3.1 7.55 7.55 0 0 0-3.89-.27A5 5 0 0 0 71 22.35Zm6.75.24a2.94 2.94 0 0 1-.21 4 2.64 2.64 0 0 1-3.66-.22A2.85 2.85 0 0 1 75.16 22a2.57 2.57 0 0 1 2.61.59Zm-16.62 6.49h2.84c.06-2.37.11-4.75.24-7.12a9.52 9.52 0 0 1 1.51 0 1.24 1.24 0 0 1 1.06.48 1.07 1.07 0 0 1-.48 1.39 2.85 2.85 0 0 1-1.8.18c.62 1.69 1.26 3.37 1.74 5.1h3.07c-.57-1.34-1.24-2.64-1.75-4a3.61 3.61 0 0 0 1.53-1 2.71 2.71 0 0 0 .23-2.95 2.67 2.67 0 0 0-2-1.11c-1.9-.19-3.81.07-5.72 0a85.74 85.74 0 0 1-.47 9.03Zm23 0h3.34c.5-1.84 1-3.66 1.48-5.52.12 1.86.61 3.68.89 5.52q1.74-.06 3.48 0c.92-3 2-6 3-9.06h-2.68c-.59 2.08-1.33 4.12-1.9 6.21q-.54-3.09-1-6.21h-3.1c-.44 2.1-1 4.18-1.52 6.27-.33-2.11-.88-4.17-1.21-6.27h-2.72c.69 2.98 1.38 5.98 1.95 9.06Zm12.94 0c2-.14 4 .16 6-.15a3.77 3.77 0 0 0 2.54-1.6 5.8 5.8 0 0 0 .91-3.27 4.46 4.46 0 0 0-1.16-3.06 3.7 3.7 0 0 0-2.46-1c-1.8-.11-3.6.09-5.4 0-.03 3-.15 6.07-.42 9.08Zm5.48-6.92a2.07 2.07 0 0 1 1 2 2.78 2.78 0 0 1-1.26 2.64 5 5 0 0 1-2.37.24c.07-1.69.16-3.38.22-5.07a5.63 5.63 0 0 1 2.42.19ZM54.36 46.9a20.22 20.22 0 0 1-13.94 3 27.14 27.14 0 0 1-4.18-1v10a31.76 31.76 0 0 0 4.45.73 30 30 0 0 0 25.74-10.75 21.53 21.53 0 0 0 3.21-6H58.91a20.32 20.32 0 0 1-4.55 4.02Z" style="fill:#fff"/><path d="M38.49 13.85a16.07 16.07 0 1 1-5.26 28.73v11.74L26.4 60V29.05a16.06 16.06 0 0 1 12.1-15.2Zm2.32 6.5a9.25 9.25 0 1 0 5 .51 9.14 9.14 0 0 0-5-.51ZM60 39.71a87.82 87.82 0 0 0 .52-9h3c-.16 2.34-.29 4.69-.39 7 1.37.05 2.75 0 4.12 0 0 .51-.08 1-.08 1.53 1.45-2.86 3-5.65 4.46-8.53h3.45c1 3 2.15 6 3.31 9H75.3c-.24-.87-.52-1.72-.84-2.56h-3.3c-.4.85-.8 1.7-1.18 2.56-3.33 0-6.65.02-9.98 0Zm12-4.51h2c-.25-.83-.54-1.65-.81-2.49-.4.84-.8 1.67-1.19 2.49Zm9 .62a.76.76 0 0 1 .15.48c-.06 1.14-.13 2.28-.25 3.42h2.93c0-1.13 0-2.27.13-3.39.32-.61.75-1.16 1.13-1.74.88-1.3 1.76-2.61 2.65-3.9h-3.15c-.62 1.06-1.28 2.09-1.86 3.17-.43-1.08-1-2.1-1.45-3.18h-3.13c.96 1.72 1.91 3.43 2.85 5.14Z" style="fill:#e21f26"/></svg>