<svg id="uuid-5f213c91-a720-4af3-ba84-9fd64882d98a" xmlns="http://www.w3.org/2000/svg" viewBox="0 0 120 60"><path d="M12.2,6.49c2.82-.67,5.95,.35,7.73,2.63,2.84,3.27,1.96,8.9-1.85,11.07-2.52,1.61-5.86,1.45-8.38-.06,.04,1.7,.19,3.42,.02,5.12-.87,1.1-2.08,1.89-3.18,2.76h-.14c0-4.73,0-9.46,0-14.2-.12-3.37,2.48-6.58,5.8-7.31Zm-.04,3.53c-1.12,.54-1.97,1.6-2.3,2.78-.63,2.19,.9,4.66,3.16,5.1,2.53,.62,5.34-1.46,5.18-4.1,.14-2.92-3.4-5.17-6.04-3.79Z" fill-rule="evenodd" fill="#fbd027"/><path d="M90.62,5.39c2.94-.76,6.32,.59,7.73,3.28,1.79,3.01,.66,7.26-2.38,9.03-2.26,1.41-5.23,1.28-7.48-.09,.02,1.61,.02,3.21-.02,4.82-1,.78-1.98,1.58-2.97,2.38,0-4.32,0-8.64,0-12.95-.07-2.98,2.19-5.78,5.12-6.46Zm.3,3.02c-2.72,.94-3.29,4.93-.91,6.55,2.13,1.8,5.75,.32,6.13-2.37,.63-2.78-2.58-5.36-5.22-4.18Zm-13.01-2h2.4c0,4.44,0,8.88,0,13.32-2.06-.44-4.2,.79-6.16-.1-2.74-1.55-2.81-6.14-.04-7.69,1.2-.65,2.62-.4,3.81,.12-.03-1.89-.02-3.77-.01-5.65Zm-2.24,7.39c-1.54,.73-1.58,3.19-.03,3.92,.95,.49,2.12-.18,2.35-1.17,.59-1.37-.72-3.38-2.32-2.75Zm24.24,5.92c.8,0,1.6,0,2.4,0,0-4.44,0-8.87,0-13.31-.8,0-1.6,0-2.4,0,0,4.44,0,8.88,0,13.31Zm-65.9,2.39c3.99,2.48,10.33,1.04,12.01-3.55-1.06-.03-2.12-.03-3.18,0-2.02,2.47-6.17,2.65-8.36,.3-2.23-2.09-2.12-5.94,.19-7.93,2.24-2.22,6.24-1.94,8.19,.5,1.05,.02,2.09,.02,3.14,0-1.23-3.68-5.59-5.34-9.22-4.67-3.16,.54-5.75,3.13-6.48,6.17-.9,3.42,.62,7.35,3.72,9.18Zm12.6-2.39c.8,0,1.6,0,2.41-.01,.09-1.77-.31-3.66,.4-5.34,.52-.92,1.62-.62,2.45-.36,.1-.75,.19-1.5,.29-2.24-1.84-.42-3.68,.39-5.54,.05,0,2.63,0,5.27,0,7.91Zm8.39-8.09c1.43-.29,3.06,.07,4.07,1.15,1.65,1.74,1.5,4.89-.42,6.38-1.8,1.38-4.78,1.09-6.12-.78-1.74-2.29-.59-6.32,2.47-6.75Zm.25,2.19c-1.48,.76-1.45,3.16,.02,3.93,1.13,.47,2.4-.42,2.46-1.59,.35-1.38-1-3.03-2.48-2.34Zm8.53,2.27c-.57-1.42-1.1-2.86-1.67-4.28-.88,.01-1.76,.02-2.64,.03,1.2,2.7,2.44,5.39,3.68,8.07h1.32c.58-1.41,1.17-2.82,1.77-4.22,.52,1.38,1.02,2.76,1.48,4.16,.46,.02,.92,.04,1.39,.07,1.22-2.71,2.5-5.39,3.74-8.1-.9,0-1.8,0-2.7,.01-.54,1.4-1.06,2.8-1.63,4.19-.71-1.49-1.3-3.03-1.93-4.56-.4,.12-1.06-.06-1.18,.48-.6,1.36-1.06,2.77-1.63,4.14Zm41.65-4.39c1.84-.4,3.69,.52,5.56,.1,.05,2.64,.02,5.28,.02,7.93-1.7-.29-3.38,.28-5.06,.23-3.89-.66-4.25-7.06-.53-8.26Zm.73,2.22c-1.62,.95-1.01,4.08,1.02,3.93,1.52,0,2.1-2,1.46-3.14-.37-.92-1.64-1.35-2.48-.78Zm8.1,4.45c-.84,1.49-1.67,3-2.48,4.51,.87,0,1.75,.03,2.62-.07,.4-.39,.61-.92,.87-1.4,1.54-3.15,3.17-6.25,4.74-9.39v-.21h-2.68c-.6,1.34-1.2,2.65-1.82,3.97-.6-1.31-1.17-2.62-1.73-3.95-.93,0-1.86,0-2.8,0,1.05,2.2,2.2,4.35,3.26,6.54Z" fill-rule="evenodd" fill="#fff"/><path d="M11.44,0h4.02c4.79,.36,9.47,3.27,11.07,7.87-1.75,.03-3.5,.03-5.26,0-1.86-2.24-4.76-3.55-7.7-3.35-4.82,.1-9.06,4.52-8.9,9.26,0,3.52,.06,7.05-.03,10.57C2.24,22.07,.54,19.08,0,15.81v-3.47C.56,6.35,5.4,1.03,11.44,0Zm-.91,22.53c.04,1.62,.04,3.23,.06,4.85,2.84,.57,5.87,.5,8.58-.6,3.22-1.27,6.24-3.64,7.33-6.99-1.72-.03-3.45-.03-5.18,0-2.56,3.05-7.05,4.11-10.79,2.75Z" fill-rule="evenodd" fill="#0196fe"/></svg>
