<svg xmlns="http://www.w3.org/2000/svg" xmlns:xlink="http://www.w3.org/1999/xlink" viewBox="0 0 120 60"><defs><linearGradient id="uuid-cffc7ca5-2246-4b5a-9ff8-7c19d81af252" x1="360.05" y1="-251.61" x2="360.05" y2="-273.93" gradientTransform="translate(-336 -251) scale(1 -1)" gradientUnits="userSpaceOnUse"><stop offset="0" stop-color="#a37c35"/><stop offset=".29" stop-color="#e7d8a7"/><stop offset=".79" stop-color="#9c7f36"/><stop offset="1" stop-color="#a37c35"/></linearGradient></defs><path d="M56.45,9.44c-.93-.96-2.37-.89-3.14-.89-.47,0-.96,.02-1.06,.02-.04,0-.53-.02-.89-.02-.09,0-.13,.02-.13,.06,0,.03,.03,.05,.06,.05,.07,0,.2,0,.27,.02,.26,.05,.32,.18,.34,.45,.02,.25,.02,.47,.02,1.69v1.37c0,.75,0,1.37-.04,1.69-.03,.23-.07,.4-.23,.43-.07,.02-.16,.03-.24,.03-.05,0-.06,.02-.06,.05,0,.05,.04,.06,.13,.06,.12,0,.3-.02,.45-.02,.16,0,.3,0,.31,0,.04,0,.31,.02,.65,.05,.34,.02,.75,.05,1.09,.05,1.33,0,2.04-.55,2.38-.9,.44-.46,.85-1.22,.85-2.2,0-.93-.37-1.58-.76-1.98Zm-.57,4.09c-.46,.46-1.14,.73-1.87,.73-.92,0-1.23-.16-1.33-.31-.06-.09-.08-.4-.09-.59,0-.15-.02-.87-.02-1.69v-.97c0-.6,0-1.4,0-1.66,0-.09,.02-.12,.09-.16,.06-.03,.35-.05,.51-.05,.93,0,1.83,.11,2.56,.88,.32,.34,.75,.98,.75,1.97,0,.72-.22,1.47-.63,1.87Zm8.32,.81s-.16,0-.31-.02c-.2-.03-.53-.12-.96-.56-.45-.48-.99-1.18-1.63-2,.71-.65,.95-1.23,.95-1.8,0-.54-.34-.92-.54-1.06-.42-.3-.94-.34-1.43-.34-.24,0-.84,.02-.92,.02-.04,0-.53-.02-.89-.02-.09,0-.13,.02-.13,.06,0,.03,.03,.05,.06,.05,.07,0,.2,0,.27,.02,.26,.05,.32,.18,.34,.45,.02,.25,.02,.47,.02,1.69v1.37c0,.75,0,1.37-.04,1.69-.03,.23-.07,.4-.23,.43-.07,.02-.16,.03-.24,.03-.05,0-.06,.02-.06,.05,0,.05,.04,.06,.13,.06,.24,0,.73-.02,.74-.02,.04,0,.53,.02,.96,.02,.09,0,.13-.02,.13-.06,0-.02-.02-.05-.06-.05-.07,0-.24-.02-.35-.03-.24-.03-.28-.2-.31-.43-.04-.33-.04-.94-.04-1.69v-.19s.02-.06,.05-.06l.96,.02s.07,.02,.1,.05c.16,.2,.53,.73,.85,1.16,.45,.59,.72,.97,1.06,1.15,.2,.11,.4,.15,.84,.15h.56c.14,0,.19-.02,.19-.06,0-.02-.03-.05-.07-.05Zm-3.67-2.63c-.34,0-.71-.05-.82-.12-.04-.02-.05-.05-.05-.09v-2.55s.02-.08,.06-.09c.08-.02,.29-.05,.53-.05,.84,0,1.36,.59,1.36,1.56,0,.59-.2,1.01-.48,1.2-.18,.12-.4,.15-.59,.15Zm7.15,1.69s-.05,.03-.07,.12c-.05,.32-.15,.48-.35,.56-.2,.09-.55,.09-.75,.09-.77,0-.89-.1-.91-.64,0-.16,0-1.07,0-1.34v-.69s.02-.05,.05-.05c.13,0,.91,.02,1.12,.04,.31,.03,.38,.16,.41,.27,.03,.1,.03,.18,.03,.26,0,.04,.02,.07,.05,.07,.05,0,.05-.09,.05-.15,0-.05,.02-.34,.03-.5,.02-.26,.06-.39,.06-.44s-.02-.06-.04-.06c-.03,0-.06,.04-.12,.1-.07,.08-.18,.09-.37,.11-.18,.02-1.14,.02-1.25,.02-.04,0-.05-.02-.05-.08v-2.15c0-.05,.02-.08,.05-.08,.09,0,.94,0,1.07,.02,.42,.05,.5,.14,.56,.27,.04,.09,.05,.23,.05,.28,0,.06,.02,.1,.06,.1,.03,0,.05-.05,.05-.09,.02-.09,.03-.44,.04-.52,.02-.22,.06-.31,.06-.37,0-.04,0-.07-.03-.07-.04,0-.07,.03-.11,.04-.06,.02-.19,.03-.34,.04-.18,0-1.74,0-1.8,0l-.32-.02c-.17,0-.38,0-.56,0-.09,0-.13,.02-.13,.06,0,.03,.03,.05,.06,.05,.07,0,.2,0,.27,.02,.26,.05,.32,.18,.34,.45,.02,.25,.02,.47,.02,1.69v1.37c0,.75,0,1.37-.04,1.69-.03,.23-.07,.4-.23,.43-.07,.02-.16,.03-.24,.03-.05,0-.06,.02-.06,.05,0,.05,.04,.06,.13,.06,.12,0,.3-.02,.45-.02,.16,0,.3,0,.31,0,.12,0,.31,0,.61,.02,.31,0,.74,.02,1.32,.02,.31,0,.37,0,.42-.2,.04-.16,.1-.69,.1-.76,0-.05,0-.12-.05-.12Zm6.33,.94c-.08,0-.2,0-.31-.05-.16-.05-.39-.17-.67-.87-.48-1.19-1.71-4.41-1.83-4.71-.09-.24-.13-.28-.17-.28s-.08,.05-.17,.3l-1.78,4.85c-.14,.39-.3,.69-.66,.73-.06,0-.17,.02-.23,.02-.04,0-.07,.02-.07,.05,0,.05,.05,.06,.15,.06,.37,0,.8-.02,.89-.02s.42,.02,.61,.02c.07,0,.12-.02,.12-.06,0-.03-.02-.05-.08-.05h-.08c-.13,0-.3-.07-.3-.23,0-.14,.04-.33,.11-.52l.47-1.38s.04-.06,.08-.06h1.69s.05,.02,.07,.05l.73,1.92c.05,.13,0,.2-.05,.21-.03,0-.05,.02-.05,.05,0,.05,.09,.05,.24,.05,.54,.02,1.11,.02,1.23,.02,.09,0,.16-.02,.16-.06,0-.04-.03-.05-.08-.05Zm-2.34-2.48h-1.5s-.04-.02-.02-.05l.69-2.11c.04-.12,.08-.12,.12,0l.74,2.11s0,.05-.03,.05Zm10.5,2.48c-.08,0-.28,0-.51-.07-.34-.11-.39-.55-.42-.83l-.53-4.8c-.02-.15-.04-.21-.09-.21s-.09,.05-.12,.12l-2.3,4.9-2.4-4.91c-.04-.09-.07-.12-.12-.12s-.08,.05-.09,.14l-.56,5.09c-.03,.3-.05,.6-.31,.65-.12,.02-.17,.02-.24,.02-.04,0-.08,.02-.08,.04,0,.05,.05,.07,.13,.07,.21,0,.59-.02,.66-.02,.06,0,.44,.02,.73,.02,.09,0,.14-.02,.14-.07,0-.02-.03-.04-.06-.04-.05,0-.16,0-.3-.04-.12-.02-.2-.12-.2-.24,0-.13,0-.27,0-.4l.31-3.62h.03c.09,.21,.96,2.08,1.03,2.23,.04,.08,.71,1.43,.92,1.81,.15,.28,.19,.36,.24,.36,.07,0,.09-.07,.26-.41l1.92-4.06h.02l.38,4.05c.02,.14,0,.27-.03,.28-.04,0-.05,.02-.05,.05,0,.04,.04,.06,.22,.08,.29,.02,1.14,.03,1.31,.03,.09,0,.16-.02,.16-.07,0-.03-.02-.04-.06-.04Zm6.29-2.83c-.24,0-.73,.02-.77,.02s-.53-.02-.89-.02c-.09,0-.13,.02-.13,.06,0,.03,.03,.05,.06,.05,.07,0,.2,0,.27,.02,.31,.09,.35,.17,.35,.8v1.33c0,.13-.05,.22-.16,.27-.2,.12-.61,.16-.89,.16-.72,0-1.43-.23-2.05-.84-.27-.27-.83-1.06-.83-2.16,0-.91,.32-1.62,.78-1.98,.6-.47,1.18-.52,1.68-.52,1.01,0,1.65,.34,1.84,.63,.12,.19,.16,.41,.16,.52,0,.07,.02,.12,.05,.12,.05,0,.07-.04,.07-.16,0-.78,.05-1,.05-1.11,0-.03-.02-.06-.09-.07-.2,0-.47-.04-.63-.08-.15-.03-.71-.13-1.2-.13-.6,0-1.38,.05-2.09,.49-.7,.44-1.31,1.32-1.31,2.57,0,.98,.45,1.81,.93,2.23,.87,.76,1.98,.84,2.58,.84,.45,0,1.16-.09,1.66-.35,.09-.05,.1-.07,.1-.42v-.87c0-.33,0-.56,.02-.81,.02-.27,.08-.41,.29-.45,.09-.02,.14-.02,.2-.02,.03,0,.06-.02,.06-.05,0-.05-.04-.06-.13-.06Zm6.22,2.82c-.08,0-.2,0-.31-.05-.16-.05-.39-.17-.67-.87-.48-1.19-1.71-4.41-1.83-4.71-.09-.24-.13-.28-.17-.28s-.08,.05-.17,.3l-1.78,4.85c-.14,.39-.3,.69-.66,.73-.06,0-.17,.02-.23,.02-.04,0-.07,.02-.07,.05,0,.05,.05,.06,.15,.06,.37,0,.8-.02,.89-.02s.42,.02,.61,.02c.07,0,.12-.02,.12-.06,0-.03-.02-.05-.08-.05h-.08c-.13,0-.3-.07-.3-.23,0-.14,.04-.33,.11-.52l.47-1.38s.04-.06,.08-.06h1.69s.05,.02,.07,.05l.73,1.92c.05,.13,0,.2-.05,.21-.03,0-.05,.02-.05,.05,0,.05,.09,.05,.24,.05,.54,.02,1.11,.02,1.23,.02,.09,0,.16-.02,.16-.06,0-.04-.03-.05-.08-.05Zm-2.34-2.48h-1.5s-.04-.02-.02-.05l.69-2.11c.04-.12,.08-.12,.12,0l.74,2.11s0,.05-.03,.05Zm10.5,2.48c-.08,0-.28,0-.51-.07-.34-.11-.39-.55-.42-.83l-.53-4.8c-.02-.15-.04-.21-.09-.21s-.09,.05-.12,.12l-2.3,4.9-2.4-4.91c-.04-.09-.07-.12-.12-.12s-.08,.05-.09,.14l-.56,5.09c-.03,.3-.05,.6-.31,.65-.12,.02-.17,.02-.24,.02-.04,0-.08,.02-.08,.04,0,.05,.05,.07,.13,.07,.21,0,.59-.02,.66-.02,.06,0,.44,.02,.73,.02,.09,0,.14-.02,.14-.07,0-.02-.03-.04-.06-.04-.05,0-.16,0-.3-.04-.12-.02-.2-.12-.2-.24,0-.13,0-.27,0-.4l.31-3.62h.03c.09,.21,.96,2.08,1.03,2.23,.04,.08,.71,1.43,.92,1.81,.15,.28,.19,.36,.24,.36,.07,0,.09-.07,.26-.41l1.92-4.06h.02l.38,4.05c.02,.14,0,.27-.03,.28-.04,0-.05,.02-.05,.05,0,.04,.04,.06,.22,.08,.29,.02,1.14,.03,1.31,.03,.09,0,.16-.02,.16-.07,0-.03-.02-.04-.06-.04Zm2.82,0c-.07,0-.24-.02-.35-.03-.24-.03-.28-.2-.31-.43-.04-.33-.04-.94-.04-1.69v-1.37c0-1.22,0-1.44,.02-1.69,.02-.27,.08-.41,.29-.45,.09-.02,.14-.02,.2-.02,.03,0,.06-.02,.06-.05,0-.05-.04-.06-.13-.06-.24,0-.73,.02-.77,.02s-.53-.02-.79-.02c-.09,0-.13,.02-.13,.06,0,.03,.03,.05,.06,.05,.05,0,.16,0,.24,.03,.17,.04,.25,.17,.27,.44,.02,.25,.02,.47,.02,1.69v1.37c0,.75,0,1.37-.04,1.69-.03,.23-.07,.4-.23,.43-.07,.02-.16,.03-.24,.03-.05,0-.06,.02-.06,.05,0,.05,.04,.06,.13,.06,.24,0,.73-.02,.77-.02s.53,.02,.96,.02c.09,0,.13-.02,.13-.06,0-.02-.02-.05-.06-.05Zm7.38-5.79c-.32,0-.58,.02-.67,.02s-.46-.02-.82-.02c-.09,0-.16,0-.16,.05,0,.03,0,.05,.06,.05,.06,0,.24,0,.38,.04,.24,.06,.3,.23,.31,.74l.09,3.97c-.25-.26-1.11-1.21-1.88-2.04-1.21-1.29-2.37-2.55-2.49-2.68-.08-.08-.21-.25-.27-.25s-.09,.09-.09,.39v4.47c0,.71-.05,.94-.24,.99-.12,.04-.26,.05-.32,.05-.04,0-.06,.02-.06,.05,0,.05,.05,.06,.13,.06,.35,0,.68-.02,.75-.02s.38,.02,.83,.02c.09,0,.14-.02,.14-.06,0-.03-.02-.05-.06-.05-.07,0-.24,0-.39-.05-.21-.06-.29-.27-.31-.91l-.1-3.74c.25,.28,1.14,1.26,2.05,2.24,.83,.89,1.96,2.04,2.05,2.12,.42,.41,.51,.5,.57,.5,.05,0,.07-.04,.07-.55l.02-4.58c0-.47,.03-.64,.29-.69,.09-.02,.15-.02,.19-.02,.05,0,.09-.02,.09-.05,0-.05-.05-.05-.14-.05Zm6.84,2.97c-.24,0-.73,.02-.77,.02s-.53-.02-.89-.02c-.09,0-.13,.02-.13,.06,0,.03,.03,.05,.06,.05,.07,0,.2,0,.27,.02,.31,.09,.35,.17,.35,.8v1.33c0,.13-.05,.22-.16,.27-.2,.12-.61,.16-.89,.16-.72,0-1.43-.23-2.05-.84-.27-.27-.83-1.06-.83-2.16,0-.91,.32-1.62,.78-1.98,.6-.47,1.18-.52,1.68-.52,1.01,0,1.65,.34,1.84,.63,.12,.19,.16,.41,.16,.52,0,.07,.02,.12,.05,.12,.05,0,.07-.04,.07-.16,0-.78,.05-1,.05-1.11,0-.03-.02-.06-.09-.07-.2,0-.47-.04-.64-.08-.15-.03-.71-.13-1.2-.13-.6,0-1.38,.05-2.08,.49-.7,.44-1.31,1.32-1.31,2.57,0,.98,.45,1.81,.93,2.23,.87,.76,1.98,.84,2.58,.84,.45,0,1.16-.09,1.66-.35,.09-.05,.1-.07,.1-.42v-.87c0-.33,0-.56,.02-.81,.02-.27,.08-.41,.29-.45,.09-.02,.14-.02,.2-.02,.03,0,.06-.02,.06-.05,0-.05-.04-.06-.13-.06Z" fill="#a37c35"/><path d="M12.42,21.96h0s-.1,0-.1,0c.03,0,.07,0,.1,0Zm-.13-5.65v-2.1H4.59c-2.28,0-3.03-.71-3.03-.71,0,2.82,3.62,2.81,3.62,2.81,0,0,7.11,0,7.11,0Zm-5.97,2.94h3.06v-2.1h-2.48s-.59,0-.59,0c-2.28,0-3.03-.62-3.03-.62,0,2.82,3.03,2.72,3.03,2.72Zm3.07,2.77v-2.1h-1.44s-.59,0-.59,0c-2.28,0-3.03-.71-3.03-.71,0,2.53,2.44,2.78,2.94,2.81h0s.09,0,.09,0h.59s1.44,0,1.44,0ZM48.1,10.12c0,1.69-1.28,3.09-2.92,3.29-.13,.02-.27,.03-.41,.03h-8.95c-1.84,0-3.33,1.49-3.33,3.32s1.49,3.32,3.33,3.32v-3.01h2.11v4.89h-2.01s-.07,0-.1,0c-2.26-.04-4.18-1.49-4.91-3.51-1.51,2.16-3.7,3.89-6.87,4.55-3.16-.66-5.34-2.38-6.85-4.53-.73,2-2.65,3.44-4.9,3.48-.03,0-.07,0-.1,0h-2.01v-4.89h2.11v3.01c1.84,0,3.33-1.49,3.33-3.32s-1.49-3.32-3.33-3.32H3.33c-.14,0-.27,0-.41-.03-1.65-.2-2.92-1.6-2.92-3.29,0-.18,.01-.36,.04-.54,.56,1.04,1.67,1.75,2.94,1.75H12.28v.02c.79,.01,1.54,.2,2.22,.53-.89-4.24-.54-8.05-.54-8.05,7.89,.38,10.08-3.84,10.08-3.84,0,0,2.19,4.22,10.08,3.84,0,0,.35,3.81-.55,8.06,.68-.33,1.44-.53,2.24-.54v-.02h9.3c1.27,0,2.38-.71,2.94-1.75,.03,.18,.04,.36,.04,.54Zm-17.21,4.79c.04-.13,.09-.25,.15-.37,1.63-4.31,1.19-9.13,1.19-9.13-6.4,.31-8.19-3.12-8.19-3.12,0,0-1.78,3.43-8.19,3.12,0,0-.43,4.65,1.1,8.9,.13,.27,.24,.55,.33,.84,.3,.71,.67,1.39,1.11,2.03,.55-.28,2.93-1.45,5.48-2.09,0,0,3.1-.78,2.99-3.06,0,0-.06-1.96-2.06-1.86,0,0-.62,.31-.12,.77,0,0-1.29,.07-.53,1.21,0,0-1.75-.28-1.35,.3,0,0-1.94-.35-2.25,.77,0,0-.07,1.06,1.08,1.15,0,0-2.13,.53-3.02-.87,0,0-.52,.37-.44-1.31,0,0,.12-.83,.62-1,0,0-.12,1,.86,.18,0,0,.73-.74,.8-1.55l-.77,.04s.56-.59,1.44-.87l-.03-.3s-2.05-3.37,4.73-3.1c0,0-3.75-.03-3.88,1.79,0,0,.39-.56,.92-.65,0,0-.15,.38,.06,.47,0,0,.27-.43,.62-.58,0,0-.04,.37,.18,.51,0,0,.15-1.93,4-1.06,0,0,2.5,1.05,3.07,.12,0,0-.16,1.37-2.45,.58,0,0-1.64-.6-2.96-.2,0,0-.51,.13-.82,.68,0,0,3.46-.47,5.08,2.18,0,0-.37-.19-.77-.12,0,0,.49,1.39,2.49,1.61,0,0-.44,.52-1.93,0,0,0,2.13,4.89-4.68,6.94,0,0,1.29,.1,1.76,.71,0,0-2.76-.76-5.36,1.28,.83,.51,1.79,.91,2.9,1.14,3.66-.76,5.71-3.27,6.85-6.06Zm4.79,7.05h.1s-.07,0-.1,0h0Zm7.24-7.76h-7.11v2.1h7.11s3.62,0,3.62-2.81c0,0-.75,.71-3.03,.71,0,0-.59,0-.59,0Zm-1.72,2.94h0s-2.48,0-2.48,0v2.1h3.06s3.03,.1,3.03-2.72c0,0-.75,.62-3.03,.62h-.59Zm2.57,2.06s-.75,.71-3.03,.71h-.59s-1.44,0-1.44,0v2.1h2.11c.5-.03,2.94-.28,2.94-2.81Z" fill="url(#uuid-cffc7ca5-2246-4b5a-9ff8-7c19d81af252)"/><path d="M22.8,10.9s-.19,.51-.43,.59c-.24,.08-.08-.59-.08-.59,0,0-.24,.17-.38,.46-.14,.28-.22,.74-.22,.74,0,0,.4,.08,.79-.32,.4-.4,.32-.89,.32-.89Z" fill-rule="evenodd" fill="#fff"/></svg>
