<svg xmlns="http://www.w3.org/2000/svg" xmlns:xlink="http://www.w3.org/1999/xlink" viewBox="0 0 120 60"><defs><linearGradient id="uuid-942b8184-6f9b-44cd-9a5a-57207656407b" x1="60" y1="15.31" x2="60" y2="-5.79" gradientUnits="userSpaceOnUse"><stop offset="0" stop-color="#e2202b"/><stop offset=".13" stop-color="#c8293c"/><stop offset="1" stop-color="#1b67ab"/></linearGradient></defs><path d="M80.47,.13s1.61,1.01,1.17,2.75-2.05,1.74-2.05,1.74h-2.05s-2.34-.58-4.97-.58h-.29c-2.63,0-4.97,.58-4.97,.58h-2.05s-1.61,0-2.05-1.74c-.44-1.74,1.17-2.75,1.17-2.75-.73,0-3.95,1.45-3.51,4.78,.44,2.75,2.49,3.62,3.22,3.77-.15,.14-.15,.43-.15,.72v1.45c0,.72,.59,1.3,1.32,1.3h.59c.15,.29,.29,.43,.59,.43h.15v1.74c0,1.74,1.32,3.04,3.07,3.04h5.85c1.61,0,2.93-1.3,3.07-2.9,.59-.87,.59-2.03,.59-2.17h0v-.14h.29c.73,0,1.32-.58,1.32-1.3v-1.45c0-.29,0-.43-.15-.72,.73-.14,2.93-1.01,3.22-3.77,.59-3.33-2.63-4.78-3.37-4.78Zm0,0s1.61,1.01,1.17,2.75-2.05,1.74-2.05,1.74h-2.05s-2.34-.58-4.97-.58h-.29c-2.63,0-4.97,.58-4.97,.58h-2.05s-1.61,0-2.05-1.74c-.44-1.74,1.17-2.75,1.17-2.75-.73,0-3.95,1.45-3.51,4.78,.44,2.75,2.49,3.62,3.22,3.77-.15,.14-.15,.43-.15,.72v1.45c0,.72,.59,1.3,1.32,1.3h.59c.15,.29,.29,.43,.59,.43h.15v1.74c0,1.74,1.32,3.04,3.07,3.04h5.85c1.61,0,2.93-1.3,3.07-2.9,.59-.87,.59-2.03,.59-2.17h0v-.14h.29c.73,0,1.32-.58,1.32-1.3v-1.45c0-.29,0-.43-.15-.72,.73-.14,2.93-1.01,3.22-3.77,.59-3.33-2.63-4.78-3.37-4.78ZM15.22,0H4.97C2.19,0,0,2.17,0,4.93V15.07c0,2.75,2.19,4.93,4.97,4.93H15.22c2.78,0,4.97-2.17,4.97-4.93V4.93c0-2.75-2.34-4.93-4.97-4.93Zm21.36,13.19v3.19h-11.12V4.06h11.12v3.62h-6.14v1.45h6.14v2.75h-6.14v1.3h6.14Zm12.73-8.84v3.62s-1.61-.43-3.51-.43-2.49,.14-2.49,.87,.73,.72,2.63,.72,2.93,.29,3.51,1.59c.59,1.3,.44,3.91-1.02,4.78s-2.49,1.01-4.54,1.01-5.27-.43-5.27-.43v-3.04s1.9,.29,3.51,.29,2.34,0,2.34-.72-.88-.72-.88-.72c0,0-1.76,0-2.93-.14-1.32,0-2.34-1.45-2.49-2.46s-.29-3.04,.88-4.35c1.32-1.3,3.95-1.16,5.85-1.16,1.9,0,4.39,.58,4.39,.58Zm57.94,3.91h-3.37v7.97h-5.27v-7.97h-3.51V4.06h12.14v4.2Zm12.29-3.91v3.62s-1.61-.43-3.51-.43-2.49,.14-2.49,.87,.73,.72,2.63,.72,2.93,.29,3.51,1.59c.59,1.3,.44,3.91-1.02,4.78-1.46,.87-2.49,1.01-4.54,1.01s-5.27-.43-5.27-.43v-3.04s1.9,.29,3.51,.29,2.34,0,2.34-.72-.88-.72-.88-.72c0,0-1.76,0-2.93-.14-1.32,0-2.34-1.45-2.49-2.46s-.29-3.04,.88-4.35c1.32-1.3,3.95-1.16,5.85-1.16,1.9,.14,4.39,.58,4.39,.58Zm-56.24,6.51v-1.45c0-.1,0-.2,0-.3-1.17-.47-2.69-1.68-3.07-4.09-.03-.26-.05-.49-.05-.71,0-.09,.03-.16,.03-.24h-8.86v12.17h4.97v-3.33h4.1c1.38,0,2.23-.65,2.93-1.57-.04-.15-.06-.31-.06-.47Zm-5.21-.86h-1.76v-2.61h1.76c.59,.14,1.17,.58,1.17,1.45,0,.72-.59,1.16-1.17,1.16Zm32.19,1.16h.29c1.9,0,3.37-1.45,3.37-3.33v-.43c0-1.88-1.46-3.33-3.37-3.33h-6.02s0,.04,0,.07c0,.28-.03,.58-.08,.9-.04,.34-.11,.66-.19,.96-.33,1.29-1.05,2.05-1.74,2.5-.35,.26-.7,.45-1.04,.59v2.09c0,.58-.29,1.01-.88,1.3v3.77h4.97v-3.33l10.53,6.67-5.85-8.41Zm-2.63-1.3h-1.76v-2.46h1.76c.59,0,1.17,.58,1.17,1.3s-.59,1.16-1.17,1.16Z" fill="url(#uuid-942b8184-6f9b-44cd-9a5a-57207656407b)"/><path d="M3.95,12.75c0,.43-.29,.72-.73,.72s-.73-.29-.73-.72V7.39c0-.43,.29-.72,.73-.72s.73,.29,.73,.72v5.36Zm8.78,.58c-.29,.29-.73,.29-1.02,0l-4.24-4.2v3.62c0,.43-.29,.72-.73,.72s-.73-.29-.73-.72V7.39c0-.43,.29-.72,.73-.72,.29,0,.44,.14,.59,.29h0l5.41,5.36c.29,.29,.29,.72,0,1.01Zm4.83,0c-.29,.29-.73,.29-1.02,0l-5.41-5.36c-.29-.29-.29-.72,0-1.01s.73-.29,1.02,0l5.41,5.36c.29,.29,.29,.72,0,1.01Zm58.67-4.78c.15,.14,.29,.43,.29,.72,0,.58-.59,1.16-1.17,1.16-.29,0-.59-.14-.88-.29l1.76-1.59Zm-7.32,0l1.61,1.59c-.15,.14-.44,.29-.88,.29-.59,0-1.17-.43-1.17-1.16,0-.14,.15-.43,.44-.72Zm-3.07,3.19h0c-.59,0-1.02-.43-1.02-.87v-1.3c0-.58,.44-.87,.88-.87h.15s0,3.04,0,3.04Zm12.73,2.03v-1.16h.29c-.15,.29-.15,.72-.29,1.16Zm1.76-2.9c0,.58-.44,.87-.88,.87h-.15v-3.19h.15c.59,0,.88,.43,.88,.87v1.45Zm-1.76,2.9v-1.16h.29c-.05,.35-.15,.72-.29,1.16Zm1.76-2.9c0,.58-.44,.87-.88,.87h-.15v-3.19h.15c.59,0,.88,.43,.88,.87v1.45Zm-13.75-2.32s0-.14-.15-.14c0,0-.15,0-.15,.14v3.48s0,0,0,0c0,0,0,0,0,0,0,.08,.07,.14,.15,.14s.15-.06,.15-.14v-3.49Zm12.29,0s0-.14-.15-.14c0,0-.15,0-.15,.14v3.48s0,0,0,0c0,0,0,0,0,0,0,.08,.07,.14,.15,.14s.15-.06,.15-.14v-3.49Zm-6.44,4.04c-2.19,0-4.1,.43-5.56,1.16v.43c0,1.59,1.32,2.75,2.78,2.75h5.56c1.32,0,2.34-.87,2.63-1.88-.44,.14-.73,.29-1.17,.29,0,.14-.29,.29-.44,.29h-.44c-.15,0-.44-.14-.44-.43,0-.14,.15-.43,.44-.43h.44c.15,0,.44,.14,.44,.29,.44,0,.88-.14,1.17-.43l.15-.14v-.72c-1.46-.72-3.37-1.16-5.56-1.16Zm-1.3,2.66c-.25,0-.46-.2-.46-.45s.21-.45,.46-.45,.46,.2,.46,.45c0,.25-.21,.45-.46,.45Zm2.76,0c-.25,0-.46-.2-.46-.45s.21-.45,.46-.45,.46,.2,.46,.45c0,.25-.21,.45-.46,.45Z" fill="#fff"/></svg>
