<svg xmlns="http://www.w3.org/2000/svg" viewBox="0 0 120 60"><path fill="#aa705b" d="M2.08 20.46a3.42 3.42 0 0 1 3.49-2.92h32.17a8.7 8.7 0 0 1 8.42 5.13c1.18 2.3.34 4.91-.13 7.26-.59 2.55-.66 5.32-2.15 7.56-1.69 2.73-4.6 4.95-7.94 5-2.74 0-5.49.1-8.23-.06-3.2-.38-5.44-3.17-6.35-6H14.5c-.34 2-.69 4.07-1.05 6.11H0c1.49-6.24 2.36-12.6 3.64-18.88-.64-1.08-1.48-2-1.56-3.2Zm1.43-.77c-1.12 1.28.73 2.55 1.31 3.64-1.26 6-2.2 12.13-3.43 18.18 3.68-.15 7.42.27 11.07-.17.63-1.94.73-4 1.27-6h8.45c.71 2.56 2.26 5.26 5.07 5.91a49.18 49.18 0 0 0 8.58.18c4.32-.2 7.79-4 8.4-8.07.39-3.05 1.49-6.08 1.2-9.18A6.74 6.74 0 0 0 39 18.8c-10.94-.09-21.9 0-32.84-.05-.96-.01-2.16-.01-2.65.94Z"/><path fill="#29286a" d="M3.51 19.69c.51-1 1.69-1 2.63-.94 10.94.07 21.9 0 32.84.05a6.74 6.74 0 0 1 6.45 5.4c.29 3.1-.81 6.13-1.2 9.18-.61 4.08-4.08 7.87-8.4 8.07a49.18 49.18 0 0 1-8.58-.18c-2.81-.65-4.36-3.35-5.07-5.91h-8.45c-.54 2-.64 4-1.27 6-3.65.44-7.39 0-11.07.17 1.23-6 2.17-12.15 3.43-18.18-.58-1.11-2.43-2.35-1.31-3.66Zm.89.58c.6.88 1.19 1.73 1.79 2.62-1 5.75-1.88 11.52-3 17.25h8.17c.38-2 .75-4.1 1.16-6.15h9.12c.28-1.65.58-3.29.9-4.93-3.05.1-6.11.05-9.16.06.25-1.34.5-2.67.74-4h9.1c.17-.76.36-1.52.54-2.28-1-.92-1.63-2.86-3.3-2.66-5.37.05-10.72-.05-16.06.09Zm19.33-.11L26 22.87c-.7 3.69-1.39 7.36-2 11.05a5.3 5.3 0 0 0 5.19 6.2c3.45-.11 7.37.73 10.36-1.45 2.22-1.41 3.2-4 3.58-6.45h-6.25a54.38 54.38 0 0 1-5.76 5.28q.72-3.73 1.39-7.47c-1.52 0-3 .06-4.56.09 2.94-2.49 5.74-5.14 8.91-7.33-.33 1.61-.6 3.22-.84 4.84h8c1-3.13-.87-7-4.34-7.39-5.37-.17-10.68.07-15.95-.08Z"/><path fill="#fff" d="M4.4 20.27c5.34-.14 10.69 0 16-.07 1.67-.2 2.27 1.74 3.3 2.66-.18.76-.37 1.52-.54 2.28h-9.1c-.24 1.34-.49 2.67-.74 4 3.05 0 6.11 0 9.16-.06-.32 1.64-.62 3.28-.9 4.93h-9.12c-.41 2-.78 4.1-1.16 6.15H3.13c1.16-5.73 2-11.5 3-17.25C5.59 22 5 21.15 4.4 20.27Zm21.6 2.6c-.7 3.69-1.39 7.36-2 11.05a5.3 5.3 0 0 0 5.19 6.2c3.45-.11 7.37.73 10.36-1.45 2.22-1.41 3.2-4 3.58-6.45h-6.25a54.38 54.38 0 0 1-5.76 5.28q.72-3.73 1.39-7.47c-1.52 0-3 .06-4.56.09 2.94-2.49 5.74-5.14 8.91-7.33-.33 1.61-.6 3.22-.84 4.84h8c1-3.13-.87-7-4.34-7.39-5.27-.2-10.56 0-15.85-.11ZM52.75 25h8.12c-.21.77-.43 1.54-.65 2.3H55.5c-.19.63-.37 1.26-.55 1.89h4.86c-.19.7-.37 1.4-.56 2.1h-4.72c-.18 1.4-.42 2.8-.7 4.19h-3.48c.92-3.48 1.57-7.04 2.4-10.48Zm6.48 10.46h3.53c.3-.57.6-1.14.91-1.7H67c0 .41 0 1.25.06 1.67h3.44C69.81 32 69.3 28.47 68.76 25H65.3c-2.15 3.37-3.78 7.07-6.07 10.41Zm7.37-7.65c.14 1.25.2 2.51.27 3.77l-2.21.06c.62-1.34 1.2-2.64 1.94-3.88Zm16.22 7.68c1.9-.29 3.16-2 4-3.54-1-.25-2.13-.39-3.19-.57-.56 1-1.19 2.24-2.56 1.94-2.57-1-1.16-5 .84-5.91 1.15-.68 2 .51 2.48 1.37l3-.31a4.56 4.56 0 0 0-4.43-3.63c-4.76-.62-8.26 5.8-5.36 9.43 1.21 1.55 3.4 1.32 5.22 1.17Zm5.52 0h3.35c.31-1.4.6-2.82.91-4.22h3.53c-.35 1.38-.66 2.79-.93 4.19l3.34.05c.87-3.47 1.25-7 2.24-10.48h-3.31c-.28 1.23-.55 2.47-.83 3.71h-3.53c.3-1.24.63-2.48.92-3.72h-3.3C90 28.46 89.26 32 88.34 35.41Zm12.58 0h3.51l.9-1.68h3.38c0 .42.05 1.26.07 1.67H112c-.41-3.5-1-7-1.58-10.46-1.15.13-2.53-.32-3.53.25-2.25 3.2-3.76 6.88-5.97 10.16Zm7.54-3.88h-2.12c.63-1.28 1.26-2.57 1.92-3.83.06 1.22.1 2.5.2 3.77Zm6 3.87h3.36c.67-3.26 1.46-6.51 2.14-9.78V25h-3.28c-.68 3.44-1.19 7-2.18 10.42Z"/></svg>