<svg xmlns="http://www.w3.org/2000/svg" viewBox="0 0 120 60"><path fill="#3597cd" d="M61.13 3.88c.89-.76 2.11-.12 3.17-.33v.31h-.39a1.54 1.54 0 0 1-.4 1 9.83 9.83 0 0 1 1.6.48c.05.19.1.38.16.58h.94c.32.11.64.22 1 .31l-.84-.55a6.6 6.6 0 0 0 1.47-.14 7 7 0 0 0 1.56.4c1 0 1.52.94 2.26 1.42L72 7a4.81 4.81 0 0 0 1.89.7c.85.08 1.28 1 2.09 1.19a5.43 5.43 0 0 0-2.26-1.72c-.67-.28-1.33-.62-2-.93A5.16 5.16 0 0 0 68.9 5a10.06 10.06 0 0 1-2.12-.17L66.56 4a15.63 15.63 0 0 1 6.73 2.28c.58.37 1.36.53 1.71 1.18s1.29 1.17 1.73 1.93c.63 1.32 2.16 1.74 3.2 2.64a4.11 4.11 0 0 1 .73 2.21c-.86-.23-.94-1.27-1.54-1.8a25 25 0 0 0-3.53-3.06c.62 2.23 3.1 3.42 3.59 5.73a7.53 7.53 0 0 1 1 2.62l.63-.57c.19.39.37.78.55 1.17l.47.18a6.38 6.38 0 0 1 0 2.61c-.28.88.88 1.52.46 2.39-.25.64.11 1.26.19 1.89a13.9 13.9 0 0 0-.48 2.76A4.8 4.8 0 0 1 81 31a5.52 5.52 0 0 0 .12-2 14.58 14.58 0 0 0-.9 2.33c-.32-.17-.78-.18-.83.27-.35 1.47-1.59 2.5-1.87 4l.92-.56a5.33 5.33 0 0 1-2.64 3.22c-.38.29-.88-.2-1.22.14a13.21 13.21 0 0 1-2.88 1.85c-1.28.53-2.29 1.72-3.76 1.74.69-.89 2-1 2.72-1.84.28-.36.53-.74.79-1.12a5.81 5.81 0 0 0-2 .8 8.4 8.4 0 0 1-2 1.22c-.53.18-1-.22-1.46-.41.19-.2.38-.39.59-.58l-1.37.05.69-.76h-1.18v-.46a5.22 5.22 0 0 1 1.84-.29 17.6 17.6 0 0 0 3.65-1.6c.66-.38 1.5-.36 2.07-.9a3.12 3.12 0 0 0 1.07-1.37c.15-1 1.18-1.36 1.46-2.26s1-1.72.76-2.72a12.08 12.08 0 0 0 .66-3l-.48-.35c-.41-1.19-.28-2.48-.72-3.67a3.4 3.4 0 0 0-.94 1.34l-.69-.79.54-.37c0-.21-.13-.62-.18-.82l.64-.09a9.87 9.87 0 0 0-.4-1.91 4.17 4.17 0 0 0-1.3-1 5.83 5.83 0 0 0-.7-1.23c-.06-.26-.11-.51-.16-.77l-.71-.27a3.91 3.91 0 0 1-1.52-1l.27-.5c-.6-.28-1.21-.54-1.79-.88-.09.31-.19.62-.28.93-.28-.38-.55-.77-.85-1.13l.38-.45c-1.23-.67-2.69-.38-4-.78l-.56.09.48.64h-1c-.19-.22-.38-.45-.58-.66 0 .3.09.6.14.89-.59-.17-1.22-.66-1.84-.31a2 2 0 0 1-1.67.34 8.87 8.87 0 0 1-2.24 1.74c0-.6.61-.87 1-1.22a4.6 4.6 0 0 1 2.74-1.3c.76-.06 1.46-.51 2.24-.4.17.28.88.05.41-.19h-.4c-2-.45-3.9.58-5.57 1.54-.78.41-1.17 1.52-2.1 1.58a7.8 7.8 0 0 0-2 2.23 4.08 4.08 0 0 0-1 2.86c.1 1-.81 1.75-.57 2.77a3.59 3.59 0 0 1 .51 3.8l.78-.06a19.79 19.79 0 0 0 1.26 3c.62-.66 1 .28 1.41.68 0 .12 0 .37.05.5-.29-.17-.57-.35-.87-.5.22.67.55 1.3.8 2l-1-.53C54.18 34 56 34 56.88 35l-.47.53a2.94 2.94 0 0 0 1.52-.2 6.71 6.71 0 0 1-1.45-1.21 5.17 5.17 0 0 0 2.52.58c0 .14.08.42.11.56l.85-.11-.61-.45a1.53 1.53 0 0 1 1.88 1.06 5.29 5.29 0 0 0 .89 1.54 15.44 15.44 0 0 0 .39 2.45h.18v-.44c.64 0 1.37-.19 1.93.23a10 10 0 0 0-1.33.23c.49.07 1 .09 1.47.15-.6.67-1.55.33-2.31.23a2.11 2.11 0 0 1-.95 1.37c-.6-.07-.72.41-.56.91h-.48c0 .17.08.51.1.68a6.54 6.54 0 0 1-3.2.06 8.14 8.14 0 0 1 1.1.65c.22.38-.33.33-.56.33-.92-.14-1.75-.6-2.66-.74a3.26 3.26 0 0 0 .67 1.34c-1.32.21-2.4-.67-3.53-1.17-1.38-.83-2.38-2.06-3.62-2.86-1-.31-1.61-1.26-2.32-2-.81-1.09-1.26-2.45-2.26-3.41 0 .26.1.77.13 1-.53-.37-.67-1-1-1.58a13 13 0 0 1-1.4-4.07c-.22-1.24-.84-2.4-.83-3.68 0-.91.17-1.8.17-2.71 0-1.5.73-2.86 1-4.31.13-.77.29-1.54.44-2.3a3.86 3.86 0 0 1-.87 1.34 5.34 5.34 0 0 1 2.06-3.26l.57.06c.28-.68.95-1 1.33-1.61s1-.74 1.53-1.19v-.62c.4-.49 1-.94 1-1.62C47 11 46.83 12.6 45.6 13c.24-.53.52-1 .72-1.58s.41-.85.65-1.26a17.53 17.53 0 0 1 4.22-3.45c1.24-.86 2.84-.67 4.12-1.45 0 .12 0 .35-.05.47a3.59 3.59 0 0 0 2.9-1.17c.41-.44 1-.06 1.37.17a24.75 24.75 0 0 1-2.63 1.18 8.06 8.06 0 0 0 3.45-.23c.62-.21 1.27.13 1.91-.07a3.06 3.06 0 0 0-1.38-.16A7.26 7.26 0 0 1 63.08 4a12.72 12.72 0 0 1-1.95-.16m-8.57 3.3c-.62.5-1.53.61-2 1.29h-.35l.49.51c.64-.43 1.46-.58 2-1.21a9.8 9.8 0 0 1 3-1.47 4 4 0 0 0-3.14.88Z"/><path fill="#7f8080" d="M50.88 8.7a15.45 15.45 0 0 0 1.81-.93c-.5.63-1.32.78-2 1.21l-.49-.51h.35Zm-6.16 4.71A8 8 0 0 1 47 10.17c-.24.41-.44.83-.65 1.26-.59.64-1.06 1.35-1.63 1.98Zm17.44-.75h.4c.47.24-.24.47-.41.19Zm39.33.59h2.25c2.2 6.64 4.3 13.32 6.54 20 2.23-6.59 4.5-13.17 6.72-19.77h3c-2.89 8.06-5.71 16.15-8.55 24.23h-2.36c-2.29-6.37-4.27-12.86-6.56-19.24-2.06 6.15-4.16 12.28-6.21 18.43-.13.26-.13.64-.37.81-.75.07-1.51 0-2.27 0q-4.29-12.12-8.53-24.25h3.07c1.86 5.66 3.84 11.29 5.74 17 .33.94.64 1.89 1 2.83 2.19-6.74 4.33-13.4 6.53-20.04ZM0 13.42h17.15v2.56H2.7v8.39c4.34.1 8.68 0 13 .06v2.62c-4.34.07-8.68 0-13 .05v10.38H0V13.42Zm22.12 0H25v21.52h13.44a18.37 18.37 0 0 1 0 2.57H22.15q-.05-12.05-.02-24.09Zm49 3.4.71.27c0 .26.1.51.16.77l.06.5a1.94 1.94 0 0 1-.52-1.36ZM60 35.13Zm51 14.4a3.87 3.87 0 0 1 4.37.62l-.61.63a3.24 3.24 0 0 0-3-.64 3 3 0 0 0-.83 4.79 2.83 2.83 0 0 0 3.82 0 15.14 15.14 0 0 0 0-1.65h-2.14v-.79h2.93a22.9 22.9 0 0 1 0 2.87 4 4 0 0 1-5.64-.15 3.88 3.88 0 0 1 1.1-5.68ZM.21 51.81a3.65 3.65 0 0 1 2.38-2.55 4.05 4.05 0 0 1 3.78.89l-.62.63a3.25 3.25 0 0 0-3-.65c-1.9.68-2.29 3.51-.86 4.87a2.87 2.87 0 0 0 3.7.07 6.61 6.61 0 0 0 .1-1.73H3.56v-.77h3a18.27 18.27 0 0 1-.07 3c-1.58 1.3-4.38 1.33-5.68-.42a4.4 4.4 0 0 1-.6-3.34Zm23.4-2.63h.84c1 2.44 2.24 4.78 3.17 7.25h-.92c-.27-.61-.55-1.21-.83-1.82h-3.72c-.29.6-.55 1.22-.82 1.83h-.91c1-2.44 2.15-4.8 3.19-7.22m-1.09 4.54h3c-.5-1.12-1-2.25-1.5-3.35-.53 1.07-1.02 2.2-1.5 3.31Zm22-4.52c.38.07.92-.06 1.12.38.77 1.11 1.5 2.26 2.25 3.39.94-1.17 1.69-2.49 2.53-3.74h.87v7.16h-.83v-5.58c-.85 1.23-1.68 2.47-2.51 3.71-.86-1.21-1.63-2.49-2.54-3.66v5.56h-.83c-.1-2.46-.11-4.86-.09-7.26Zm24.37 0h.9v7.14h-.9q-.06-3.57-.03-7.15Zm19.94 0c.36 0 .81 0 1 .34 1.35 1.73 2.72 3.45 4 5.21.1-1.85 0-3.7.08-5.54h.81c0 2.4.07 4.81 0 7.21-.28-.08-.65 0-.83-.32-1.43-1.75-2.77-3.58-4.22-5.32v5.55h-.87c-.01-2.37-.02-4.75 0-7.15Z"/></svg>
