<svg xmlns="http://www.w3.org/2000/svg" viewBox="0 0 120 60"><path d="M27.59,.04c.73-.05,1.46-.05,2.19-.01,.29,.37,.68,.62,1.03,.93,.14,.24,.02,.53,.04,.8-.06,.46,.27,.94-.02,1.37,.12,.21,.26,.41,.34,.64-.08,.44-.43,.86-.11,1.28,0,.13,0,.27,.02,.4-.05,.18-.11,.37-.17,.55,.3,.21,.65,.29,1,.35,.59,.04,.92,.62,1.42,.88-.62-.11-1.24-.25-1.86-.33-.92-.11-1.85-.25-2.78-.29l-.1-.47c-.61-.17-1.22-.34-1.84-.45-.25-.03-.45-.19-.61-.37,.07-.15,.14-.29,.21-.43-.11-.11-.22-.22-.32-.33,.05-.12,.1-.23,.15-.34-.3-.79,.26-1.62-.16-2.4-.09,.17-.19,.35-.28,.52-.15-.51-.14-1.04-.1-1.56,.58-.2,1.23-.13,1.78-.39,.04-.08,.14-.25,.18-.34Z" fill="#44c1c0"/><path d="M23.39,.52c1.39-.27,2.79-.4,4.2-.48-.04,.08-.14,.25-.18,.34-.56,.25-1.2,.19-1.78,.39-.04,.52-.05,1.06,.1,1.56,.09-.17,.19-.35,.28-.52,.42,.78-.14,1.61,.16,2.4-.05,.12-.1,.23-.15,.34,.11,.11,.21,.22,.32,.33-.07,.14-.14,.29-.21,.43,.17,.18,.37,.34,.61,.37,.62,.11,1.23,.28,1.84,.45l.1,.47c-1.28-.03-2.57-.14-3.85,.05-.54,.05-1.09,.12-1.63,.16-.28-.04-.56-.07-.83-.17-.43-.32-.64-1.05-1.26-.99-.2,0-.41,0-.61,0,.07-.15,.11-.31,.1-.47,.12-.54-.37-.93-.61-1.35,.16-.31,.31-.63,.45-.95-.19,.08-.38,.17-.57,.26-.16-.44,.16-.84,.37-1.2,1.01-.35,2.03-.63,3.06-.93,.03-.12,.08-.37,.1-.5Z" fill="#34b7b8"/><path d="M29.78,.03c1.3,.1,2.6,.15,3.89,.39-.05,.14-.11,.28-.17,.41-.33-.02-.69-.06-.95,.21,.13,.34,.13,.79,.47,1,.48,.32,.98,.61,1.45,.95-.51,.63-.28,1.45-.26,2.18-.09,.47-.36,1.03,0,1.45,1.65,.28,3.19,1.01,4.82,1.37-.09,.17-.18,.34-.27,.51,.1,.24,.2,.48,.3,.73-.58-.26-1.16-.5-1.75-.73-1.29-.54-2.63-.95-3.98-1.27-.5-.26-.82-.84-1.42-.88-.35-.06-.7-.14-1-.35,.06-.18,.12-.36,.17-.55-.01-.13-.02-.27-.02-.4-.32-.42,.03-.84,.11-1.28-.08-.23-.22-.43-.34-.64,.3-.42-.04-.9,.02-1.37-.02-.26,.09-.56-.04-.8-.34-.31-.74-.56-1.03-.93Z" fill="#54c3c1"/><path d="M19.2,1.63c1.36-.49,2.77-.85,4.19-1.12-.02,.13-.07,.37-.1,.5-1.02,.3-2.05,.58-3.06,.93-.32,.1-.65,.15-.97,.23-.02-.18-.04-.36-.06-.53Z" fill="#25aaae"/><path d="M33.49,.83c.06-.14,.11-.27,.17-.41,1.12,.19,2.23,.45,3.32,.76-.08,.34-.24,.64-.51,.86,.03,.05,.1,.15,.13,.19-.03,.04-.08,.12-.1,.16,.49,.69,.37,1.58,.42,2.38-.91-.45-1.58-1.27-2.45-1.79-.47-.34-.97-.63-1.45-.95-.33-.21-.34-.66-.47-1,.26-.27,.61-.23,.95-.21Z" fill="#65c7c9"/><path d="M36.98,1.18c1.94,.56,3.83,1.32,5.62,2.28-.21,.46-.17,.95-.05,1.43,.43,.44,.2,1.08,.26,1.63,.05,.41-.13,.78-.31,1.13,.16,.37,.14,.77-.03,1.13,.08,.03,.25,.1,.33,.13-.02,.08-.07,.25-.09,.34-.69-.26-1.36-.58-2.08-.76-1.31-1.16-2.38-2.57-3.7-3.72-.05-.8,.07-1.7-.42-2.38,.03-.04,.08-.12,.1-.16-.03-.05-.1-.15-.13-.19,.27-.22,.43-.52,.51-.86Z" fill="#6dcacc"/><path d="M15.07,3.46c1.33-.71,2.71-1.34,4.14-1.83,.02,.18,.04,.36,.06,.53-.88,.25-1.62,.82-2.45,1.2-.64,.31-1.2,.78-1.87,1.05,.05-.32,.09-.63,.12-.95Z" fill="#279aa2"/><path d="M19.26,2.17c.32-.07,.65-.13,.97-.23-.21,.36-.52,.75-.37,1.2,.19-.08,.38-.17,.57-.26-.14,.32-.29,.64-.45,.95,.25,.42,.73,.81,.61,1.35,0,.17-.03,.33-.1,.47,.2,0,.41,0,.61,0,.63-.06,.83,.68,1.26,.99,.27,.1,.55,.13,.83,.17-1.59,.26-3.18,.57-4.71,1.1-.71,.23-1.41,.51-2.11,.78-.25-.1-.5-.05-.73,.06-.03-.21-.05-.42-.08-.64-.14-.06-.28-.11-.43-.17,.09-.18,.18-.37,.28-.55-.15-.05-.3-.1-.45-.15,.16-.24,.31-.48,.46-.73-.15-.02-.3,.02-.44,.06-.21-.08-.43-.17-.64-.25,.36-.45,.04-.98-.16-1.41,.21-.24,.46-.42,.77-.5,.66-.27,1.22-.74,1.87-1.05,.83-.38,1.57-.94,2.45-1.2Z" fill="#35a6ab"/><path d="M34.47,2.99c.87,.52,1.55,1.34,2.45,1.79,1.32,1.15,2.4,2.56,3.7,3.72,.52,.84,1.23,1.57,1.56,2.51-1.04-.6-2.05-1.26-3.13-1.78-.1-.24-.2-.48-.3-.73,.09-.17,.18-.34,.27-.51-1.63-.36-3.17-1.09-4.82-1.37-.36-.42-.09-.98,0-1.45-.02-.74-.25-1.56,.26-2.18Z" fill="#5bc5c4"/><path d="M11.75,5.56c1.05-.78,2.16-1.49,3.31-2.1-.03,.32-.07,.64-.12,.95-.31,.08-.56,.27-.77,.5-.88,.69-1.73,1.42-2.51,2.21-.21-.3-.36-.64-.28-1.01,.14,0,.28-.02,.42-.03-.01-.13-.04-.39-.06-.53Z" fill="#208c99"/><path d="M42.6,3.46c3.94,2.12,7.48,5.09,10.16,8.76-.48,0-.97,.03-1.45-.03-.14,.14-.29,.29-.43,.43-.09-.03-.18-.07-.27-.1-.11,.04-.23,.09-.34,.13-.11-.13-.22-.26-.33-.39-.02,.1-.05,.3-.07,.4-.09-.06-.17-.12-.26-.19-.07,.09-.21,.27-.28,.36-.17-.1-.34-.19-.51-.29-1.89-1.39-4.03-2.31-6.13-3.29,.02-.08,.07-.25,.09-.34-.08-.03-.25-.1-.33-.13,.17-.36,.19-.76,.03-1.13,.18-.35,.36-.73,.31-1.13-.06-.55,.17-1.19-.26-1.63-.11-.48-.16-.97,.05-1.43Z" fill="#73cbce"/><path d="M11.67,7.13c.79-.79,1.63-1.53,2.51-2.21,.2,.44,.52,.96,.16,1.41,.21,.09,.43,.17,.64,.25,.14-.04,.29-.08,.44-.06-.15,.25-.3,.49-.46,.73,.15,.05,.3,.1,.45,.15-.09,.18-.18,.37-.28,.55,.14,.06,.28,.12,.43,.17,.03,.21,.05,.42,.08,.64,.23-.11,.48-.16,.73-.06-3.09,1.35-5.97,3.23-8.35,5.69-.04-.06-.12-.18-.16-.24,.46-2.69,1.9-5.14,3.79-7.02Z" fill="#32929c"/><path d="M6.1,11.08c1.63-2.09,3.52-3.97,5.65-5.52,.01,.13,.04,.39,.06,.53-.14,0-.28,.02-.42,.03-.08,.37,.07,.71,.28,1.01-1.89,1.88-3.33,4.33-3.79,7.02,.04,.06,.12,.18,.16,.24l.07,.11c-.49,.49-.95,1.01-1.44,1.5-.28,.29-.57,.57-.88,.83,.06-.27,.15-.54,.25-.79-.05-.15-.09-.3-.14-.45,.55-1.44,.24-3,.2-4.5Z" fill="#217889"/><path d="M24.83,6.66c1.28-.19,2.57-.08,3.85-.05,.93,.04,1.85,.18,2.78,.29-.34,.25-.75,.32-1.16,.24,0,.15,0,.29-.01,.44-.13,.06-.26,.13-.4,.19-.01,.28,.07,.6-.06,.87-.36,.29-.71,.6-1.09,.86-.63,.45-1.17,1.12-1.97,1.23-.92,.12-1.82,.39-2.75,.39-.66,.02-1.33,.06-1.95,.31-.67,.27-1.4,.18-2.1,.26-.71,.03-1.43,.12-2.13-.08,1.01-.4,2.09-.59,3.1-.97,.39-.35,.9-.23,1.37-.26,.39-.14,.64-.57,1.07-.63,.6-.06,.75-.75,1.08-1.17,.32-.4,.33-.95,.53-1.41,.17-.15,.38-.24,.58-.35-.24-.06-.49-.12-.73-.17Z" fill="#16a0a0"/><path d="M23.2,6.82c.54-.05,1.09-.12,1.63-.16,.24,.05,.49,.11,.73,.17-.2,.11-.41,.19-.58,.35-.2,.46-.21,1-.53,1.41-.32,.42-.48,1.11-1.08,1.17-.43,.06-.68,.49-1.07,.63-.47,.03-.98-.09-1.37,.26-1.01,.39-2.09,.57-3.1,.97,.69,.2,1.42,.11,2.13,.08l-.15,.11c-.96,0-1.91,.09-2.87,.2-.36,.02-.71,.07-1.06,.13-.27-.04-.53-.1-.79-.16,.34-.16,.68-.31,1.02-.46,.05-.1,.1-.19,.15-.28,.11,0,.22,0,.34,0,.24-.5,.81-.67,1.05-1.17,.2-.39,.74-.42,.9-.83-.07-.33-.3-.63-.16-1,.16-.07,.31-.15,.47-.22-.09-.02-.27-.06-.37-.08,1.52-.53,3.12-.84,4.71-1.1Z" fill="#0a9095"/><path d="M31.45,6.9c.63,.07,1.24,.22,1.86,.33,1.36,.32,2.69,.73,3.98,1.27-.79,.38-1.71,.65-2.19,1.46-.62-.18-1.28,.1-1.66,.63-.09-.07-.18-.15-.26-.22-.13,.14-.25,.28-.37,.42-.08-.06-.24-.17-.32-.23-.76,.53-1.66,.78-2.55,.95-.46,.27-.99,.26-1.51,.28-1.79,.25-3.59-.12-5.38,0-.03,.09-.09,.26-.11,.35-1.04-.18-2.08-.33-3.13-.34l.15-.11c.7-.09,1.43,0,2.1-.26,.62-.25,1.29-.3,1.95-.31,.93,0,1.83-.28,2.75-.39,.8-.11,1.34-.78,1.97-1.23,.39-.25,.73-.57,1.09-.86,.13-.27,.05-.58,.06-.87,.13-.06,.26-.13,.4-.19,0-.15,0-.29,.01-.44,.41,.08,.81,.02,1.16-.24Z" fill="#19afab"/><path d="M16.38,8.7c.7-.27,1.4-.55,2.11-.78,.09,.02,.28,.06,.37,.08-.15,.07-.31,.15-.47,.22-.14,.36,.09,.66,.16,1-.15,.41-.7,.44-.9,.83-.24,.5-.8,.67-1.05,1.17-.11,0-.22,0-.34,0-.05,.1-.1,.19-.15,.28-.34,.15-.69,.3-1.02,.46,.26,.07,.52,.12,.79,.16-.55,.1-1.09,.19-1.62,.35-2.14,.57-4.17,1.54-6.01,2.79-.08-.02-.23-.07-.3-.09,.1-.16,.2-.33,.29-.5-.03-.05-.1-.15-.13-.2l-.07-.11c2.38-2.46,5.26-4.34,8.35-5.69Z" fill="#0b7a85"/><path d="M37.3,8.5c.59,.23,1.18,.47,1.75,.73,1.08,.52,2.09,1.18,3.13,1.78,.17,.15,.34,.31,.52,.45,.07,.53,.29,1.01,.52,1.49-.2,.24-.44,.45-.69,.63-.17-.16-.35-.33-.52-.49-.16,.09-.31,.19-.47,.29-.1-.17-.2-.34-.3-.51-.52,.04-1.16-.2-1.54,.29-.29-.33-.71-.31-1.1-.33-.27-.16-.48-.44-.8-.5-.37-.1-.73,.14-1.1,.14-.87-.15-1.75-.17-2.63-.15-.47,.23-.97,.15-1.47,.13-.95,.11-1.91,.05-2.85,.17-.65-.26-1.33-.01-2-.13-.96-.14-1.98,.1-2.87-.38-.14,.12-.28,.25-.42,.37-.5-.12-1-.25-1.51-.35,.03-.09,.09-.26,.11-.35,1.79-.12,3.59,.24,5.38,0,.52-.02,1.04,0,1.51-.28,.89-.16,1.79-.42,2.55-.95,.08,.06,.24,.17,.32,.23,.12-.14,.25-.28,.37-.42,.09,.07,.17,.15,.26,.22,.38-.53,1.04-.82,1.66-.63,.48-.81,1.4-1.09,2.19-1.46Z" fill="#29bcb4"/><path d="M40.62,8.5c.72,.18,1.39,.5,2.08,.76,2.1,.98,4.24,1.9,6.13,3.29-.17,.33-.37,.64-.61,.92-.08-.31-.1-.66-.32-.9-.14,.35-.15,.78-.42,1.06-.27,.12-.56,.2-.85,.21-.26,.02-.3-.33-.42-.5-.09,.29-.19,.58-.29,.87-1.01-.99-2.04-1.98-3.23-2.75-.18-.14-.35-.3-.52-.45-.34-.95-1.04-1.67-1.56-2.51Z" fill="#67c8ca"/><path d="M102.37,11.35c2.82-.24,5.74,.09,8.34,1.29,1.9,.84,3.57,2.25,4.63,4.09,.78,1.33,1.31,2.8,1.67,4.3-1.27-.02-2.53,.02-3.8,0-.31-1.41-1.41-2.37-2.26-3.45-1.72-1.72-4.16-2.47-6.51-2.56-2.44-.07-4.97,.41-7.05,1.8-1.35,.86-2.42,2.15-3.18,3.58-.11,.24-.29,.44-.33,.71-.31,.24-.18,.77-.47,.99-.03,.33-.22,.62-.24,.95-.31,.43-.13,1.17-.45,1.53-.02,.35,.02,.73-.14,1.06-.11,.65,0,1.35-.17,1.98,0,.33,0,.65-.03,.98h.12c-.01,.84-.06,1.72,.15,2.52,.1,.34-.08,.83,.2,1.07,.01,.47,.12,1.01,.33,1.4-.01,.22,.05,.41,.18,.55,.5,1.77,1.58,3.35,2.93,4.55,1.26,1.09,2.8,1.76,4.36,2.24,2.03,.54,4.17,.56,6.23,.19,.43-.18,.92-.22,1.37-.37,.18-.17,.47-.09,.65-.27,.38-.05,.69-.33,1.07-.39,.93-.48,1.89-.93,2.74-1.57,.24-.22,.65-.35,.68-.74-.03-1.99,.07-3.99-.05-5.97-1.51,.02-3.02,.01-4.53,0,.02-1.24,.03-2.48,0-3.72,.35-.36,.84,.14,1.22-.19l.02,.16c.45-.13,1.04,.13,1.42-.12,2,.04,4.01,.02,6.01,0,.08,4.08,0,8.17,.04,12.26-2.44,1.99-5.21,3.6-8.22,4.46-5.12,1.36-10.92,.66-15.27-2.58-1.4-1.06-2.59-2.42-3.49-3.95-.16-.25-.28-.52-.42-.78-.49-1.02-.97-2.07-1.2-3.19-.28-.16-.02-.62-.29-.8-.06-.23,.05-.56-.16-.71-.02-.27-.04-.53-.07-.8-.24-.53-.1-1.18-.19-1.75-.21-1.02-.05-2.13-.08-3.19l.08-.11c0-1.11,.25-2.19,.44-3.28,.13-.21,.13-.46,.17-.7,.11-.15,.16-.33,.15-.54,.86-2.64,2.14-5.29,4.21-7.17,2.51-2.31,5.87-3.48,9.19-3.72Zm-39.19,30.07c1.43,1.09,2.83,2.24,4.24,3.36-.08-.53-.05-1.06-.05-1.59,0-4.46,0-8.92,0-13.38,4.28,0,8.56,0,12.85,0,.01-1.3,0-2.6,0-3.89-4.28,.02-8.56-.01-12.84,.01,0-3.4,0-6.81,0-10.22,5.67,0,11.34,0,17.01,0,1.02-1.23,1.97-2.57,2.93-3.87-8.05-.02-16.1,0-24.15,0,.03,9.86-.02,19.73,.03,29.59Zm-2.8,6.85c19.87-.01,39.74,0,59.62,0,0-.29,0-.59-.01-.88-19.86,0-39.72,.02-59.58-.01-.02,.3-.03,.6-.02,.9Zm1.62,7.06c.36,0,.72,0,1.07,0-.01-.75-.02-1.5,0-2.25,.8,0,1.59,0,2.39,0,0-.13,0-.4-.01-.53-.8,0-1.59,0-2.39,0,0-.63,0-1.27,0-1.9,.96,.01,1.91,0,2.87,0v-.53c-1.31,0-2.63,0-3.94,0,0,1.74,0,3.47,0,5.21Zm5.82,0c1.43-.01,2.86,.02,4.29-.02-.01-1.72-.02-3.45,0-5.17-.35,.04-.86-.17-1.13,.1,.09,1.51,.02,3.03,.05,4.54-.7,.03-1.41,0-2.11,.02,0-1.56,0-3.12,0-4.69-.37,0-.74,0-1.1,0,0,1.74,0,3.47,0,5.21Zm6.17,0c.36,0,.71,0,1.07-.02,0-1.15-.03-2.3,.01-3.45,.77,1.12,1.44,2.32,2.19,3.46,.34,0,.67,0,1.01-.02,0-1.72-.02-3.44,0-5.16-.34-.03-.67-.05-1.01-.07,.06,1.2,.16,2.43,0,3.61-.05-.07-.16-.22-.22-.3-.61-1.12-1.38-2.14-2-3.25-.35-.03-.71-.03-1.06-.03,0,1.74-.01,3.48,0,5.22Zm10.33,0c1.37-.02,2.75,0,4.12,0,0-.98,.02-1.95,0-2.93-.8,.02-1.6,.03-2.39,0,0,.14-.02,.41-.02,.55,.45,0,.9,0,1.36,.02-.01,.61,0,1.22,0,1.83-.64,.01-1.28,0-1.91,.01,0-1.38,0-2.77,0-4.15,.99,0,1.97,0,2.96,0,0-.14,0-.41-.01-.55-1.36,.03-2.72,.03-4.08,0-.02,1.74,0,3.49,0,5.23Zm6.54-3.85c-.02,.61-.25,1.19-.26,1.81-.2,.24-.12,.61-.14,.91-.31,.22-.09,.78-.22,1.11,.35,.01,.7,.01,1.06,.01,.04-.32,.01-.66,.17-.95,.06-.34,.03-.72,.24-1.01,.5,.02,1.01,.01,1.51,.01,.15,.41,.09,.91,.3,1.3,.02,.21,.04,.42,.06,.64,.36,0,.72,0,1.08,0-.26-1.75-.67-3.47-.97-5.22-.84,.04-1.69-.02-2.53,.03-.16,.43-.11,.94-.3,1.35Zm1.81-.85c.23,.39,.2,.86,.23,1.3l.12,.03c0,.3,.03,.6,.06,.9-.44,0-.87,0-1.31-.01,.03-.4,.1-.81,.1-1.21,.25-.21,.1-.65,.18-.95,.2-.03,.41-.05,.62-.05Zm3.77,4.69c.35,0,.69,0,1.04-.03,0-1.13-.09-2.29,.05-3.41,.42,.83,.98,1.57,1.39,2.41,.07,0,.2,0,.26,0,.35-.84,.94-1.55,1.32-2.38,.15,1.12,0,2.28,.06,3.42,.35,0,.7,0,1.05,0,0-1.74,.02-3.48,0-5.22-.34,.04-.71-.06-1.03,.06-.47,.83-1.01,1.62-1.42,2.48-.06,0-.18,.02-.24,.02-.45-.88-1.02-1.68-1.5-2.55-.33,0-.66,0-.99-.01,0,1.74-.01,3.48,0,5.21Zm7.57,0c.36,0,.73,0,1.09,0,.15-1.71,0-3.44,.08-5.16-.38-.09-.78-.04-1.16-.04,0,1.73,0,3.47,0,5.2Zm3.56,0c.33,0,.67,0,1.01,.01,.04-1.16,0-2.32,.02-3.48l.12,.08c.67,1.12,1.38,2.21,2.06,3.33,.33,.14,.72,.03,1.07,.07,0-1.74,0-3.48,0-5.23-.36,0-.72,.02-1.08,.04,.02,1.12,.01,2.24,0,3.35-.81-1.08-1.45-2.28-2.22-3.39-.33,.01-.65,.01-.98,.01,0,1.73-.02,3.47,0,5.21Zm6.16,0c1.38-.01,2.76,0,4.14,0,0-.97,0-1.95,0-2.92-.81,.01-1.62,0-2.43,0,0,.13,0,.4,0,.53,.46,0,.92,0,1.37,0v1.86c-.66-.02-1.32,0-1.97,0,0-1.38,0-2.76,0-4.14,1-.02,2,0,3,0,0-.13,0-.4,0-.53-1.37,.01-2.74,0-4.11,0,0,1.74,0,3.47,0,5.21Z" fill="#fff"/><path d="M.04,27.87c.19-6.08,2.35-12.06,6.07-16.78,.03,1.5,.35,3.06-.2,4.5,.05,.15,.1,.3,.14,.45-.1,.26-.19,.52-.25,.79,.31-.26,.59-.55,.88-.83,.04,.1,.13,.29,.17,.38-.58,.54-1.15,1.07-1.7,1.64C2.49,20.88,.76,24.65,.32,28.58c-.09-.24-.18-.48-.28-.72Z" fill="#206b80"/><path d="M42.7,11.46c1.19,.76,2.22,1.75,3.23,2.75,.19,.19,.38,.38,.57,.58-.52,.17-.87,.62-1.32,.89-.04-.15-.08-.29-.11-.43-.08,.14-.16,.29-.23,.43-.11-.05-.21-.1-.32-.15-.58,.56-1.41,.58-2.15,.73-.53,.11-1.06,.03-1.57-.12-.57-.17-1.18-.08-1.74-.28-.41-.14-.71-.47-1.08-.68-.3-.07-.62-.05-.92-.15-1.11-.42-2.34-.4-3.44-.87-1.03-.16-2.05-.4-3.09-.54-.62-.15-1.27-.02-1.89-.16-.5-.1-1.01-.18-1.51-.04-.87-.37-1.76-.7-2.68-.94,.14-.13,.28-.25,.42-.37,.89,.48,1.91,.23,2.87,.38,.67,.12,1.35-.13,2,.13,.95-.12,1.9-.06,2.85-.17,.5,.02,1,.1,1.47-.13,.87-.02,1.76,0,2.63,.15,.37,0,.72-.24,1.1-.14,.32,.05,.53,.34,.8,.5,.39,.02,.81,0,1.1,.33,.38-.49,1.02-.25,1.54-.29,.1,.17,.2,.34,.3,.51,.16-.1,.31-.19,.47-.29,.17,.16,.35,.33,.52,.49,.26-.18,.49-.39,.69-.63-.23-.47-.45-.96-.52-1.49Z" fill="#3fbfb8"/><path d="M15.88,12.13c.35-.06,.7-.11,1.06-.13-1.2,.81-2.37,1.67-3.44,2.66-.69-.17-1.33,.27-1.92,.57-1.22,.72-2.44,1.55-3.2,2.8-.75,.95-1.17,2.11-1.47,3.28-.36,.99,0,2.04-.17,3.05,.09-.01,.27-.04,.36-.05-.41,1.11-.7,2.25-.97,3.4-.39-.77,.4-1.57,0-2.3,.02-.06,.04-.13,.07-.19-.04-.07-.11-.21-.15-.28,.02-.13,.04-.27,.07-.4-.14,0-.29,0-.43-.01-.17-.34-.19-.73-.03-1.07,.05-.7,0-1.41,.14-2.09,.33-.8,.46-1.68,.9-2.43,.15-.36,.52-.72,.33-1.15,.92-1.04,2-1.91,3.09-2.76,1.14-.73,2.3-1.42,3.51-2.02,.26-.11,.46-.32,.63-.53,.53-.16,1.08-.26,1.62-.35Z" fill="#cb2b74"/><path d="M51.32,12.19c.48,.06,.96,.02,1.45,.03,1.08,1.57,1.86,3.41,1.87,5.36-.32-.26-.71-.52-.72-.99,0-.35-.36-.36-.59-.46-.04-.52-.62-.52-.91-.83-.97-.89-1.99-1.71-3.07-2.46,.07-.09,.21-.27,.28-.36,.09,.06,.17,.12,.26,.19,.02-.1,.05-.3,.07-.4,.11,.13,.22,.26,.33,.39,.11-.04,.23-.09,.34-.13,.09,.03,.18,.07,.27,.1,.14-.15,.28-.29,.43-.43Z" fill="#76cccd"/><path d="M8.25,15.27c1.84-1.26,3.87-2.22,6.01-2.79-.17,.22-.37,.42-.63,.53-1.21,.6-2.38,1.28-3.51,2.02-1.08,.85-2.16,1.72-3.09,2.76-.95,.85-1.6,1.97-2.37,2.98,.03-.69,.22-1.36,.5-1.98,.14-.25,.02-.52-.02-.77,.55-.57,1.12-1.11,1.7-1.64,.46-.38,.94-.74,1.41-1.1Z" fill="#ac2071"/><path d="M47.91,12.56c.22,.24,.24,.59,.32,.9,.24-.28,.44-.59,.61-.92,.17,.1,.34,.19,.51,.29,1.08,.74,2.1,1.57,3.07,2.46,.29,.31,.87,.32,.91,.83,.24,.1,.6,.11,.59,.46,.01,.47,.39,.73,.72,.99,.15,2.75-1.04,5.55-3.18,7.21-.32-1.76-.85-3.47-1.59-5.09-.63-1.16-1.28-2.33-2.09-3.38-.44-.5-.8-1.07-1.27-1.53-.19-.19-.38-.38-.57-.58,.1-.29,.2-.58,.29-.87,.11,.17,.16,.52,.42,.5,.29-.01,.58-.1,.85-.21,.27-.28,.28-.71,.42-1.06Z" fill="#74cbc8"/><path d="M27.13,13.43c.5-.14,1.01-.06,1.51,.04,.62,.14,1.27,.01,1.89,.16,1.04,.14,2.06,.38,3.09,.54,1.11,.46,2.33,.44,3.44,.87,.3,.1,.62,.08,.92,.15,.37,.21,.67,.54,1.08,.68,.56,.2,1.17,.1,1.74,.28,.51,.15,1.04,.23,1.57,.12,.74-.16,1.56-.17,2.15-.73,.11,.05,.21,.1,.32,.15,.08-.14,.15-.29,.23-.43,.04,.15,.07,.29,.11,.43,.46-.28,.81-.72,1.32-.89,.47,.47,.83,1.04,1.27,1.53-.84,.27-1.7,.49-2.52,.85-.2,.19-.36,.43-.55,.62-1.53,.57-3.12,.96-4.74,1.15-1.27,.06-2.41-.62-3.64-.83-.69-.31-1.35-.69-2.05-.99-.08,.03-.16,.06-.24,.09-.42-.3-.78-.73-1.31-.81-.32-.04-.5-.35-.79-.44-.12,.06-.36,.18-.47,.25-1.29-1.16-2.76-2.07-4.33-2.77Z" fill="#57c3bc"/><path d="M8.11,14.49s.1,.15,.13,.2c-.09,.17-.19,.33-.29,.5,.08,.02,.23,.07,.3,.09-.47,.36-.95,.73-1.41,1.1-.04-.1-.13-.29-.17-.38,.49-.49,.95-1.01,1.44-1.5Z" fill="#0f6277"/><path d="M11.58,15.23c.59-.31,1.23-.74,1.92-.57-2.85,2.62-5.08,5.96-6.4,9.66-.09,.01-.27,.04-.36,.05,.17-1.02-.19-2.07,.17-3.05,.3-1.17,.72-2.33,1.47-3.28,.76-1.25,1.98-2.08,3.2-2.8Z" fill="#dc3873"/><path d="M31.46,16.2c.12-.06,.36-.19,.47-.25,.29,.09,.47,.4,.79,.44,.53,.08,.9,.51,1.31,.81,.08-.03,.16-.06,.24-.09,.7,.3,1.36,.68,2.05,.99,1.23,.21,2.37,.89,3.64,.83,1.62-.18,3.21-.57,4.74-1.15,.2-.19,.35-.44,.55-.62,.82-.36,1.68-.58,2.52-.85,.81,1.05,1.46,2.22,2.09,3.38,.74,1.62,1.28,3.33,1.59,5.09-2.13,1.6-5.04,2.18-7.54,1.21,.6-.24,.76-1,1.42-1.14,.15,.09,.25,.42,.46,.31,1.25-.65,2.51-1.61,2.88-3.07,.14-.51,.25-1.22-.24-1.57-.45-.19-.88-.43-1.28-.71-.52,.03-1.05,.13-1.57,.22-.06,.19-.12,.39-.18,.58-.36-.17-.75,.05-1.12,0-.25-.04-.45,.13-.62,.29-.1-.02-.2-.05-.3-.07-.1,.08-.19,.16-.29,.24-.82-.07-1.56,.41-2.37,.45-.73,.04-1.18,.71-1.62,1.23-.1-.07-.21-.15-.32-.22-.03,.11-.09,.33-.13,.43-2.67-1.94-4.69-4.64-7.2-6.77Z" fill="#72cac3"/><path d="M4.66,20.78c.77-1.01,1.42-2.13,2.37-2.98,.19,.43-.18,.78-.33,1.15-.44,.75-.57,1.63-.9,2.43-.14,.68-.09,1.4-.14,2.09-.16,.35-.14,.73,.03,1.07,.14,0,.29,0,.43,.01-.02,.13-.04,.27-.07,.4,.04,.07,.11,.21,.15,.28-.02,.06-.04,.13-.07,.19,.4,.73-.39,1.53,0,2.3-.29,1.67-.54,3.36-.44,5.05,.19-.7,.44-1.39,.75-2.05,.03,.62-.19,1.2-.26,1.81,.17,0,.34,0,.51,0,.04,.05,.11,.16,.15,.21-.2,.06-.41,.12-.62,.18,0,.1,.03,.3,.04,.4-.11,.15-.21,.3-.32,.45-.34-.06-.63-.25-.94-.39-.47,.04-.51,.71-.93,.87,.49,.33,.34,1,.22,1.48-.26,.54-.61,1.02-.89,1.55-.41-.95-.46-2-.74-2.99-.22-.79-.38-1.61-.37-2.44,.01-.45-.02-.9-.18-1.32-.08-3.41,.7-6.91,2.56-9.76Z" fill="#c51b74"/><path d="M.32,28.58c.44-3.93,2.17-7.71,4.82-10.56,.04,.25,.15,.53,.02,.77-.28,.63-.47,1.29-.5,1.98-1.86,2.85-2.65,6.35-2.56,9.76-.16,.62-.08,1.36-.59,1.82-.43-.22-.91-.3-1.38-.18-.03-.47-.06-.94-.08-1.41,.21-.7,.15-1.46,.27-2.18Z" fill="#932373"/><path d="M18.78,19.69c1.36-.27,2.81-.08,4.06,.55-1.78,.56-3.35,1.66-4.9,2.69-.79,.48-1.38,1.25-2.21,1.66,.56-1.59,1.25-3.16,2.24-4.52-.2,.15-.45,.06-.68,.07,.1-.09,.21-.17,.31-.26,.39,.17,.79-.13,1.18-.19Z" fill="#ef496b"/><path d="M45.6,20.04c.52-.1,1.04-.19,1.57-.22,.41,.28,.83,.52,1.28,.71,.48,.36,.38,1.06,.24,1.57-.37,1.46-1.63,2.42-2.88,3.07-.21,.11-.31-.22-.46-.31-.66,.14-.83,.9-1.42,1.14-1.92-.66-3.65-1.79-5.27-3.03,.03-.11,.09-.33,.13-.43,.1,.07,.21,.15,.32,.22,.44-.52,.89-1.19,1.62-1.23,.81-.04,1.55-.52,2.37-.45,.1-.08,.19-.16,.29-.24,.1,.02,.2,.05,.3,.07,.17-.16,.37-.33,.62-.29,.37,.04,.77-.18,1.12,0,.06-.19,.12-.39,.18-.58Z" fill="#7accc5"/><path d="M17.29,20.14c.22,0,.48,.08,.68-.07-.99,1.35-1.68,2.92-2.24,4.52-.16,.22-.32,.45-.48,.68-.99,.63-1.65,1.62-2.4,2.5-.48,.59-.87,1.24-1.31,1.85-.09-.1-.18-.21-.27-.31,.35-.28,.39-.75,.51-1.16-.06-.1-.13-.2-.19-.3,.09-.03,.26-.08,.35-.1-.17-.35-.16-.72,.05-1.05-.17-.14-.34-.29-.52-.43,.47-.75,.78-1.6,1.33-2.29,.12-.13,.12-.32,.16-.48,.13-.06,.26-.12,.38-.18,.07-.16,.13-.31,.2-.47,.46-.12,.45-.61,.49-1.01,1.04-.66,2.13-1.22,3.26-1.7Z" fill="#ed1c76"/><path d="M81.08,25.05c1.3,.05,2.6,0,3.9,.03-1.29,1.3-2.59,2.59-3.9,3.86-.02-1.3-.02-2.6,0-3.89Z" fill="#ed1c76"/><path d="M17.94,22.93c1.55-1.04,3.12-2.13,4.9-2.69,.49,.25,.95,.56,1.38,.92-.16,.69-.42,1.33-.9,1.84-.26,.75-.23,1.59-.52,2.34-.19,.35-.44,.69-.49,1.1-.16,.65,0,1.35-.25,1.98-.23,.64-.33,1.31-.52,1.96-.64,.23-1.17,.69-1.67,1.15,.38,.1,.75,.25,1.12,.38-2.94,.32-5.85,1.47-7.98,3.63-.02-.24-.07-.48-.04-.73,.31-2.17,.75-4.32,1.35-6.43,.31-1.04,.73-2.05,.93-3.12,.16-.23,.32-.46,.48-.68,.84-.41,1.43-1.17,2.21-1.66Z" fill="#f15f67"/><path d="M24.22,21.16c.94,.88,1.69,2.03,1.94,3.33,.47,1.99-.22,4.18-1.62,5.61-.96,.96-2.22,1.62-3.55,1.82-.37-.14-.74-.28-1.12-.38,.5-.46,1.02-.92,1.67-1.15,.2-.65,.29-1.32,.52-1.96,.26-.63,.1-1.33,.25-1.98,.04-.41,.3-.75,.49-1.1,.29-.75,.26-1.59,.52-2.34,.48-.51,.75-1.15,.9-1.84Z" fill="#f26764"/><path d="M8.96,26.47c1.42-1.82,3.14-3.4,5.07-4.63-.04,.4-.03,.9-.49,1.01-.07,.16-.13,.31-.2,.47-.13,.06-.26,.12-.38,.18-.04,.16-.04,.35-.16,.48-.55,.69-.86,1.54-1.33,2.29-.27,.51-.72,.88-1.1,1.31-.15,.16-.04,.38-.03,.57-.1,.1-.2,.19-.31,.29-.06-.07-.18-.22-.24-.29-.27-.56-.52-1.13-.84-1.67Z" fill="#e62375"/><path d="M12.84,27.77c.75-.88,1.42-1.87,2.4-2.5-.2,1.07-.63,2.08-.93,3.12-.6,2.11-1.04,4.26-1.35,6.43-.02,.24,.02,.49,.04,.73-1.67,1.64-2.93,3.82-3.17,6.22-.41,2.89,.69,5.84,2.64,7.92,.12,.33,.34,.61,.48,.93,.02,.3-.1,.58-.17,.87-.2-.15-.37-.34-.51-.55-.8-.15-1.28-.93-1.94-1.36-.02,.1-.06,.3-.08,.4-.14-.05-.27-.1-.41-.14-.13-.28-.27-.57-.38-.86-.16-.46-.32-.91-.52-1.35-.63-2.6-1.04-5.3-.77-7.98,.27-3.57,1.45-7.04,3.34-10.04,.44-.61,.84-1.26,1.31-1.85Z" fill="#ef426f"/><path d="M10.36,27.57c.37-.43,.82-.79,1.1-1.31,.17,.14,.34,.28,.52,.43-.21,.33-.22,.7-.05,1.05-.09,.03-.26,.08-.35,.1,.06,.1,.13,.2,.19,.3-.12,.41-.15,.88-.51,1.16,.09,.1,.18,.21,.27,.31-1.89,3-3.08,6.47-3.34,10.04-.27,2.68,.14,5.38,.77,7.98-.84-.76-1.47-1.73-2.03-2.71-.57-.88-1.06-1.81-1.54-2.75,.05-.1,.1-.2,.14-.3-.02-.05-.04-.15-.06-.2,.18-.35,.08-.81,.41-1.08,.24-.19,.19-.5,.18-.77,.15-.1,.38-.16,.43-.36,.25-.8,.46-1.69,.13-2.49,.21-.03,.44,.03,.62-.08,.25-.33-.24-.72,.02-1.04-.1-.09-.21-.19-.32-.28,.05-.14,.09-.28,.14-.42-.05-.14-.09-.28-.14-.42,.09-.1,.19-.19,.29-.29,.23-.19,.54-.3,.69-.58-.01-.22-.09-.44-.06-.67,.13,.06,.26,.13,.38,.19-.02-.76,.43-1.4,.47-2.15,.24-1.07,.61-2.1,1.08-3.08,.06,.07,.18,.22,.24,.29,.1-.1,.2-.19,.31-.29-.01-.18-.12-.41,.03-.57Z" fill="#e51a75"/><path d="M6.44,30.73c.64-1.53,1.51-2.95,2.52-4.26,.32,.53,.57,1.11,.84,1.67-.47,.98-.84,2.02-1.08,3.08-.04,.75-.49,1.39-.47,2.15-.13-.06-.25-.13-.38-.19-.02,.23,.05,.44,.06,.67-.15,.28-.46,.39-.69,.58-.17-.54-.7-.69-.99-1.12,0-.1-.03-.3-.04-.4,.21-.06,.41-.12,.62-.18-.04-.05-.11-.16-.15-.21-.17,0-.34,0-.51,0,.07-.61,.3-1.19,.26-1.81Z" fill="#df1e74"/><path d="M104.53,30.52c1.13-1.16,2.27-2.33,3.39-3.5,.03,1.34,0,2.68,.02,4.03-1.27,.04-2.55,0-3.82,.02,.03-.25,.26-.37,.41-.54Z" fill="#3cbeb7"/><path d="M0,28.04l.04-.18c.1,.24,.19,.47,.28,.72-.12,.72-.06,1.48-.27,2.18l-.05-.21v-2.51Z" fill="#344f6a"/><path d="M2.1,30.54c.16,.42,.19,.87,.18,1.32-.01,.83,.15,1.65,.37,2.44-.1,.21-.19,.43-.28,.64,.03,.09,.07,.18,.1,.27-.1,.08-.2,.17-.3,.25-.35-.2-.75-.23-1.1,0-.06-.21-.12-.41-.18-.61-.17-.06-.34-.12-.51-.18-.11-.83-.23-1.65-.26-2.49,.47-.12,.95-.04,1.38,.18,.51-.46,.43-1.2,.59-1.82Z" fill="#a52172"/><path d="M35.73,31.02c2.07-.31,4.2-.41,6.29-.21,2.96,.27,5.98,1.12,8.33,3.06,2.97,2.34,4.67,6.61,3.51,10.38-.54,1.81-1.28,3.59-2.46,5.06-2.73,3.38-6.23,6.09-10.12,7.88,.34-1.15,1.36-1.85,1.93-2.85,.65-.81,1-1.81,1.49-2.72,.42-.79,.5-1.69,.76-2.53,.33-.69,.24-1.49,.48-2.21,.2-.55,.3-1.13,.44-1.7-.11-.12-.22-.24-.34-.36,.11-.14,.21-.28,.32-.41-.03-.1-.06-.2-.09-.29,.11-.28,.22-.56,.32-.84-.18-.11-.37-.22-.55-.33-.02-.66,.13-1.43-.31-1.98-.37-.43-.07-1.04-.22-1.55-.22-.81-.17-1.75-.74-2.42-.53-.68-1.08-1.44-1.92-1.73-.33-.26-.66-.5-1.08-.57-.42-.31-.91-.45-1.42-.43-.15-.18-.3-.36-.45-.54-.19,0-.37,0-.56,0-.15-.15-.3-.3-.44-.45-.44,.14-.79-.33-1.24-.23-.04-.19-.08-.37-.12-.56-.08,.05-.16,.1-.25,.16-.24-.28-.84-.43-.69-.9,.1-.25,.25-.47,.38-.7-.42,0-.85,0-1.27,0Z" fill="#fce04e"/><path d="M31.26,32.08c1.45-.5,2.94-.9,4.47-1.06,.42,0,.85,.01,1.27,0-.13,.23-.28,.45-.38,.7-.15,.47,.45,.62,.69,.9,.08-.05,.16-.11,.25-.16,.04,.19,.08,.37,.12,.56,.45-.1,.8,.37,1.24,.23,.15,.15,.3,.3,.44,.45,.19,0,.37,0,.56,0,.15,.18,.3,.36,.45,.54,.51-.01,1,.12,1.42,.43,.42,.07,.75,.31,1.08,.57,.84,.3,1.38,1.05,1.92,1.73,.56,.67,.52,1.61,.74,2.42,.15,.5-.14,1.12,.22,1.55,.44,.55,.3,1.32,.31,1.98,.18,.11,.36,.22,.55,.33-.1,.28-.2,.56-.32,.84,.03,.1,.06,.19,.09,.29-.11,.14-.21,.28-.32,.41,.11,.12,.22,.24,.34,.36-.15,.56-.25,1.15-.44,1.7-.24,.72-.15,1.52-.48,2.21-.08-1.22,.11-2.44-.08-3.66-.19-1.36-.68-2.7-1.52-3.78-.36-.46-.66-.99-1.17-1.29-.58-1.43-1.42-2.73-2.37-3.92-.26-.35-.68-.4-1.07-.43-1.77-.42-3.57-.71-5.31-1.29-.69-.14-1.28-.54-1.84-.98-.55-.36-.63-1.1-.85-1.67Z" fill="#fdd54c"/><path d="M26.25,34.8c1.5-1.2,3.21-2.11,5.01-2.72,.22,.57,.3,1.31,.85,1.67,.55,.44,1.14,.84,1.84,.98,1.73,.57,3.54,.86,5.31,1.29,.39,.03,.82,.08,1.07,.43,.96,1.19,1.79,2.49,2.37,3.92-.57-.33-1.05-.8-1.63-1.12-1.3-.73-2.71-1.28-4.19-1.44-.55-.07-1.09-.18-1.64-.27-.11-.22-.28-.38-.52-.42-1.16-.35-2.34-.73-3.56-.78-.98-.24-2.01-.14-2.99-.43-.7-.26-1.64-.23-1.92-1.11Z" fill="#fbc04e"/><path d="M4.99,33.38c.31,.14,.6,.32,.94,.39,.1-.15,.21-.3,.32-.45,.29,.42,.82,.58,.99,1.12-.1,.09-.19,.19-.29,.29,.05,.14,.1,.28,.14,.42-.05,.14-.09,.28-.14,.42,.1,.09,.21,.18,.32,.28-.26,.32,.23,.71-.02,1.04-.18,.11-.42,.05-.62,.08,.33,.81,.12,1.7-.13,2.49-.05,.21-.28,.26-.43,.36,.01,.27,.05,.58-.18,.77-.33,.27-.23,.73-.41,1.08,.01,.05,.04,.15,.06,.2-.05,.1-.1,.2-.14,.3,.48,.94,.97,1.87,1.54,2.75-.07,.06-.21,.19-.28,.25,.13,.49-.06,.99-.16,1.47-.2,0-.39,.02-.58,.03,.09,.25,.18,.5,.26,.76-.16,.11-.32,.24-.45,.39-1.99-2.8-3.53-5.95-4.48-9.29,.26,.16,.53,.31,.77,.5,.16,.2,.19,.48,.35,.68,.57,.19,1.18,.02,1.57-.45-.12-.67-.3-1.33-.53-1.97,.28-.53,.63-1.02,.89-1.55,.13-.49,.27-1.16-.22-1.48,.42-.17,.46-.83,.93-.87Z" fill="#d71574"/><path d="M2.65,34.3c.29,.99,.33,2.04,.74,2.99,.23,.64,.41,1.3,.53,1.97-.39,.47-1,.64-1.57,.45-.16-.2-.2-.47-.35-.68-.24-.19-.51-.34-.77-.5-.37-1.26-.63-2.56-.84-3.86,.17,.06,.34,.12,.51,.18,.06,.2,.12,.41,.18,.61,.34-.23,.75-.21,1.1,0,.1-.08,.2-.17,.3-.25-.03-.09-.07-.18-.1-.27,.09-.21,.19-.43,.28-.64Z" fill="#b61f70"/><path d="M22.74,39.47c.72-1.86,2.01-3.43,3.52-4.67,.28,.88,1.22,.85,1.92,1.11,.97,.29,2,.19,2.99,.43,1.22,.05,2.39,.43,3.56,.78,.24,.04,.42,.2,.52,.42-1.6-.04-3.21-.23-4.8,.09-2.64,.18-5.26,.8-7.71,1.84Z" fill="#f89d52"/><path d="M29.98,56.78c1.26-.24,2.54-.37,3.78-.71-.4,.41-.14,1.2-.73,1.44,.07,.77-.9,.69-1.15,1.26-.22,.35-.41,.73-.57,1.12-1.64,.16-3.29,.13-4.92-.05,.71-.2,1.65,.24,2.17-.45l.25,.18c.02-.39,.05-.81,.35-1.08,.07,.04,.22,.14,.29,.18,.02-.02,.07-.07,.09-.1,.03-.62,.28-1.2,.42-1.79Z" fill="#f89d52"/><path d="M30.44,37.62c1.58-.31,3.2-.13,4.8-.09,.55,.09,1.09,.2,1.64,.27l-.07,.38c.46,.36,.93,.71,1.47,.95,.02,.3,.49,.51,.26,.8,.37,.35,.75,.73,.92,1.23,.02,.37-.02,.75,.18,1.08-.05,.07-.14,.21-.19,.28,.2,.24,.4,.47,.6,.71-.13,.94-.46,1.82-.84,2.68-.07-.05-.2-.14-.26-.19-.24,1.03-.51,2.05-.87,3.04-.31,.45-.64,.88-.88,1.38,.03,.1,.06,.19,.09,.29-.2,.23-.42,.44-.58,.7-.15,.35-.02,.75-.11,1.11-.16,.34-.35,.67-.39,1.05-.14,.14-.28,.27-.42,.41,.04,.07,.11,.21,.15,.28-.25,.59-.7,1.05-.98,1.61-.39,.17-.78,.36-1.19,.47-1.24,.34-2.52,.47-3.78,.71-.14,.02-.42,.06-.56,.08,0-.31,.14-.58,.31-.81-.03-.05-.09-.16-.13-.21,.1-.1,.19-.2,.29-.3-.1-.29-.09-.59,.11-.83,0-.32,0-.64,.13-.93,.15-.07,.3-.14,.45-.21-.05-.1-.11-.19-.16-.28,.1-.14,.21-.28,.31-.42-.02-.05-.06-.15-.08-.2,.37-.33,.45-.82,.48-1.3,.73-.64,1.48-1.31,1.92-2.2,.44-.81,.47-1.83,.16-2.7,.2-.33,.38-.7,.31-1.1-.09-.42,.26-.69,.48-.98-.04-.08-.08-.16-.11-.24,.07-.03,.2-.08,.27-.1-.02-.12-.06-.23-.05-.35,.14-.71,.2-1.44,.48-2.12-.17-.88-.59-1.67-.97-2.47-.93-.75-2.05-1.22-3.2-1.48Z" fill="#f79a42"/><path d="M22.74,39.47c2.45-1.04,5.07-1.67,7.71-1.84,1.15,.26,2.26,.73,3.2,1.48,.38,.8,.79,1.59,.97,2.47-.29,.67-.35,1.4-.48,2.12,0,.12,.03,.23,.05,.35-.07,.03-.2,.08-.27,.1,.04,.08,.08,.16,.11,.24-.22,.29-.57,.57-.48,.98,.07,.4-.11,.77-.31,1.1-.36-.69-1.04-1.19-1.8-1.26-.87-.05-1.76-.05-2.62,.13,.03-.72,.33-1.38,.64-2.01-.33-.36-.43-.82-.24-1.29,.17,0,.33-.02,.5-.02,.09-.24,.16-.47,.23-.72l-.3-.33c.12-.34,.3-.76-.04-1.04-.27-.22-.06-.78-.46-.85-.73-.13-1.45-.53-2.2-.33-1.21,.27-2.45,.45-3.62,.89-.21,.1-.43,.06-.64,.02l.08-.18Z" fill="#f58445"/><path d="M36.88,37.81c1.48,.16,2.89,.72,4.19,1.44,.58,.32,1.06,.79,1.63,1.12,.46,1.18,.8,2.41,.95,3.67-.03,2.53-.93,5.01-2.38,7.04-.5,.65-1.11,1.19-1.65,1.81-.65,.74-1.57,1.11-2.36,1.66-.77,.36-1.5,.8-2.31,1.07,.28-.57,.73-1.02,.98-1.61-.04-.07-.11-.21-.15-.28,.14-.13,.28-.27,.42-.41,.04-.38,.23-.72,.39-1.05,.09-.36-.04-.76,.11-1.11,.16-.26,.38-.48,.58-.7-.03-.1-.06-.19-.09-.29,.24-.5,.57-.93,.88-1.38,.37-.99,.63-2.01,.87-3.04,.07,.05,.2,.14,.26,.19,.38-.86,.7-1.74,.84-2.68-.2-.24-.4-.47-.6-.71,.05-.07,.14-.21,.19-.28-.2-.33-.16-.71-.18-1.08-.17-.5-.55-.88-.92-1.23,.23-.3-.25-.5-.26-.8-.54-.24-1.01-.59-1.47-.95l.07-.38Z" fill="#f5ad40"/><path d="M26.92,38.74c.75-.2,1.47,.2,2.2,.33,.41,.07,.19,.62,.46,.85,.34,.28,.16,.7,.04,1.04l.3,.33c-.07,.24-.14,.48-.23,.72-.17,0-.33,.01-.5,.02-.19,.47-.09,.93,.24,1.29-.31,.64-.61,1.29-.64,2.01-1.12,.16-2.27,.33-3.39,.08-1.09-.15-2.24-.62-2.83-1.64-.65-1.28-.37-2.81,.08-4.11,.21,.04,.44,.08,.64-.02,1.17-.44,2.4-.62,3.62-.89Z" fill="#f37148"/><path d="M42.7,40.36c.51,.3,.81,.83,1.17,1.29,.85,1.07,1.33,2.42,1.52,3.78,.19,1.21,0,2.44,.08,3.66-.25,.84-.34,1.75-.76,2.53-.49,.91-.84,1.91-1.49,2.72-.58,1-1.6,1.7-1.93,2.85-1.74,.82-3.56,1.46-5.42,1.95,.02-.23,.05-.45,.07-.67-.09-.03-.28-.09-.37-.12,.16-.09,.31-.19,.46-.28,.06-.22,.07-.47,.2-.66,.58-.5,1.4-.63,1.93-1.21,.34-.31,.27-.84,.57-1.18,.17-.23,.08-.56,.22-.81,.2-.13,.42-.23,.63-.33-.1-.02-.31-.07-.42-.09,.13-.13,.26-.26,.39-.39l.05-.5c.54-.61,1.15-1.16,1.65-1.81,1.44-2.03,2.35-4.51,2.38-7.04-.15-1.26-.49-2.5-.95-3.67Z" fill="#f9c545"/><path d="M6.92,44.92c.56,.98,1.19,1.96,2.03,2.71,.2,.44,.37,.89,.52,1.35-.02,.26-.05,.52-.08,.78-.14,.06-.27,.13-.41,.19,0,.5,.17,1.08-.23,1.47-1.1-1.12-2.12-2.32-3.04-3.61,.13-.15,.29-.28,.45-.39-.09-.25-.18-.5-.26-.76,.2-.01,.39-.02,.58-.03,.09-.48,.28-.98,.16-1.47,.07-.06,.21-.19,.28-.25Z" fill="#eb146f"/><path d="M9.47,48.98c.11,.29,.24,.58,.38,.86,.64,1.52,1.49,2.93,2.36,4.32l-.21,.06c-1.16-.83-2.21-1.81-3.25-2.8,.4-.39,.22-.97,.23-1.47,.14-.07,.27-.13,.41-.19,.03-.26,.06-.52,.08-.78Z" fill="#ed1c6d"/><path d="M77.2,51.7c-.07-.83-.03-1.67,.08-2.49,.06,1.2,.16,2.43,0,3.61-.05-.07-.16-.22-.22-.3,.22-.21,.14-.55,.15-.82Z" fill="#a9a8a8"/><path d="M10.34,49.58c.66,.43,1.14,1.21,1.94,1.36,.15,.2,.31,.39,.51,.55,.07-.28,.2-.57,.17-.87-.14-.32-.36-.59-.48-.93,.97,.98,2.01,1.89,3.19,2.56,.03,.29,.05,.58,.07,.87-.79-.08-1.46-.57-2.18-.86,.02,.46,.16,.9,.22,1.35-.11,.28-.26,.54-.39,.81,.1,.03,.31,.1,.41,.13-.12,.25-.19,.52-.21,.79-.55-.35-1.08-.73-1.6-1.13l.21-.06c-.86-1.39-1.72-2.8-2.36-4.32,.14,.05,.27,.09,.41,.14,.02-.1,.06-.3,.08-.4Z" fill="#f04e62"/><path d="M24.41,53.74c2.37-.26,4.76-.94,6.73-2.38-.02,.48-.1,.97-.48,1.3,.02,.05,.06,.15,.08,.2-.11,.14-.21,.28-.31,.42,.05,.09,.11,.19,.16,.28-.15,.07-.3,.14-.45,.21-.14,.3-.13,.62-.13,.93-.21,.24-.22,.53-.11,.83-.1,.1-.19,.2-.29,.3,.03,.05,.09,.15,.13,.21-.18,.24-.31,.51-.31,.81-.36,.09-.71,0-1.05-.07-.63,.21-1.3,.29-1.96,.26-1.02-.08-2.04-.07-3.04-.29-.16-.06-.32-.12-.49-.18,.7-.18,.56-.97,.81-1.51,.15-.27,.11-.58,.09-.88,.21-.16,.41-.31,.63-.46Z" fill="#f58046"/><path d="M13.56,52.27c.73,.29,1.39,.78,2.18,.86-.02-.29-.05-.58-.07-.87,1.31,.78,2.78,1.24,4.28,1.42-.06,.08-.17,.24-.22,.32-.82,.27-1.65,.05-2.49,.03l-.2,.69c-.04-.3-.08-.61-.14-.91-.22,.66-.07,1.42-.5,2,.16,.38,.17,.79,.08,1.2-.99-.5-1.96-1.04-2.89-1.66,.02-.28,.08-.55,.21-.79-.1-.03-.31-.1-.41-.13,.13-.27,.27-.54,.39-.81-.07-.45-.21-.89-.22-1.35Z" fill="#f05759"/><path d="M37.25,54.54c.79-.55,1.71-.92,2.36-1.66l-.05,.5c-.13,.13-.26,.26-.39,.39,.1,.02,.31,.07,.42,.09-.21,.1-.43,.2-.63,.33-.14,.25-.05,.58-.22,.81-.3,.34-.23,.87-.57,1.18-.52,.58-1.34,.71-1.93,1.21-.13,.19-.14,.44-.2,.66-.15,.09-.31,.19-.46,.28,.09,.03,.28,.09,.37,.12-.02,.22-.05,.45-.07,.67-1.49,.36-3.01,.65-4.54,.76,.16-.39,.34-.77,.57-1.12,.25-.58,1.22-.49,1.15-1.26,.59-.24,.33-1.02,.73-1.44,.41-.11,.8-.3,1.19-.47,.8-.27,1.54-.7,2.31-1.07Z" fill="#fcb44d"/><path d="M16.41,55.81c.43-.59,.28-1.34,.5-2,.05,.3,.09,.6,.14,.91l.2-.69c.83,.02,1.67,.24,2.49-.03-.03,.18-.11,.38-.01,.56,.25,.58,.39,1.2,.57,1.81,.24,.08,.49,.15,.75,.1,.34,.1,.7,.14,1.05,.19-.01,.36-.02,.78-.35,1-.23,.28-.56,.06-.81-.05-.2,.32-.34,.67-.44,1.03-1.37-.44-2.71-.97-3.99-1.63,.09-.4,.07-.81-.08-1.2Z" fill="#f16258"/><path d="M19.95,53.67c1.48,.21,2.98,.21,4.47,.06-.21,.15-.42,.3-.63,.46,.01,.3,.06,.61-.09,.88-.25,.53-.11,1.33-.81,1.51,.16,.06,.32,.12,.49,.18-.43,.07-.86,.02-1.28-.09-.35-.05-.71-.09-1.05-.19-.25,.04-.51-.02-.75-.1-.19-.61-.33-1.22-.57-1.81-.1-.18-.02-.38,.01-.56,.06-.08,.17-.24,.22-.32Z" fill="#f36c4a"/><path d="M22.08,56.66c.42,.12,.85,.16,1.28,.09,1,.23,2.03,.21,3.04,.29,0,.1-.02,.3-.03,.4-.12-.08-.25-.15-.37-.23,.08,.22,.18,.43,.29,.63-.45,.44-.86,.93-.85,1.6-.04-.3-.08-.6-.13-.89-.17,.35-.23,.74-.29,1.13-1.54-.22-3.07-.59-4.56-1.06,.1-.36,.24-.71,.44-1.03,.25,.11,.58,.33,.81,.05,.33-.22,.34-.64,.35-1Z" fill="#f37756"/><path d="M28.37,56.79c.35,.07,.7,.16,1.05,.07,.14-.02,.42-.06,.56-.08-.14,.6-.39,1.17-.42,1.79-.02,.02-.07,.07-.09,.1-.07-.05-.22-.14-.29-.18-.3,.28-.33,.69-.35,1.08l-.25-.18c-.52,.69-1.45,.25-2.17,.45-.46-.02-.91-.08-1.36-.15,.06-.39,.12-.78,.29-1.13,.05,.3,.09,.59,.13,.89-.01-.68,.4-1.17,.85-1.6-.11-.2-.21-.41-.29-.63,.12,.07,.25,.15,.37,.23,0-.1,.02-.3,.03-.4,.66,.03,1.33-.05,1.96-.26Z" fill="#f68b54"/></svg>