<svg xmlns="http://www.w3.org/2000/svg" id="uuid-929bad05-e99f-4498-a0b6-a9aa49284fae" viewBox="0 0 120 60"><defs><linearGradient id="uuid-2cc34ffc-7ee6-4f36-8c48-831c92159493" x1="-546.2" x2="-546.2" y1="-236.06" y2="-176.1" gradientTransform="translate(564 236)" gradientUnits="userSpaceOnUse"><stop offset=".02" stop-color="#fdeb1a"/><stop offset=".08" stop-color="#f4e61e"/><stop offset=".18" stop-color="#dcda29"/><stop offset=".31" stop-color="#b4c53b"/><stop offset=".34" stop-color="#a8bf41"/><stop offset=".42" stop-color="#99bb60"/><stop offset=".61" stop-color="#71b2b0"/><stop offset=".66" stop-color="#65afc9"/><stop offset=".99" stop-color="#17233c"/></linearGradient></defs><path fill="#fff" d="M27.03 36.23s-.06-.06-.1-.08c-.03-.03-.07-.05-.11-.07h-6.35l-.1.06-.1.07-2.07 2.07-.07.09-.06.1v7.24l.06.1.07.09 2.04 2.04.1.07.1.06h7.92c.08 0 .16-.02.23-.05.07-.03.14-.08.2-.13.06-.06.1-.13.13-.2s.05-.15.05-.23v-5.5c0-.08-.02-.16-.05-.24a.497.497 0 0 0-.13-.19.533.533 0 0 0-.2-.13.456.456 0 0 0-.23-.05h-4.34c-.08 0-.17.01-.24.05-.07.03-.14.07-.19.13-.06.05-.11.12-.14.19-.01.08-.01.16 0 .24v1.17c-.01.08-.01.16 0 .24.03.07.08.14.14.19.05.06.12.1.19.13.08.01.16.01.24 0h.75c.08 0 .16.01.23.05.08.03.14.07.2.13.06.05.1.12.13.19.03.08.05.16.05.24v.68c0 .08-.02.16-.05.23-.06.15-.18.27-.33.33-.07.03-.15.05-.23.05h-2.11c-.08 0-.16-.02-.23-.05a.533.533 0 0 1-.2-.13.593.593 0 0 1-.18-.42v-5.94c0-.08.02-.16.05-.23.03-.07.07-.14.13-.2.06-.05.13-.1.2-.13.08-.02.15-.02.23 0h1.66c.08-.02.15-.02.23 0 .15.06.27.18.33.33.03.07.05.15.05.23-.05.29.15.56.44.61h3c.08.02.16.02.24 0 .08-.02.15-.07.21-.13a.39.39 0 0 0 .13-.2c.02-.08.02-.17 0-.25v-.59s-.03-.07-.05-.1l-.06-.09-1.81-2.07Zm10.5 2.37-.08-.07-.1-.05h-6.04l-.09.05-.08.07-.91.9-.06.08v.75c-.02.07-.02.14 0 .21.02.07.06.14.11.19.05.05.11.08.18.11.07.02.15.02.22 0h4.7a.34.34 0 0 1 .2 0c.06.03.13.07.18.11.05.05.09.11.11.18.02.07.02.13 0 .2v.61c.01.07.01.13 0 .2a.99.99 0 0 1-.11.17c-.05.05-.11.09-.18.11a.34.34 0 0 1-.2 0H31.6s-.06.04-.08.07l-1.33 1.45-.07.08s-.04.07-.05.1v2.49l.06.08 1.38 1.25.08.07h3.25l.08-.06.38-.38s.1-.07.16-.08c.06-.02.12-.02.18 0s.1.06.14.11c.03.05.05.11.05.17 0 .25.14.31.31.31h3.12c.07.02.13.02.2 0 .05-.04.1-.08.13-.14.05-.05.09-.11.12-.17a.67.67 0 0 0 0-.2V40.79a.27.27 0 0 0-.07-.08l-2.11-2.11Zm-1.69 6.74c.01.07.01.14 0 .21a.62.62 0 0 1-.11.17c-.05.05-.11.09-.18.11a.34.34 0 0 1-.2 0h-.89a.67.67 0 0 1-.2 0 .452.452 0 0 1-.17-.11.657.657 0 0 1-.12-.17v-.85a.67.67 0 0 1 0-.2c.06-.13.16-.23.29-.29h1.09a.67.67 0 0 1 .2 0c.07.03.13.07.18.12.04.05.08.11.11.17.02.07.02.13 0 .2v.64Zm18.44-6.8h-2.62l-.84.88s-.07.06-.11.07c-.04.01-.09.01-.13 0h-.13a.259.259 0 0 1-.11-.07l-.88-.88h-3.29l-.46.46c-.05.04-.11.07-.17.09-.17.07-.36 0-.45-.15a.605.605 0 0 1 0-.19v-.13a.746.746 0 0 0-.07-.12l-.12-.07s-.09-.01-.14 0h-3.58c-.04.01-.07.04-.1.07-.04.03-.06.07-.08.11v9.25c.02.04.04.08.08.11l.1.07h3.65s.08-.04.11-.07c.03-.03.06-.07.07-.11.01-.04.01-.09 0-.13v-6.66c.02-.04.05-.08.08-.11s.06-.06.1-.07h.97s.09-.01.13 0c.04.01.08.04.11.07.03.03.05.07.07.11v6.73c.03.05.07.1.12.14.02.04.04.08.07.11l.11.07h3.52s.09.01.13 0c.08-.03.14-.1.17-.18.01-.04.01-.09 0-.13v-6.74c.02-.04.04-.08.07-.11.03-.03.07-.06.11-.07.04-.01.09-.01.13 0h.83s.09-.01.13 0c.04.01.08.04.11.07.03.03.05.07.07.11v6.73s-.01.09 0 .13c.02.04.04.08.07.11l.11.07h3.65c.08-.03.15-.1.18-.18.01-.04.01-.09 0-.13v-7.4l-1.77-1.86Zm10.36.06-.05-.07-.1-.05h-6.07l-.09.05s-.06.04-.08.07l-.91.9-.06.08V40.41c-.01.06-.01.11 0 .17.02.06.06.11.1.15.04.04.09.07.15.1.06.01.11.01.17 0h4.78a.67.67 0 0 1 .2 0c.07.03.12.07.17.12.05.05.09.11.12.17.01.07.01.13 0 .2v.62c.01.07.01.14 0 .21-.03.06-.07.12-.12.17-.04.05-.1.09-.17.11a.34.34 0 0 1-.2 0h-3.77s-.06.04-.08.07l-1.32 1.44-.07.09v2.59l.07.08 1.28 1.29.08.06h3.25l.08-.06.38-.38s.1-.08.16-.09c.06-.01.12-.01.18 0 .06.03.1.07.14.12.01.06.01.11 0 .17v.13c.02.04.04.08.07.11.03.03.06.05.1.06H66.27c.07.02.13.02.2 0 .06-.03.12-.07.17-.12.05-.05.09-.11.12-.17a.67.67 0 0 0 0-.2V40.79a.27.27 0 0 0-.07-.08l-2.05-2.11Zm-1.69 6.74c.01.07.01.13 0 .2-.03.07-.07.13-.12.18-.05.05-.11.09-.17.11a.34.34 0 0 1-.2 0h-.89a.34.34 0 0 1-.2 0 .418.418 0 0 1-.18-.11.418.418 0 0 1-.11-.18.67.67 0 0 1 0-.2v-.63a.739.739 0 0 1 0-.21.62.62 0 0 1 .11-.17c.05-.05.11-.09.18-.11a.34.34 0 0 1 .2 0h.89a.34.34 0 0 1 .2 0c.07.02.13.06.17.11.05.05.09.11.12.17.01.07.01.14 0 .21v.63Zm11.92-6.9h-2.28l-.08-.06V36.58c.01-.06.01-.13 0-.19a.864.864 0 0 0-.13-.14.363.363 0 0 0-.17-.07.308.308 0 0 0-.19 0l-3.25 1.1-.11.06c-.06.06-.11.12-.14.2v.63c0 .17-.07.26-.32.26s-.49.1-.49.4V40.61c.02.05.05.09.09.12.03.04.08.07.13.09h.15c.36 0 .4.11.4.4v4.57l2.2 2.19.06.05h3.94c.05.01.11.01.16 0 .1-.03.18-.11.21-.21a.43.43 0 0 0 0-.16v-1.54s.01-.1 0-.15a.305.305 0 0 0-.09-.13.38.38 0 0 0-.13-.09.43.43 0 0 0-.16 0h-1.98a.305.305 0 0 1-.13-.09.38.38 0 0 1-.09-.13v-4.61H75s.09-.05.12-.09c.04-.03.07-.07.09-.12v-2.04c-.02-.04-.05-.08-.08-.12-.04-.03-.08-.06-.13-.08l-.13-.03Zm10.88 4.6v-2.21c.25 1.13-1.91-2.28-1.91-2.28v-.06h-2.78l-.52.5c-.05.05-.12.09-.2.1-.07.03-.14.03-.21 0a.463.463 0 0 1-.18-.13.36.36 0 0 1-.06-.2.33.33 0 0 0 0-.14c-.02-.05-.05-.09-.08-.13a.375.375 0 0 0-.12-.07h-3.62s-.1-.01-.15 0a.2.2 0 0 0-.12.08c-.03.03-.06.07-.08.11v9.3c.04.09.11.16.21.2.05.01.1.01.15 0h3.45s.1.01.15 0l.12-.08s.06-.08.08-.12v-6.7s-.01-.09 0-.14c.04-.05.08-.1.14-.14.03-.03.08-.06.12-.07h1.06c.06 0 .13.03.18.07.05.01.09.04.12.07.03.04.06.08.08.12.01.05.01.09 0 .14v1.64s-.01.09 0 .14c.02.04.05.08.08.12.04.03.08.06.12.08h3.76m8.84-4.54s-.08-.08-.13-.11l-.15-.08h-5.23c-.05.02-.1.05-.15.08-.05.03-.09.07-.13.11l-1.92 1.91s-.08.08-.11.13-.06.1-.08.15c-.04.1-.07.22-.07.33v4.14a.928.928 0 0 0 .15.48c.03.05.07.09.11.13l1.92 1.91s.08.08.13.11l.15.08h5.24l.15-.08s.09-.07.13-.11l1.92-1.94s.08-.08.11-.13.06-.1.08-.15c.04-.1.07-.22.07-.33v-4.44c-.02-.05-.05-.1-.08-.15a.755.755 0 0 0-.11-.14l-2-1.9Zm-2 6.31c0 .11-.02.22-.06.33a.9.9 0 0 1-.47.47.96.96 0 0 1-.33.06h-.19c-.23 0-.45-.09-.61-.25a.898.898 0 0 1-.13-.28.754.754 0 0 1-.07-.33v-3.28c0-.11.02-.23.07-.33a.9.9 0 0 1 .47-.47c.1-.05.22-.07.33-.07h.2c.11 0 .23.02.33.07.1.04.2.11.28.19.08.08.14.18.19.28.04.11.06.22.06.33l-.07 3.28Zm14.58-4.49-2-2h-2.47l-.5.51c-.05.05-.12.09-.19.1-.07.02-.14.02-.21 0a.401.401 0 0 1-.16-.13.394.394 0 0 1-.06-.21c0-.32-.18-.36-.37-.36h-3.36s-.09-.01-.14 0l-.12.08s-.06.07-.07.12V47.9c.02.04.05.09.08.12l.12.08s.09.01.14 0h3.36s.09.01.14 0l.12-.08s.06-.08.08-.12v-6.68s-.01-.09 0-.14a.39.39 0 0 1 .2-.2h1.16c.09.04.16.11.2.2.01.05.01.09 0 .14V47.91c.02.04.05.08.08.11.04.03.08.06.12.08.05.01.09.01.14 0h3.47c.08-.04.15-.11.19-.19V40.58l.05-.06ZM32.3 11.06c0-.14.07-.29.09-.43.03-.15.06-.31.07-.46v-.46h.49c.01-.17.01-.33 0-.5 0-.17-.03-.33-.06-.5-.02-.17-.06-.34-.1-.5l-.48.12c-.03-.13-.07-.26-.12-.39-.05-.14-.11-.29-.17-.43l-.21-.41c-.08-.14-.16-.27-.25-.4l.4-.27c-.18-.28-.4-.54-.64-.78-.11-.13-.24-.24-.37-.35l-.36.32c-.11-.1-.23-.2-.36-.29l-.39-.25.25-.42c-.14-.09-.29-.17-.44-.24l-.47-.2-.17.46-.42-.14-.44-.11c-.31-.05-.62-.08-.93-.09h-.46v-.49c-.17 0-.33.03-.5.06l-.5.1.12.47-.44.14-.44.17c-.14.06-.28.13-.42.21l-.39.24-.38.28-.31-.38c-.13.11-.26.22-.38.34l-.09.09-.09.09-.08.1-.08.09c-.12.13-.22.26-.32.4l.4.28-.27.41-.22.41-.44-.22c-.07.15-.14.31-.2.46s-.14.35-.14.48l.47.14c0 .14-.07.29-.1.44-.03.15-.06.31-.07.46v.46h-.49a4.17 4.17 0 0 0 .06 1.01c.02.17.06.33.1.49l.48-.12c.03.15.08.3.13.44.05.15.11.29.18.43.06.14.13.28.2.42s.16.26.25.39l-.4.27c.09.14.19.28.3.41.11.13.22.26.34.38.12.12.24.23.37.34l.32-.37c.11.1.24.2.36.29l.1.07.09.06.1.06.1.06-.25.42.44.24c.15.08.31.14.47.2l.17-.46c.14.06.29.1.45.15l.44.1.39.09h.93v.48c.17-.01.33-.03.5-.06l.5-.1-.09-.46c.15-.03.3-.08.45-.13l.43-.17.41-.21.4-.25.09-.06.1-.07.09-.07.09-.08.31.38c.13-.1.26-.22.38-.33s.24-.24.35-.37c.11-.13.22-.26.31-.4l-.4-.27c.09-.13.17-.26.25-.39s.15-.27.22-.41l.45.22c.07-.15.14-.31.2-.46.06-.16.11-.32.15-.48l-.47-.13.06-.06Zm-3.71-.92c0 .1-.02.19-.05.28-.04.09-.09.17-.16.24-.07.06-.15.12-.24.15-.09.04-.18.06-.28.06h-1.37c-.1 0-.2-.02-.29-.06a.513.513 0 0 1-.23-.15.633.633 0 0 1-.16-.24.671.671 0 0 1-.06-.28v-1c0-.19.08-.38.22-.52a.733.733 0 0 1 .52-.22h1.33c.1 0 .19.02.28.06.18.08.32.22.4.4.03.09.05.18.05.28l.04 1Z"/><path id="uuid-ec843ba8-1190-4655-8cc2-79949fb75659" fill="url(#uuid-2cc34ffc-7ee6-4f36-8c48-831c92159493)" d="M20.59 50.29c-.66 0-1.11.57-1.55.8-.16.07-.32.14-.49.19-.17.06-.34.1-.51.13-.35.06-.71.08-1.06.05-.66-.11-1.18-.74-2-.45s-1.17 1.17-1.63 1.65l-.37.31c-.13.09-.26.18-.4.26-.14.08-.28.16-.42.23l-.45.18a1.9 1.9 0 0 0-1.31.57c-.11.13-.19.28-.24.44-.05.16-.08.33-.06.5.01.17.05.33.12.48.07.15.17.29.3.4.59.51 1.48.44 1.99-.16l.01-.01c.49-.71.22-.94.49-1.38s.66-.8 1.15-.57c.94.44.14 2.88-.19 3.29s-.64.49-.82 1.14c-.05.18-.05.37 0 .55.03.18.1.36.21.51.11.15.25.28.41.37.16.1.34.15.53.16.76.16 1.5-.32 1.66-1.08 0-.04.02-.09.02-.13.05-.59-.33-1-.45-1.55s-.11-2.41.71-2.76 1.81.88 2 1.32c.11.36.29.7.52 1 .13.14.28.26.46.33.18.08.37.11.56.11.39-.01.76-.2 1-.51.44-.58.4-1.39-.11-1.91-.63-.49-1.15-.26-1.61-.33s-2-1-1.85-1.72 1.63-.51 1.91-.37c.67.32.91.76 1.65.68.7-.1 1.19-.75 1.08-1.45v-.03c0-.34-.14-.67-.39-.9-.13-.11-.28-.2-.44-.26a1.26 1.26 0 0 0-.43-.08ZM7.92 5.36c.16.05.32.12.48.19.31.16.61.35.87.58.13.11.25.24.36.37.41.55.34 1.36 1.09 1.68s1.63-.07 2.28-.1c.16-.02.31-.02.47 0l.47.07.45.13c.15.05.3.11.44.18.36.33.84.5 1.33.48.17-.03.33-.09.48-.17.14-.09.27-.2.38-.33.11-.13.19-.29.24-.45.04-.16.04-.34 0-.5-.04-.76-.69-1.33-1.44-1.29-.04 0-.08 0-.13.01-.83.2-.8.55-1.28.7s-1 .15-1.21-.37c-.37-1 1.86-2.25 2.37-2.33s.77 0 1.35-.29c.16-.1.3-.23.4-.39.11-.16.17-.34.2-.53.04-.36-.07-.72-.31-1a1.36 1.36 0 0 0-1.89-.33l-.11.08c-.45.4-.45 1-.73 1.48s-1.55 1.88-2.38 1.58-.68-1.9-.55-2.38c.16-.35.26-.73.3-1.11.01-.19-.02-.38-.09-.55a1.332 1.332 0 0 0-.82-.74c-.19-.04-.38-.04-.57 0-.72.14-1.23.77-1.21 1.5.11.8.64 1 .91 1.35s.78 2.12.16 2.57-1.51-.73-1.62-1c-.25-.7-.1-1.26-.71-1.64-.14-.09-.3-.16-.46-.19a1.4 1.4 0 0 0-.5 0c-.16.03-.32.1-.46.19-.14.1-.26.22-.35.36-.45.53-.39 1.32.13 1.77.52.39 1.19.29 1.66.42Zm13.26 23.68c.23-1.54.02-3.12-.59-4.55 2.61-1 3.67-2 4.15-2.74l.16-.22.13-.24c0-.09.08-.17.11-.25s.05-.18.08-.27 0-.23.05-.34 0-.24 0-.35v-.71c0-1.72.8-2.67 1.27-3.8.55-1.31.23-2.82-.8-3.8-1.79-1.47-4.37-.37-5.05.37-.45.53-1.02.94-1.66 1.2-1.06.36-1.75.39-2.27.56-.41.19-.77.46-1.07.79a7.762 7.762 0 0 0-1.74 3.57c-.64-1-2.95-2.31-5.3-3.34 0 0 2.62-5.67 1.46-6.23s-7.26 6.54.63 11.8C1.36 23.8-1.82 29.49.98 35.1c1.85 3.68 4.87 6.64 8.6 8.39-3.42.73-5.94 4.65-6.7 6.13-.19.38.25.55.25.55 6.23 2.92 10.76 1.46 10.85.61.23-1.6-7.39-2.14-7.39-2.14s5.8-1.88 6.59-5.82c.32-1.65-1.35-3.81-3.42-5.77.35-.13.69-.27 1-.43a9.4 9.4 0 0 0 1-.51c.32-.18.64-.38.95-.58s.61-.43.9-.66c3.38-2.63 3.65-6.38 4.91-8 .07-.08.14-.17.23-.26-.45 5.93 5.4 4.5 5.4 4.5s1.85-.37 1.84-1.15c.05-1.08-4.81-.92-4.81-.92Zm13.05-1.29c-.58 0-1 .49-1.47.7s-2.37.49-2.81-.27.64-1.94 1.07-2.24c.33-.18.64-.4.9-.67.48-.54.44-1.37-.1-1.85a.951.951 0 0 0-.2-.15c-.63-.35-1.43-.18-1.86.41-.42.71-.13 1.18-.15 1.65s-.73 2.16-1.48 2.12-.69-1.51-.54-1.83c.24-.71.7-1.05.48-1.75-.05-.16-.12-.3-.23-.43-.1-.13-.23-.24-.38-.32-.15-.08-.31-.13-.48-.15-.17 0-.33.01-.49.06-.83.28-1.17.82-1.05 1.5s.7 1 1 1.42c.09.15.17.31.25.47.07.16.13.32.18.49.05.17.09.34.12.51.02.17.02.35 0 .52 0 .69-.58 1.29-.22 2s1.29 1 1.81 1.37l.35.32c.11.11.22.23.31.36.1.12.19.25.27.39.08.13.16.27.23.41.14.42.18.89.71 1.22.15.08.31.14.48.17.17.03.33.03.5 0 .16-.04.32-.11.46-.2a1.42 1.42 0 0 0-.04-2.34s-.02-.01-.02-.02c-.63-.34-1-.07-1.41-.26s-.87-.53-.7-1.07c.33-1 2.83-.58 3.27-.32s.56.52 1.21.63c.75.02 1.37-.56 1.39-1.31v-.07c.08-.72-.44-1.38-1.16-1.46-.07 0-.13-.01-.2 0Zm-7.16-9.81h.11l.1.05.1.07.08.07c-.01-.16-.03-.31-.06-.47-.02-.16-.06-.31-.11-.46-.04-.15-.1-.3-.16-.45-.07-.14-.14-.28-.22-.42-.14.14-.27.29-.38.45a3.837 3.837 0 0 0-.56 1.04c-.07.18-.13.37-.17.56-.03.2-.05.41-.05.61-.02.2-.02.4 0 .6.02.2.06.4.1.59.05.2.11.39.19.58.12-.1.25-.21.36-.32s.22-.24.32-.36c.1-.13.2-.26.28-.4.09-.14.16-.28.23-.43a.71.71 0 0 1-.94-.32.794.794 0 0 1-.06-.22c-.03-.23.05-.45.22-.61.17-.16.4-.22.63-.17Zm-10.54-4.79c.19.05.38.08.58.09.2.02.4.02.6 0 .6-.02 1.18-.19 1.7-.49.18-.1.34-.21.5-.34.16-.12.32-.25.46-.4.14-.14.27-.29.4-.45-.15-.06-.31-.1-.47-.14l-.48-.09h-.48c-.16-.01-.33-.01-.49 0l.1.07.08.08.06.09s.04.07.05.11c.08.21.06.45-.07.64a.713.713 0 0 1-1.31-.36c0-.08 0-.16.03-.23-.13.09-.26.19-.38.3-.12.1-.23.21-.34.33-.1.12-.2.24-.29.37-.09.14-.18.29-.25.44v-.02Z"/></svg>