<svg xmlns="http://www.w3.org/2000/svg" xmlns:xlink="http://www.w3.org/1999/xlink" viewBox="0 0 120 60"><defs><linearGradient id="ab4d2477-e08c-4eb9-a653-fb97b9363170" x1="-136.02" y1="32.01" x2="123.09" y2="32.01" gradientTransform="matrix(1, 0, 0, -1, 0, 62)" gradientUnits="userSpaceOnUse"><stop offset="0" stop-color="#e8384f"/><stop offset="1" stop-color="#f4992c"/></linearGradient></defs><path d="M37.62,38.35H34.49V33.69H30.44v4.66H27.3V26.48h3.14V31H34.5V26.48h3.12Zm5-2.05L42,38.35H38.79l3.49-11.86H47l3.55,11.86H47.38l-.62-2.05H42.62Zm2.1-7.46L43.26,34h2.9l-1.47-5.16Zm7-2.36h6.35a4.9,4.9,0,0,1,2.54.61,2.71,2.71,0,0,1,.94,2.43,4.94,4.94,0,0,1-.28,1.79c-.17.5-.69.83-1.54,1v.09a2,2,0,0,1,1.6.77A3.34,3.34,0,0,1,61.75,35,3.57,3.57,0,0,1,61,37.7a4.33,4.33,0,0,1-2.84.7h-6.4V26.48Zm5.12,4.75h.27a3.37,3.37,0,0,0,1-.15c.26-.09.39-.38.39-.86a1.39,1.39,0,0,0-.21-.89,1.14,1.14,0,0,0-.85-.24H54.87v2.12Zm.09,4.5a3.87,3.87,0,0,0,1.22-.13c.33-.1.48-.44.48-1s-.12-.88-.38-1a2.93,2.93,0,0,0-1.1-.15h-2.3v2.29Zm9,.57-.56,2.05H62.1l3.5-11.86h4.73l3.56,11.86H70.7l-.61-2.05ZM68,28.84,66.58,34h2.9Zm18.33,9.51H81.06l-3.29-9.13h-.16l.14,9.13H74.69V26.48H80l3.28,9h.12l-.12-9h3.09V38.35ZM91,31.23h5v2.21H91v2.29h5.41v2.62H87.88V26.48h8.44v2.61H91Zm6.88-4.75h5.87a5.24,5.24,0,0,1,3.2.78c.64.5,1,1.54,1,3.14a6.8,6.8,0,0,1-.28,2.15c-.19.56-.83,1-1.91,1.19v.11a2.17,2.17,0,0,1,1.59.66,2.49,2.49,0,0,1,.52,1.68v2.16h-3.18V36.76a2,2,0,0,0-.27-1.13,1.19,1.19,0,0,0-1-.41H101v3.13H97.9V26.48Zm5.61,6c.58,0,.92-.11,1-.39a2.9,2.9,0,0,0,.18-1.17,3.11,3.11,0,0,0-.18-1.28c-.14-.28-.53-.41-1.19-.41H101V32.5Zm5.65-.7a14.18,14.18,0,0,1,.16-2.16A3,3,0,0,1,111.08,27a8.64,8.64,0,0,1,3.13-.62h.35c2,0,3.42.34,4.22,1s1.22,2.17,1.22,4.3a13.9,13.9,0,0,1-.71,5c-.47,1.13-2,1.7-4.64,1.7h-1.17a7.15,7.15,0,0,1-2.5-.55,2.88,2.88,0,0,1-1.59-2,5.11,5.11,0,0,1-.21-1.23V31.79Zm3.2.65v.71a5.44,5.44,0,0,0,.26,1.92c.18.45.74.66,1.71.66a2.71,2.71,0,0,0,2-.52,3.49,3.49,0,0,0,.42-2V31.47a3.48,3.48,0,0,0-.34-1.74c-.22-.36-.75-.55-1.59-.55-1.21,0-1.93.17-2.16.5a6.33,6.33,0,0,0-.37,2.73v.06Z" fill="#fff"/><path d="M9.91,20.07a.58.58,0,0,0,.59-.57V17.76A.59.59,0,0,0,10,17.1a.59.59,0,0,0-.66.51.38.38,0,0,0,0,.15v1.72a.58.58,0,0,0,.57.59ZM7.58,21.65a.58.58,0,0,0,.58-.58h0V19.34a.58.58,0,0,0-1.16,0H7v1.72a.58.58,0,0,0,.56.58h0Zm0-4a.58.58,0,0,0,.58-.58h0a.58.58,0,0,0-1.16,0H7a.58.58,0,0,0,.54.62h0Zm4.67,4.42a.57.57,0,0,0,.57-.57v0a.58.58,0,1,0-1.16,0h0a.58.58,0,0,0,.54.62h.05Zm4.65,4.41a.58.58,0,0,0-.57.57h0v.3a.58.58,0,0,1-.6.58h0a.6.6,0,0,1-.57-.61V25.88a.59.59,0,0,0-.51-.66.59.59,0,0,0-.66.51.38.38,0,0,0,0,.15.58.58,0,0,1-1.16.14v-2.6a.58.58,0,1,0-1.16,0h0v1a.6.6,0,0,1-.59.58.58.58,0,0,1-.58-.56V21.7A.59.59,0,0,0,10,21a.59.59,0,0,0-.66.51.38.38,0,0,0,0,.15V24a.59.59,0,0,1-.51.66.59.59,0,0,1-.66-.51.38.38,0,0,1,0-.15v-.83a.58.58,0,0,0-1.16,0H7V25a.59.59,0,0,1-.51.66.59.59,0,0,1-.66-.51.38.38,0,0,1,0-.15V22.5a.58.58,0,0,0-1.16,0h0v3.8a.59.59,0,0,1-.51.66.59.59,0,0,1-.66-.51.38.38,0,0,1,0-.15v-1a.58.58,0,1,0-1.16,0h0v2.79a.59.59,0,0,1-.51.66.59.59,0,0,1-.66-.51.38.38,0,0,1,0-.15v-.92a.6.6,0,0,0-.58-.59.6.6,0,0,0-.58.59H0v11.2L8.75,43.5l8.72-5.14V27.1a.58.58,0,0,0-.55-.59h0Zm-4,10.07H10.12V34.46H7.37v2.13H4.63V29.93H7.37v2.24h2.75V29.93h2.74v6.66Z" fill-rule="evenodd" fill="url(#ab4d2477-e08c-4eb9-a653-fb97b9363170)"/></svg>