<svg xmlns="http://www.w3.org/2000/svg" viewBox="0 0 120 60"><path fill="#2daf85" d="M86.73 22.68c-.16-1.29.48-3 1.94-2.62 1.58.89 3.11 1.89 4.65 2.86l-1.17 2.18c-1.05-.64-2.12-1.28-3.13-2l-.68-.34Z"/><path fill="#00a7bf" d="m63.75 24.4 2.48.11v4.33l-2.52-.66c.09-1.26.03-2.52.04-3.78Z"/><path fill="#105299" d="M87 22.84c.34 0 1-.06 1.33-.08l.68.34c.28 2.59.11 5.22.13 7.83a2.65 2.65 0 0 0-2.13-2C87 26.89 87 24.87 87 22.84Z"/><path fill="#0aada4" d="M93.32 22.92c1.23.75 2.47 1.48 3.68 2.28l-1.14 2.21c-1.24-.76-2.47-1.54-3.71-2.31Z"/><path fill="#00a3c4" d="M95.86 27.41 97 25.2c1.58 1 3.27 1.89 4.77 3.05A8.21 8.21 0 0 1 100.1 30c-1.47-.78-2.82-1.75-4.24-2.59Z"/><path fill="#7d509a" d="M100.1 30a8.21 8.21 0 0 0 1.67-1.71A1.79 1.79 0 0 1 103 31c-1.29 1-2.74 1.76-4.1 2.63a12 12 0 0 0-1.27-2.13c.79-.5 1.64-.99 2.47-1.5Z"/><path fill="#0c70b8" d="M87 28.91a2.65 2.65 0 0 1 2.13 2v5.84c-.17-1.35-.81-2.54-2.14-2.72.01-1.69.01-3.41.01-5.12Z"/><path fill="#20b8cf" d="M99.86 20.05h3.31c1.44 1.83 2.83 3.73 4.25 5.58h-3.3c-1.42-1.84-3.02-3.57-4.26-5.58Zm16.64 0h3.5c-1.52 2-3.09 3.94-4.63 5.91l-2.87-.62q2.01-2.62 4-5.28Zm-12.38 5.6c1.09-.05 2.2-.08 3.3 0 .85 1 1.61 2.13 2.44 3.18.88-1.15 1.73-2.33 2.64-3.46l2.87.62c-1 1.37-2.08 2.68-3.12 4-1.63-.06-3.26-.09-4.89-.15-1.09-1.4-2.21-2.75-3.24-4.18Zm3.24 4.17c1.63.06 3.26.09 4.89.15-.34.5-.78.94-1.08 1.47v4.49c-.63-.08-1.26-.17-1.88-.28a42.48 42.48 0 0 1-.7-4.21c-.41-.55-.86-1.05-1.23-1.61Zm1.21 1.62a42.48 42.48 0 0 0 .7 4.21c.62.11 1.25.2 1.88.28v3.93h-2.55c-.03-2.8-.04-5.6-.03-8.41Z"/><path fill="#2fbad1" d="M49 20.05h13.08a4.14 4.14 0 0 1 4.13 4.46l-2.48-.11a2.24 2.24 0 0 0-2.26-1.87h-10a16.91 16.91 0 0 1-.81 1.72 15.36 15.36 0 0 1-1.66.35v-4.55Zm1.64 4.22a16.91 16.91 0 0 0 .81-1.72v7.23c-.82-.27-1.61-.6-2.41-.91V24.6a15.36 15.36 0 0 0 1.62-.33Zm13.07 3.91 2.52.66a4.21 4.21 0 0 1-4.14 3.51H51.41c-.27 1.07-.45 2.16-.72 3.22-.55.14-1.1.26-1.66.36 0-2.36-.08-4.72 0-7.07.8.31 1.59.64 2.41.91 3.37.18 6.75 0 10.13.07a2.3 2.3 0 0 0 2.16-1.66Zm-13 7.4c.27-1.06.45-2.15.72-3.22.06 2.5 0 5 0 7.5h-2.42c0-1.31-.05-2.62 0-3.93.6-.09 1.15-.21 1.7-.35Z"/><path fill="#6254a0" d="m93.29 14.2 4.29-2.66a12 12 0 0 1 1.27 2.13c-1.47.94-2.94 1.85-4.43 2.75Z"/><path fill="#1986c8" d="M87 34.05c1.33.18 2 1.37 2.14 2.72.13.84.26 1.67.41 2.5v.16a1.61 1.61 0 0 1-2.5 0c-.14-1.82 0-3.6-.05-5.38Z"/><path fill="#495aa5" d="m89.16 36.77 4.13-2.57 1.13 2.22a41.82 41.82 0 0 1-4.85 2.85c-.15-.83-.28-1.66-.41-2.5Z"/><path fill="#b9b9bb" d="M39 29.22c.76.73 1.45 1.53 2.18 2.28-1.64.2-3.27.49-4.9.78-.71-.74-1.42-1.49-2.12-2.25 1.59-.21 3.2-.52 4.84-.81Zm3.58.88h3.86v3.53c-2.84-.08-5.72-.34-8.53.35-.56-.55-1.09-1.15-1.63-1.72 1.63-.29 3.26-.58 4.9-.78.45.51 1 1 1.4 1.5-.05-.98-.05-1.92-.03-2.88ZM0 20.05h3.69v5.46H.01C0 23.71 0 21.87 0 20.05Zm5.45 0h15.43a4.38 4.38 0 0 1 4.28 4.09c-1.32.09-2.64.15-4 .21l-.71-.35H10.19a12.22 12.22 0 0 1-3.91.06L5.43 24c.05-1.35.02-2.64.03-3.94Zm22.1 0h2.71c1.42 1.45 2.81 3 4.21 4.44-2.3-.11-4.61-.07-6.92 0 0-1.49 0-2.96.01-4.44Zm15 0h3.87v5.5a38.21 38.21 0 0 0-3.86 0c0-1.86-.03-3.68-.01-5.5Zm-36.27 4a12.22 12.22 0 0 0 3.91-.05v3.93c-1.08-.06-2.19-.06-3.19-.2a11.76 11.76 0 0 1-.68-1.49c-.04-.72-.05-1.45-.04-2.17Zm14.92.29c1.33-.06 2.65-.12 4-.21.07 1.25 0 2.49 0 3.74A10.93 10.93 0 0 0 22 28c-.16.8-.27 1.6-.35 2.4l-.19-.08c-.06-1.94.32-4.05-.26-5.96Zm6.36.12c2.31-.06 4.62-.1 6.92 0 .82.79 1.57 1.66 2.37 2.49-1.6.21-3.19.55-4.78.85l-.62-.78c-1.29.07-2.56.27-3.84.41-.06-.96-.07-1.95-.05-2.95ZM0 25.54c1.22-.06 2.45-.07 3.68 0v4.55c-1.22 0-2.45 0-3.67.05C0 28.59 0 27.06 0 25.54Zm42.53 0a38.21 38.21 0 0 1 3.86 0v4.57a41.41 41.41 0 0 0-3.86 0c.03-1.54-.01-3.11.02-4.59Zm-36.23.7a11.76 11.76 0 0 0 .7 1.49c1.06.14 2.13.14 3.19.21v3.08C9.12 31 8 31.3 7 30.74a12.63 12.63 0 0 1-.69-1.66c-.04-.95-.04-1.9-.01-2.84ZM22 28a10.93 10.93 0 0 1 3.18-.15v3.17a6.72 6.72 0 0 1-3.53-.62c.11-.76.22-1.56.35-2.4Zm5.53-.57c1.28-.14 2.55-.34 3.84-.41l-.14.68a11.7 11.7 0 0 1-.66 1.77 10.8 10.8 0 0 1-3 .35c-.02-.76-.02-1.55-.01-2.35Zm9.32-.43c.74.71 1.41 1.5 2.12 2.24-1.61.29-3.22.6-4.84.81-.69-.73-1.4-1.43-2.06-2.2 1.59-.32 3.18-.66 4.78-.85Zm-6.25 2.51a11.7 11.7 0 0 0 .66-1.77v3.05c-.19 2.14-2.18 2.1-3.71 2v-2.91a10.8 10.8 0 0 0 3.05-.37Zm-24.31-.43A12.63 12.63 0 0 0 7 30.74c1 .56 2.14.22 3.2.28 0 1.62 0 3.25-.06 4.86-1.35-.21-3-.14-3.81-1.53-.02-1.76-.1-3.51-.04-5.27Zm15.2 1.28.19.08a6.72 6.72 0 0 0 3.53.62v4.66c-1.24-.2-2.46-.48-3.7-.62.03-1.58-.09-3.16-.02-4.74ZM0 30.11c1.22-.05 2.45-.07 3.67-.05v3.23H-.01C0 32.25 0 31.18 0 30.11Zm27.54 2.66c1.53.12 3.52.16 3.71-2 .05 1.78 0 3.57 0 5.36-1.05.93-2.45.7-3.7.86.01-1.4-.01-2.81.01-4.22ZM37.88 34c2.81-.69 5.69-.43 8.53-.35v2.43a23.07 23.07 0 0 0-6.37.2c-.73-.75-1.46-1.5-2.16-2.28ZM0 33.31h3.68v3.68H.01C0 35.76 0 34.54 0 33.31Zm6.3 1c.85 1.39 2.46 1.32 3.81 1.53a106.66 106.66 0 0 0 10.73 0l.63-.81c1.24.14 2.46.42 3.7.62A4.38 4.38 0 0 1 20.88 40H6.3c.03-1.9-.09-3.77.01-5.65ZM27.56 37c1.25-.16 2.65.07 3.7-.86v3.83h-3.7c-.01-.97-.02-1.97 0-2.97ZM0 37h3.67v3H0v-3Zm40-.7a23.07 23.07 0 0 1 6.37-.2v3.89c-1 0-2 .06-2.95 0-1.08-1.3-2.27-2.46-3.42-3.71Z"/><path fill="#2cb9d0" d="M67.89 20.05h2.52v4.36l-1.51.13c-1.11.68-.58 2.32-.73 3.44 0 .25-.1.74-.14 1l-.12.47c.03-3.15-.03-6.28-.02-9.4Zm.27 7.95c.15-1.12-.38-2.76.73-3.44l1.51-.13V28Zm0 0h2.24v4.23c-.66-.12-1.3-.26-2-.43-.2-.93-.3-1.88-.43-2.82.09-.27.16-.76.19-.98Zm-.26 1.45L68 29c.13.94.23 1.89.43 2.82.65.17 1.29.31 2 .43.11 1.51-.27 3.14.47 4.52l-2.73-.26h-.19q-.15-3.58-.08-7.09Zm.24 7 2.73.26c.54.27 1 .79 1.64.72h13v2.42H71.44c-1.56-.13-3.44-1.6-3.3-3.39Z"/></svg>
