<svg xmlns="http://www.w3.org/2000/svg" xmlns:xlink="http://www.w3.org/1999/xlink" viewBox="0 0 120 60"><defs><linearGradient id="b30d1365-a179-4c7c-a4b6-35c8b87b942c" x1="392.51" x2="392.51" y1="-251.91" y2="-236.27" gradientTransform="matrix(1 0 0 -1 -336 -214.17)" gradientUnits="userSpaceOnUse"><stop offset="0" stop-color="#d8bb6e"/><stop offset="1" stop-color="#f4ecb7"/></linearGradient><linearGradient xlink:href="#b30d1365-a179-4c7c-a4b6-35c8b87b942c" id="a181ef36-a02f-4ede-b782-563bc3c4c924" x1="434.58" x2="434.58" y1="-251.91" y2="-236.27"/></defs><path fill="#cdb266" d="M12.67 14.49c1.14-.59 2.49-1.44 3.77-.7 3.66 1.76 7.11 3.95 10.67 5.9 1.49.82 3.26 1.92 3.32 3.84q.15 6.48 0 13c0 2.4-2.48 3.44-4.27 4.45l.15-1.12a9.41 9.41 0 0 0 3-2.34 76.35 76.35 0 0 0 .12-14c-.72-.16-1.54-.48-2.2.05-1.74 1.06-3.39 2.22-5.22 3.18a4.89 4.89 0 0 0-2.56.39l-2.76-.64.84-.48c2.49.9 4.66-1 6.79-1.95a24.39 24.39 0 0 0 3.37-1.92 1 1 0 0 0-.36-1.62c-3.09-2-6.31-3.75-9.54-5.47a3.91 3.91 0 0 0-3.57-.48c-2.81 1.3-5.36 3-8.12 4.42a6.87 6.87 0 0 0-3.3 2.64c-.28.39-.55.79-.83 1.19a17.7 17.7 0 0 0 3.32 2L4.22 25a6.82 6.82 0 0 0 2.08 3c0 .31-.1.62-.14 1-.11 1.6 0 3.2-.12 4.8a6.43 6.43 0 0 0-1 2.52C4 34.46 3 32.48 1.42 31a22.83 22.83 0 0 1-.68 4.42C-.23 31.55.9 27.51.2 23.6a4.07 4.07 0 0 1 2.34-3.31q5.04-2.94 10.13-5.8Z"/><path fill="#cdb266" d="M10.3 37c1.25 2.47 3 4.65 4.1 7.22v.86L15 45c1.4-.12 2.8-.09 4.2-.08-1.3.69-2.62 1.7-4.21 1.57-1.25 0-2.3-.8-3.36-1.37l.72-.82c-1.8-1.12-2.76-3-4.07-4.63l1 .44.35-1.62c.24-.49.45-1 .67-1.49Z"/><path fill="#f6f0c1" d="M14.22 14.53a3.85 3.85 0 0 1 3.57.48c3.23 1.71 6.45 3.46 9.54 5.45a1 1 0 0 1 .36 1.61A23.41 23.41 0 0 1 24.32 24l-1.69-1a2.83 2.83 0 0 0 1.74-1.92c-1.17-.76-2.35-1.51-3.56-2.19-1-.57-1.94-1.17-2.94-1.75l-2.42-1.44c-2.71 1.51-5.34 3.15-8 4.7-.45-.48-.9-1-1.35-1.47 2.76-1.37 5.31-3.11 8.12-4.4Z"/><path d="M7.45 20.42c2.67-1.56 5.3-3.2 8-4.71l2.42 1.44-.28 1.07.59 2a18.3 18.3 0 0 0-2.63-1.46c-1.86.48-3.4 1.79-5 2.79Q13 23 15.51 24.28l3.28-2c.34.76.69 1.53 1 2.28L17.53 26l-.84.48-1.17.68c-1-.57-2.07-1.17-3.13-1.72-1.94-1.1-3.88-2.24-5.81-3.31-.09-.22-.26-.66-.34-.88.39-.25.76-.57 1.21-.83Zm12.62 10.1c.89-.52 1.79-1 2.67-1.56a21.35 21.35 0 0 0 1.63 1.8c-.92.56-1.81 1.15-2.71 1.75 0 2.27.12 4.53 0 6.79 0 .83-1 1-1.55 1.49l-1.2.24c-.65-1.14-.18-2.63-.31-3.9a51.28 51.28 0 0 1 .1-5.69 10.57 10.57 0 0 1 1.37-.92Zm-13.77.9a12.69 12.69 0 0 0 3-.6c.24 3.09 0 6.19 0 9.29l-1-.44c-.75-.51-1.71-.87-2.17-1.68.05-2.19.17-4.39.17-6.57Z"/><path fill="#1f1e1c" d="M17.87 17.17c1 .58 1.94 1.18 2.94 1.75-.44 1.61.34 3.15.81 4.66-.6.33-1.2.66-1.79 1-.35-.76-.7-1.52-1-2.28l1.26-.76c-.62-.45-1.23-.93-1.86-1.34-.2-.67-.39-1.34-.59-2Z"/><path fill="#f2e4a5" d="M10.58 21.54c1.6-1 3.12-2.34 5-2.8a19.38 19.38 0 0 1 2.63 1.47c.63.43 1.24.89 1.86 1.34l-1.26.76-3.27 2Q13 23 10.58 21.54Z"/><path fill="#efdb93" d="M2.8 21.58A6.93 6.93 0 0 1 6.1 19c.45.48.9 1 1.35 1.48-.41.26-.82.53-1.22.81.08.22.26.66.34.88a7.42 7.42 0 0 1-3.77-.59Zm18.82 2 1-.56 1.69 1C22.19 25 20 26.87 17.53 26l2.3-1.37c.59-.39 1.17-.72 1.79-1.05Z"/><path fill="#474646" d="M20.81 18.92c1.21.68 2.39 1.44 3.56 2.19A2.87 2.87 0 0 1 22.63 23l-1 .57c-.48-1.51-1.26-3.04-.82-4.65Z"/><path fill="#e8ce79" d="m2 22.74.83-1.18a7 7 0 0 0 3.77.55c1.94 1.07 3.88 2.21 5.82 3.31a15.13 15.13 0 0 1-4.12-.69 3.07 3.07 0 0 0-2.81.09l-.18-.09A16.91 16.91 0 0 1 2 22.74Z"/><path fill="#f3e6a9" d="M21.66 32.51c.9-.6 1.79-1.19 2.71-1.75l.77.27c0 2-.15 4 0 6 .84.51 1.57-.26 2.23-.67.64.38 1.27.77 1.9 1.17a9.41 9.41 0 0 1-3 2.34 21.62 21.62 0 0 1-3.58 1.68 20.11 20.11 0 0 1-2.63-.73c.49-.48 1.55-.66 1.56-1.49.16-2.33.02-4.55.04-6.82Z"/><path fill="#b99f56" d="m0 23 .21.6c.7 3.91-.43 8 .54 11.86 0 2.21 1.94 3.52 3.1 5.15C1.94 39.82.1 38.45 0 36.2Z" opacity=".91" style="isolation:isolate"/><path fill="#f8f6c9" d="M27.23 23.52c.66-.52 1.48-.21 2.2-.05a76.35 76.35 0 0 1-.12 14c-.63-.4-1.26-.79-1.9-1.17l.33-.28v-6.11c-.08-1.09.34-2.36-.38-3.3a4 4 0 0 0-2.38.89L22.74 29c-.88.54-1.78 1-2.67 1.56v-2.13c.63-.58 1.25-1.16 1.91-1.69 1.84-1 3.51-2.16 5.25-3.22Z"/><path fill="#817f7d" d="M25.06 27.52a4 4 0 0 1 2.38-.89c.72 1 .3 2.21.38 3.3-.94-.78-1.82-1.59-2.76-2.41Z"/><path fill="#3f3f3e" d="m22.74 29 2.32-1.44c.9.82 1.82 1.63 2.76 2.4-.05 1.57 0 3.14 0 4.71A40.69 40.69 0 0 1 25.14 31l-.77-.27A22.89 22.89 0 0 1 22.74 29Z"/><path fill="#d0b771" d="M5.46 24.82a3.07 3.07 0 0 1 2.81-.09c.65.54 1.27 1.11 1.94 1.61l-1.41.48a38.78 38.78 0 0 1-3.34-2Z"/><path fill="#b79c5e" d="m4.22 25 1.07-.29.17.09a36.79 36.79 0 0 0 3.34 2l.2.2a3.55 3.55 0 0 0 .41 1.66c1.85 2.9 3.93 5.72 5.16 9 0 2.22 0 4.44-.15 6.66-1.05-2.58-2.85-4.76-4.1-7.23-.22.48-.43 1-.64 1.51-.19-2.88.13-5.76-.18-8.64-.82-1-2.16-.94-3.31-.92 0-.32.09-.63.14-1A6.76 6.76 0 0 1 4.22 25Z"/><path fill="#e3bb51" d="M8.27 24.73a15.19 15.19 0 0 0 4.12.69c1.06.55 2.08 1.15 3.13 1.72l1.17-.69 2.76.64c-1.48.87-3 2.3-4.9 1.69a42.3 42.3 0 0 1-4.37-2.43c-.64-.51-1.26-1.08-1.91-1.62Z"/><path fill="#a28857" d="M9.39 28.6A3.54 3.54 0 0 1 9 27c1.94 1.3 4.58 2 5.64 4.21.06 2.13-.07 4.27-.07 6.4-1.25-3.29-3.33-6.1-5.18-9.01Z"/><path fill="#f3e9a6" d="m8.8 26.86 1.42-.48a41.47 41.47 0 0 0 4.33 2.4c1.87.61 3.39-.81 4.88-1.69A5 5 0 0 1 22 26.7c-.66.53-1.27 1.12-1.9 1.69v2.13a11.42 11.42 0 0 0-1.38.92 51.37 51.37 0 0 0-.1 5.69 27 27 0 0 1-2.4-3.42c-.25.93-.14 2.23-1.29 2.59-.1-1.71 0-3.43-.28-5.14C13.58 28.93 10.9 28.25 9 27Z"/><path fill="#2c2b2a" d="M6.17 29c1.15 0 2.49 0 3.31.92.31 2.88 0 5.76.18 8.64l-.35 1.61c0-3.09.23-6.19 0-9.29a12.19 12.19 0 0 1-3 .59c0 2.18-.13 4.38-.15 6.57-.16-1.46-.1-2.88-.16-4.28.13-1.62.06-3.21.17-4.76Z"/><path fill="#e3cc6b" d="M1.43 31C3.05 32.47 4 34.45 5 36.28a6.59 6.59 0 0 1 1-2.52c0 1.4 0 2.82.12 4.23.45.81 1.41 1.17 2.16 1.68 1.31 1.6 2.27 3.51 4.08 4.63l-.72.82c-2.6-1.52-5.25-3-7.83-4.52C2.67 39 .75 37.66.75 35.45A24.47 24.47 0 0 0 1.43 31Z"/><path fill="#ead187" d="M14.62 31.18c.25 1.7.18 3.43.28 5.14 1.15-.36 1-1.66 1.29-2.59a27 27 0 0 0 2.4 3.42c.13 1.27-.34 2.76.31 3.89l1.2-.26a21.8 21.8 0 0 0 2.63.73 22.5 22.5 0 0 0 3.58-1.69L26.18 41l-6.3 3.62a7.92 7.92 0 0 0-3.34-3.32c-.29 1.31-.07 3.05-1.5 3.75l-.68.08v-.86c.13-2.22.19-4.44.15-6.66s.17-4.32.11-6.43Z"/><path fill="#0e0e0e" d="M25.14 31a40.69 40.69 0 0 0 2.64 3.61v1.4l-.33.28c-.66.41-1.39 1.18-2.23.67C25 35 25.15 33 25.14 31Z"/><path fill="#e6c465" d="M16.54 41.26a7.92 7.92 0 0 1 3.34 3.32l-.62.34c-1.4 0-2.8 0-4.19.08 1.42-.71 1.18-2.44 1.47-3.74Z"/><path fill="url(#b30d1365-a179-4c7c-a4b6-35c8b87b942c)" d="M37.88 37V22.85a.41.41 0 0 1 .14-.31.43.43 0 0 1 .32-.14h3a.44.44 0 0 1 .48.42V37a.47.47 0 0 1-.48.48h-3a.46.46 0 0 1-.46-.48Zm13.61.76a7.92 7.92 0 0 1-5.7-2.3 7.57 7.57 0 0 1 0-11 8.19 8.19 0 0 1 11.39 0 7.48 7.48 0 0 1 2.37 5.53 7.36 7.36 0 0 1-2.37 5.51 7.9 7.9 0 0 1-5.69 2.24Zm0-11.92a4.11 4.11 0 0 0-4.15 4.05v.05A4.11 4.11 0 0 0 51.46 34a4 4 0 0 0 2.91-1.18 4.16 4.16 0 0 0 0-5.83 4 4 0 0 0-2.88-1.17Zm13.58 3.61V37a.48.48 0 0 1-.49.48h-3a.51.51 0 0 1-.33-.13.47.47 0 0 1-.14-.33V22.85a.43.43 0 0 1 .14-.32.47.47 0 0 1 .33-.14H64a.91.91 0 0 1 .76.36L71 30.5c.06.09.12.1.17.06a.27.27 0 0 0 .07-.14v-7.57a.48.48 0 0 1 .13-.32.48.48 0 0 1 .34-.14h2.94a.51.51 0 0 1 .33.13.47.47 0 0 1 .14.33V37a.4.4 0 0 1-.13.33.48.48 0 0 1-.34.14H72.3a.9.9 0 0 1-.76-.37l-6.25-7.72c-.06-.09-.12-.12-.17-.07a.2.2 0 0 0-.06.14Z"/><path fill="url(#a181ef36-a02f-4ede-b782-563bc3c4c924)" d="M78.33 35a4.12 4.12 0 0 0 1.4 1.53 3.44 3.44 0 0 0 1.94.59 3.83 3.83 0 0 0 1.33-.28 3.43 3.43 0 0 0 1.1-.66 3.34 3.34 0 0 0 .74-1 3 3 0 0 0 .27-1.25 2.41 2.41 0 0 0-.55-1.67 4.52 4.52 0 0 0-1.34-1 13.82 13.82 0 0 0-1.77-.75 9.36 9.36 0 0 1-1.76-.81 4.5 4.5 0 0 1-1.35-1.22 3.32 3.32 0 0 1-.55-2 3.61 3.61 0 0 1 .32-1.48 3.3 3.3 0 0 1 .89-1.21 4.09 4.09 0 0 1 1.28-.79 4.61 4.61 0 0 1 1.64-.29 4.45 4.45 0 0 1 1.25.18 5.39 5.39 0 0 1 1.07.48 4.63 4.63 0 0 1 .86.72 4.49 4.49 0 0 1 .62.83.57.57 0 0 1 .1.35.55.55 0 0 1-.17.44.63.63 0 0 1-.45.18.55.55 0 0 1-.51-.27 4.7 4.7 0 0 0-1.16-1.35 2.55 2.55 0 0 0-1.53-.49 2.93 2.93 0 0 0-1.06.2 2.83 2.83 0 0 0-.93.55 2.76 2.76 0 0 0-.64.84 2.45 2.45 0 0 0-.24 1.06 2.38 2.38 0 0 0 .32 1.25 3.23 3.23 0 0 0 .83.86 5.77 5.77 0 0 0 1.18.62l1.36.55c.48.18.91.39 1.36.61a5 5 0 0 1 1.17.8 3.94 3.94 0 0 1 .78 4.45A4.15 4.15 0 0 1 85 36.94a4.63 4.63 0 0 1-1.51.9 5.38 5.38 0 0 1-4.49-.37 4.68 4.68 0 0 1-1.77-1.92.77.77 0 0 1-.07-.27.6.6 0 0 1 .63-.61.57.57 0 0 1 .54.33Zm9.89 3a.58.58 0 0 1-.39-.19.67.67 0 0 1-.16-.42V23.45a.63.63 0 0 1 .18-.45.58.58 0 0 1 .88 0 .56.56 0 0 1 .19.45v13.38h4.4a.52.52 0 0 1 .39.17.51.51 0 0 1 .15.39.52.52 0 0 1-.53.53h-5.11ZM110 30.42a7.43 7.43 0 0 1-.64 3 8.21 8.21 0 0 1-1.7 2.46 8.09 8.09 0 0 1-2.48 1.65 8 8 0 0 1-6.11 0 8.15 8.15 0 0 1-2.52-1.65 8 8 0 0 1-1.7-2.45 7.48 7.48 0 0 1 0-6 8 8 0 0 1 4.21-4.11 7.76 7.76 0 0 1 3.05-.61 7.9 7.9 0 0 1 3.07.61 8 8 0 0 1 2.55 1.68 7.82 7.82 0 0 1 1.7 2.45 7.07 7.07 0 0 1 .64 3Zm-1.31 0a6.4 6.4 0 0 0-.53-2.55 6.87 6.87 0 0 0-1.46-2.12 6.72 6.72 0 0 0-2.1-1.44 6.26 6.26 0 0 0-5.12 0 6.81 6.81 0 0 0-2.12 1.44 7 7 0 0 0-1.46 2.11 6.38 6.38 0 0 0 0 5.09 7 7 0 0 0 3.54 3.59 6.34 6.34 0 0 0 5.12 0 6.9 6.9 0 0 0 3.61-3.54 6.14 6.14 0 0 0 .58-2.56Zm7.2-6.42v13.42a.62.62 0 0 1-.65.61.57.57 0 0 1-.44-.17.6.6 0 0 1-.18-.44V24H111a.48.48 0 0 1-.38-.15.54.54 0 0 1-.14-.38.57.57 0 0 1 .14-.39.52.52 0 0 1 .38-.15h8.47a.53.53 0 0 1 .54.51.51.51 0 0 1-.16.38.54.54 0 0 1-.38.15Z"/></svg>
