<svg xmlns="http://www.w3.org/2000/svg" viewBox="0 0 120 60"><g clip-path="url(#eb39904b-f165-4410-bfb3-ee87f3c6a14e)"><path fill="#ffd104" d="M28.2 54.2a13.89 13.89 0 0 1-6.45 4.32 21.08 21.08 0 0 1-16.06-.22c-.84-.36-.87-.63-.32-1.32 1.67-2.13 3.32-4.29 4.94-6.46a1 1 0 0 1 1.29-.42 11.84 11.84 0 0 0 3.37.75c4.46.24 7.9-2.4 9.2-7.09.92-3.3 1.78-6.61 2.66-9.93.72.2.65.84.75 1.36a11.13 11.13 0 0 1 .07 2.16v14.87a2.42 2.42 0 0 0 .55 1.98Z"/><path fill="#fecd07" d="M35.68 37c-1.11 4.14-1.7 8.44-3.82 12.26-.64-.2-.79-.73-.86-1.31a15.7 15.7 0 0 1 0-1.68V25.65c0-2.31 0-4.62-.1-6.95.57-3 1.54-6 2.3-9a2.08 2.08 0 0 0-.42-2.06c-.82-1-1.56-2.09-2.34-3.14a10.28 10.28 0 0 1-.11-3.66.69.69 0 0 1 .67-.72h.13a34.06 34.06 0 0 1 4.63.14A2.45 2.45 0 0 1 36 1.87v31.57a23.47 23.47 0 0 1-.32 3.56Z"/><path fill="#ffd005" d="M30.86 18.71a5.72 5.72 0 0 1 .48 2.52v26.12a2.74 2.74 0 0 0 .52 1.89 38.32 38.32 0 0 1-2.5 3.76 2.19 2.19 0 0 0-.64.75l-.52.45c-1.12.35-.92-.48-.92-1.07v-17a4.65 4.65 0 0 0-.45-2.3c1.3-5.05 2.53-10.12 4.03-15.12Z"/><path fill="#fec70c" d="M35.68 37V.27c.32-.27.68-.1 1.03-.14a9.35 9.35 0 0 1 2.64.16A2.92 2.92 0 0 1 39.63 2c0 6.33.06 12.66-.05 19a1.1 1.1 0 0 0 .13.56C38.48 26.75 37.16 31.9 35.68 37Z"/><path fill="#e73940" d="M111 3.63a12.14 12.14 0 0 1 1.63 16.17 8 8 0 0 1-1.5 1.83c-.85-.16-.68-.86-.7-1.4V5.17c.04-.57-.14-1.25.57-1.54Z"/><path fill="#fdc50d" d="M39.71 21.59c-.66-.33-.46-1-.47-1.49V.26c.07 0 .13-.11.2-.11 2.85 0 2.82-.48 2.81 2.57s.11 6.37-.13 9.55c-.61 3.16-1.52 6.23-2.41 9.32Z"/><path fill="#fbb916" d="m47.78 26.35.86-3.54a1.74 1.74 0 0 1 1 1.34 19.81 19.81 0 0 1 1 5v15.66a2.56 2.56 0 0 1-.31 1.73 6.52 6.52 0 0 1-2.49 0 6.42 6.42 0 0 1-.09-2.14V29.2a22.8 22.8 0 0 0 .03-2.85Z"/><path fill="#e83f3e" d="M109.13 39.57c0 .28-.18.38-.35.52-.76.62-1.13.22-1.36-.53a2.52 2.52 0 0 1-.07-.72V3.19c0-.6-.09-1.33.79-1.5.33.38 1 .12 1.23.72a4.26 4.26 0 0 0-.1 1.42V36.96a13.37 13.37 0 0 1-.14 2.61Z"/><path fill="#fab619" d="M50.26 46.5V30.1a15 15 0 0 0-1.62-7.29.19.19 0 0 1 .08-.26h.05c.07 0 .18-.08.21-.05a18.18 18.18 0 0 0 3.45 2.79c.18 2 .12 4 .13 6v13.53c-.01 1.92-.27 2.11-2.3 1.68Z"/><path fill="#e83c3e" d="M109.13 39.57c-.35-.37-.2-.83-.2-1.25V3.71c0-.45-.33-1.08.44-1.3l.77.48c-.27 3.42-.09 6.84-.12 10.26v8.49a4.68 4.68 0 0 1-.11 1.18c-.37.43-.72.77 0 1.3a3.77 3.77 0 0 1 1.09 1.82 59.5 59.5 0 0 1 0 10.76 9.33 9.33 0 0 1-1.87 2.87Z"/><path fill="#e8433c" d="M106.38.93a.73.73 0 0 1 .65.23 2.48 2.48 0 0 1 .14 1.05v39.52a3.12 3.12 0 0 1-1.17 1c-.74-.29-.56-1-.57-1.52V14.83c0-1.36-.06-2.71-.16-4.06.27-2.53.07-5.07.13-7.61a8 8 0 0 1 .08-1.54c.12-.51.29-.9.9-.69Z"/><path fill="#e8413c" d="M107.18 41.73c-.59-.13-.41-.61-.41-1V2.39a2.3 2.3 0 0 1 .23-1.23 1.43 1.43 0 0 1 1.12.54c-.48.26-.43.72-.43 1.15v36.29c0 .75.09 1.32 1.06.94a5.33 5.33 0 0 1-1.57 1.65Z"/><path fill="#e9493b" d="M105.31 43.17a4.19 4.19 0 0 1-1.63 1c-1 .16-.84-.64-.86-1.15-.08-2 0-4.06 0-6.09a18.41 18.41 0 0 0-.14-3 28.2 28.2 0 0 0 .17-3.56V20.06a4.74 4.74 0 0 1 .24-2c.53-.33.61-.36 1.55-1a3 3 0 0 1 .39 2.07v21.64a6.65 6.65 0 0 0 .28 2.4Z"/><path fill="#fab41a" d="M50.26 46.5h.6c1 .16 1.35-.22 1.34-1.3-.05-6.76 0-13.52 0-20.29a1.13 1.13 0 0 1-.09-1.38c.33-.24.5 0 .68.24a5.55 5.55 0 0 1 .21 1.81 2.78 2.78 0 0 0 .68 2 2.53 2.53 0 0 1 .52 1.79v4.42a16.09 16.09 0 0 1 .18 2.38 14.88 14.88 0 0 0-.16 2.22v7.46a1.17 1.17 0 0 1-.17.79 109.47 109.47 0 0 1-11.6-.07c1-.67 2.15-.24 3.24-.36.72.07 1.5-.2 2.15.33Z"/><path fill="#fbbb13" d="M47.88 46.51h-2.16c.19-3.6.09-7.2.11-10.81a2.77 2.77 0 0 0-.17-1.4c.64-2.67 1.34-5.3 2.12-7.95.48.3.32.78.32 1.2v17.69a2.17 2.17 0 0 1-.22 1.27Z"/><path fill="#e9463c" d="M105.31 43.17c-.94 0-.71-.66-.71-1.17V18.8a2.4 2.4 0 0 0-.24-1.55c.76-.54.91-.68 1.07-2.29 0 8.9.35 17.44.36 26.34 0 .46-.17 1 .2 1.38a1.21 1.21 0 0 1-.68.49Z"/><path fill="#f28e25" d="M95.52 46.56a4.29 4.29 0 0 1-.81.14H74.13a5.47 5.47 0 0 1-.72-.08c-.48 0-1 .27-1.36-.33a8.72 8.72 0 0 1-.14-2.6c0-3.21-.11-6.43.07-9.64a11.93 11.93 0 0 1 2-1.58c.8.37.62 1.13.62 1.76V44.7c0 .85.14 1.52 1.2 1.47.5.06 1 0 1.49 0h15.96c.75.06 1.57-.23 2.27.39Z"/><path fill="#fcc00d" d="M45.66 34.3c.45-.17.54 0 .54.45v10.42a3.18 3.18 0 0 1-.48 1.34h-3.25a3.33 3.33 0 0 1 .37-1.94c.99-3.4 1.68-6.9 2.82-10.27Z"/><path fill="#f59e1f" d="M62.47.09h7.66a.29.29 0 0 1-.13.33 4.91 4.91 0 0 1-1.79.16C67.15.5 66.86 1 66.88 2q.08 2.38 0 4.77c0 1 .38 1.39 1.33 1.35a1.07 1.07 0 0 1 .79.28c0 .16.1.13 0 .24q-3.51.15-7 0c-.29-.24.31-.26.53-.34.88-.31.89-1 .88-1.75V1.89a1.36 1.36 0 0 0-.7-1.4.37.37 0 0 1-.24-.4Z"/><path fill="#fdc20f" d="M42.14 12.27a10.34 10.34 0 0 1-.24-3.55c0-2.4-.07-4.8 0-7.17C42 .47 41.61.09 40.57.24a11.63 11.63 0 0 1-1.32 0h-2.63V.09c2.63 0 5.27 0 7.9-.06.61 0 .91.14.72.82-1.08 3.8-1.9 7.66-3.1 11.42Z"/><path fill="#e83c3f" d="M109.91 22.81c-.39-.29-.27-.72-.27-1.1V4c0-.43-.24-1 .5-1.15a2.25 2.25 0 0 1 .89.76c-.27.25-.2.59-.2.89v16c0 .39-.11.82.32 1.08-.33.53-.62 1.05-1.24 1.23Z"/><path fill="#e94c3a" d="M102.92 33.79a13.58 13.58 0 0 1 .24 4.12v5.23c0 .41-.13.92.52 1a4.56 4.56 0 0 1-2 1c-.81.33-1-.21-1-.8a55.73 55.73 0 0 1 .12-8.07c.87-.55 1.27-1.66 2.12-2.48Z"/><path fill="#f8aa1a" d="M62.47.09v.14a.91.91 0 0 1-.58.32c-2.15.19-2.15.19-2.15 2.35v3.84c0 2-.61 2.37-2.54 1.76a2.21 2.21 0 0 1-.34-1.58V2.28c0-1.55-.07-1.63-1.7-1.66h-.59a3.46 3.46 0 0 1-1.23-.19.3.3 0 0 1-.18-.33Z"/><path fill="#f6a21f" d="m72.29 46.5 1.13.11c-3.21 0-6.42.09-9.63.09-3 0-6.1-.06-9.14-.09.18-.35.53-.35.86-.39h3.9c2.22-.06 2.22-.06 2.23-2.25v-4.79a2.64 2.64 0 0 1 .21-1.27c.44-.15 1-.06 1.65-.26.59.45.52 1 .53 1.64v5c0 1.64 0 1.81 1.76 1.85.8.07 1.59 0 2.39 0h2.18c.72 0 1.35-.14 1.93.36Z"/><path fill="#fab41a" d="M53.14.24h1.19c.07.1.19.18.2.3a25.64 25.64 0 0 1-.12 7.82 1.64 1.64 0 0 1-2 0L52 7.91a25.48 25.48 0 0 1 0-7.6 1 1 0 0 1 1.14-.07Z"/><path fill="#eb6033" d="m95.52 46.56-2.4-.05a1.35 1.35 0 0 1-.36-1v-6.48a1.35 1.35 0 0 1 .23-.85c.69-.1 1.58.05 2.21 0 .43.45.18.9.19 1.45v5.12c0 .76.27 1.22 1.09 1.22a1.17 1.17 0 0 1 1 .38 4.13 4.13 0 0 1-1.96.21Z"/><path fill="#ea5834" d="M97.49 46.32h-1a1 1 0 0 1-.28-.52 49.68 49.68 0 0 1 0-7.32 1 1 0 0 1 .27-.52 12.6 12.6 0 0 0 2.22-.42c.07 2.86.11 5.72 0 8.58a1.74 1.74 0 0 1-1.21.2Z"/><path fill="#e9473c" d="M106.38.93c-.72.1-.57.65-.57 1.1V9.4a2.86 2.86 0 0 1-.51 1.47c-.55-.77-2.16-1.72-1.48-1.84-.13-2.42-.06-4.83 0-7.25 0-.51 0-1 .6-1.32.58.36 1.37.02 1.96.47Z"/><path fill="#f9b01b" d="m55.31 46.51-.67.11h-.56a7.26 7.26 0 0 1-.22-2.93v-5.56c.67 0 1.32.08 2 0a2 2 0 0 1 .29 1.2v5.62c-.02.68-.02 1.34-.84 1.56Z"/><path fill="#ec6227" d="M83.53.08h7.22c.45.17 1-.21 1.38.36a28.3 28.3 0 0 1-.12 8 2.58 2.58 0 0 1-1.75.1 2.11 2.11 0 0 1-.37-1.58v-5c0-.7-.11-1.29-1-1.32H84.33a1.64 1.64 0 0 1-.66-.24.24.24 0 0 1-.15-.3Z"/><path fill="#e94c3a" d="M102.53.22a.09.09 0 0 1 .14 0 1.81 1.81 0 0 1 .37 1.23v7.26c-.56.36-1.14 0-1.77 0-.27-.15-.36-.18-.48-.48A48.51 48.51 0 0 1 100.7.8a1 1 0 0 1 .3-.55 2.63 2.63 0 0 1 1.53-.03Z"/><path fill="#f39124" d="M70.12.24V.1h1.46c.33.11.77 0 .93.4a56.63 56.63 0 0 1 .11 7.37c0 .5 0 .83-.53 1.07a19 19 0 0 0-3.15-.31V8.4c1.54-.34 1.67-1.44 1.58-2.77s0-2.46 0-3.69a4.35 4.35 0 0 0-.4-1.7Z"/><path fill="#fbb916" d="M53.14.24h-1c-1.56.28-1.63 1.37-1.58 2.66 0 .88.29 1.83-.35 2.63L45.94.1h7.19a.61.61 0 0 1 .01.14Z"/><path fill="#eb5c34" d="m101 8.4.48.24c-.13.15-.23.06-.43 0-1.91-.24-2.81 0-5.82-.09-.13-.1-.13 0-.2-.15A56.14 56.14 0 0 1 95 1a.79.79 0 0 1 .78-.88 41.73 41.73 0 0 1 6.8.12L101 .28a2 2 0 0 1-1.4.32h-1.23c-1.52.08-1.53.09-1.54 1.58s0 2.87 0 4.3 0 1.51 1.52 1.6h1.24a1.83 1.83 0 0 1 1.41.32Z"/><path fill="#e94a3a" d="M102.53 8.89c-.34-.59.17-1.24.17-1.86V.22a3.08 3.08 0 0 1 1.67.24 2.77 2.77 0 0 0-.24 1.5v7.47c.92 1.1-.53-.03-1.6-.54Z"/><path fill="#fab619" d="M50.25 5.56V2.12c0-2-.39-1.9 1.91-1.86v6.47A1.82 1.82 0 0 1 52 7.9a12.25 12.25 0 0 1-1.75-2.34Z"/><path fill="#ea5336" d="M98.68 46.09a.68.68 0 0 1-.29-.62v-7.35a2.63 2.63 0 0 1 .22-.67 5.55 5.55 0 0 0 1.32-.45 9.78 9.78 0 0 1 .24 3.19 38.55 38.55 0 0 0 .17 5.37 3.48 3.48 0 0 1-1.66.53Z"/><path fill="#eb5f32" d="M95.74.09c-.54.28-.48.77-.48 1.25V8.4c-.32.19-.69.06-1 .09-.61-.26-.53-.71-.53-1.21V1.93c0-1-.13-1.56-1.25-1.44a.71.71 0 0 1-.53-.24c-.39-.07-.81.1-1.17-.17Z"/><path fill="#f5af10" d="M50 18.2a4.8 4.8 0 0 1 .48-1.89 16.32 16.32 0 0 1 3 1.33 2.87 2.87 0 0 1 1.41 2.2c-.28.29-.72.38-.91.77a1.9 1.9 0 0 1-1.9 0C50.59 20 50 19.28 50 18.2Z"/><path fill="#ea5137" d="M100.35 45.6c-.48-.06-.53-.38-.53-.77v-7.92c.56 0 .91-.52 1.42-1a12.47 12.47 0 0 0-.2 3.76c-.05 1.5 0 3 0 4.5 0 .53 0 1 .72.92a2.68 2.68 0 0 1-1.41.51Z"/><path fill="#ffd104" d="M36.62.09v.14h-5.19c-.61 0-.85.21-.85.84a12.81 12.81 0 0 1-.22 3.44L26.9.09Z"/><path fill="#e83b42" d="M111 36.68a9.07 9.07 0 0 1-.15-2.94v-6.67c0-.39-.11-.8.18-1.15a13.15 13.15 0 0 1-.03 10.76Z"/><path fill="#fab717" d="M52.18 23.51v1.43a2.55 2.55 0 0 1-2.42-1.28c-.23-.41-.46-.94-1-1.14a5.32 5.32 0 0 1 .5-1.66.56.56 0 0 1 .76 0 6.7 6.7 0 0 0 2 1.45.76.76 0 0 1 .16 1.2Z"/><path fill="#fab410" d="M52.18 23.51c0-.66 0-1.2-.9-1.22-.54 0-.83-.45-1.06-.85s-.47-.63-.93-.57A11.22 11.22 0 0 1 50 18.2a3.61 3.61 0 0 0 2.15 2.19 3.79 3.79 0 0 1 .85 2.43 1.38 1.38 0 0 1-.37.93Z"/><path fill="#f0ab0b" d="M53.38 17.75a8.43 8.43 0 0 1-2.89-1.44 3.83 3.83 0 0 1 .51-1.68c.72.92 1.94.88 2.81 1.53a4.42 4.42 0 0 1 1 .78 1.69 1.69 0 0 1 .33 1.28c-.79.57-1.14-.32-1.76-.47Z"/><path fill="#e5a30d" d="M51.18 13.9a5.47 5.47 0 0 1 .51-2c.46.57.78 1.34 1.73 1.22.33.56 1 .55 1.47.85s.9.31 1.1.81a1.28 1.28 0 0 1 .11 1c-.26.21-.59.13-.88.24a14.08 14.08 0 0 1-4.04-2.12Z"/><path fill="#eaa70d" d="m51.18 13.9 4.11 1.93a5.74 5.74 0 0 1 .33 1c-.2.75-.65.37-1 .24a5.11 5.11 0 0 0-2.94-1.36c-.6 0-.65-.57-.66-1.06a.84.84 0 0 1 .16-.75Z"/><path fill="#c5890d" d="m52.39 9.33.09-.69c.58-.26 1.19 0 1.79-.15a1 1 0 0 1 1 .06c.22.36-.07.44-.3.55-.5.12-.97-.1-1.61-.1 2.52.33 4.52 1.49 6.69 2.16a.94.94 0 0 1 .56.59c0 .6-.54.58-.87.45-2.42-.93-5-1.44-7.3-2.67Z"/><path fill="#dc9c0e" d="M53.38 13.19c-.9.42-1.57-.08-1.7-1.25a1.45 1.45 0 0 1 .24-1c1.07.56 2.18 1 3.28 1.51a9.87 9.87 0 0 0 .8.65c.34.24.59.53.12.9a4.37 4.37 0 0 1-2.74-.81Z"/><path fill="#cf910d" d="M52.16 10.07a.82.82 0 0 1 .22-.73l.06.06a17.26 17.26 0 0 0 3.21 1.38c.87.41 2 .4 2.58 1.29 0 .55-.27.77-.82.64s-1.13-.29-1.69-.43c-1-.46-2-.86-3-1.27-.39-.18-.83-.35-.56-.94Z"/><path fill="#d6970e" d="M52.16 10.07c.07.18.1.47.22.53 1.12.49 2.25.94 3.38 1.4a2.4 2.4 0 0 0 1 .5c.34.1.69.27.41.75-.84.3-1.45-.33-2.17-.53-.87-.39-1.74-.8-2.63-1.16-.29-.11-.48-.24-.51-.55a1.52 1.52 0 0 1 .3-.94Z"/><path fill="#94683e" d="m72.29.24-.7-.17c4-.12 8-.07 11.94 0v.17a.68.68 0 0 1-.31.22 3.45 3.45 0 0 1-1 .1H74a2.15 2.15 0 0 1-1.71-.32Z"/><path fill="#f9af19" d="M54.33 8.61h-1.85l-.08-.21h1.92l.08.1Z"/><path fill="#ffd104" d="M28.73 53.76a.65.65 0 0 1 .55-.74h.08a1.3 1.3 0 0 1-.63.74Z"/><path fill="#e94b3a" d="M103.16 30.52a8.37 8.37 0 0 0-1.22-1.89 32.63 32.63 0 0 1-.09-4.53v-4.06a1.74 1.74 0 0 1 .6-1.61l1-.53a4.37 4.37 0 0 0-.22 1.64q-.06 5.46-.07 10.98Z"/><path fill="#f9b019" d="M56.25 28.54a64.81 64.81 0 0 1-1.71 6.54 4.11 4.11 0 0 1-.29 1.12 5.48 5.48 0 0 1-.39-2.91v-3.81a2.24 2.24 0 0 0-.81-2.11.84.84 0 0 1-.39-.82c.14-.94-.29-1.87 0-2.8 0-.34-.11-.71.24-1 .56-.33.88.11 1.25.39.35 1.6 1.66 2.88 1.55 4.64-.02.36.3.6.55.76Z"/><path fill="#f08028" d="M78.5 25.39a28.36 28.36 0 0 0 1.5-6.26 11.42 11.42 0 0 0-1.44-6.67 75.81 75.81 0 0 1 0-10.55.56.56 0 0 1 .44-.37 3.28 3.28 0 0 1 1.85.93 2.46 2.46 0 0 1 .22.39 5.74 5.74 0 0 1 .19 2v29.69a10 10 0 0 1-.18 1.9l-1.33 1.63 1.12.1a21.31 21.31 0 0 1 .13 7.88c0 .19-.24.31-.38.45h-2.11a2.23 2.23 0 0 1-.16-1.17v-18c.02-.68.09-1.34.15-1.95Z"/><path fill="#f18925" d="m73.69 32.62 2.42-2.88a1.55 1.55 0 0 1 .37 1.26v14.21a1.34 1.34 0 0 1-.6 1.35c-1.67.06-1.68.06-1.68-1.62V33.77c-.01-.45.23-1.03-.51-1.15Z"/><path fill="#f18625" d="M75.89 46.51a2.5 2.5 0 0 0 .24-1.39V29.74l1.43-2.37a1.77 1.77 0 0 1 .38 1.34v16.22c0 .59 0 1.23-.61 1.58Z"/><path fill="#f08326" d="M77.33 46.51a2.65 2.65 0 0 0 .22-1.51V27.37l.94-2a2.52 2.52 0 0 1 .26 1.38v18.48a2.2 2.2 0 0 1-.24 1.28Z"/><path fill="#ee722d" d="M85.22 38.17h2.39a1.52 1.52 0 0 1 .39 1.11v6.12a1.48 1.48 0 0 1-.37 1.1h-2.41a1.48 1.48 0 0 1-.37-1.1v-6.12a1.48 1.48 0 0 1 .37-1.11Z"/><path fill="#ed6b30" d="M87.61 46.5v-8.33h2.16a1.47 1.47 0 0 1 .36 1.11v6.12a1.47 1.47 0 0 1-.36 1.1Z"/><path fill="#f39124" d="m70.85 34.79 1.44-1v12.72h-1.9c.17-3.37.06-6.75.09-10.12a2.62 2.62 0 0 1 .37-1.6Z"/><path fill="#ec6531" d="M91.2 38.17h1.92v8.34H91.2a18.93 18.93 0 0 1 0-8.34Z"/><path fill="#ef7b2a" d="M80.67 46.5c.48-1.76.15-3.56.24-5.34v-3h1.68a1.43 1.43 0 0 1 .36 1.1v6.12a1.51 1.51 0 0 1-.36 1.11Z"/><path fill="#ef772b" d="M82.58 46.5v-8.33H84a1.52 1.52 0 0 1 .37 1.11v6.12a1.48 1.48 0 0 1-.37 1.1Z"/><path fill="#ec682f" d="M91.2 38.17v8.34h-1.43v-8.33Z"/><path fill="#ee752b" d="M84 46.5v-8.33h1.2v8.33Z"/><path fill="#f49623" d="M70.12.24c.58 0 .73.29.72.82v6.33c0 1.54-1.2.85-1.92 1h-.72c-.55-1.14-.55-7 0-8.13Z"/><path fill="#f6a21f" d="M62.26 8.56H62a1.43 1.43 0 0 1-.36-1.1V1.37A1.52 1.52 0 0 1 62 .26h.48c.89-.11 1.26.21 1.21 1.19-.08 1.74-.08 3.49 0 5.23.07 1.11-.1 1.88-1.43 1.88Z"/><path fill="#f59a23" d="M68.22.26v8.13c-1.68 0-1.68 0-1.68-1.63V1.88c0-1.62 0-1.64 1.68-1.62Z"/><path fill="#f9af19" d="M54.33 8.4V.26C57.2.21 57.2.21 57.2 3.05v5.34c-1 .71-1.91.08-2.87 0Z"/><path fill="#f7a51e" d="M54.33 8.4h2.88c2.15 0 2.15 0 2.15-2.12 0-1.58.07-3.17 0-4.75-.09-1.1.32-1.43 1.33-1.29a11.28 11.28 0 0 0 1.3 0v8.3c-.14.11-.3 0-.45.09-1.09-.05-2 .32-3 .34-1.09-.16-2.24.31-3.27-.34h-1Z"/><path fill="#f49523" d="M70.85 34.79v10.34c0 .52.06 1-.46 1.38h-2.17a.88.88 0 0 1-.21-.66c.15-3.2.13-6.39 0-9.59Z"/><path fill="#f59e1f" d="m63.42 37.66 2.84-.72c.69.09.61.66.62 1.1.06 2.4 0 4.79 0 7.19 0 .74-.28 1.22-1.07 1.3-2.17.07-2.17.07-2.17-2.09v-5.38a2.38 2.38 0 0 0-.22-1.4Z"/><path fill="#f7a71e" d="M59.36 38.15a11.13 11.13 0 0 1 2.64-.26v6.91c0 1.74 0 1.74-1.67 1.73h-1a1.48 1.48 0 0 1-.37-1.1v-6.16a1.58 1.58 0 0 1 .4-1.12Z"/><path fill="#f59a23" d="M65.84 46.51c.31-.26.73-.36.72-1v-8a.67.67 0 0 0-.27-.63l1.71-.63a2 2 0 0 1 .48 1.42v7.2a11.38 11.38 0 0 1-.24 1.64Z"/><path fill="#f8ad17" d="M55.77 38.17h1.91a1.44 1.44 0 0 1 .37 1.11v6.12a1.44 1.44 0 0 1-.37 1.1h-2.37a1.35 1.35 0 0 0 .47-1.26c-.02-2.35-.01-4.71-.01-7.07Z"/><path fill="#f8aa1a" d="M57.68 46.5v-8.33h1.68v8.33Z"/><path fill="#eb5c34" d="m95 38.17 1.7-.17a3.37 3.37 0 0 0-.22 2v6.34C95.32 46.51 95 46 95 44.87c.1-2.23 0-4.46 0-6.7Z"/><path fill="#ee722d" d="M86.4 27.74a7.87 7.87 0 0 1-1 2c-.82-.38-.57-1.15-.58-1.77v-14.8A45.51 45.51 0 0 1 85 7.33c.72-1 .91.09 1.31.34a1.13 1.13 0 0 0 1.09.41h1.52a2 2 0 0 1 1.37.32h1.68a1.86 1.86 0 0 1 2.15 0h1.2a.48.48 0 0 1 0 .17c-2.55 0-5.1.08-7.66 0-.85 0-1 .26-.75 1 .32 5.43.09 10.84.09 16.22a2.2 2.2 0 0 1-.6 1.95Z"/><path fill="#ec612e" d="M94.06 8.4h-2.15V.27c2 0 2 0 2 2s-.11 4.06.15 6.13Z"/><path fill="#e46220" d="M88.81 8.4h-1.68a1.52 1.52 0 0 1-.35-1.1V1.37a1.51 1.51 0 0 1 .35-1.1h1.68c.55 1.12.55 6.98 0 8.13Z"/><path fill="#eb6423" d="M88.81 8.4V.27C90 0 90.31.53 90.27 1.68c-.08 2.24 0 4.48 0 6.72Z"/><path fill="#d7621d" d="m86.17 7.92-1-1a.57.57 0 0 1-.31-.81c.4-1.38.11-2.78.2-4.17 0-.58-.1-1.2.34-1.71h1a1 1 0 0 1 .31.62c.08 2.09.07 4.18 0 6.27.01.37-.04.77-.54.8Z"/><path fill="#d0601c" d="M85.45.26v5.38c0 .27.24.84-.47.6-.6.11-.84-.36-1.16-.7a.73.73 0 0 1 0-.74 15.11 15.11 0 0 0 .14-3.08 2.09 2.09 0 0 1 .3-1.46Z"/><path fill="#dc631d" d="M86.17 7.92c.4-.35.24-.82.24-1.24V.25h.72v8.13c-.38-.02-.87.18-.96-.46Z"/><path fill="#c75f1a" d="M84.26.26v3.87c0 .37.11.82-.47.91a1.11 1.11 0 0 1-.87-1.18c.19-1.2-.28-2.46.38-3.6a1 1 0 0 1 .24 0Z"/><path fill="#ea5137" d="M99.58.26H101v8.13h-1.42c-.58-1.14-.58-7 0-8.13Z"/><path fill="#f28f25" d="m74 9.36-2.15-.5c.52-.33.48-.85.48-1.37V.25h1.64a1.19 1.19 0 0 1 .26.36 58.45 58.45 0 0 1 .06 7.83 1.72 1.72 0 0 1-.29.92Z"/><path fill="#eb5935" d="M98.38 8.4a3.73 3.73 0 0 0-.47 0c-1.12.19-1.54-.24-1.47-1.4.1-1.62 0-3.25 0-4.88 0-2-.39-1.9 1.91-1.86.59 1.13.59 6.99.03 8.14Z"/><path fill="#ea5336" d="M98.38 8.4V.27h1.2V8.4Z"/><path fill="#f8ac16" d="M58.13 21.59a14.36 14.36 0 0 1-.91 3.4c-.45-.92-1.48-1.38-1.87-2.34-.42-.76-1.32-1.24-1.26-2.26-.05-.18-.19-.45-.12-.53.26-.3.55.12.84.05a6 6 0 0 1 3.32 1.68Z"/><path fill="#f5a90f" d="m58.13 21.59-3.32-1.68a6.3 6.3 0 0 0-1.44-2.16c.62 0 1 .63 1.68.48a4.61 4.61 0 0 1 3.52 1.91Z"/><path fill="#f9af10" d="m54.09 20.39 1.44 2.16c.17.36.31.77-.1 1s-1 .05-1.34-.3l-1.19-.48-.72-2.4a2.53 2.53 0 0 0 1.91.02Z"/><path fill="#f1a60e" d="M58.57 20.15a15.06 15.06 0 0 0-3.52-1.92L54.57 17c.28-.26.75.29 1-.24a7.83 7.83 0 0 1 2.72 1.08c.47.21.52.65.61 1.07Z"/><path fill="#eca20e" d="M58.87 19c-.5-.94-1.47-1.2-2.32-1.62-.34-.17-.75-.19-1-.54s-.55-.54-.24-.95a.63.63 0 0 1 .72 0c1.32-.19 2.24.77 3.35 1.19a5.1 5.1 0 0 1-.51 1.92Z"/><path fill="#e09b0d" d="M59.8 15.35a.93.93 0 0 1-.2.72 11.55 11.55 0 0 1-3.83-1.2 4.87 4.87 0 0 0-2.07-1.06c-.42-.14-.27-.38-.32-.62l2.87.72c1.48-.24 2.47.72 3.55 1.44Z"/><path fill="#e79e0d" d="M55.77 14.87a13.55 13.55 0 0 1 3.83 1.2 1.55 1.55 0 0 1-.24 1c-.84.12-1.44-.44-2.15-.72L56 15.83Z"/><path fill="#cb8c10" d="M60.78 11.75a1.47 1.47 0 0 1-.24 1c-.14.14-.11.53-.27.48a9.67 9.67 0 0 1-2.19-.64c-.07-.05 0-.22.09-.31-1.11-.93-2.58-1-3.8-1.72-.64-.36-1.6-.22-1.91-1.13 2.34.81 4.69 1.61 7 2.43.38.13.74.33 1.07-.06a.15.15 0 0 1 .21 0Z"/><path fill="#bf8210" d="M60.78 11.75h-.24c-1.84-.91-3.81-1.51-5.72-2.25a7 7 0 0 1-1.44-.62h1.44a18.88 18.88 0 0 1 4.87 1.52 5.2 5.2 0 0 0 1.33.39 1.37 1.37 0 0 1-.24.96Z"/><path fill="#bb7f11" d="M61 10.79c-.21.13-.31.46-.68.24-1.75-1-3.73-1.33-5.53-2.17a.49.49 0 0 0 .48-.24h3.35c-.38 1-1.14.15-1.54.35-.31 0-.13.27-.15.11a6.93 6.93 0 0 1 4.09 1.5Z"/><path fill="#dc960e" d="M59.8 15.35c-1.21-.39-2.25-1.24-3.55-1.44 0-.79-1-.63-1.2-1.2l2.16.48a3.46 3.46 0 0 1 2.91 1 2.58 2.58 0 0 1-.32 1.16Z"/><path fill="#d5910e" d="m60.12 14.17-2.91-1c-.06-.91-1.33-.35-1.44-1.2.8 0 1.53.81 2.39.24a2.89 2.89 0 0 0 2.38.48 2.78 2.78 0 0 1-.42 1.48Z"/><path fill="#c25e17" d="M83.29.24c-.13 1.28.3 2.59-.26 3.84a.44.44 0 0 1-.48.09 1.06 1.06 0 0 1-.55-.78c.18-1-.33-2.16.36-3.15Z"/><path fill="#b85b17" d="M82.33.26c-.22 1 .21 2.1-.24 3.11-.72.23-1-.48-1.41-.73a1 1 0 0 0 0-.23c.47-.65.15-1.47.48-2.15Z"/><path fill="#ae5717" d="M81.13.26c0 .74.59 1.64-.48 2.16a3.4 3.4 0 0 1-1.43-.72c.73-.28.44-.92.49-1.44Z"/><path fill="#9f5417" d="M79.7.26c.48.89.31 1.37-.5 1.44h-.45c-.3 0-.51-.08-.55-.41.18-.3.13-.67.3-1Z"/><path fill="#934d15" d="M78.5.27c.08.37.43.82-.28 1-.46.34-.9.05-1.35 0a.55.55 0 0 1-.34-.36c.06-.3.42-.32.54-.57Z"/><path fill="#8b4a14" d="M77.08.26c.27.64-.26.41-.52.48a1 1 0 0 1-.93.24C75.07.83 74.43.92 74 .46a1.06 1.06 0 0 0 0-.19Z"/><path fill="#ea5336" d="m101 28.06-2.4-.48a1 1 0 0 1-.46-.48 57 57 0 0 1-.11-7 1.34 1.34 0 0 1 .34-.88l2.63-.24a1.56 1.56 0 0 1 .39 1.22v6.7a1.62 1.62 0 0 1-.39 1.16Z"/><path fill="#ed6d30" d="M88.08 13.19a13 13 0 0 1 .43 4.61c-.09 1.06.25 1.43 1.25 1.37 0 .06.13.12.14.19a22.35 22.35 0 0 1-.08 8c-2.48.38-2.59.29-2.59-2.18V14.44a5.73 5.73 0 0 1 .07-1.31c.06-.26.1-.62.44-.6s.13.47.34.66Z"/><path fill="#ec6630" d="m98.38 27.34.24.24h-6.46c-.41-.3-1 .16-1.39-.41a43.08 43.08 0 0 1-.11-7.36 1.14 1.14 0 0 1 .31-.63h2.15a2.27 2.27 0 0 1 .37 1.59v4.68c0 1.41 0 1.44 1.48 1.56h1.51a2.8 2.8 0 0 1 1.9.33Z"/><path fill="#ee712e" d="M91 27.34c.4.07.85-.15 1.2.23l-5.76.17a3.94 3.94 0 0 0 .27-1.63V10.86c0-.42-.15-.89.21-1.25a7.77 7.77 0 0 1 1.19 3.59l-.46-.65V25.8c0 1.55 0 1.55 1.56 1.55h.6a.87.87 0 0 1 1.19-.01Z"/><path fill="#eb6033" d="M95 27.34h-.12c-2 0-1.78.18-1.79-1.75v-6.42H95c.59 1.16.59 7.03 0 8.17Z"/><path fill="#ea5834" d="M98.38 27.34h-1.91c-.55-1.14-.55-7 0-8.17h1.91Z"/><path fill="#e94e39" d="M101 28.06v-9.14l1.43-.48a3.42 3.42 0 0 0-.23 1.52v7.17a2.78 2.78 0 0 1-.28 1.5Z"/><path fill="#eb5c34" d="M96.47 19.17v8.17H95v-8.17Z"/><path fill="#ec682f" d="M91 27.34h-1.23v-8.17H91Z"/><path fill="#ef7b2a" d="M80.67 2.64c.57.06.91.56 1.42.72l.51.64a2.39 2.39 0 0 1 .4 1.64v27.1a11.51 11.51 0 0 1-.19 1.55 10 10 0 0 1-1.67 2.15c-.37-.41-.2-.91-.2-1.37V4.27a3 3 0 0 0-.27-1.63Z"/><path fill="#ef772b" d="M82.79 34.3c-.31-.29-.2-.67-.2-1V4.06h.44l.76.94.21.5a3.38 3.38 0 0 1 .38 1.85v22.79c0 .68-.28 1.32-.22 2a9.56 9.56 0 0 1-1.37 2.16Z"/><path fill="#ee752b" d="M84.2 32.14c-.27-.3-.18-.68-.18-1V5.52l1 .73.24.72v21.65c0 .38-.12.8.2 1.14a8.39 8.39 0 0 1-1.26 2.38Z"/><path fill="#f18925" d="M74 .45a3.79 3.79 0 0 1 1.67.27A1.14 1.14 0 0 1 76.48 2v7.11c0 .42.06 1-.66 1L74 9.36V.45Z"/><path fill="#f18625" d="M75.8 10.12c.46-.3.31-.78.31-1.2V2.11c0-.54 0-1-.48-1.38h.92l.28.23a1.32 1.32 0 0 1 1.07 1.39v8a1.2 1.2 0 0 1-.37 1Z"/><path fill="#f08326" d="M77.54 11.35v-9A1.55 1.55 0 0 0 76.85 1l1.39.25.53.42v9.43a2.47 2.47 0 0 1-.24 1.39Z"/><path fill="#f9ae15" d="M54.09 23.27c.56-.1 1.6.8 1.44-.72.4.46.67 1 1.31 1.28.49.2.34.74.39 1.16-.07 1.25-.82 2.32-1 3.55-.67.28-1-.23-.91-.66.32-1.27-.51-2.16-.94-3.14a3.59 3.59 0 0 1-.29-1.47Z"/><path fill="#b67a12" d="M61.09 10.57 56.67 9c.67-.29 1.4.18 2-.33 1 .09 1.69 0 3-.05-.17.55-.43 1.38-.58 1.95Z"/></g></svg>
