<svg xmlns="http://www.w3.org/2000/svg" viewBox="0 0 120 60"><path d="M32.65 16.5h5.77a10.88 10.88 0 0 1 8.18 6.81 39.58 39.58 0 0 1 1.74-5.84c3.9.11 7.79.05 11.67 0-.43 1.43-.91 2.85-1.42 4.26 1.66-1.35 2.95-3.19 4.83-4.24 16.17-.13 32.36.06 48.55 0a8.06 8.06 0 0 1 7.8 5 11.85 11.85 0 0 1-1.64 8.76 19.35 19.35 0 0 1-3.36 3.87c.35 2.1.77 4.21 1.24 6.29.14.66.27 1.31.41 2h-11.36c-.51-2.34-1-4.69-1.53-7l-2.61.07c-.74 2.33-1.45 4.66-2.21 7-14.16-.2-28.33-.08-42.49-.09-.91-1.83-1.79-3.68-2.86-5.43-.52 1.82-1.06 3.64-1.64 5.43H40.4c.44-1.51 1-3 1.51-4.45a17.15 17.15 0 0 1-12.5 4.57c-4.49 0-9.14-2.81-10.1-7.39-1.38 3.86-5.13 6.32-9 7.19-3.42.22-6.87 0-10.31.13v-1c1.1-2.66 1.83-5.44 2.89-8.1.82-1.58-.82-3.38.38-4.86 1.65-2.25 4.15-3.71 6.07-5.71.69 1.31 1.36 2.64 2.15 3.9 1-3.39 2-6.77 2.95-10.17 3.64-.08 7.28 0 10.92-.06-.34 1.06-.69 2.12-1 3.18a19.18 19.18 0 0 1 8.32-4.12m-9.18 8.22-.62 1a27.75 27.75 0 0 0-2.09 7c0 .21.16.62.21.83.05 1 .17 2 .3 3h.13a7.72 7.72 0 0 0 3.74 3.86c3.71 1.73 8.07 1.19 11.74-.36a13.68 13.68 0 0 0 7.35-9.71l.37-.6c.32-2.59.65-5.51-.94-7.79-2.11-3-6.19-3.93-9.68-3.46a13.91 13.91 0 0 0-10.51 6.26m-7.53-5.07c-.54 1.3-.91 2.66-1.35 4h-.11c-.24.9-.49 1.8-.77 2.68-1.24 3.11-1.79 6.51-3.57 9.38l-.37.11a41.76 41.76 0 0 1-5.48 0c-.61 1.82-1.12 3.68-1.72 5.51 2.61-.09 5.23.12 7.84-.09a9.27 9.27 0 0 0 6.22-4.58l.12-.07c.33-.94.68-1.87 1-2.82h.09c.88-2.51 2.15-5 2.42-7.64l-.63-.27c-.08-.17-.23-.54-.3-.72-1.37.06-2.73.09-4.1.14v-.29c1.67 0 3.48.29 5-.57l.32.23.38-.09c.6-1.65 1.05-3.35 1.58-5-2.2.08-4.4-.09-6.59.09m33.32 2.21-.11-.13c-.42 1.45-.81 2.92-1.3 4.36a22.75 22.75 0 0 0-.86 2.66l-.1-.23c-.22.89-.46 1.78-.69 2.67C45 34.58 43.84 38 42.84 41.38h7.37c1.12-2.89 1.74-6 3-8.82 1.07 2.63 2.27 5.21 3.44 7.81.12.25.37.76.49 1 2.4 0 4.81.07 7.2-.09l1 .2c-1.33-3-2.8-5.84-4.25-8.74a2.36 2.36 0 0 1-.23-1.67 4.38 4.38 0 0 0 1.42-1.26c1.12-1.08 2.23-2.2 3.35-3.29.42-.41.84-.84 1.25-1.27 1.91-1.93 3.89-3.8 5.78-5.76-2.72 0-5.44-.07-8.16 0-2.26 1.39-4 3.48-6 5.21h-.39l.07.41a46.68 46.68 0 0 0-3.66 3.23c.11-1.79.91-3.42 1.39-5.13l1.23-3.66c-2.35 0-4.7.05-7-.06a13.93 13.93 0 0 0-.8 2.44m23.33 1.56c-.48.67-.92 1.36-1.33 2.07l-.51.65c-.41 1.14-.86 2.27-1.31 3.4 0 .42-.13 1.26-.18 1.68-.59-.67-1-1.57-2-1.87l.6-1.27a2.07 2.07 0 0 0-3.61 1.28 2.48 2.48 0 0 0-2 2.09c-.07 1 1.17 1.2 1.92 1.06l-.45 1.27 2-.06c-.08-.35-.23-1-.3-1.37 1 .47 2.42.27 2.65-1.07.17.18.53.53.72.71a2.47 2.47 0 0 0-.68 1.73c-.18 2.11-.61 4.58 1 6.29.68.62 1.45 1.43 2.45 1.4H85.5c.73.12 1.41-.17 1.4-1 1-1.63 1.93-3.31 2.84-5H74.98c0-.85 0-1.69.08-2.53 2.31.21 4.63.06 6.94.1 1.5 0 3.57.53 4-1.43a45.31 45.31 0 0 0 2.18-4.14c-3.65.19-7.3 0-11 .13L77 27.1l1.19-2.1c4.54.06 9.09 0 13.64.05 0-.16 0-.49.07-.66a46.68 46.68 0 0 0 2.7-4.84c-5 .1-10 .1-14.95.13a8.6 8.6 0 0 0-7.06 3.72m25-3.81c-.45 1.45-1 2.86-1.34 4.35-.23.62-.45 1.26-.65 1.9-.64 1.94-1.33 3.86-1.87 5.84l-.36-.06c.05.17.15.51.21.68-1.2 3-2 6-3.09 9 2.24 0 4.49 0 6.74.13a66.31 66.31 0 0 0 2.37-6.87c1.73-.11 3.46-.07 5.19-.07l.48.68c.34 2 .68 4 1.21 5.93 2.42.47 5 .05 7.45.19-.6-2.31-1.06-4.66-1.51-7 2-1.48 4.07-3.33 4.57-5.89l.22.15c.07-.5.23-1.5.3-2l.14.24c.08-.47.26-1.41.35-1.88a5.32 5.32 0 0 0-5.42-5.4h-15M4.61 31c.12.35.37 1.05.5 1.4.53-.07 1.08-.12 1.61-.18l-1.09 1.5h2.14l-.24-1.44c.9.05 2 .26 2.42-.74 1.43-1.55-.62-3.1-1.3-4.47-1.34 1.31-3.14 2.25-4 3.95m82.89-.15c.68 1.07 1.28 2.19 1.91 3.29.86-.77 1.69-1.56 2.55-2.33l-.13-.05 1.44-1.26c-.66-1.13-1.28-2.27-1.94-3.39a31.48 31.48 0 0 0-3.87 3.69Zm-56.71-6a5.53 5.53 0 0 1 5.4-.91 11.4 11.4 0 0 1 1.57 2.38 29.48 29.48 0 0 1-.18 3.51c-.65 2.85-2.48 6.2-5.81 6.24-2.62.4-4.31-2.4-3.84-4.73a13.88 13.88 0 0 1 1.82-5.19c.33-.45.68-.88 1-1.3m-.17 3.77c-1.76 1.55.47 3.45 1.09 5 1.33-1.33 3.15-2.26 4.12-3.91.65-1-.46-1.6-1.15-2-.48.36-1 .7-1.45 1.05a1.5 1.5 0 0 0-2.61-.17Zm72.08-3.54c2.69.05 5.38 0 8.06 0l.27.15 1.08.66c-.41 1-.73 2.27-1.91 2.56-2.94.23-5.9 0-8.85.12l.72-1.92c.21-.57.41-1.09.63-1.6Z" fill="#010101"/><path d="M23.47 24.72A13.91 13.91 0 0 1 34 18.46c3.49-.47 7.57.42 9.68 3.46 1.59 2.28 1.26 5.2.94 7.79-2.05-.08-4.1-.1-6.15 0l-.87.1a29.48 29.48 0 0 0 .18-3.51c1.93.69 5 1.66 6.36-.41l.51-.78c-.17-.19-.49-.57-.66-.75-2.22-1.58-5.25-.54-7.78-.44a5.53 5.53 0 0 0-5.4.91c-2.33-1.15-4.93-.62-7.34-.11ZM15.94 19.65c2.19-.18 4.39 0 6.59-.09-.53 1.67-1 3.37-1.58 5l-.38.09-.32-.23c.06-.19.16-.58.22-.77-2-.06-3.92.07-5.88 0 .41-1.34.81-2.65 1.35-4ZM19.62 25.88l.63.27c-.27 2.66-1.54 5.13-2.42 7.64h-.09l-.62.06a18.89 18.89 0 0 0-6.78 1.79l-.2.06c1.78-2.87 2.33-6.27 3.57-9.38a8.51 8.51 0 0 0 5.82.34c.02-.19.07-.58.09-.78Z" fill="#fff"/><path d="M22.85 25.69c1.84 1.86 4.66.89 6.9.45a13.88 13.88 0 0 0-1.82 5.19l-.55.07a42.8 42.8 0 0 0-6.62 1.3 27.75 27.75 0 0 1 2.09-7.01ZM4.61 31c.9-1.7 2.7-2.64 4-3.95.68 1.37 2.73 2.92 1.3 4.47-.47 1-1.52.79-2.42.74l.24 1.44H5.59l1.09-1.5c-.53.06-1.08.11-1.61.18C5 32 4.73 31.32 4.61 31ZM30.62 28.61a1.5 1.5 0 0 1 2.61.12c.49-.35 1-.69 1.45-1.05.69.42 1.8 1.05 1.15 2-1 1.65-2.79 2.58-4.12 3.91-.62-1.55-2.85-3.45-1.09-5m.84 2.48c-.55 1.17 2.1.91 1.78-.15a1.45 1.45 0 0 0-1.78.17ZM4.29 35.84a41.76 41.76 0 0 0 5.48 0c-1.65.52-3.38.83-5 1.51-1.19.55-.87 2-1 3.07a26.45 26.45 0 0 0 7.72-1 27.52 27.52 0 0 0 5.16-2.76 9.27 9.27 0 0 1-6.22 4.58c-2.61.21-5.23 0-7.84.09.58-1.81 1.09-3.67 1.7-5.49ZM21.4 36.52h.79c1.42 1.72 3.14 3.38 5.5 3.53 3.07.85 6.16-.87 9.19-.06-3.67 1.55-8 2.09-11.74.36a7.72 7.72 0 0 1-3.74-3.83Z" fill="#fff"/><path d="M49.26 21.86a13.93 13.93 0 0 1 .8-2.44c2.35.11 4.7.06 7 .06l-1.23 3.66c-.3-.81-.59-1.63-.89-2.45-2 0-4.14-.25-5.43 1.54ZM72.59 23.42a8.6 8.6 0 0 1 7.06-3.72c5 0 10 0 14.95-.13a46.68 46.68 0 0 1-2.7 4.84c.07-1 .15-2 .23-3-5.16.66-10.38 0-15.55.52-1.58.14-2.74 1.35-4 2.18Z" fill="#fcdb29"/><path d="M58.47 24.64c2-1.73 3.77-3.82 6-5.21h8.16c-1.89 2-3.87 3.83-5.78 5.76-2.31-1.44-5.14-1-7.69-.58Z" fill="#f0cf2a"/><path d="M97.54 19.61c5-.08 10 0 15 0A5.32 5.32 0 0 1 118 25c-2.27-.69-4.77-1-6.92.24l-.27-.15c-2.64-.63-5.37-.13-8.05-.41a21 21 0 0 0-6.43.28l-.08-1c.27-1.49.84-2.9 1.29-4.35Z" fill="#eac826"/><path d="M49.56 22.23c1.29-1.79 3.44-1.57 5.44-1.54.3.82.59 1.64.89 2.45-.48 1.71-1.28 3.34-1.39 5.13a16.88 16.88 0 0 1-5-.13 8.78 8.78 0 0 1-1.62-2.05c.49-1.44.88-2.91 1.3-4.36l.11.13.3.37m-1 3.68a26.68 26.68 0 0 0 5.58.26c0-.41.08-1.22.11-1.63-1.85.13-4.87-.99-5.67 1.37Z" fill="#e5c227"/><path d="M76.58 21.94c5.17-.5 10.39.14 15.55-.52-.08 1-.16 2-.23 3 0 .17-.05.5-.07.66-4.55-.09-9.1 0-13.64-.05a8.85 8.85 0 0 0-6.31.18l-.62.29c.41-.71.85-1.4 1.33-2.07v.7c1.25-.84 2.41-2.05 3.99-2.19Z" fill="#e6c524"/><path d="M14.48 23.64h.11c2 .1 3.92 0 5.88 0-.06.19-.16.58-.22.77-1.52.86-3.33.6-5 .57v.29c1.37-.05 2.73-.08 4.1-.14.07.18.22.55.3.72s-.07.59-.09.78a8.51 8.51 0 0 1-5.82-.34c.26-.85.5-1.75.74-2.65Z" fill="#cbd2d2"/><path d="M36.19 23.93c2.53-.1 5.56-1.14 7.78.44-2.06 0-4.1.14-6.16.22.12.29.34.87.45 1.16a23.92 23.92 0 0 0 5.86.15c-1.36 2.07-4.43 1.1-6.36.41a11.4 11.4 0 0 0-1.57-2.38Z" fill="#d0d7d7"/><path d="M59.19 24.65c2.55-.38 5.38-.86 7.69.58-.41.43-.83.86-1.25 1.27-2.38-.49-4.82.05-7.22-.22-.06-.32-.2-.93-.26-1.24l-.07-.41h1.11Z" fill="#bf9518"/><path d="M95.55 25.86c.2-.64.42-1.28.65-1.9l.08 1a21 21 0 0 1 6.43-.28c2.68.28 5.41-.22 8.05.41-2.68.05-5.37.06-8.06 0-.22.51-.42 1-.63 1.56a30.41 30.41 0 0 1-6.52-.79ZM111 25.21c2.15-1.26 4.65-.93 6.92-.24-.09.47-.27 1.41-.35 1.88l-.14-.24-.33-.59c-1.45.05-2.89.22-4.34.24l-.68-.39Z" fill="#bd9519"/><path d="m22.85 25.69.62-1c2.41-.51 5-1 7.32.12-.36.42-.71.85-1 1.3-2.28.47-5.1 1.44-6.94-.42Z" fill="#c3caca"/><path d="M37.81 24.59c2.06-.08 4.1-.2 6.16-.22.17.18.49.56.66.75l-.51.78a23.92 23.92 0 0 1-5.86-.15c-.11-.29-.33-.87-.45-1.16Z" fill="#a9b6b6"/><path d="M48.61 25.91c.8-2.36 3.82-1.24 5.69-1.37 0 .41-.09 1.22-.11 1.63a26.68 26.68 0 0 1-5.58-.26Z" fill="#ba9425"/><path d="M71.88 25.2a8.85 8.85 0 0 1 6.31-.2L77 27.1c-.07-.17-.22-.51-.3-.68a25.43 25.43 0 0 1-5.91-.28l.51-.65Z" fill="#bf9618"/><path d="M54.49 28.27A46.68 46.68 0 0 1 58.15 25c.06.31.2.92.26 1.24 2.4.27 4.84-.27 7.22.22-1.12 1.09-2.23 2.21-3.35 3.29-4.91-1-10-.23-15-.32-.08-.18-.23-.52-.32-.69a22.75 22.75 0 0 1 .86-2.69 8.78 8.78 0 0 0 1.62 2.05 16.88 16.88 0 0 0 5.05.17Z" fill="#efc61b"/><path d="M95.55 25.86a30.41 30.41 0 0 0 6.52.77l-.72 1.92c3-.1 5.91.11 8.85-.12 1.18-.29 1.5-1.58 1.91-2.56l.68.39c-.41.95-.83 1.9-1.25 2.85a23.56 23.56 0 0 0 3.6.86 20.91 20.91 0 0 0 1.2-1.9l.6.38c-.5 2.56-2.57 4.41-4.57 5.89.45 2.35.91 4.7 1.51 7-2.48-.14-5 .28-7.45-.19-.53-1.95-.87-3.95-1.21-5.93l.81.12c.58 1.62.52 3.7 1.87 4.9a22.3 22.3 0 0 0 4.62 0c-.47-1.89.5-5.22-2.21-5.5-5.55-1-11-2.24-16.63-3 .54-2.02 1.23-3.94 1.87-5.88Z" fill="#f6c91b"/><path d="M112.79 26.26c1.45 0 2.89-.19 4.34-.24l.33.59c-.07.49-.23 1.49-.3 2l-.22-.15-.6-.38a20.91 20.91 0 0 1-1.2 1.9 23.56 23.56 0 0 1-3.6-.86c.46-.96.84-1.91 1.25-2.86Z" fill="#d9b51f"/><path d="M69.44 29.54c.45-1.13.9-2.26 1.31-3.4a25.43 25.43 0 0 0 5.91.28c.08.17.23.51.3.68l.2.47c3.66-.1 7.31.06 11-.13a45.31 45.31 0 0 1-2.18 4.14c-.15-.31-.43-.91-.57-1.22a86.61 86.61 0 0 0-15.97-.82Z" fill="#fad41b"/><path d="M64.3 29.36a2.07 2.07 0 0 1 3.61-1.28l-.6 1.27c-1-.05-2.01-.03-3.01.01Z" fill="#e7d31c"/><path d="M87.5 30.82a31.48 31.48 0 0 1 3.83-3.74c.66 1.12 1.28 2.26 1.94 3.39l-1.44 1.26a11.9 11.9 0 0 0-4.33-.91Z" fill="#ffd51d"/><path d="m46.89 28.55.1.23c.09.17.24.51.32.69 5 .09 10.06-.67 15 .32a4.38 4.38 0 0 1-1.42 1.26c-2.52 1-5.3.39-7.89 1a11.59 11.59 0 0 1-5.79 1l-1-1.79c.22-.93.46-1.82.68-2.71Z" fill="#cfa21a"/><path d="M64.3 29.36c1 0 2-.06 3 0 .91.3 1.36 1.2 2 1.87 0-.42.14-1.26.18-1.68a86.61 86.61 0 0 1 15.93.82c.14.31.42.91.57 1.22-.43 2-2.5 1.39-4 1.43-2.31 0-4.63.11-6.94-.1-1.86-1.28-4-.09-5.41 1.28-.17-.75-.35-1.5-.52-2.24h-.25c-.19-.18-.55-.53-.72-.71-.23 1.34-1.62 1.54-2.65 1.07.07.34.22 1 .3 1.37l-2 .06.45-1.27c-.75.14-2 0-1.92-1.06a2.48 2.48 0 0 1 1.98-2.06Z" fill="#d6a91a"/><path d="m37.58 29.82.87-.1a30.08 30.08 0 0 0-1 3.35c2.41-.48 5.19-.63 6.8-2.76A13.68 13.68 0 0 1 36.88 40c-3-.81-6.12.91-9.19.06-2.36-.15-4.08-1.81-5.5-3.53h-.92c-.13-1-.25-2-.3-3 .4.6.8 1.21 1.21 1.81a33.78 33.78 0 0 0 5.07-.86c0-1 .09-2.06.13-3.08l.55-.07c-.47 2.33 1.22 5.13 3.84 4.73 3.33-.06 5.16-3.39 5.81-6.24Z" fill="#e7eaea"/><path d="M38.45 29.72c2-.11 4.1-.09 6.15 0l-.37.6c-1.61 2.13-4.39 2.28-6.8 2.76a30.08 30.08 0 0 1 1.02-3.36Z" fill="#aebaba"/><path d="M31.46 14.59a1.45 1.45 0 0 1 1.78-.15c.32 1.06-2.33 1.32-1.78.15Z" fill="#99a8a8"/><path d="M53 32c2.59-.57 5.37.05 7.89-1a2.36 2.36 0 0 0 .23 1.67c1.45 2.9 2.92 5.79 4.25 8.74l-1-.2c-.55-.9-.82-2-1.65-2.72-1.7-.54-3.52-.23-5.27-.13-.25.64-.51 1.27-.77 1.92-1.17-2.6-2.37-5.18-3.44-7.81-1.28 2.82-1.9 5.93-3 8.82h-7.37c1-3.43 2.19-6.8 3.36-10.16l1 1.79A11.59 11.59 0 0 0 53 32Z" fill="#f2bd1f"/><path d="M87.5 30.82a11.9 11.9 0 0 1 4.33.91l.13.05c-.86.77-1.69 1.56-2.55 2.33-.63-1.11-1.23-2.22-1.91-3.29Z" fill="#ce9a18"/><path d="M20.76 32.7a42.8 42.8 0 0 1 6.62-1.3c0 1-.09 2.05-.13 3.08a33.78 33.78 0 0 1-5.07.86c-.41-.6-.81-1.21-1.21-1.81-.05-.21-.16-.62-.21-.83Z" fill="#adb9b8"/><path d="m93.32 31.64.36.06c5.58.8 11.08 2.05 16.63 3 2.71.28 1.74 3.61 2.21 5.5a22.3 22.3 0 0 1-4.62 0c-1.35-1.2-1.29-3.28-1.87-4.9l-.81-.12-.48-.68c-1.73 0-3.46 0-5.19.07l-1 .07-.53 1c-1.69-.84-4-1.25-4.47-3.39-.08-.1-.18-.44-.23-.61Z" fill="#dca117"/><path d="M68.82 32h.25c.17.74.35 1.49.52 2.24 1.4-1.37 3.55-2.56 5.41-1.28 0 .84 0 1.68-.08 2.53h14.76c-.91 1.69-1.83 3.37-2.84 5v-2.52c-5.79 0-11.57 0-17.35-.06L69.13 40c-1.6-1.71-1.17-4.18-1-6.29a2.47 2.47 0 0 1 .69-1.71Z" fill="#f7c01f"/><path d="M93.53 32.32c.48 2.14 2.78 2.55 4.47 3.39l.53-1 1-.07a66.31 66.31 0 0 1-2.37 6.87c-2.25-.13-4.5-.12-6.74-.13 1.07-3.02 1.91-6.11 3.11-9.06Z" fill="#edb11a"/><path d="M10.34 35.64a18.89 18.89 0 0 1 6.78-1.79c-.47.67-.89 1.37-1.4 2a6.81 6.81 0 0 1-5.38-.21Z" fill="#afbdbc"/><path d="m17.12 33.85.62-.06c-.31 1-.66 1.88-1 2.82l-.12.07a27.52 27.52 0 0 1-5.16 2.76 26.45 26.45 0 0 1-7.72 1c.17-1-.15-2.52 1-3.07 1.6-.68 3.33-1 5-1.51l.37-.11.2-.06a6.81 6.81 0 0 0 5.38.22c.54-.69.96-1.39 1.43-2.06Z" fill="#c6cdce"/><path d="M69.49 37.85c5.78.06 11.56.07 17.35.06v2.52c0 .84-.67 1.12-1.4 1H71.58c-1 0-1.77-.78-2.45-1.4Z" fill="#e5a41d"/><path d="M57.44 38.41c1.75-.1 3.57-.41 5.27.13.83.69 1.1 1.82 1.65 2.72-2.39.16-4.8.08-7.2.09-.12-.26-.37-.77-.49-1 .26-.67.52-1.3.77-1.94Z" fill="#e2a21b"/></svg>
