<svg xmlns="http://www.w3.org/2000/svg" viewBox="0 0 120 60"><path fill="#c09d5d" fill-rule="evenodd" d="M82.63 21.77a22 22 0 0 1 14.43-4.36c1.58.12 3.55 1.2 3.26 3-.38.48-.77.95-1.13 1.44-.56-1.57-2.64-1.07-3.93-.9-1.05 1-1.78 2.3-2.82 3.33.09-.5.19-1 .3-1.51a27.4 27.4 0 0 0 1.6-2.77c-1.78-1.63-4 .45-5.53 1.42l-.68.06c.09-.27.29-.8.38-1.06-2.36-.48-4.25 1.27-6.16 2.33Zm23.51-2.24a21 21 0 0 1 9.64-2.2c1.65 0 3.49.57 4.22 2.16v1.61h-.83c-.12.19-.38.58-.5.78 0-.28-.11-.84-.15-1.13-1.26 0-2.53 0-3.8.07a38.68 38.68 0 0 1-2.72 3.44l.08-1.09A22.16 22.16 0 0 0 114 20l-1-.66c-2.38.07-4.19 1.86-5.86 3.31a5.6 5.6 0 0 1 1.53-2.65 11.63 11.63 0 0 0-2.7.14Z" clip-rule="evenodd"/><path fill="#d8c886" fill-rule="evenodd" d="M97.68 27.06c1.53-3.57 5.08-5.82 8.46-7.53l-.17.61c-3 1.55-5.81 3.55-7.44 6.5a8.9 8.9 0 0 0 0 1.93c1.81-.16 3.63-.06 5.42-.3l.58-.71 1.58.29c-1.8 1.64-4.44 2-6.79 1.77a1.84 1.84 0 0 1-1.64-2.56Zm-19 2.2c-1.19-.62-.78-2-.38-3a10 10 0 0 0 1 2.24 34.07 34.07 0 0 0 6.09-.5v.71c-2.07.9-4.59 1.46-6.73.55Zm20.53-7.4c.36-.49.75-1 1.13-1.44a8.53 8.53 0 0 1-1.91 3.79c-2.77 3.45-6.84 5.55-10.85 7.32.82-.57 1.62-1.17 2.44-1.74a31.56 31.56 0 0 1-5 .13 39.85 39.85 0 0 0 7.7-7.14c-.11.51-.21 1-.3 1.51l-1 1a8.3 8.3 0 0 0-1.66 2.27 19.66 19.66 0 0 0 3.34.1 6.24 6.24 0 0 0 2.62-1.57 17.69 17.69 0 0 0 3.47-4.23Zm6.42 7.43a44.39 44.39 0 0 0 6.51-6.12l-.14 1.09c-.5.58-1 1.12-1.57 1.67s-1.15 1.25-1.72 1.88c1.74-.12 3.48-.2 5.22-.37l-.22.6a26 26 0 0 1-3.71 2.14 22.44 22.44 0 0 0-4.39-.89Z" clip-rule="evenodd"/><path fill="#a48040" fill-rule="evenodd" d="M106 20.14a11.63 11.63 0 0 1 2.7-.14 5.6 5.6 0 0 0-1.55 2.65c-.32.32-.64.64-.94 1v-.8a15.55 15.55 0 0 0-3.31 3.87 11.32 11.32 0 0 0-4.34-.06c1.6-2.97 4.44-4.97 7.44-6.52Zm-23.65 2.61c1.91-1.06 3.8-2.81 6.16-2.33-.09.26-.29.79-.38 1.06a19.69 19.69 0 0 0-4.83 5.22c-1.23-.18-2.46-.3-3.69-.41a9.57 9.57 0 0 1 2.74-3.54Zm32.37-1.93c1.27-.05 2.54-.06 3.8-.07 0 .29.12.85.15 1.13a14.27 14.27 0 0 1-4 4.65l-.85-.88c-1.12.08-2.24.16-3.36.28.53-.55 1.07-1.09 1.57-1.67a38.68 38.68 0 0 0 2.69-3.44Zm-22.28 3.47c1-1 1.77-2.31 2.82-3.33 1.29-.17 3.37-.67 3.93.9a17.69 17.69 0 0 1-3.43 4.19 28.79 28.79 0 0 1-4.3-.8Z" clip-rule="evenodd"/><path fill="#d5ce64" fill-rule="evenodd" d="M119.17 21.1h.67a14.81 14.81 0 0 1-6.09 6.9l.22-.6.71-.91a14.27 14.27 0 0 0 4-4.65c.11-.16.37-.55.49-.74Z" clip-rule="evenodd" opacity=".89"/><path fill="#c4af6c" fill-rule="evenodd" d="M83.3 26.7a19.69 19.69 0 0 1 4.83-5.22l.68-.06c-1.77 1.65-3.63 3.35-4.55 5.64.7.28 1.41.55 2.12.8-.33.3-.65.6-1 .88V28a34.07 34.07 0 0 1-6.13.46 10 10 0 0 1-1-2.24 15.73 15.73 0 0 1 4.35-4.48l-.28 1a9.57 9.57 0 0 0-2.74 3.54c1.26.12 2.49.24 3.72.42Zm19.57 0a15.55 15.55 0 0 1 3.31-3.87v.8c-.73 1.11-2.79 2.54-1.62 3.93l-.58.71c-1.79.24-3.61.14-5.42.3a8.9 8.9 0 0 1 0-1.93 11.32 11.32 0 0 1 4.31.06Zm-13.07.82a8.3 8.3 0 0 1 1.66-2.27 28.79 28.79 0 0 0 4.3.8 6.24 6.24 0 0 1-2.62 1.57 19.66 19.66 0 0 1-3.34-.1Zm20.67-1.59c1.12-.12 2.24-.2 3.36-.28l.85.88-.71.91c-1.74.17-3.48.25-5.22.37.57-.63 1.13-1.27 1.72-1.88Z" clip-rule="evenodd"/><path fill="#836b3a" fill-rule="evenodd" d="M90.36 36.6a100.28 100.28 0 0 0 11.92-5.1c-3.53 2.48-7.65 4-11.7 5.5-.62.17-1.25.32-1.87.48a20.78 20.78 0 0 0 .09 3c5.36.27 10.65-.62 15.9-1.45a48.38 48.38 0 0 1-15.14 1.74C88.14 40.65 88.3 39 88.07 38A9.13 9.13 0 0 1 85 39l.48-.3c1.34-.51 2.85-.95 3.68-2.2a56.28 56.28 0 0 1-12.16.09l-.43-.52a47.6 47.6 0 0 1 6.58-2.6A44.61 44.61 0 0 1 77.21 36c3.53 1.1 7.28.26 10.9.13a5.29 5.29 0 0 1 2.25.47Zm-7.09-3.21a9.32 9.32 0 0 1 3.13-1.32 19.57 19.57 0 0 1-3.13 1.32Z" clip-rule="evenodd" opacity=".69"/><path fill="#f0e6a5" fill-rule="evenodd" d="M102.28 31.5c1.13-.71 2.26-1.41 3.33-2.21a22.44 22.44 0 0 1 4.4.89c-4.54 2.27-9.3 4.07-14 6.09 4.23.9 8.51.2 12.77 0a1.89 1.89 0 0 1-1.27 1.64 47.77 47.77 0 0 0-8.2-.33 16.59 16.59 0 0 1-4.26-.49c-1.5-.25-3.08.68-4.51-.11 4.09-1.45 8.21-2.98 11.74-5.48ZM85 29.92a31.56 31.56 0 0 0 5-.13c-.82.57-1.62 1.17-2.44 1.74l-1.16.54a9.32 9.32 0 0 0-3.13 1.32l-.17.08a47.6 47.6 0 0 0-6.58 2.6 8 8 0 0 1-5.27.5A59.47 59.47 0 0 0 85 29.92Zm-13.75 6.65a8 8 0 0 0 5.27-.5l.43.52a56.28 56.28 0 0 0 12.17-.07c-.83 1.25-2.34 1.69-3.68 2.2a17.3 17.3 0 0 0-5.76-.84c-3.16.11-6.34-.18-9.47.31a4.86 4.86 0 0 0-1.42-.8c.83-.24 1.64-.53 2.46-.82Z" clip-rule="evenodd"/><path fill="#dfc884" fill-rule="evenodd" d="M88.71 37.48c.62-.16 1.25-.31 1.87-.48 1.43.79 3-.14 4.51.11a16.59 16.59 0 0 0 4.26.49 47.77 47.77 0 0 1 8.2.33 11 11 0 0 1-2.85 1c-5.25.83-10.54 1.72-15.9 1.45a20.78 20.78 0 0 1-.09-2.9Zm-19.92-.09a4.86 4.86 0 0 1 1.42.8c3.13-.49 6.31-.2 9.47-.31a17.3 17.3 0 0 1 5.76.84L85 39c-4.95 1-10 1.94-15.1 1.57-1.61-.12-1.32-2.1-1.11-3.18Z" clip-rule="evenodd"/><path fill="#dcdcdc" fill-rule="evenodd" d="M39.64 14.4c2.54-2 5.29-4.1 8.63-4.38 1.4-.18 3.09.72 3.09 2.25a9 9 0 0 1-2 4.72c-3 3.93-7.07 6.85-11.31 9.33l-1.38-.88a37.71 37.71 0 0 0 11.4-10.18c.66-1.07 1.48-2.22 1.35-3.53-.58-1.59-2.35-.27-3.24.32-4.82 3.67-8.87 8.2-13.19 12.41l-1.34-1c-.79.63-1.56 1.56-2.71 1.33a111.48 111.48 0 0 1 10.7-10.39Zm6.74 9.43a8 8 0 0 1 2.83-3 4.09 4.09 0 0 1 2.2 2.05c-1.89.19-3.08 1.8-4.55 2.78-.94-.09-.93-1.27-.48-1.83ZM6.57 26.57a4.87 4.87 0 0 1 4.25-3.19c-.53.75-1.72 1.17-1.6 2.24.4 2.2 2.54 3.55 4.52 4.27a19.35 19.35 0 0 0 9.47.58c1.94-1.84 3.75-3.79 5.61-5.7h.12c1.15.23 1.92-.7 2.71-1.33l1.34 1c-1.57 1.62-3.21 3.18-4.81 4.77a37 37 0 0 0 8.49-3.79l1.38.88a54.64 54.64 0 0 1-11.74 4.89c-1.27.86-2.22 2.1-3.42 3a4.13 4.13 0 0 0-2.72.86c.09-.61.18-1.23.3-1.83l1.09-1.15c-4 .44-8.33.51-12-1.37C8 30 6.42 28.47 6.57 26.57ZM.05 46.82a6.25 6.25 0 0 1 1.14-1.38h.09c1.71.36 3.69-.52 5.09.83C4.71 47.22 2.54 48 2 50 .84 49.38-.24 48.19.05 46.82Zm47.87-9.37c5.88-3.93 11-8.85 16.33-13.43-.75 1.55-2.13 2.67-3.25 3.98-4.63 4.55-9.5 9-15.13 12.37-.48-.43-1.07-.79-1.27-1.43a19.23 19.23 0 0 1 3.34-6.75c.46-.4-.19-.74-.44-1 2.64-.95 3.43-4.09 5.91-5.36a4.67 4.67 0 0 1 2 2.27 3.94 3.94 0 0 0-2 1.24 34.11 34.11 0 0 0-5.49 8.11Zm11.65-5.35c3.11-3 6.87-5.5 11.18-6.34 1.54-.45 3.6 1.47 2.07 2.79a22 22 0 0 1-12 6.58 8.66 8.66 0 0 0-2.1 3c1.23.81 2.64 0 3.84-.42 4.29-2 8.1-4.74 12-7.38l.12.39a79.81 79.81 0 0 1-9.88 7 17.18 17.18 0 0 1-6.24 2.41A2.46 2.46 0 0 1 55.82 38c.42-2.37 2.1-4.26 3.75-5.93m2 2.25a23.84 23.84 0 0 0 8.35-5c.84-.78 1.91-1.46 2.3-2.58a27.65 27.65 0 0 0-10.67 7.61Zm-24-.94a41.36 41.36 0 0 1 7-7.14 3.94 3.94 0 0 1 2.19 2.3c-1.86.21-3 1.83-4.17 3a44.53 44.53 0 0 0-5.11 6.61c3.35-1.46 6.1-3.9 9-6l.82.11c-3.4 2.59-6.52 5.64-10.39 7.56a1.78 1.78 0 0 1-2.65-1.36 18.82 18.82 0 0 1 3.27-5.05Zm-25.32 7c2.92-2.19 5.52-4.75 8.26-7.15-.12.6-.21 1.22-.3 1.83a4.13 4.13 0 0 1 2.72-.86 79.61 79.61 0 0 1-9 7.17 38.12 38.12 0 0 1 10.39-.75 58.65 58.65 0 0 1 13.57 2.09 11.23 11.23 0 0 1 4.81 2.41C34.35 42 25 41.68 16.28 43.25a45.58 45.58 0 0 0-9.91 3C5 44.92 3 45.8 1.28 45.44c2.32-1.65 5.14-2.39 7.86-3.14a10.38 10.38 0 0 0 3.07-1.86Z" clip-rule="evenodd"/></svg>
