<svg id="uuid-e37d23e3-8cf4-4f38-aef4-dedd812b9574" xmlns="http://www.w3.org/2000/svg" xmlns:xlink="http://www.w3.org/1999/xlink" viewBox="0 0 120 28"><defs><linearGradient id="uuid-0fe4a2af-f740-4962-8e12-7f056081770e" x1="44.98" y1="22.65" x2="44.98" y2="9.54" gradientUnits="userSpaceOnUse"><stop offset="0" stop-color="#7d7674"/><stop offset="1" stop-color="#fff"/></linearGradient><linearGradient id="uuid-46927c62-ab4f-4c76-8421-9fc8f5f65bdc" x1="425.07" y1="-246.35" x2="425.07" y2="-263.81" gradientTransform="translate(-336 -246) scale(1 -1)" gradientUnits="userSpaceOnUse"><stop offset="0" stop-color="#14325e"/><stop offset="1" stop-color="#3f719b"/></linearGradient><linearGradient id="uuid-31ada485-9d93-487d-aec9-c2085be3f61a" x1="404.38" y1="-253.38" x2="404.38" y2="-268.34" gradientTransform="translate(-336 -246) scale(1 -1)" gradientUnits="userSpaceOnUse"><stop offset="0" stop-color="#d34c00"/><stop offset="1" stop-color="#e47d00"/></linearGradient><linearGradient id="uuid-f20b43d8-69b7-4566-862a-8f2a2ec49ed7" x1="25.4" y1="22.48" x2="25.4" y2="7.03" gradientTransform="matrix(1, 0, 0, 1, 0, 0)" xlink:href="#uuid-46927c62-ab4f-4c76-8421-9fc8f5f65bdc"/><linearGradient id="uuid-0ee8db95-f669-473d-9e1e-4cd4f0949e2b" x1="443.14" y1="-253.63" x2="443.14" y2="-269.95" xlink:href="#uuid-31ada485-9d93-487d-aec9-c2085be3f61a"/><clipPath id="uuid-992b8937-db94-4183-a503-545811e7690c"><path d="M100.09,21.95c.26-.03,.59-.16,1.06-.31,.46-.15,.71-.19,.85-.21,.14-.02,.24-.15,.17-.24-.07-.09-.45-.15-1.02,.03-.58,.18-1.65,.73-1.65,.73,0,0,.33,.03,.59,0Zm19.34-3.36c-.3,.44-1.21,.4-1.64,.3-.43-.1-1.36-.44-1.72-.21-.36,.24-.14,.64,.33,.78,.46,.13,1.74,.03,1.74,.03,0,0-.86,.9-.74,1.35,.12,.46,.65,1.06,.65,1.06,0,0-.76-.16-2.27-.41-1.51-.25-3.99-.03-3.99-.03,0,0,3.75,.83,5.05,1.61,1.3,.78,1.65,1.38,1.65,1.38,0,0-1.59-.07-2.96-.7s-2.32-1.39-3.97-1.67c-1.66-.27-3.55,.03-3.55,.03,0,0,1.46,.8,2.11,.85,.16,.13-.76,.16-1.78-.14-1.02-.3-1.57-.26-1.98,0-.41,.26-.84,.77-1.58,.78-.74,0-.78-.89-1.64-.99-.86-.1-2.82-.25-4.41,.19-1.58,.44-4.25,.73-4.41,.09-.16-.64,.27-.92,.73-1.05,.46-.13,.79-.07,1.05-.25,.26-.18,.98-1.18,1.59-1.19,.61,0,.81,.61,1.14,.54,.33-.07,1.16-.62,1.16-.62,0,0-1.2-.16-1.72-.38-.52-.23-1.63-.03-1.82-.24-.18-.21,1.87-1.78,2.36-1.49,.49,.29,1.05,2.87,4.03,.9,1.9-1.84,2.53-3.28,2.93-3.73,.39-.45,.45-1.04,.78-1.5,.33-.46,.53-1.18,.85-1.63,.32-.45,.78-1.37,.99-1.99,.21-.62,.47-1.83,.34-2.27-.13-.44-.22-.78-.22-.78,0,0,3.81,.86,5.56,1.64,1.75,.79,3.46,2.53,3.96,3.4,.49,.87,.46,1.49,.46,1.49,0,0-1.83-1.48-2.47-1.69-.64-.22-1.31-.27-1.53,.13-.21,.4,.45,1.08,1.24,1.15,.79,.07,1.4-.08,1.4-.08,0,0-.06,.5,.48,.81,.55,.31,1.3,.52,1.53,.96,.23,.44,0,.69,0,.69,0,0-.9-1.03-1.83-1.06-.92-.03-1.13,.25-1.03,.58,.1,.32,.58,1.05,1.77,1.19,1.87,.3,1.95,1.11,1.95,1.11,0,0-1.16-.16-1.56-.13-.4,.03-.62,.2-.22,.4,.4,.2,1.51,.34,1.21,.78Z" fill="none"/></clipPath></defs><path d="M60.89,14.82s2.61,.94,1.6,3.93c-1.01,2.99-4.56,4.07-7.37,4.07h-6.99l5.08-15.26h7.58s3.92,.13,3.92,3.23-3.81,4.02-3.81,4.02Zm-3.64,2.78c.18-1.32-1.72-1.17-1.72-1.17l-.81,2.66s.24,0,.75-.09,1.55-.28,1.78-1.39Zm1.81-5.69c.09-1.23-1.63-.96-1.63-.96l-.86,2.44s.68,0,1.15-.13c.47-.13,1.23-.38,1.34-1.34Zm3.12,10.78h9.43l1.25-3.93h-4.02l.63-2.02h3.73l1.22-3.59h-3.66l.63-1.81h4.02l1.25-3.69h-9.5l-4.98,15.04Zm14.31-11.21h3.07l-3.69,11.35h5.28l3.84-11.34h3.16l1.37-3.84h-11.81l-1.22,3.83ZM.44,22.65L6.84,7.61h6.26l-.89,7.9,4.18-7.9h6.29l-3.72,15.04h-4.65l2.93-10.46-5.59,10.46h-3.84l1.32-10.31-3.87,10.31H.44ZM28.48,7.61l-9.17,15.04h4.96l1.28-2.45h3.17l-.4,2.45h4.91l.92-15.04h-5.67Zm.97,9.85l-2.7-.03,3.1-5.46-.4,5.49Zm10.29-1.97l-6.24,7.16h5.41l2.07-2.19,.62,2.19h5.32l-1.85-7.3,6.2-7.75h-5.23l-2.33,2.55-.75-2.55h-5.41l2.2,7.88Z" fill="url(#uuid-0fe4a2af-f740-4962-8e12-7f056081770e)"/><path d="M92.08,1.97c.18,.83,1.61,1.87,1.89,1.79,.28-.08,.46-.42,1.04-.91,.58-.49,1.65-1.03,2.18-1.18,.53-.16,.33-.43,.33-.43,0,0-.02-.55-1.18-.73s-1.71,.1-3.02,.59c-.63,.23-1.1-.59-1.1-.59,0,0-.32,.63-.14,1.46Zm-2.16,5.19c-.17,.38,.2,.73,.55,1.13,.35,.39,.81,.28,1.15-.3,.35-.58,.54-1.82,.54-1.82,0,0-.68,.61-.99,.89s-.54,.11-.52-.39c.01-.51-.2-.57-.2-.57-.01-.01-.36,.68-.53,1.07Zm3.65-.64c.16,.42,.35,.99,1.03,.76s.29-1.33,.33-1.7,.56-.87,.8-1.16-.09-.31-.09-.31c0,0-1.14,.82-1.54,1.05s-.65,.12-.72,.21c-.13,.15,.03,.74,.19,1.16Zm3.08-2.37s.47,.35-.01,1.34c-.98,2.06-2.67,3.14-2.67,3.14,0,0,1.65-.13,2.58-1.22s1.5-1.96,1.07-2.82c-.48-.54-.97-.44-.97-.44Zm-4.41,5.51c-.24,.58-.17,1.34,1.1,1.14,1.27-.2,1.67,.08,.96,1.3-.71,1.23-3.59,1.44-3.65,1.76s.47,.81,1.49,1.08c.8,.27,.92,.83,1.23,.62,.31-.21,1.2-1.06,2.37-2.24,1.16-1.18,1.36-2.32,1.47-2.68s-.08-.6-.24-.31-.66,1.72-1,1.67-.18-.47-.15-.95,.22-1.23-.27-1.63c-.56-.47-1.65,.17-2.22,.28-.57,.11-.39-.56-.39-.56,0,0-.47-.07-.71,.52ZM101.9,.68c2.44-.34,2.37,.54,1.78,2.07-.59,1.53-1.17,3.66-2.57,4.56-1.88,1.22-4.39,.9-4.39,.9l.84,.64c.84,.64,2.36,.91,2.36,.91,0,0-4.24,7.19-12.7,11.69-6.43,3.63-10.04,3.79-12.12,3.39-2.08-.4-.4-5.24-.4-5.24,0,0-4.97,3.79-3.77,6.38,2.5,5.42,14.5-1.62,16.19-2.62,7.46-3.93,11.67-9.71,12.88-11.39s1.46-3.06,3.16-3.96c2.12-1.13,2.56,.63,1.9,2.35-.66,1.72-2.75,5.08-3.63,5.98-.88,.9-2.09-.99-2.09-.99,0,0,.55,2.87,1.89,3.07,1.34,.2,4.35-4.93,5.21-6.7,.86-1.77,1.36-3.56,.46-4.81-.9-1.25-2.73-.34-3.43-.05-.7,.29-.08-.86-.08-.86,0,0,2.21-2.68,2.81-3.29s1.17-1.12,.59-1.79c-.57-.67-2.36-1.19-4.51-.78-2.14,.4-3.67,2.28-3.67,2.28,0,0,1.07-1.24,3.28-1.75Z" fill="url(#uuid-46927c62-ab4f-4c76-8421-9fc8f5f65bdc)"/><path d="M60.45,14.45s2.61,.94,1.6,3.93c-1.01,2.99-4.56,4.07-7.37,4.07h-6.99l5.08-15.26h7.58s3.92,.13,3.92,3.23-3.81,4.02-3.81,4.02Zm-3.64,2.78c.18-1.32-1.72-1.17-1.72-1.17l-.81,2.66s.24,0,.75-.09,1.55-.28,1.78-1.39Zm1.81-5.69c.09-1.23-1.63-.96-1.63-.96l-.86,2.44s.68,0,1.15-.13c.47-.13,1.23-.38,1.34-1.34Zm3.12,10.78h9.43l1.25-3.93h-4.02l.63-2.02h3.73l1.22-3.59h-3.66l.63-1.81h4.02l1.25-3.69h-9.5l-4.98,15.04Zm14.31-11.21h3.07l-3.69,11.35h5.28l3.84-11.34h3.16l1.37-3.84h-11.81l-1.22,3.83Z" fill="url(#uuid-31ada485-9d93-487d-aec9-c2085be3f61a)"/><path d="M0,22.28L6.4,7.24h6.26l-.89,7.9,4.18-7.9h6.29l-3.72,15.04h-4.65l2.93-10.46-5.59,10.46h-3.84l1.32-10.31-3.87,10.31H0ZM28.03,7.24l-9.17,15.04h4.96l1.28-2.45h3.17l-.4,2.45h4.91l.92-15.04s-5.67,0-5.67,0Zm.97,9.85l-2.7-.03,3.1-5.46-.4,5.49Zm10.29-1.97l-6.24,7.16h5.41l2.07-2.19,.62,2.19h5.32l-1.85-7.3,6.2-7.75h-5.23l-2.33,2.55-.75-2.55h-5.41l2.2,7.88Z" fill="url(#uuid-f20b43d8-69b7-4566-862a-8f2a2ec49ed7)"/><path d="M100.09,21.95c.26-.03,.59-.16,1.06-.31,.46-.15,.71-.19,.85-.21,.14-.02,.24-.15,.17-.24-.07-.09-.45-.15-1.02,.03-.58,.18-1.65,.73-1.65,.73,0,0,.33,.03,.59,0Zm19.34-3.36c-.3,.44-1.21,.4-1.64,.3-.43-.1-1.36-.44-1.72-.21-.36,.24-.14,.64,.33,.78,.46,.13,1.74,.03,1.74,.03,0,0-.86,.9-.74,1.35,.12,.46,.65,1.06,.65,1.06,0,0-.76-.16-2.27-.41-1.51-.25-3.99-.03-3.99-.03,0,0,3.75,.83,5.05,1.61,1.3,.78,1.65,1.38,1.65,1.38,0,0-1.59-.07-2.96-.7s-2.32-1.39-3.97-1.67c-1.66-.27-3.55,.03-3.55,.03,0,0,1.46,.8,2.11,.85,.16,.13-.76,.16-1.78-.14-1.02-.3-1.57-.26-1.98,0-.41,.26-.84,.77-1.58,.78-.74,0-.78-.89-1.64-.99-.86-.1-2.82-.25-4.41,.19-1.58,.44-4.25,.73-4.41,.09-.16-.64,.27-.92,.73-1.05,.46-.13,.79-.07,1.05-.25,.26-.18,.98-1.18,1.59-1.19,.61,0,.81,.61,1.14,.54,.33-.07,1.16-.62,1.16-.62,0,0-1.2-.16-1.72-.38-.52-.23-1.63-.03-1.82-.24-.18-.21,1.87-1.78,2.36-1.49,.49,.29,1.05,2.87,4.03,.9,1.9-1.84,2.53-3.28,2.93-3.73,.39-.45,.45-1.04,.78-1.5,.33-.46,.53-1.18,.85-1.63,.32-.45,.78-1.37,.99-1.99,.21-.62,.47-1.83,.34-2.27-.13-.44-.22-.78-.22-.78,0,0,3.81,.86,5.56,1.64,1.75,.79,3.46,2.53,3.96,3.4,.49,.87,.46,1.49,.46,1.49,0,0-1.83-1.48-2.47-1.69-.64-.22-1.31-.27-1.53,.13-.21,.4,.45,1.08,1.24,1.15,.79,.07,1.4-.08,1.4-.08,0,0-.06,.5,.48,.81,.55,.31,1.3,.52,1.53,.96,.23,.44,0,.69,0,.69,0,0-.9-1.03-1.83-1.06-.92-.03-1.13,.25-1.03,.58,.1,.32,.58,1.05,1.77,1.19,1.87,.3,1.95,1.11,1.95,1.11,0,0-1.16-.16-1.56-.13-.4,.03-.62,.2-.22,.4,.4,.2,1.51,.34,1.21,.78Z" fill="url(#uuid-0ee8db95-f669-473d-9e1e-4cd4f0949e2b)"/><g clip-path="url(#uuid-992b8937-db94-4183-a503-545811e7690c)"><path d="M116.65,18.35c-.08-.14-.26-.15-.34-.15,0,0-.17,0-.28,0-.22,0-.5,0-.84-.03-.06,0-.12,0-.2,0-.03-.09-.07-.18-.13-.27,.11-.02,.22-.08,.3-.2,.1-.12,.2-.39,.16-1.44-.01-.09,0-.19,.02-.3,.06-.34,0-.61-.19-.83-.12-.13-.43-.27-1.76-.32,0-.03,0-.05,0-.08,.22,0,.45-.01,.68-.01,.29,0,.59,0,1,.02,.24,0,.43-.09,.55-.26,.11-.18,.08-.37-.08-.51-.13-.11-.34-.16-.67-.16h0s.01-.03,.01-.05c.05-.29-.07-.47-.19-.57-.11-.08-.22-.12-.33-.12l-.16,.03h-.03c-.24,.13-.31,.31-.32,.43,0,.04-.03,.13-.1,.3h-.27c-.01-.17-.06-.33-.14-.48-.13-.19-.3-.28-.51-.28l-.15,.02c-.16,.05-.42,.2-.37,.69v.06c-.64,0-1.1-.03-1.35-.09-.06-.01-.12-.02-.18-.02-.23,0-.43,.09-.6,.28-.16,.21-.21,.41-.14,.57,.05,.12,.17,.26,.6,.26h.02c.74-.07,1.29-.1,1.64-.1,.03,0,.06,0,.08,0,0,.02,0,.04,0,.06-.14,0-.28,0-.4,0-.93,0-1.17,.09-1.26,.16-.1,.06-.22,.13-.24,2.36-.02,.33,.02,.54,.11,.64,.08,.12,.17,.17,.26,.18-.22,0-.42,0-.67,0-.31,.04-.59,.14-.83,.32-.36,.3-.27,.58-.18,.71,.09,.15,.26,.22,.49,.22,.09,0,.19-.01,.31-.04,.66-.16,1.42-.23,2.23-.26l-.11,.03c-.18,.08-.33,.13-.47,.15-.47,.07-.63,.33-.69,.54-.09,.36,.06,.55,.21,.66,.1,.07,.22,.11,.34,.11s.26-.04,.42-.11c.12-.07,.25-.25,.42-.57,.15-.27,.2-.46,.16-.63-.06-.14-.15-.17-.21-.18,.11,0,.21-.02,.32-.02,.47,0,.96,.02,1.48,.06,.04,.34,0,.68-.14,.98-.1,.18-.27,.31-.51,.39-.21,.07-.39,.11-.54,.11l-.15-.02c-.18-.03-.32-.05-.42-.05s-.23,.01-.29,.1c-.06,.08-.11,.21,.06,.44,.17,.18,.41,.31,.72,.39,.2,.05,.4,.07,.59,.07,.21,0,.42-.03,.63-.09,.36-.11,.63-.33,.81-.64,.05-.11,.1-.39,.12-1.52,.11,.04,.23,.08,.34,.14,.12,.05,.23,.08,.34,.08,.15,0,.29-.05,.42-.15,.2-.17,.39-.39,.57-.66,.08-.14,.09-.26,.04-.35Zm-4.25-1.74v.04c-.36,0-.65,0-.86-.02,.19-.01,.48-.02,.86-.02Zm-.62-.87c.13-.02,.33-.04,.62-.06v.07c-.24,0-.45,0-.62-.01Zm1.6,0v-.09c.34,0,.57,.03,.71,.07-.19,0-.43,.01-.71,.02Zm0,.91v-.06h.1c.4,0,.69,.01,.89,.04h0c-.19,.01-.52,.02-.99,.03Zm.02,.85h.1c.5,0,.76,.02,.9,.04,.01,.05,.03,.08,.05,.11-.04,0-.07-.03-.12-.03h-.03c-.18,.05-.3,.19-.35,.52-.17,0-.45,0-.78,0,.14-.11,.23-.31,.24-.64Zm-2.03,.24c.02-.06,.04-.12,.05-.19,.18-.02,.5-.03,.96-.03,.02,.27,.08,.46,.2,.59,.01,.02,.03,.01,.05,.02-.44,0-1,0-1.63,0,.2-.05,.32-.29,.37-.38Z" fill="#bf2800"/><path d="M108.9,16.27l.27,.02c.26,0,.5-.11,.71-.34,.21-.26,.14-.46,.04-.59-.14-.11-.36-.16-.68-.16-.13,0-.27,0-.43,.02,0-.44,.03-.86,.06-1.24,.03-.37-.04-.66-.21-.86-.11-.14-.24-.17-.33-.17-.12,0-.24,.05-.36,.16-.17,.12-.23,.37-.19,.74,0,.24,.01,.71,.02,1.41-.05,0-.1,0-.14,0-.39,0-.73,.12-.96,.35-.08,.04-.15,.1-.19,.14-.24,.19-.29,.45-.12,.71,.1,.14,.23,.17,.31,.17,.08,0,.16-.03,.23-.07,.29-.12,.59-.2,.88-.23,0,4.8,0,4.83,.01,4.85l.07,.16,.03,.03c.13,.15,.26,.22,.39,.22,.07,0,.18-.03,.28-.14,.2-.21,.28-.57,.23-1.1-.05-1.2-.07-2.57-.04-4.08,.04,0,.08,0,.12,0Z" fill="#bf2800"/></g><path d="M115.85,18.12c-.23,.01-.61,0-1.14-.02-.08,0-.19-.01-.31-.01-.01-.12-.06-.23-.13-.34-.12-.16-.26-.23-.41-.21-.14,.04-.23,.18-.25,.43v.1c-.4,0-1.69-.01-3.87-.02-.29,.04-.54,.13-.75,.28-.21,.17-.26,.35-.15,.51,.09,.15,.3,.19,.64,.12,1.19-.28,2.6-.35,4.24-.21h.02c.07,.43,.03,.82-.14,1.2-.12,.22-.32,.37-.6,.46-.32,.11-.57,.14-.77,.1-.33-.06-.52-.06-.56,0-.04,.05-.03,.13,.05,.24,.15,.16,.36,.28,.65,.35,.39,.1,.77,.09,1.14-.01,.33-.1,.56-.29,.71-.56,.06-.15,.1-.71,.11-1.66,.18,.04,.36,.11,.55,.2,.23,.1,.44,.08,.61-.05,.19-.16,.37-.37,.53-.62,.11-.18,.05-.27-.17-.27Zm-7.25-2.23c.26,.04,.5-.06,.7-.27,.11-.14,.13-.26,.06-.37-.17-.14-.56-.17-1.17-.09,0-.51,.03-.99,.06-1.43,.03-.33-.03-.58-.18-.75-.13-.16-.29-.16-.49,.01-.12,.09-.16,.29-.13,.61,0,.25,.01,.78,.02,1.58-.49-.07-.88,.03-1.18,.31-.06,.04-.12,.08-.17,.13-.18,.15-.22,.31-.1,.5,.09,.12,.21,.14,.36,.05,.36-.15,.72-.24,1.08-.25,0,3.3,0,4.96,.01,4.99,0,.04,.03,.08,.06,.12,.18,.2,.33,.22,.46,.08,.17-.17,.23-.5,.19-.98-.06-1.25-.07-2.66-.03-4.23,.16-.02,.3-.02,.42-.01Zm1.58-1.44c.94-.09,1.56-.12,1.88-.1,0,.12,.01,.24,.01,.36-1-.03-1.58,.01-1.73,.13-.1,.06-.16,.8-.17,2.24-.01,.28,.01,.47,.09,.55,.06,.1,.14,.15,.22,.13,.09,0,.19-.1,.29-.31,.03-.07,.05-.16,.05-.27h.05c.18-.03,.57-.04,1.19-.04,0,.31,.05,.52,.16,.63,.11,.11,.23,.12,.37,.02,.13-.09,.19-.31,.19-.68,.68,0,1.11,.01,1.27,.07,0,.09,.03,.15,.06,.2,.06,.1,.13,.15,.2,.15,.09,0,.18-.06,.25-.16,.11-.14,.16-.58,.13-1.32-.01-.11,0-.23,.02-.35,.05-.29,0-.52-.15-.7-.14-.15-.74-.24-1.81-.27,0-.14,0-.26,.02-.37,.52-.02,1.09-.02,1.73,0,.24,.02,.41-.04,.51-.19,.07-.12,.05-.22-.05-.32-.13-.11-.42-.15-.89-.11,.09-.05,.15-.13,.18-.24,.03-.18-.01-.32-.13-.43-.13-.09-.25-.12-.37-.07-.14,.07-.22,.17-.23,.31-.01,.09-.06,.23-.15,.43-.18,0-.35,0-.51,0,0-.2-.03-.39-.12-.55-.13-.18-.29-.25-.5-.21-.21,.06-.29,.23-.27,.52,0,.08,.01,.16,.02,.23-.74,0-1.26-.03-1.55-.09-.25-.05-.46,.02-.64,.21-.13,.17-.17,.31-.12,.43,.05,.13,.21,.19,.47,.16Zm2.58,.81c.69,0,1.1,.08,1.23,.23,0,.02,.01,.06,.02,.13-.23,.01-.64,.03-1.25,.04v-.4Zm0,.94c.64,0,1.07,.01,1.26,.05,0,0,.01,0,.02,.01v.26c-.15,.02-.58,.04-1.29,.04v-.37Zm-.68,.37c-.59,0-1.01-.01-1.25-.04,0-.09,0-.17,.01-.26,.18-.03,.59-.04,1.24-.04v.35Zm0-.91c-.59,0-.99-.01-1.21-.04,0-.07,.02-.11,.03-.12,.05-.12,.44-.19,1.18-.22v.38Zm-.21,3.42c-.04-.09-.1-.11-.19-.05-.19,.09-.36,.14-.51,.16-.31,.04-.5,.19-.56,.43-.06,.22,0,.38,.15,.49,.16,.11,.36,.11,.61-.01,.09-.05,.21-.22,.36-.51,.13-.23,.18-.39,.15-.5Z" fill-rule="evenodd" fill="#fff"/></svg>
