<svg xmlns="http://www.w3.org/2000/svg" viewBox="0 0 120 60"><defs><linearGradient id="ee8399db-2309-48b6-a81e-8543bfd79d2e" x1="326.96" x2="805.22" y1="1311.98" y2="1425.89" gradientTransform="translate(-336 -1294)" gradientUnits="userSpaceOnUse"><stop offset="0" stop-color="#5eb130"/><stop offset=".3" stop-color="#30b6e9"/><stop offset=".98" stop-color="#5eb130"/></linearGradient></defs><path fill="url(#ee8399db-2309-48b6-a81e-8543bfd79d2e)" fill-rule="evenodd" d="M14.83 15A14.94 14.94 0 0 0 0 30a14.58 14.58 0 0 0 .67 4.4c.27-.38.54-.77.78-1.18 1-1.54 2-3.08 3.05-4.67l.74-1.18c.24-.39.49-.81.71-1.19.48-.8 1-1.6 1.38-2.4L8 22.56c.23-.41.43-.79.67-1.2s.43-.83.62-1.22l.6-1.24.06-.08a1.3 1.3 0 0 1 1.72-.69 1.46 1.46 0 0 1 .76 1.38c0 .72-.13 1.46-.19 2.17s-.08 1.47-.14 2.21c-.05 1.47-.08 3-.08 4.41s.08 2.92.22 4.33q.12 1 .33 2.07a6.84 6.84 0 0 0 .57 1.76 1.67 1.67 0 0 0 .33.47c.08.06 0 0 .08 0h.19l.11-.08a4.71 4.71 0 0 0 .6-.58 12.58 12.58 0 0 0 1.19-1.63c.38-.58.74-1.21 1.09-1.85.71-1.27 1.37-2.56 2-3.88.3-.67.63-1.34.93-2s.6-1.33.87-2a1.33 1.33 0 0 1 1.73-.74 1.34 1.34 0 0 1 .81 1 3.05 3.05 0 0 0 .06.6l.08.64c.06.41.11.83.19 1.24.13.83.31 1.65.52 2.46a19.46 19.46 0 0 0 .81 2.37A9.85 9.85 0 0 0 26 34.64a.37.37 0 0 1-.06.49.32.32 0 0 1-.43 0 11.39 11.39 0 0 1-1.8-2 19.42 19.42 0 0 1-1.33-2.35c-.28-.54-.49-1.1-.74-1.65-.16.33-.3.67-.46 1-.66 1.33-1.33 2.7-2.07 4.05a20.3 20.3 0 0 1-1.19 2 19.15 19.15 0 0 1-1.44 2 7.87 7.87 0 0 1-1 1 1.34 1.34 0 0 1-.36.22l-.24.14h-.38a.43.43 0 0 1-.22.06l-.49.08a2.55 2.55 0 0 1-1.06-.14 2.79 2.79 0 0 1-.95-.46 4.52 4.52 0 0 1-1-1.3 9.53 9.53 0 0 1-.8-2.49c-.16-.77-.27-1.58-.35-2.34-.17-1.55-.22-3.07-.25-4.61v-2.18c-.27.52-.54 1.05-.81 1.55L7.92 29l-.67 1.24c-.94 1.65-1.92 3.28-2.9 4.91-.62 1-1.28 2.09-1.93 3.11a14.72 14.72 0 0 0 20.33 4.47l.2-.14a15.16 15.16 0 0 0 4.27-20.81A14.92 14.92 0 0 0 14.83 15Zm27.68 20.45v-10h-.25l-3.16 10h-.79l-3.16-10h-.24v10h-1.33v-11h2.31l2.8 8.76 2.78-8.76h2.34v11Zm3.2-9.59v-1.43h1.42v1.43Zm0 9.59v-8.51h1.39v8.51Zm9.8-2.78c0 1.65-.62 2.92-3.33 2.92-3.43 0-3.62-2-3.62-4.41s.19-4.41 3.62-4.41c2.72 0 3.33 1.27 3.33 2.92h-1.33c0-1.34-.47-2-2-2-2.13 0-2.23 1.15-2.23 3.47s.1 3.47 2.23 3.47c1.57 0 2-.67 2-2Zm2.67-4.82a5.13 5.13 0 0 1 2.29-1 3.84 3.84 0 0 1 .48 0h.67l-.11 1h-.6a4.51 4.51 0 0 0-.52 0 5.36 5.36 0 0 0-2.09.91v6.68H57v-8.5h1Zm11.21 3.33c0 2.43-.19 4.41-3.68 4.41s-3.71-2-3.71-4.41.19-4.41 3.67-4.41 3.73 2 3.73 4.44Zm-6 0c0 2.31.11 3.48 2.28 3.48S68 33.52 68 31.18s-.11-3.47-2.29-3.47-2.23 1.16-2.23 3.5ZM72 37.44c.52.05 1.19.08 2 .08 2.12 0 2.39-.58 2.42-2.84a5.35 5.35 0 0 1-2.39.8c-3.08.06-3.27-1.62-3.27-4.27s.17-4.41 3.13-4.41a5.11 5.11 0 0 1 2.67.93l.13-.77h1.09v7.56c0 3-.67 4-3.45 4a18 18 0 0 1-2.43-.19Zm4.38-8.93a4 4 0 0 0-2.09-.78c-2 0-2.18 1.16-2.18 3.48s.14 3.34 2.18 3.34a5 5 0 0 0 2.09-.71Zm8.9 6.94-.14-.77a4.81 4.81 0 0 1-2.55.94c-3.08.05-3.27-1.71-3.27-4.41s.16-4.41 3.21-4.41a5.12 5.12 0 0 1 2.56.89l.14-.75h1.08v8.51Zm-.27-7a4.62 4.62 0 0 0-2.1-.72c-2 0-2.18 1.16-2.18 3.48s.14 3.47 2.18 3.47a4.43 4.43 0 0 0 2.1-.77Zm4.24-.76a5 5 0 0 1 2.37-.89c1.41-.05 2.15.34 2.5.94a5.06 5.06 0 0 1 2.48-.94c2.88-.08 3.07 1.41 3.07 3.48v5.18h-1.38v-5.1c0-1.77-.12-2.63-2-2.63a3.92 3.92 0 0 0-2 .78 7.32 7.32 0 0 1 .16 1.87v5.1h-1.12v-5.12c0-1.77-.1-2.63-2-2.63a4.37 4.37 0 0 0-1.9.72v7H88v-8.51h1.09Zm12.14-1.82v-1.44h1.41v1.43Zm0 9.59v-8.52h1.38v8.51Zm4.35-7.77a5.73 5.73 0 0 1 2.56-.89c3.07-.08 3.27 1.41 3.27 3.48v5.18h-1.4v-5.1c0-1.77-.13-2.63-2.17-2.63a4.47 4.47 0 0 0-2.09.75v7h-1.39v-8.54h1.09Zm8.52 9.76c.51 0 1.19.08 2 .08 2.12 0 2.39-.58 2.42-2.84a5.33 5.33 0 0 1-2.39.79c-3.08.06-3.27-1.62-3.27-4.26s.16-4.42 3.13-4.42a5.09 5.09 0 0 1 2.66.94L119 27h1v7.55c0 3-.67 4-3.45 4a18 18 0 0 1-2.43-.19Zm4.35-8.94a4.16 4.16 0 0 0-2.09-.77c-2 0-2.18 1.16-2.18 3.48s.13 3.34 2.18 3.34a4.88 4.88 0 0 0 2.09-.72Z"/></svg>
