<svg xmlns="http://www.w3.org/2000/svg" viewBox="0 0 120 60"><path fill="#fff" d="M55.34 33a5.61 5.61 0 0 1-2 2.22 5.61 5.61 0 0 1-5.84 0 5.51 5.51 0 0 1-2-2.22 6.88 6.88 0 0 1 0-6.17 5.72 5.72 0 0 1 2-2.22 5.67 5.67 0 0 1 5.84 0 5.74 5.74 0 0 1 2 2.22 6.8 6.8 0 0 1 0 6.17Zm-1.89-5.15a3.78 3.78 0 0 0-1.26-1.47 3.18 3.18 0 0 0-1.81-.54 3.24 3.24 0 0 0-1.82.53 3.58 3.58 0 0 0-1.24 1.47 4.77 4.77 0 0 0-.45 2.16 4.69 4.69 0 0 0 .45 2 3.58 3.58 0 0 0 1.24 1.47 3.17 3.17 0 0 0 1.82.54 3.12 3.12 0 0 0 1.81-.55A3.78 3.78 0 0 0 53.45 32a5 5 0 0 0 0-4.13Zm11.27-.22a5.27 5.27 0 0 1 .66 2.85v4.54a1 1 0 0 1-.29.74 1.07 1.07 0 0 1-1.44 0 1 1 0 0 1-.29-.74v-4.5a2.52 2.52 0 0 0-.36-1.47 1.53 1.53 0 0 0-1.33-.54 2 2 0 0 0-1.52.57 2 2 0 0 0-.56 1.44v4.54a1 1 0 0 1-.28.74 1.07 1.07 0 0 1-1.44 0 1 1 0 0 1-.29-.74v-7.38a1 1 0 0 1 .29-.74 1 1 0 0 1 1.44 0 1 1 0 0 1 .28.74v.46a4.23 4.23 0 0 1 1.19-1.06 3.06 3.06 0 0 1 1.6-.44 2.58 2.58 0 0 1 2.34 1.03Zm10.37 4.14a1.09 1.09 0 0 1-.71.26h-5.53a2.6 2.6 0 0 0 .93 1.57 2.54 2.54 0 0 0 1.62.57 3.45 3.45 0 0 0 1.08-.13 2.51 2.51 0 0 0 .61-.27l.31-.19a1.18 1.18 0 0 1 .57-.16.83.83 0 0 1 .6.26.81.81 0 0 1 .25.59 1.05 1.05 0 0 1-.47.84 4 4 0 0 1-1.25.66 5.17 5.17 0 0 1-4-.32 4.19 4.19 0 0 1-1.62-1.64 4.87 4.87 0 0 1-.57-2.36 5.16 5.16 0 0 1 .61-2.56 4.29 4.29 0 0 1 1.59-1.7 4.07 4.07 0 0 1 2.11-.58 3.82 3.82 0 0 1 2.08.61 4.58 4.58 0 0 1 2.15 3.89.87.87 0 0 1-.36.7Zm-6.22-1.44h4.39v-.12a1.73 1.73 0 0 0-.69-1.21 2.14 2.14 0 0 0-1.4-.51 2.09 2.09 0 0 0-2.3 1.88ZM84.49 24a1 1 0 0 1 .29.72.9.9 0 0 1-.29.7 1 1 0 0 1-.74.27h-2.63V35a1 1 0 0 1-.31.74 1.17 1.17 0 0 1-.79.29 1.06 1.06 0 0 1-.77-.29 1 1 0 0 1-.31-.74v-9.27h-2.62a1 1 0 0 1-.74-.28.94.94 0 0 1-.29-.71.91.91 0 0 1 .3-.7 1 1 0 0 1 .73-.27h7.43a1 1 0 0 1 .74.23Zm7.61 9.77a4.21 4.21 0 0 1-1.65 1.67 4.73 4.73 0 0 1-4.61 0 4.21 4.21 0 0 1-1.65-1.67 5.26 5.26 0 0 1 0-4.88 4.3 4.3 0 0 1 1.65-1.68 4.73 4.73 0 0 1 4.61 0 4.3 4.3 0 0 1 1.65 1.68 5.26 5.26 0 0 1 0 4.88Zm-1.75-3.93a2.53 2.53 0 0 0-.93-1 2.46 2.46 0 0 0-2.56 0 2.51 2.51 0 0 0-.92 1 3.15 3.15 0 0 0-.35 1.49 3.08 3.08 0 0 0 .35 1.48 2.48 2.48 0 0 0 .92 1 2.46 2.46 0 0 0 2.56 0 2.5 2.5 0 0 0 .93-1 3.2 3.2 0 0 0 .34-1.48 3.27 3.27 0 0 0-.34-1.45Zm11.2-2.94a1 1 0 0 1 .28.74v4.49a4 4 0 0 1-1 2.87 3.78 3.78 0 0 1-2.84 1 3.73 3.73 0 0 1-2.83-1 4 4 0 0 1-1-2.87v-4.45a1 1 0 0 1 .28-.74 1 1 0 0 1 1.44 0 1 1 0 0 1 .29.74v4.49a2.27 2.27 0 0 0 .45 1.54 2.11 2.11 0 0 0 2.73 0 2.22 2.22 0 0 0 .46-1.54v-4.49a1 1 0 0 1 .28-.74 1 1 0 0 1 .72-.3 1 1 0 0 1 .74.3Zm8.46.15a1.35 1.35 0 0 1 .87 1.2 1.08 1.08 0 0 1-.21.66.69.69 0 0 1-.57.28 1.08 1.08 0 0 1-.44-.08 1.94 1.94 0 0 1-.33-.2 1.41 1.41 0 0 0-.31-.21 2 2 0 0 0-.49-.16 3.36 3.36 0 0 0-.53-.07 2.52 2.52 0 0 0-2 .8 3 3 0 0 0-.71 2.06 2.93 2.93 0 0 0 .72 2 2.36 2.36 0 0 0 1.84.81 2.78 2.78 0 0 0 1.23-.21 2.11 2.11 0 0 0 .27-.17 2.08 2.08 0 0 1 .33-.2.82.82 0 0 1 .37-.07.84.84 0 0 1 .66.27 1.05 1.05 0 0 1 .25.7 1 1 0 0 1-.47.77 3.66 3.66 0 0 1-1.24.57 6.32 6.32 0 0 1-1.65.21 4.07 4.07 0 0 1-3.78-2.3 5.33 5.33 0 0 1-.54-2.41 5.2 5.2 0 0 1 .56-2.44 4.18 4.18 0 0 1 1.57-1.68 4.36 4.36 0 0 1 2.28-.6 4.87 4.87 0 0 1 2.31.51Zm9.35.58a5.37 5.37 0 0 1 .64 2.85V35a1 1 0 0 1-.29.74 1 1 0 0 1-1.44 0A1 1 0 0 1 118 35v-4.48a2.6 2.6 0 0 0-.36-1.47 1.41 1.41 0 0 0-1.27-.54 1.93 1.93 0 0 0-1.47.57 2 2 0 0 0-.52 1.44V35a1 1 0 0 1-.29.74 1 1 0 0 1-1.44 0 1 1 0 0 1-.29-.74V24.8a1 1 0 0 1 .29-.74 1 1 0 0 1 1.44 0 1 1 0 0 1 .29.74v3.32a4.08 4.08 0 0 1 1.14-1 2.92 2.92 0 0 1 1.56-.44 2.49 2.49 0 0 1 2.28.99Zm-98.79 7a1.17 1.17 0 0 0-.15 1.64 1.13 1.13 0 0 0 1.61.15 8.51 8.51 0 0 0-5.34-15 8.51 8.51 0 0 0-5.24 15.1 1.13 1.13 0 0 0 1.61-.18 1.17 1.17 0 0 0-.17-1.63c-4.45-3.63-1.93-11 3.8-11s8.22 7.29 3.88 10.97Zm3.48 5.68A12.82 12.82 0 0 0 29.29 30 1.15 1.15 0 1 0 27 30a10.51 10.51 0 0 1-4.29 8.5 1.17 1.17 0 0 0-.26 1.62 1.13 1.13 0 0 0 1.6.24ZM11.9 13.71a1.18 1.18 0 0 0-.77 1.45 1.14 1.14 0 0 0 1.43.78A14.39 14.39 0 0 1 31 29.88a1.15 1.15 0 1 0 2.29 0A16.68 16.68 0 0 0 11.9 13.71Zm12.75 6.35C16.47 13.29 4.08 19.2 4.08 30a12.72 12.72 0 0 0 12.61 12.77 1.17 1.17 0 0 0 0-2.33 10.4 10.4 0 1 1 6.51-18.58 1.13 1.13 0 0 0 1.61-.17 1.17 1.17 0 0 0-.16-1.63ZM1.15 28.9A1.15 1.15 0 0 0 0 30.07 16.84 16.84 0 0 0 16.69 47a16.53 16.53 0 0 0 10.71-4 1.17 1.17 0 0 0 .14-1.64 1.13 1.13 0 0 0-1.61-.14 14.34 14.34 0 0 1-9.24 3.4 14.52 14.52 0 0 1-14.4-14.6 1.15 1.15 0 0 0-1.14-1.12ZM47 39.82a1.14 1.14 0 0 1 .31.82 1.33 1.33 0 0 1-.14.6 1 1 0 0 1-.39.42 1 1 0 0 1-.58.15H45v1.73a.12.12 0 0 1 0 .08.11.11 0 0 1-.09 0 .09.09 0 0 1-.08 0 .12.12 0 0 1 0-.08v-3.92a.09.09 0 0 1 0-.08.11.11 0 0 1 .08 0h1.4a1.05 1.05 0 0 1 .69.28Zm-.17 1.49a1 1 0 0 0 .23-.67.92.92 0 0 0-.23-.65.85.85 0 0 0-.63-.24H45v1.83h1.27a.8.8 0 0 0 .58-.27Zm4.24 2.22a.1.1 0 0 1 0 .09.09.09 0 0 1-.07 0h-.06a.63.63 0 0 1-.25-.3 1.9 1.9 0 0 1-.09-.69.77.77 0 0 0-.26-.67 1 1 0 0 0-.59-.18h-1.39v1.74a.09.09 0 0 1 0 .08.12.12 0 0 1-.08 0 .1.1 0 0 1-.09 0 .12.12 0 0 1 0-.08v-3.9a.12.12 0 0 1 0-.08.11.11 0 0 1 .08 0h1.54a1.26 1.26 0 0 1 .6.13 1 1 0 0 1 .41.39 1 1 0 0 1 .15.55 1.12 1.12 0 0 1-.21.68 1.05 1.05 0 0 1-.54.39.83.83 0 0 1 .46.35 1.13 1.13 0 0 1 .18.65 2.35 2.35 0 0 0 0 .56.53.53 0 0 0 .15.22s.08.03.08.07Zm-1.29-2a1 1 0 0 0 .63-.29.94.94 0 0 0 .25-.68.79.79 0 0 0-.25-.61 1 1 0 0 0-.69-.24h-1.36v1.82Zm4.54 1.9a.11.11 0 0 1 0 .08.12.12 0 0 1 0 .09.13.13 0 0 1-.08 0h-2.19a.09.09 0 0 1-.08 0 .12.12 0 0 1 0-.08v-3.9a.12.12 0 0 1 0-.08.11.11 0 0 1 .08 0h2.21a.13.13 0 0 1 .08 0 .11.11 0 0 1 0 .08.12.12 0 0 1 0 .09.13.13 0 0 1-.08 0h-2.08v1.69H54a.09.09 0 0 1 .08 0 .12.12 0 0 1 0 .08.08.08 0 0 1 0 .08.09.09 0 0 1-.08 0h-1.82v1.78h2.08a.1.1 0 0 1 .08.12Zm4.5-3.92a.13.13 0 0 1 0 .08v3.92a.12.12 0 0 1 0 .08.12.12 0 0 1-.09 0 .14.14 0 0 1-.12-.12V40l-1.51 2.32a.1.1 0 0 1-.08 0 .11.11 0 0 1-.09 0L55.42 40v3.55a.11.11 0 0 1 0 .08.09.09 0 0 1-.08 0 .1.1 0 0 1-.09 0 .11.11 0 0 1 0-.08v-3.93a.16.16 0 0 1 0-.08.13.13 0 0 1 .08 0c.05 0 .09 0 .11.05L57 42l1.62-2.44a.11.11 0 0 1 .11-.05.19.19 0 0 1 .11.03Zm1.34 4.08a.09.09 0 0 1-.08 0 .1.1 0 0 1-.09 0 .12.12 0 0 1 0-.09v-3.9a.12.12 0 0 1 0-.09.11.11 0 0 1 .08 0 .12.12 0 0 1 .09 0 .16.16 0 0 1 0 .09v3.9a.1.1 0 0 1 .02.12Zm4.13-4.08a.09.09 0 0 1 0 .08v2.57a1.43 1.43 0 0 1-.21.76 1.48 1.48 0 0 1-.55.56 1.44 1.44 0 0 1-1.5 0 1.55 1.55 0 0 1-.55-.56 1.43 1.43 0 0 1-.21-.76v-2.54a.12.12 0 0 1 .13-.11.11.11 0 0 1 .08 0 .09.09 0 0 1 0 .08v2.57a1.28 1.28 0 0 0 .17.64 1.32 1.32 0 0 0 .46.48 1.24 1.24 0 0 0 .63.17 1.3 1.3 0 0 0 .64-.17 1.41 1.41 0 0 0 .46-.48 1.28 1.28 0 0 0 .17-.64v-2.54a.09.09 0 0 1 0-.08.12.12 0 0 1 .16 0Zm4.79 0a.13.13 0 0 1 0 .08v3.92a.14.14 0 0 1-.12.12.1.1 0 0 1-.09 0 .12.12 0 0 1 0-.08V40l-1.5 2.32a.11.11 0 0 1-.18 0L65.69 40v3.55a.14.14 0 0 1-.12.12.08.08 0 0 1-.08 0 .09.09 0 0 1 0-.08v-3.97a.12.12 0 0 1 0-.08.1.1 0 0 1 .08 0 .12.12 0 0 1 .11.05L67.29 42l1.62-2.44a.11.11 0 0 1 .11-.05.15.15 0 0 1 .08.03Zm6.31 0a.13.13 0 0 1 0 .08v3.92a.12.12 0 0 1 0 .08.11.11 0 0 1-.09 0 .09.09 0 0 1-.08 0 .12.12 0 0 1 0-.08V40l-1.51 2.32a.09.09 0 0 1-.08 0 .11.11 0 0 1-.09 0L72 40v3.55a.11.11 0 0 1 0 .08.09.09 0 0 1-.08 0 .1.1 0 0 1-.09 0 .11.11 0 0 1 0-.08v-3.93a.16.16 0 0 1 0-.08.13.13 0 0 1 .08 0s.09 0 .11.05L73.6 42l1.62-2.44a.11.11 0 0 1 .11-.05.15.15 0 0 1 .08.03Zm4.5 3.15a1.76 1.76 0 0 1-.69.76 2 2 0 0 1-2 0 1.76 1.76 0 0 1-.69-.76 2.57 2.57 0 0 1 0-2.21 1.76 1.76 0 0 1 .69-.76 2 2 0 0 1 2 0 1.76 1.76 0 0 1 .69.76 2.57 2.57 0 0 1 0 2.21Zm-.21-2.1a1.56 1.56 0 0 0-.6-.67 1.77 1.77 0 0 0-1.78 0 1.56 1.56 0 0 0-.6.67 2.34 2.34 0 0 0 0 2 1.56 1.56 0 0 0 .6.67 1.77 1.77 0 0 0 1.78 0 1.56 1.56 0 0 0 .6-.67 2.12 2.12 0 0 0 .22-1 2.25 2.25 0 0 0-.2-.97Zm4 1.24a1.08 1.08 0 0 1 .22.71 1 1 0 0 1-.33.83 1.3 1.3 0 0 1-.86.29H81.1a.11.11 0 0 1-.08 0 .18.18 0 0 1 0-.09v-3.92a.09.09 0 0 1 0-.08.11.11 0 0 1 .08 0h1.57a1 1 0 0 1 .75.27 1 1 0 0 1 .28.73 1.22 1.22 0 0 1-.16.6.8.8 0 0 1-.46.37 1.07 1.07 0 0 1 .6.32Zm-.44-1.8a.81.81 0 0 0-.6-.21h-1.41v1.67h1.41a.78.78 0 0 0 .59-.24.92.92 0 0 0 .22-.66.76.76 0 0 0-.21-.56Zm.15 3.25a.94.94 0 0 0 0-1.32 1.08 1.08 0 0 0-.71-.22h-1.46v1.76h1.46a1.08 1.08 0 0 0 .71-.27Zm1.53.42a.09.09 0 0 1-.08 0 .1.1 0 0 1-.09 0 .12.12 0 0 1 0-.09v-3.9a.12.12 0 0 1 0-.09.11.11 0 0 1 .08 0 .12.12 0 0 1 .09 0 .18.18 0 0 1 0 .09v3.9a.13.13 0 0 1 0 .04Zm3.5-.16a.12.12 0 0 1 0 .08.1.1 0 0 1 0 .09.11.11 0 0 1-.08 0h-2.15a.09.09 0 0 1-.08 0 .11.11 0 0 1 0-.08v-3.98a.11.11 0 0 1 0-.08.15.15 0 0 1 .18 0 .11.11 0 0 1 0 .08v3.8h2a.09.09 0 0 1 .13.04Zm3 0a.12.12 0 0 1 0 .08.13.13 0 0 1 0 .09.11.11 0 0 1-.08 0h-2.2a.14.14 0 0 1-.12-.12v-3.94a.09.09 0 0 1 0-.08.11.11 0 0 1 .08 0h2.2a.11.11 0 0 1 .08 0 .12.12 0 0 1 0 .08.13.13 0 0 1 0 .09.11.11 0 0 1-.08 0h-1.99v1.69h1.82a.1.1 0 0 1 .08 0 .11.11 0 0 1 0 .08.1.1 0 0 1 0 .08.1.1 0 0 1-.08 0h-1.82v1.78h2.08a.09.09 0 0 1 .08.12Zm5.43-1.81a.09.09 0 0 1 0 .08v1.49a.13.13 0 0 1-.06.11 2 2 0 0 1-.58.28 2.13 2.13 0 0 1-1.73-.17 2 2 0 0 1-.75-.76 2.36 2.36 0 0 1 0-2.19 2.13 2.13 0 0 1 .75-.77 2.37 2.37 0 0 1 1.71-.19 1.55 1.55 0 0 1 .52.24.11.11 0 0 1 .06.1.13.13 0 0 1 0 .09.13.13 0 0 1-.08 0h-.07a2.1 2.1 0 0 0-1-.27 1.9 1.9 0 0 0-1 .24 1.64 1.64 0 0 0-.65.68 2 2 0 0 0-.24 1 1.94 1.94 0 0 0 .24 1 1.7 1.7 0 0 0 .65.68 1.9 1.9 0 0 0 1 .24 1.79 1.79 0 0 0 .55-.08 2.07 2.07 0 0 0 .5-.23v-1.42h-1a.11.11 0 0 1-.08 0 .14.14 0 0 1 0-.09.1.1 0 0 1 .11-.11h1.17a.06.06 0 0 1 .03 0Zm3.95 1.9a.09.09 0 0 1 0 .08.12.12 0 0 1-.09 0h-.07a.13.13 0 0 1 0-.06l-.49-1.22h-2l-.47 1.21a.12.12 0 0 1-.11.08.1.1 0 0 1-.08 0 .08.08 0 0 1 0-.07.06.06 0 0 1 0-.06L99 39.57a.09.09 0 0 1 0-.06h.07a.12.12 0 0 1 .12.08l1.57 3.93a.07.07 0 0 1 .09.03Zm-2.59-1.42H100l-.89-2.23Zm7-2.59a.12.12 0 0 1 0 .08v3.92a.14.14 0 0 1-.12.12.11.11 0 0 1-.09 0 .11.11 0 0 1 0-.08V40l-1.51 2.32a.1.1 0 0 1-.08 0 .09.09 0 0 1-.09 0L101.81 40v3.55a.11.11 0 0 1 0 .08.09.09 0 0 1-.08 0 .1.1 0 0 1-.09 0 .11.11 0 0 1 0-.08v-3.93a.16.16 0 0 1 0-.08.13.13 0 0 1 .08 0s.09 0 .11.05l1.59 2.41 1.58-2.44a.11.11 0 0 1 .11-.05.19.19 0 0 1 .12.03Zm3.54 3.92a.11.11 0 0 1 0 .08.12.12 0 0 1 0 .09.11.11 0 0 1-.08 0h-2.21a.09.09 0 0 1-.08 0 .11.11 0 0 1 0-.08v-3.98a.1.1 0 0 1 .11-.11h2.21a.1.1 0 0 1 .11.11.12.12 0 0 1 0 .09.11.11 0 0 1-.08 0h-2.08v1.69h1.81a.14.14 0 0 1 .12.12.08.08 0 0 1 0 .08.09.09 0 0 1-.08 0h-1.81v1.78h2.08a.1.1 0 0 1 0 .08Zm1.15.11a2.44 2.44 0 0 1-.64-.47.18.18 0 0 1 0-.09.15.15 0 0 1 0-.09.14.14 0 0 1 .09-.05.12.12 0 0 1 .1.06 1.44 1.44 0 0 0 .54.41 1.66 1.66 0 0 0 .66.14 1.18 1.18 0 0 0 .74-.22.67.67 0 0 0 .29-.58.73.73 0 0 0-.15-.47 1.12 1.12 0 0 0-.36-.29 3.82 3.82 0 0 0-.58-.25 5.34 5.34 0 0 1-.63-.27 1 1 0 0 1-.38-.34.94.94 0 0 1-.16-.57 1 1 0 0 1 .15-.53 1.2 1.2 0 0 1 .45-.38 1.79 1.79 0 0 1 1.34 0 1.12 1.12 0 0 1 .49.36.22.22 0 0 1 .06.12.14.14 0 0 1-.05.09.18.18 0 0 1-.09 0 .12.12 0 0 1-.08 0 1.17 1.17 0 0 0-.42-.34 1.32 1.32 0 0 0-.57-.12 1.27 1.27 0 0 0-.74.21.69.69 0 0 0-.29.58.62.62 0 0 0 .14.43.94.94 0 0 0 .36.29 5.14 5.14 0 0 0 .54.23 6.52 6.52 0 0 1 .64.27 1.21 1.21 0 0 1 .41.37 1 1 0 0 1 .17.63 1 1 0 0 1-.15.51 1.14 1.14 0 0 1-.46.37 1.44 1.44 0 0 1-.67.14 1.73 1.73 0 0 1-.73-.2Z"/></svg>
