<svg xmlns="http://www.w3.org/2000/svg" xmlns:xlink="http://www.w3.org/1999/xlink" viewBox="0 0 120 60"><defs><radialGradient id="uuid-6a3001c9-e7c1-447f-a363-976ebc695bc4" cx=".61" cy="46.24" fx=".61" fy="46.24" r=".63" gradientTransform="translate(3.45 3070.01) scale(67.46 -65.88)" gradientUnits="userSpaceOnUse"><stop offset="0" stop-color="#ffa478"/><stop offset=".54" stop-color="#f26522"/><stop offset="1" stop-color="#d3202a"/></radialGradient><radialGradient id="uuid-808361c0-665e-4f8c-b537-18e0c04bd800" cx=".61" cy="46.24" fx=".61" fy="46.24" r=".63" xlink:href="#uuid-6a3001c9-e7c1-447f-a363-976ebc695bc4"/><radialGradient id="uuid-e3e54deb-1399-4590-befe-e2c6e06f34ae" cx=".61" cy="46.24" fx=".61" fy="46.24" r=".63" xlink:href="#uuid-6a3001c9-e7c1-447f-a363-976ebc695bc4"/><radialGradient id="uuid-0c11769e-e93d-4c9b-b760-0e25359a1eb4" cx=".61" cy="46.24" fx=".61" fy="46.24" r=".63" xlink:href="#uuid-6a3001c9-e7c1-447f-a363-976ebc695bc4"/><radialGradient id="uuid-6bb47805-1618-4d40-8cf0-0d918dada823" cx=".61" cy="46.24" fx=".61" fy="46.24" r=".63" xlink:href="#uuid-6a3001c9-e7c1-447f-a363-976ebc695bc4"/><radialGradient id="uuid-29d74fb5-7604-4b1f-9281-a89d9e6481c7" cx=".61" fx=".61" r=".63" xlink:href="#uuid-6a3001c9-e7c1-447f-a363-976ebc695bc4"/><radialGradient id="uuid-5e39df4a-c11e-4775-a6e9-daa73c0332f4" cx=".61" cy="46.24" fx=".61" fy="46.24" r=".63" xlink:href="#uuid-6a3001c9-e7c1-447f-a363-976ebc695bc4"/><radialGradient id="uuid-840925d7-988b-4f89-9c0e-c9f483490bf9" cx=".61" cy="46.24" fx=".61" fy="46.24" r=".63" xlink:href="#uuid-6a3001c9-e7c1-447f-a363-976ebc695bc4"/><radialGradient id="uuid-99c7ce3f-8bf1-4b31-b395-13dab56df8f3" cx=".61" cy="46.24" fx=".61" fy="46.24" r=".63" xlink:href="#uuid-6a3001c9-e7c1-447f-a363-976ebc695bc4"/><radialGradient id="uuid-baaa008e-d62a-4efc-bce9-be51ddffdcc6" cy="46.24" fy="46.24" r=".63" xlink:href="#uuid-6a3001c9-e7c1-447f-a363-976ebc695bc4"/><radialGradient id="uuid-11cf5ff6-a36b-45ed-9a25-9eebfdc43c63" cx=".61" cy="46.24" fx=".61" fy="46.24" r=".63" xlink:href="#uuid-6a3001c9-e7c1-447f-a363-976ebc695bc4"/><radialGradient id="uuid-486b90f5-0dea-42d5-8856-fb39ceeb9db7" cx=".61" cy="46.24" fx=".61" fy="46.24" r=".63" xlink:href="#uuid-6a3001c9-e7c1-447f-a363-976ebc695bc4"/><radialGradient id="uuid-a37dca89-9816-47fb-86f0-81576368eaf7" cx=".61" cy="46.24" fx=".61" fy="46.24" r=".63" xlink:href="#uuid-6a3001c9-e7c1-447f-a363-976ebc695bc4"/><radialGradient id="uuid-7c6f799f-d050-4078-b037-556ddb4c13f5" cx=".61" cy="46.24" fx=".61" fy="46.24" r=".63" xlink:href="#uuid-6a3001c9-e7c1-447f-a363-976ebc695bc4"/><radialGradient id="uuid-8d50ec47-3055-4a89-ac70-957f63b8eeb4" cx=".61" fx=".61" r=".63" xlink:href="#uuid-6a3001c9-e7c1-447f-a363-976ebc695bc4"/><radialGradient id="uuid-3e91a105-c255-4567-8136-b6b582500fa8" cx=".61" fx=".61" r=".63" xlink:href="#uuid-6a3001c9-e7c1-447f-a363-976ebc695bc4"/><radialGradient id="uuid-df1086b0-89d6-4bd5-a2a3-e44e7d5ffe20" cx=".61" fx=".61" r=".63" xlink:href="#uuid-6a3001c9-e7c1-447f-a363-976ebc695bc4"/><radialGradient id="uuid-ccb16473-1643-4190-a122-dc3fe9a00b05" cx=".61" fx=".61" r=".63" xlink:href="#uuid-6a3001c9-e7c1-447f-a363-976ebc695bc4"/><radialGradient id="uuid-89ea8323-4a1c-4543-b8a7-415f7be31951" r=".63" xlink:href="#uuid-6a3001c9-e7c1-447f-a363-976ebc695bc4"/><radialGradient id="uuid-2977ec34-a2bd-493b-9039-fd69e307454b" cx=".61" cy="46.24" fx=".61" fy="46.24" r=".63" xlink:href="#uuid-6a3001c9-e7c1-447f-a363-976ebc695bc4"/><radialGradient id="uuid-6ca16be0-cf0c-4a1d-a6c3-f341b78375fb" cx=".61" cy="46.24" fx=".61" fy="46.24" r=".63" xlink:href="#uuid-6a3001c9-e7c1-447f-a363-976ebc695bc4"/></defs><path d="M109.77,7.68v5.22s-.07,.61,.48,1.15l3.14,2.58s.55,.54,.55-.14v-5.32s-.1-.78,.76-.78h5.03s.62,.1,0-.47l-3.14-2.61s-.38-.34-1.14-.34h-5s-.69,.07-.69,.71Z" fill="#d3202a"/><path d="M110.11,.25V5.78h3.72V3.2s0-.44-.59-.98c-.72-.64-2.58-2.1-2.58-2.1,0,0-.55-.34-.55,.14Zm-7.27,6.75h5.65v3.02h-1.83s-.48,.14-1.24-.44c-.76-.58-2.58-2.2-2.58-2.2,0,0-.17-.14-.17-.24,.03-.14,.17-.14,.17-.14Z" fill="#f26522"/><path d="M34.94,8.88c0-5.02,4.03-8.88,9.03-8.88s9.03,3.86,9.03,8.88-4.03,8.88-9.03,8.88c-5,.03-9.03-3.83-9.03-8.88Zm14.09,0c0-3.05-2.24-5.08-5.06-5.08s-5.06,2.03-5.06,5.08,2.24,5.08,5.06,5.08,5.06-2.03,5.06-5.08Zm19.47-2.68c0,3.25-2.65,5.86-6.06,5.86h-2.62v5.36h-3.96V.34h6.58c3.41,0,6.06,2.61,6.06,5.86Zm-3.96,0c0-1.25-.9-2.2-2.1-2.2h-2.62v4.41h2.62c1.21,0,2.1-.95,2.1-2.2Zm6.44,5.73V.34h3.96V11.56c0,1.29,.62,2.41,2.72,2.41s2.72-1.08,2.72-2.41V.34h3.96V11.9c0,3.66-2.89,5.86-6.68,5.86s-6.68-2.17-6.68-5.83Zm16.02,1.63l3.41-1.97c.62,1.42,1.69,2.37,3.65,2.37s2.34-.75,2.34-1.39c0-1.05-1-1.46-3.58-2.17-2.58-.71-5.1-1.93-5.1-5.19S90.54,.03,93.54,.03s5.1,1.36,6.34,3.86l-3.34,1.93c-.59-1.22-1.41-1.97-3-1.97-1.24,0-1.86,.61-1.86,1.29,0,.78,.41,1.32,3.14,2.14,2.62,.78,5.58,1.69,5.58,5.29,0,3.29-2.69,5.25-6.44,5.25-3.69-.03-5.99-1.76-6.96-4.27Zm-44.72,10.41c0,1.49-1.14,2.64-2.69,2.64h-2.27v3.25h-.65v-8.54h2.93c1.55,0,2.69,1.15,2.69,2.64Zm-.65,0c0-1.19-.86-2.03-2.03-2.03h-2.27v4.07h2.27c1.17,0,2.03-.85,2.03-2.03Zm19.22,5.29v.61h-4.69v-8.54h.65v7.93h4.03Zm13.4-2.24v-5.69h.65v5.69c0,1.39,.86,2.37,2.48,2.37s2.51-.98,2.51-2.37v-5.69h.65v5.69c0,1.8-1.27,2.98-3.17,2.98s-3.14-1.19-3.14-2.98Zm20.05,.98l.55-.34c.31,1.02,1.17,1.73,2.58,1.73s2.17-.75,2.17-1.69c0-1.02-.9-1.42-2.21-1.83-1.45-.47-2.72-.88-2.72-2.34s1.14-2.31,2.62-2.31,2.34,.81,2.76,1.8l-.55,.31c-.31-.78-.96-1.49-2.21-1.49s-1.93,.71-1.93,1.66c0,1.02,.86,1.36,2.1,1.73,1.52,.51,2.86,.98,2.86,2.44s-1.1,2.34-2.83,2.34-2.79-.81-3.2-2Z" fill="#fff"/><path d="M12.05,6.89c-1.73-.51-3.35-.9-4.85-1.13-.81,1.16-1.53,2.45-2.17,3.81-.66,1.38-1.13,2.77-1.5,4.15,1.18,.93,2.54,1.89,4.07,2.79,.55-1.58,1.18-3.24,1.96-4.91,.78-1.66,1.59-3.24,2.48-4.71Z" fill="url(#uuid-6a3001c9-e7c1-447f-a363-976ebc695bc4)"/><path d="M23.92,23.85c-1.33-.23-2.77-.59-4.48-1.1-.84,1.35-1.7,2.6-2.6,3.7,1.47,.31,2.89,.51,4.25,.54,1.04-.93,1.96-1.98,2.83-3.13Z" fill="url(#uuid-808361c0-665e-4f8c-b537-18e0c04bd800)"/><path d="M8,22.72c1.18,.79,2.48,1.5,3.81,2.06,1.33,.59,2.72,1.07,4.13,1.44,.95-1.16,1.85-2.4,2.69-3.75-1.73-.56-3.35-1.21-4.88-1.86-1.53-.68-3.09-1.47-4.65-2.34-.49,1.61-.87,3.1-1.1,4.46Z" fill="url(#uuid-e3e54deb-1399-4590-befe-e2c6e06f34ae)"/><path d="M18.06,2.24c-.09,.08-.17,.17-.26,.25-.12,.11-.2,.23-.32,.34,1.33,.37,2.63,.85,3.87,1.38,1.18,.51,2.37,1.16,3.61,1.92,.03-.28,.06-.54,.09-.79,.09-.76,.12-1.5,.09-2.2-1.65-1.16-3.5-1.95-5.49-2.37-.52,.4-1.07,.9-1.59,1.47Z" fill="url(#uuid-0c11769e-e93d-4c9b-b760-0e25359a1eb4)"/><path d="M26.55,19.36c.61-1.33,1.1-2.68,1.47-4.01-1.18-.93-2.46-1.81-3.81-2.62-.58,1.64-1.21,3.22-1.91,4.74-.69,1.52-1.5,3.05-2.4,4.54,1.56,.48,3.09,.85,4.54,1.07,.78-1.13,1.5-2.37,2.11-3.72Z" fill="url(#uuid-6bb47805-1618-4d40-8cf0-0d918dada823)"/><path d="M29.67,9.99c.46,.51,.9,1.02,1.27,1.52-.09-.34-.17-.68-.29-.99-.26-.82-.61-1.64-1.04-2.4,.06,.62,.09,1.24,.06,1.86Z" fill="url(#uuid-29d74fb5-7604-4b1f-9281-a89d9e6481c7)"/><path d="M23.72,11.49c.49-1.58,.87-3.08,1.1-4.46-1.18-.76-2.48-1.47-3.81-2.06-1.36-.62-2.74-1.1-4.1-1.44-.95,1.16-1.85,2.4-2.69,3.75,1.68,.56,3.29,1.19,4.85,1.86,1.7,.76,3.24,1.52,4.65,2.34Z" fill="url(#uuid-5e39df4a-c11e-4775-a6e9-daa73c0332f4)"/><path d="M28.63,7.03c-.03-.23-.06-.42-.12-.62-.72-.99-1.59-1.86-2.51-2.62,0,.56-.03,1.1-.09,1.66-.03,.4-.09,.82-.17,1.21,1.13,.79,2.17,1.61,3.09,2.48-.03-.73-.09-1.47-.2-2.12Z" fill="url(#uuid-840925d7-988b-4f89-9c0e-c9f483490bf9)"/><path d="M11.3,12.65c-.78,1.66-1.42,3.3-1.94,4.85,1.42,.82,3,1.61,4.74,2.37,1.53,.68,3.15,1.33,4.97,1.89,.87-1.44,1.7-2.99,2.43-4.63,.72-1.55,1.36-3.13,1.94-4.85-1.44-.82-3.03-1.64-4.74-2.4-1.82-.79-3.44-1.41-4.97-1.89-.78,1.35-1.59,2.88-2.43,4.66Z" fill="url(#uuid-99c7ce3f-8bf1-4b31-b395-13dab56df8f3)"/><path d="M28.26,14.45c.32-1.41,.52-2.79,.55-4.15-.95-1.02-2.05-1.92-3.24-2.77-.23,1.27-.61,2.74-1.13,4.35,1.42,.85,2.69,1.72,3.81,2.57Z" fill="url(#uuid-baaa008e-d62a-4efc-bce9-be51ddffdcc6)"/><path d="M21.41,27.86c-.52,.48-1.07,.9-1.62,1.3,.43-.08,.84-.2,1.21-.34,.87-.25,1.7-.62,2.48-1.04-.55,.06-1.07,.08-1.59,.08h-.49Z" fill="url(#uuid-11cf5ff6-a36b-45ed-9a25-9eebfdc43c63)"/><path d="M26.09,24.19c-.17-.03-.32-.03-.49-.06-.26-.03-.49-.06-.75-.11-.72,1.02-1.59,2.03-2.54,3.02,.75-.03,1.47-.08,2.17-.2,.29-.03,.55-.08,.84-.14,.98-.71,1.88-1.52,2.63-2.43h-.14c-.58-.03-1.13-.06-1.7-.08Z" fill="url(#uuid-486b90f5-0dea-42d5-8856-fb39ceeb9db7)"/><path d="M14.79,27.52c.14-.14,.32-.34,.46-.51,.03-.03,.06-.06,.06-.08-1.36-.39-2.66-.85-3.84-1.38-1.27-.56-2.48-1.19-3.61-1.92,0,.03,0,.08-.03,.14-.03,.23-.06,.45-.09,.68-.09,.76-.12,1.52-.09,2.23,1.62,1.16,3.44,1.98,5.37,2.43,.58-.42,1.16-.93,1.76-1.58Z" fill="url(#uuid-a37dca89-9816-47fb-86f0-81576368eaf7)"/><path d="M29.39,16.48c-.09-.08-.17-.17-.26-.25-.12-.11-.23-.2-.35-.31-.38,1.3-.87,2.57-1.42,3.78-.61,1.3-1.24,2.45-1.99,3.53l.14,.03c.23,.03,.46,.06,.69,.08,.58,.06,1.16,.08,1.73,.08,.23,0,.46,0,.69-.03,1.16-1.58,1.96-3.33,2.4-5.25-.55-.56-1.07-1.13-1.65-1.66Z" fill="url(#uuid-7c6f799f-d050-4078-b037-556ddb4c13f5)"/><path d="M30.89,12.9c-.35-.54-.75-1.1-1.27-1.72-.12,1.35-.32,2.62-.64,3.87,.32,.25,.61,.51,.9,.76l.03,.03c.46,.4,.87,.82,1.27,1.27,.17-1.19,.23-2.37,.12-3.56-.14-.23-.26-.45-.4-.65Z" fill="url(#uuid-8d50ec47-3055-4a89-ac70-957f63b8eeb4)"/><path d="M16.24,27.18c-.29,.34-.58,.65-.84,.93-.46,.48-.9,.87-1.27,1.21,.78,.11,1.56,.17,2.34,.17,.43,0,.84-.03,1.27-.06,.29-.17,.49-.28,.69-.39,.64-.4,1.21-.82,1.73-1.24-1.39-.11-2.66-.31-3.93-.62Z" fill="url(#uuid-3e91a105-c255-4567-8136-b6b582500fa8)"/><path d="M2.17,12.62c.35-1.21,.78-2.43,1.36-3.64,.55-1.24,1.21-2.37,1.91-3.41-.35-.03-.64-.08-.95-.11-.75-.08-1.44-.08-2.05-.08-1.18,1.52-1.99,3.27-2.43,5.14,.4,.48,.87,.96,1.42,1.47,.26,.23,.49,.42,.75,.65Z" fill="url(#uuid-df1086b0-89d6-4bd5-a2a3-e44e7d5ffe20)"/><path d="M3.03,4.27c.75-1.04,1.56-1.98,2.4-2.79-.72,0-1.47,.06-2.14,.14-.12,.03-.2,.03-.32,.06-.98,.68-1.88,1.47-2.6,2.34,.49,0,1.01,.03,1.56,.08,.35,.06,.72,.11,1.1,.17Z" fill="url(#uuid-ccb16473-1643-4190-a122-dc3fe9a00b05)"/><path d="M2.25,14.09c-.38-.34-.66-.65-.95-.96-.14,.96-.2,1.95-.09,2.93,.06,.08,.12,.2,.17,.28,.32,.48,.69,.96,1.1,1.44,.06-.99,.23-2,.49-3.08-.26-.2-.49-.42-.72-.62Z" fill="url(#uuid-89ea8323-4a1c-4543-b8a7-415f7be31951)"/><path d="M14.59,1.9c.81,.08,1.65,.23,2.48,.45,.23-.28,.46-.56,.72-.82,.38-.4,.75-.73,1.13-1.04-1.1-.17-2.25-.2-3.41-.06-.09,.06-.2,.11-.29,.17-.43,.28-.87,.59-1.27,.9-1.27-.25-2.51-.4-3.73-.45-1.07,.99-2.08,2.14-3.03,3.41,1.47,.25,3.09,.65,4.77,1.19,.84-1.38,1.73-2.65,2.63-3.75Z" fill="url(#uuid-2977ec34-a2bd-493b-9039-fd69e307454b)"/><path d="M3.53,15.13c-.38,1.55-.58,3.05-.61,4.49,.26,.28,.55,.56,.87,.85,.03,.76,.09,1.52,.2,2.26,.03,.2,.06,.39,.12,.59,.81,1.13,1.73,2.12,2.8,2.96,0-.62,.03-1.27,.09-1.95,.03-.42,.12-.85,.17-1.3-.26-.17-.52-.37-.75-.54,.26-1.41,.66-2.93,1.18-4.57-1.53-.93-2.89-1.86-4.07-2.79Z" fill="url(#uuid-6ca16be0-cf0c-4a1d-a6c3-f341b78375fb)"/></svg>
