<svg xmlns="http://www.w3.org/2000/svg" viewBox="0 0 120 60"><path fill="#5f509d" d="M0 17.45h2.64v2.66H0Z"/><path fill="#2cbce4" d="M3.18 43h2.64v2.7H3.18Z"/><path fill="#ed6f26" d="M25.38 14.24H28v2.66h-2.62Z"/><path fill="#b44e97" d="M19 36.62h2.64v2.67H19Z"/><path fill="#fbb822" d="M44.4 14.24H47v2.66h-2.6Z"/><path fill="#e61d74" d="M38 20.65h2.64v2.67H38Z"/><path fill="#3e81c3" d="M41.22 39.83h2.64v2.66h-2.64Z"/><path fill="#63b985" d="M66.6 27.07h2.64v2.66H66.6Z"/><path fill="#e62e34" d="M66.6 36.62h2.64v2.67H66.6Z"/><path fill="#e94f27" d="M60.24 43h2.64v2.7h-2.64Z"/><path fill="#fff" d="M9.54 33.48h2.64v2.66H9.54Zm0 3.14h2.64v2.67H9.54ZM6.36 17.45H9v2.66H6.36Zm0-3.21H9v2.66H6.36Zm6.3 0h2.64v2.66h-2.64Zm0 19.24h2.64v2.66h-2.64Zm0-16h2.64v2.66h-2.64Zm-3.12-3.24h2.64v2.66H9.54Zm0 3.21h2.64v2.66H9.54Zm3.12 19.17h2.64v2.67h-2.64ZM0 30.27h2.64v2.66H0Zm0-6.41h2.64v2.66H0Zm6.36 9.62H9v2.66H6.36ZM0 20.65h2.64v2.67H0Zm0 6.42h2.64v2.66H0ZM0 43h2.64v2.7H0Zm0-3.21h2.64v2.66H0Zm0-6.35h2.64v2.66H0Zm0 3.14h2.64v2.67H0Zm3.18-22.34h2.64v2.66H3.18Zm0 25.59h2.64v2.66H3.18Zm0-22.38h2.64v2.66H3.18Zm0 3.2h2.64v2.67H3.18Zm3.18 16H9v2.67H6.36ZM3.18 23.86h2.64v2.66H3.18Zm0 12.76h2.64v2.67H3.18Zm0-3.14h2.64v2.66H3.18Zm0-6.41h2.64v2.66H3.18Zm0 3.2h2.64v2.66H3.18ZM19 33.48h2.64v2.66H19Zm6.36-3.21H28v2.66h-2.62Zm0 3.21H28v2.66h-2.62Zm0-16H28v2.66h-2.62Zm0 9.62H28v2.66h-2.62Zm0-3.21H28v2.66h-2.62Zm0-3.21H28v2.67h-2.62Zm-3.18 0h2.64v2.67H22.2Zm0-3.2h2.64v2.66H22.2Zm0-3.21h2.64v2.63H22.2Zm6.36 12.83h2.66v2.66h-2.64Zm0-6.42h2.66v2.67h-2.64Zm0 3.21h2.66v2.66h-2.64Zm0 6.41h2.66v2.66h-2.64Zm-12.72-16h2.64v2.6h-2.62Zm0 3.21h2.64v2.66h-2.62Zm0 16h2.64v2.66h-2.62Zm0 3.14h2.64v2.67h-2.62ZM19 14.24h2.64v2.66H19Zm3.2 19.24h2.64v2.66H22.2Zm0-3.21h2.64v2.66H22.2ZM19 17.45h2.64v2.66H19Zm28.58 22.38h2.64v2.66h-2.64Zm0 3.21h2.64v2.66h-2.64ZM44.4 20.65H47v2.67h-2.6Zm0-3.2H47v2.66h-2.6Zm6.36-3.21h2.64v2.66h-2.64Zm0 3.21h2.64v2.66h-2.64Zm0 22.38h2.64v2.66h-2.64Zm-3.18-25.59h2.64v2.66h-2.64Zm0 3.21h2.64v2.66h-2.64ZM50.76 43h2.64v2.7h-2.64ZM38 30.27h2.64v2.66H38Zm0-6.41h2.64v2.66H38Zm0 3.21h2.64v2.66H38Zm0 6.41h2.64v2.66H38Zm0 3.14h2.64v2.67H38Zm3.18-19.17h2.64v2.66h-2.6Zm0 3.2h2.64v2.67h-2.6Zm3.22 19.18H47v2.66h-2.6Zm0-3.21H47v2.67h-2.6Zm0 6.42H47v2.66h-2.6Zm-3.18-19.18h2.64v2.66h-2.64Zm0 12.76h2.64v2.67h-2.64Zm0-3.14h2.64v2.66h-2.64Zm0-6.41h2.64v2.66h-2.64Zm0 3.2h2.64v2.66h-2.64Zm22.2 0h2.64v2.66h-2.64Zm0 3.21h2.64v2.66h-2.64Zm0-16h2.64v2.66h-2.64Zm0 9.62h2.64v2.66h-2.64Zm0-6.42h2.64v2.67h-2.64Zm0 16h2.64v2.67h-2.64Zm0 3.21h2.64v2.66h-2.64Zm-3.18-19.24h2.64v2.67h-2.64Zm0-3.2h2.64v2.66h-2.64ZM53.94 43h2.64v2.7h-2.64ZM66.6 30.27h2.64v2.66H66.6Zm0 3.21h2.64v2.66H66.6ZM53.94 14.24h2.64v2.66h-2.64Zm0 3.21h2.64v2.66h-2.64Zm3.12 22.38h2.64v2.66h-2.64Zm-3.12-12.76h2.64v2.66h-2.64Zm3.12 16h2.64v2.63h-2.64Zm-3.12-3.21h2.64v2.66h-2.64Zm6.3-12.76h2.64v2.66h-2.64Zm-6.3 3.2h2.64v2.66h-2.64Zm3.12-16h2.64v2.6h-2.64Zm3.18 22.38h2.64v2.67h-2.64Zm0 3.21h2.64v2.66h-2.64Zm0-9.56h2.64v2.66h-2.64Zm-3.18-12.88h2.64v2.66h-2.64Zm0 12.82h2.64v2.66h-2.64Zm0-3.2h2.64v2.66h-2.64ZM118 14h-3.84v1.81h2v6.72H118v-6.72h2V14Zm-5.34 1.81V14h-6.06v8.53h6.06v-1.82h-4.2V19.2h3.18v-1.81h-3.18v-1.58Zm-23.76-.72V14h-3.76v1.09h-1.26v6.35h1.26v1.15h3.72v-1.15h1v-6.35Zm-.78 5.69h-2.5v-5h2.46Zm-6.66-5.69V14H76.2v8.53H78v-3.21h3.42v-1h.9v-3.2Zm-.9 2.42H78v-1.7h2.52Zm24.54-.3V14h-1.8v3.21h-2.52V14h-1.8v8.53h1.8v-3.21h2.52v3.21h1.8v-3.21h-1v-2.11Zm-7.62 0v-2.12h-1V14h-3.84v1.09h-1.26v6.35h1.26v1.09h3.78v-1.09h1v-2.06h-1.8v1.33h-2.44v-4.9h2.46v1.4Zm5.52 20.2h-3.88v1.81h2v6.72H103v-6.72h2v-1.81ZM89 38.5v-1.09h-3.8v1.09h-1.26v6.35h1.26V46h3.72v-1.15h1V38.5Zm-.78 5.69h-2.54v-4.9h2.46Zm-5.82-5v-1.78h-4.8v1.15h-1.46v3.15h1.38v.9h3v1.51h-4v1.82h4.78v-1.09h1v-3.14h-1v-.91h-3.36v-1.58Zm15.24 0v-1.78H91.5v8.53h1.8v-3.33h3.24V40.8H93.3v-1.58Zm8.34-11.67v-1.78h-6v8.52h6v-1.81h-4.2v-1.57h3.24v-1.82h-3.32v-1.51Zm7.74 0v-1.78h-4.8v1.14h-1.38V30h1.38v.91h3v1.51h-4v1.87h4.74v-1.11h1V30h-1v-.91h-3.36v-1.54Zm-24.78-.73v-1.05h-4v1.08h-1.18v7.44h1.8V32h2.58v2.29h1.8v-7.47Zm-.72 3.33h-2.6v-2.6h2.52Zm-8.82-1.27v1.85h1v1.75h-2.46v-4.9h3.48v-1.81h-4v1h-1.28v6.36h1.26v1.14h3.78v-1.12h1v-4.24Zm18.4-3.11v1h-1.26v1.09h-.84v1.09h-1.56v-1.07h-.84v-1.09H92v-1h-.5v8.52h1.8v-3.2h1.32v1.09h.54v-1.11h1.38v3.2h1.8v-8.52Z"/></svg>
