<svg xmlns="http://www.w3.org/2000/svg" viewBox="0 0 120 60"><path id="uuid-b1d301cc-27db-4036-9b3e-7bedd698bb33" d="M85.16,25.79c2.85,0,5.71,2.18,5.71,6.1s-2.85,6.11-5.71,6.11-5.71-2.2-5.71-6.11,2.85-6.1,5.71-6.1Zm30.9,0c2.56,0,3.59,1.64,3.85,2.91l-1.41,.51c-.13-.84-.82-2-2.4-2-1.28,0-2.2,.86-2.2,1.95,0,.84,.5,1.49,1.46,1.7l1.7,.38c1.89,.43,2.95,1.65,2.95,3.29,0,1.82-1.51,3.47-3.93,3.47-2.74,0-4.04-1.82-4.25-3.49l1.51-.5c.11,1.31,1.01,2.51,2.72,2.51,1.57,0,2.34-.84,2.34-1.87,0-.84-.56-1.57-1.7-1.82l-1.62-.36c-1.62-.36-2.77-1.45-2.77-3.21s1.65-3.49,3.75-3.49Zm-51.5,0c2.56,0,3.59,1.64,3.85,2.91l-1.41,.51c-.13-.84-.82-2-2.4-2-1.28,0-2.2,.86-2.2,1.95,0,.84,.5,1.49,1.46,1.7l1.7,.38c1.89,.43,2.95,1.65,2.95,3.29,0,1.82-1.51,3.47-3.93,3.47-2.74,0-4.04-1.82-4.25-3.49l1.51-.5c.11,1.31,1.01,2.51,2.72,2.51,1.57,0,2.34-.84,2.34-1.87,0-.84-.56-1.57-1.7-1.82l-1.62-.36c-1.62-.36-2.77-1.45-2.77-3.21s1.65-3.49,3.75-3.49Zm-6.15,0v1.5h-5.34v3.6h4.84v1.52h-4.84v3.59h5.34v1.5h-6.91v-11.72h6.91Zm52.29,0v1.5h-3.8v10.21h-1.57v-10.21h-3.8v-1.5h9.17Zm-35.93,0c2.1,0,3.51,1.5,3.51,3.47s-1.41,3.45-3.51,3.45h-2.56v4.79h-1.57v-11.71h4.13Zm22.22,0c2.15,0,3.48,1.55,3.48,3.49,0,1.69-1.04,2.99-2.76,3.32l2.71,4.91h-1.83l-2.6-4.79h-1.7v4.79h-1.59v-11.71h4.28Zm-11.82,1.49c-2.12,0-4.1,1.55-4.1,4.61s1.99,4.63,4.1,4.63,4.1-1.57,4.1-4.63-1.99-4.61-4.1-4.61Zm-10.69-.03h-2.28v4.01h2.28c1.36,0,2.2-.78,2.2-1.98s-.83-2.03-2.2-2.03Zm22.22,0h-2.4v4.01h2.4c1.28,0,2.15-.78,2.15-1.98s-.87-2.03-2.15-2.03Zm2.12-25.73v15.39h7.5v4.56h-12.14V1.52h4.64Zm21.12,0V5.94h-7.91v3.28h7.91v4.43h-7.91v3.39h7.91v4.43h-12.52V1.52h12.52ZM7.35,1.52c4.53,0,7.42,3.31,7.42,7.3s-2.86,7.41-7.45,7.41h-2.68v5.25H0V1.52H7.35Zm13.5,0V21.47h-4.67V1.52h4.67Zm6.15,0l8.19,11.94V1.52h4.59V21.47h-4.59l-8.51-12.75v12.75h-4.61V1.52h4.93Zm19.13,0l8.19,11.94V1.52h4.59V14.54l-2.98,6.47-.21,.46h-1.39l-8.51-12.75v12.75h-4.61V1.52h4.93Zm38.09-.76c3.74,0,6.89,1.97,8.62,4.92h0l-4.06,2.65c-.87-1.78-2.41-2.9-4.53-2.9-3.08,0-5.22,2.49-5.22,5.58s2.09,5.52,5.17,5.52c2.31,0,3.9-1.37,4.69-3.25h0l4.27,2.35c-1.64,3.31-4.8,5.63-8.93,5.63-2.43,0-4.52-.76-6.15-2.03h0l-3.76-8.16s0-.03,0-.05c0-5.82,4.21-10.25,9.91-10.25Zm-16.72-.76l9.78,21.21h-5.4l-.97-2.18h-7.15l-.97,2.18h-5.4L67.16,0h.33Zm-.16,10.99l-1.74,3.91h3.48l-1.74-3.91ZM7.16,5.86h-2.52v5.93h2.52c1.67,0,2.92-1.17,2.92-2.95s-1.24-2.98-2.92-2.98h0Z" fill="#061c49" fill-rule="evenodd"/><polygon id="uuid-14ae0e2e-a39b-4ec8-a359-ffd58b656f42" points=".1 29.93 46.8 29.93 48.85 25.52 .1 25.52 .1 29.93" fill="#f50" fill-rule="evenodd"/></svg>
