<svg xmlns="http://www.w3.org/2000/svg" viewBox="0 0 120 60"><path d="M79.85,25.88c3.29,0,6.57,2.52,6.57,7.05s-3.29,7.07-6.57,7.07-6.57-2.54-6.57-7.07,3.29-7.05,6.57-7.05Zm35.6,0c2.95,0,4.14,1.89,4.43,3.36l-1.63,.59c-.15-.97-.94-2.31-2.77-2.31-1.48,0-2.53,.99-2.53,2.26,0,.97,.57,1.72,1.68,1.97l1.96,.44c2.18,.5,3.4,1.91,3.4,3.8,0,2.1-1.74,4.01-4.52,4.01-3.16,0-4.65-2.1-4.89-4.03l1.74-.57c.13,1.51,1.16,2.9,3.14,2.9,1.81,0,2.7-.97,2.7-2.16,0-.97-.65-1.82-1.96-2.1l-1.87-.42c-1.87-.42-3.19-1.68-3.19-3.71s1.9-4.03,4.32-4.03Zm-59.35,0c2.95,0,4.14,1.89,4.43,3.36l-1.63,.59c-.15-.97-.94-2.31-2.77-2.31-1.48,0-2.53,.99-2.53,2.26,0,.97,.57,1.72,1.68,1.97l1.96,.44c2.18,.5,3.4,1.91,3.4,3.8,0,2.1-1.74,4.01-4.52,4.01-3.16,0-4.65-2.1-4.89-4.03l1.74-.57c.13,1.51,1.16,2.9,3.14,2.9,1.81,0,2.7-.97,2.7-2.16,0-.97-.65-1.82-1.96-2.1l-1.87-.42c-1.87-.42-3.19-1.68-3.19-3.71s1.9-4.03,4.32-4.03Zm53.17,0v1.74h-4.38v11.81h-1.81v-11.81h-4.38v-1.74h10.56Zm-41.41,0c2.42,0,4.04,1.74,4.04,4.01s-1.63,3.99-4.04,3.99h-2.95v5.54h-1.81v-13.55h4.76Zm25.6,0c2.47,0,4.01,1.8,4.01,4.03,0,1.95-1.2,3.46-3.18,3.84l3.12,5.67h-2.11l-2.99-5.54h-1.96v5.54h-1.83v-13.55h4.93Zm-13.62,1.72c-2.44,0-4.73,1.8-4.73,5.33s2.29,5.35,4.73,5.35,4.73-1.81,4.73-5.35-2.29-5.33-4.73-5.33Zm-12.32-.04h-2.62v4.64h2.62c1.57,0,2.53-.9,2.53-2.29s-.96-2.35-2.53-2.35Zm25.6,0h-2.77v4.64h2.77c1.48,0,2.47-.9,2.47-2.29s-1-2.35-2.47-2.35ZM98.81,1.52v15.44h7.5v4.58h-12.14V1.52h4.64Zm21.12,0V5.97h-7.91v3.29h7.91v4.44h-7.91v3.4h7.91v4.44h-12.52V1.52h12.52ZM7.35,1.52c4.53,0,7.42,3.32,7.42,7.32s-2.86,7.43-7.45,7.43h-2.68v5.26H0V1.52H7.35Zm13.5,0V21.54h-4.67V1.52h4.67Zm6.15,0l8.19,11.98V1.52h4.59V21.54h-4.59l-8.51-12.79v12.79h-4.61V1.52h4.93Zm19.13,0l8.19,11.98V1.52h4.59V14.59l-2.98,6.49-.21,.46h-1.39l-8.51-12.79v12.79h-4.61V1.52h4.93Zm38.09-.76c3.74,0,6.89,1.97,8.62,4.94h0l-4.06,2.66c-.87-1.78-2.41-2.91-4.53-2.91-3.08,0-5.22,2.5-5.22,5.6s2.09,5.54,5.17,5.54c2.31,0,3.9-1.37,4.69-3.26h0l4.27,2.36c-1.64,3.32-4.8,5.65-8.93,5.65-2.43,0-4.52-.76-6.15-2.04h0l-3.76-8.19s0-.03,0-.05c0-5.84,4.21-10.28,9.91-10.28Zm-16.72-.76l9.78,21.28h-5.4l-.97-2.19h-7.15l-.97,2.19h-5.4L67.16,0h.33Zm-.16,11.03l-1.74,3.93h3.48l-1.74-3.93ZM7.16,5.88h-2.52v5.95h2.52c1.67,0,2.92-1.18,2.92-2.96s-1.24-2.99-2.92-2.99h0Z" fill="#061c49" fill-rule="evenodd"/><polygon id="uuid-b5100e64-142b-4905-bbe9-c4f84e86cc13" points=".1 30.03 46.8 30.03 48.85 25.61 .1 25.61 .1 30.03" fill="#f50" fill-rule="evenodd"/></svg>
