<svg xmlns="http://www.w3.org/2000/svg" viewBox="0 0 120 60"><path fill="#fff" d="M62.15 26.84c.66-.43 1.28-1 2-1.33 1.43 6.1 3 12.18 4.39 18.29-.75.09-1.51.22-2.27.31Q64.71 37.54 63.15 31l-.08.12c-1 4.32-2 8.66-3 13-.81 0-1.66-.2-2.49-.28 1.42-5.5 2.86-10.94 4.26-16.39.07-.22.08-.45.31-.61Zm6.49-.76c.79-.18 1.57-.38 2.35-.57 1.23 2.86 2.47 5.7 3.69 8.56 1.47-2.82 2.81-5.72 4.24-8.56.8.19 1.59.39 2.39.57-3 6.13-6.14 12.22-9.22 18.33-.74-.27-1.49-.49-2.22-.79 1.14-2.23 2.25-4.48 3.4-6.71-1.53-3.62-3.1-7.21-4.63-10.83Zm15 .8a18.52 18.52 0 0 1 4.07-1.42c.3.54.62 1.08.92 1.62-1 .33-2.05.54-3 1a2.7 2.7 0 0 0-1.69 2.09 3.17 3.17 0 0 0 .52 1.45l3.78 6.36c1.11 1.92.19 3.78-1.55 4.86a15 15 0 0 1-4.17 1.46l-.95-1.65c1-.28 2-.44 2.93-.79 1.45-.59 2.25-2 1.36-3.41l-3.75-6.27a3.54 3.54 0 0 1-.57-2.65 4.47 4.47 0 0 1 2.09-2.65Zm19.66-.07c.65-.42 1.24-.94 1.92-1.3 1.46 6.1 3 12.18 4.41 18.29-.76.09-1.51.22-2.27.31-1-4.39-2.08-8.77-3.11-13.16-1.11 4.36-2 8.78-3.06 13.15-.83-.08-1.65-.21-2.48-.31q2.08-8.1 4.2-16.19c.09-.28.09-.6.38-.79ZM39.63 26h3.81c3 .11 4.48 1.39 4.65 4.5.08 2.06 0 5-2.28 5.74a12 12 0 0 1-3.83.34v7.16h-2.31V25.97M42 27.83v7.08a4.87 4.87 0 0 0 2.82-.52c.82-.72.82-1.92.86-2.94a4.14 4.14 0 0 0-.79-3 4.11 4.11 0 0 0-2.89-.62ZM49.6 26H52v16h3.92c.19-.05.25.18.32.3l.7 1.48H49.6V26Zm41.6 0h6.51c-.3.6-.62 1.19-.94 1.79h-1.7v16H92.7v-16h-2.35c.25-.58.56-1.16.85-1.79Zm20 0h4.07c3.27.15 4.42 1.87 4.49 5a6.83 6.83 0 0 1-1 4.18 4.09 4.09 0 0 1-2 1.22c1 2.38 2.16 4.72 3.25 7.08l-2 .55q-2.06-4.63-4.1-9.28a3.58 3.58 0 0 0 2.56-.61 4.39 4.39 0 0 0 .76-3 4 4 0 0 0-.88-2.82 4.21 4.21 0 0 0-2.81-.56v16h-2.34c-.06-5.9-.05-11.82-.05-17.76ZM60.83 41.1h4.57c-.75.75-1.52 1.48-2.28 2.23-.76-.75-1.55-1.47-2.29-2.23Zm41.09 0h4.56c-.73.76-1.51 1.48-2.26 2.23-.77-.74-1.55-1.48-2.3-2.23Z"/><path fill="#fecb3c" d="M0 21.81a1 1 0 0 1 .48-.08l15.81.91c.27 0 .6 0 .8.19-.38 1-.81 2-1.21 3-2.65-.11-5.32 0-8-.05-.44 0-.87.14-1.32.14A4.71 4.71 0 0 0 5 26c-1.69-1.34-3.36-2.63-5-4Zm25.11 1.73v-.44c4.39.3 8.79.51 13.18.8a.22.22 0 0 1 .09.43c-1 .71-2 1.4-3 2.1a27.9 27.9 0 0 0-3.17-.09 8 8 0 0 1-3 0c.48-.48 1-.93 1.46-1.42.13-.09 0-.41-.17-.34-1.67.17-3.33.41-5 .59l-.07-.27-.08-.29-.18-.7ZM6.59 25.87c.45 0 .88-.12 1.32-.14 2.65 0 5.32-.06 8 .05a4.67 4.67 0 0 1-.23.51 1.44 1.44 0 0 1-.58.13c-1.67.23-3.34.43-5 .67-.32 0-.18.45.06.5-.9.32-1.89-.13-2.77.26L5 26a4.71 4.71 0 0 1 1.59-.13Zm20.92 2.19c.57-.58 1.17-1.12 1.75-1.69a8 8 0 0 0 3 0 27.9 27.9 0 0 1 3.17.09l-4.78 3.36a16.46 16.46 0 0 0-2.72-.05 9.93 9.93 0 0 1-.42-1.71Zm-17.39-.47c1.21.71 2.4 1.45 3.6 2.17a1.15 1.15 0 0 1-.55.14c-1.06 0-2.12-.06-3.17 0-.89-.69-1.77-1.39-2.65-2.09.88-.35 1.87.1 2.77-.22Zm3.6 2.17 5 3a1.36 1.36 0 0 1-.52.12h-3.72c-.19 0-.32.11-.44.23-1.34-1.06-2.69-2.11-4-3.18 1.05-.1 2.11 0 3.17 0a1.15 1.15 0 0 0 .51-.17Zm14.17 0a16.46 16.46 0 0 1 2.72.05c-.7.49-1.38 1-2.1 1.47l-.22-.07c-.17-.49-.29-.99-.4-1.47Zm-9.16 3c2.67 1.61 5.32 3.22 8 4.82l.15.09.34.22H27.43a2.71 2.71 0 0 0 .35.24h.05l.13.06c.31.17.61.37.92.54l.14.07a12.91 12.91 0 0 1 .38 1.35c.49 1.92 1 3.83 1.49 5.76l-.22.16a11.51 11.51 0 0 1-1.19-.89L14 33.13c.12-.12.25-.26.44-.23h3.73a1.36 1.36 0 0 0 .56-.12Z"/><path fill="#544898" d="M22.23 13.5h.21a1.36 1.36 0 0 1 .17.39l.84 3.23a10 10 0 0 1-1.53-.35c-.32-.08-.72-.06-.94-.36.43-.96.79-1.96 1.25-2.91Zm-2 4.83.77-1.92c.22.3.62.28.94.36a10 10 0 0 0 1.53.35l.6 2.31a2.46 2.46 0 0 1-.7-.21 15.16 15.16 0 0 0-3.18-.89Zm0 0a15.16 15.16 0 0 1 3.16.89 2.46 2.46 0 0 0 .7.21c.35 1.37.73 2.73 1.06 4.11l.11.4a10.51 10.51 0 0 1-1.13-.94A9 9 0 0 0 19 21.23c.38-.97.78-1.93 1.19-2.9Zm-2.31 5.55c.36-.88.73-1.77 1.1-2.65A9 9 0 0 1 24.13 23a10.51 10.51 0 0 0 1.09.91l.18.7.08.29q1 4 2.06 7.92c-.35.24-.39.71-.57 1.07a5.37 5.37 0 0 1-1.17 1.76c-1.63-4.48-3.24-9-4.87-13.43a.22.22 0 0 0-.4-.1c-.16.63-.24 1.28-.37 1.91a17.24 17.24 0 0 0-2.28-.15Zm-.94 2.24c.32-.75.62-1.49.94-2.24a17.24 17.24 0 0 1 2.28.18c-.1.59-.2 1.17-.31 1.75a8.52 8.52 0 0 0-1.75 0c-.43.05-.81.19-1.2.31Zm0 0c.39-.11.77-.26 1.16-.33a8.52 8.52 0 0 1 1.75 0c-.41 2.3-.83 4.59-1.23 6.89l.11.08-3.64-2.2Zm10 7.8c.18-.36.22-.83.57-1.07.25.94.49 1.88.74 2.82a9.43 9.43 0 0 1-1.56 1.93l-.28-.17c-.22-.58-.43-1.17-.64-1.75A5.37 5.37 0 0 0 27 33.92ZM14 33.12l4 3.12c-.1.6-.21 1.19-.31 1.78a6.31 6.31 0 0 1-2.5-.82A13.41 13.41 0 0 1 13 35.64Zm-2.18 5.24L13 35.64a13.41 13.41 0 0 0 2.19 1.56 6.31 6.31 0 0 0 2.5.82c-.13.69-.25 1.38-.38 2.07l-.92.7a5.63 5.63 0 0 0-1.25-.5 12.26 12.26 0 0 1-3.29-1.93Zm14.87-.76a9.43 9.43 0 0 0 1.56-1.93c.27 1.12.61 2.22.84 3.35L29 39c-.31-.17-.61-.37-.92-.54l-.13-.06h-.05a2.71 2.71 0 0 1-.35-.24H27.34l-.34-.22Zm-14.87.76a12.26 12.26 0 0 0 3.27 1.93 5.63 5.63 0 0 1 1.25.5L13 43.34c-.58-.43-1.24-.72-1.84-1.12a3.68 3.68 0 0 0-.76-.4Zm-1.44 3.46a3.68 3.68 0 0 1 .76.4c.6.4 1.26.69 1.84 1.12l-1.46 1.11c-.58-.39-1.21-.71-1.76-1.14Zm-.62 1.49c.55.43 1.18.75 1.76 1.14-.9.68-1.79 1.38-2.7 2h-.14a1.51 1.51 0 0 0-.11-.22c.37-.96.82-1.93 1.22-2.92Z"/></svg>
