<svg xmlns="http://www.w3.org/2000/svg" viewBox="0 0 120 60"><path fill="#0c7dbb" d="M111 39H4.74C2.12 39 .79 37.66.26 36.12a5 5 0 0 1-.07-2.93l2-7.09c.52-1.91 2.16-5.1 6.18-5.1h106.8c3.69 0 5.3 2.54 4.71 5.37-.41 2.05-2.09 7.48-2.09 7.48C117.14 36.9 114.6 39 111 39Z"/><path fill="#010101" d="M95.83 46.5H67.56c-4.26 0-8.35-3.91-7.78-8.14s3.16-11.58 4.57-15.9c1.68-5.17 6.76-9 11-9h29.29a7.73 7.73 0 0 1 7.52 9.86c-1.35 4.36-3.53 11.25-4.86 15.25s-7.23 7.93-11.47 7.93Z"/><path fill="#e52522" d="M105.11 16.24h-6.37A10.12 10.12 0 0 0 89.09 23l-3.25 10.31c-3.63 9 1 10.47 4.2 10.45h5.32c3.93 0 8.26-2.85 9.4-6.49l4.43-14.11c1.19-3.27-.76-6.92-4.08-6.92ZM98 37h-6.22l4.3-13.69h6.18Zm-23.78-3.44h3.42L76.54 37h-6.68l.92-2.91.16-.51 2.2-6.81 1.08-3.42H87l.07-.21 1.86-6.51H76.62C72 16.59 68.2 20.11 67.38 23l-3.26 10.31c-4.07 9.59 1.29 10.45 4.2 10.45h5.33a9.65 9.65 0 0 0 9.4-6.7l3-10.29h-9.66Z"/><path fill="#fff" d="m54.19 35.46 1.41-4.94H53l-1.43 4.94h-2.89l1.58-5.14A4 4 0 0 1 54 27.71h2.69a2 2 0 0 1 1.9 2.71l-1.55 5Zm-3.46-7.4h-3.79l1.17-3.28h3.72ZM41.94 30h-2.52l1.7-5.47h-2.89l-1.76 5.65c-.33 1.46.41 2.71 1.91 2.71l-.8 2.58h2.82l.82-2.58a4 4 0 0 0 3.57-2.58l1.82-5.78H43.8Zm-7.54-5.48h-2.68a3.92 3.92 0 0 0-3.72 2.6l-2.72 8.36h2.86l.88-2.7h2.54l-.75 2.68h2.76l2.77-8.26a2 2 0 0 0-1.94-2.68ZM32.46 30h-2.71l.92-2.71h2.67Zm-13.2-5.47-3.48 10.93h8.36L25.92 30h-2.81l-.86 2.71h-2.6l2.54-8.18Zm-3.89 0H10l-3.52 11h2.83l.88-2.7h2.52a3.91 3.91 0 0 0 3.67-2.56c.32-.85 1-2.94 1-2.94a2 2 0 0 0-2.01-2.81ZM13.63 30H11l.92-2.71h2.66Z"/></svg>
