<svg xmlns="http://www.w3.org/2000/svg" viewBox="0 0 120 60"><path d="M27.5,26.34a.17.17,0,0,0-.05-.14C26.31,23.33,22,22.46,17,23.77l-.82-.52a15.07,15.07,0,0,1,7-1.5c3.07.24,4.57,2,4.39,4.59m-4.46,6c-3.21,4.18-9,7.08-13,6.78S5.54,35.2,8.74,31c.06-.09.14-.18.2-.26V36a1.48,1.48,0,0,0,1.32,1.6,1.54,1.54,0,0,0,.84-.18l11.81-7.35A1.5,1.5,0,0,0,23.3,28a1.29,1.29,0,0,0-.44-.43l-4.79-2.83a9.81,9.81,0,0,1,3.64-.49c3.95.3,4.54,3.93,1.34,8.09m-15,9c-3.63-.27-5.07-2.7-4.13-6.07a4.06,4.06,0,0,0,.28,1.58c1.42,3.56,7.77,4,14.2,1.09l.39-.19C15.16,40.2,11.14,41.62,8,41.38m4.2-18.61,7.93,5.11a1,1,0,0,1,.31,1.42,1.1,1.1,0,0,1-.28.29l-8,5a1,1,0,0,1-1.45-1l-.05-9.91a1,1,0,0,1,1-1.06,1.14,1.14,0,0,1,.54.14M30.54,24.6c-1.65-4.16-8.55-5.08-16-2.38L11.19,20.1a1.52,1.52,0,0,0-2.27,1.35v3.44C2.51,28.84-1.23,34.51.37,38.51c1.84,4.61,10.08,5.24,18.42,1.4S32.38,29.23,30.54,24.6m6.63,6-.72,2.7c-.11.42-.19.79-.25,1.12a3.57,3.57,0,0,0-.1.73.91.91,0,0,0,.24.68.86.86,0,0,0,.66.24,1.89,1.89,0,0,0,1.34-.73,8.31,8.31,0,0,0,1.33-2.1,26.52,26.52,0,0,0,1.24-3.47,11.23,11.23,0,0,0,.46-2.7A2,2,0,0,0,41.1,26a.83.83,0,0,0-.66-.43,2.19,2.19,0,0,0-1.78,1.29,14,14,0,0,0-1.46,3.8m-4.54-6.3c1.11-.08,2.17-.21,3.19-.34s2-.29,2.93-.48L38,26.42A10,10,0,0,1,40.26,24a3.65,3.65,0,0,1,2.22-.77,3,3,0,0,1,2.45,1,4.46,4.46,0,0,1,.86,2.92,10.43,10.43,0,0,1-.59,3.37,13.83,13.83,0,0,1-1.65,3.28,9.64,9.64,0,0,1-2.61,2.64,5.44,5.44,0,0,1-2.95.87,3.49,3.49,0,0,1-2.22-.76L35,39.68a2.85,2.85,0,0,0-.12.58,2.93,2.93,0,0,0,0,.59.89.89,0,0,0,.32.8,3,3,0,0,0,1.34.29v.74H28.89v-.77h.22a1.37,1.37,0,0,0,1.05-.38,5,5,0,0,0,.73-2L33.9,27a4.62,4.62,0,0,0,.13-.6,3.44,3.44,0,0,0,0-.45.79.79,0,0,0-.3-.67,2.09,2.09,0,0,0-1.13-.2Zm13.87-6.91c1.13-.1,2.21-.23,3.26-.37s2-.33,3-.55L48.6,33.31a2.26,2.26,0,0,1-.09.35,1.63,1.63,0,0,0-.08.44.83.83,0,0,0,.11.46.38.38,0,0,0,.34.16.74.74,0,0,0,.51-.31,13.63,13.63,0,0,0,1.12-1.68l.67.52a12.29,12.29,0,0,1-2.39,3.11,3.65,3.65,0,0,1-2.37,1,2.16,2.16,0,0,1-1.68-.62,2.52,2.52,0,0,1-.59-1.79,22.38,22.38,0,0,1,.6-3l0-.16,2.76-10.94a2.8,2.8,0,0,1,.11-.45,8,8,0,0,0,.25-1.38.66.66,0,0,0-.28-.62,1.51,1.51,0,0,0-.86-.19h-.24Zm13,8.7a1.7,1.7,0,0,0-.22-1,.78.78,0,0,0-.67-.35,1.55,1.55,0,0,0-1.15.6,10.09,10.09,0,0,0-1.27,2A19.32,19.32,0,0,0,54.9,30.7a10,10,0,0,0-.5,2.76,1.92,1.92,0,0,0,.25,1,.84.84,0,0,0,.73.39,1.93,1.93,0,0,0,1.37-.82,8.84,8.84,0,0,0,1.33-2.33,25,25,0,0,0,1.06-3.24,10.21,10.21,0,0,0,.4-2.39m5-2.46L62.34,32V32a14.25,14.25,0,0,0-.51,2.24.92.92,0,0,0,.11.48.31.31,0,0,0,.3.17c.36,0,.82-.44,1.38-1.35L64,33l.66.52a10.2,10.2,0,0,1-2.18,2.87,3.58,3.58,0,0,1-2.37.91,2.43,2.43,0,0,1-1.61-.47A1.81,1.81,0,0,1,58,35.38c0-.22,0-.44,0-.66a6.92,6.92,0,0,1,.17-1.1A8.3,8.3,0,0,1,56,36.37a4.16,4.16,0,0,1-2.66.92,3,3,0,0,1-2.36-1,3.74,3.74,0,0,1-.87-2.63,10.83,10.83,0,0,1,.84-4.05,12.72,12.72,0,0,1,2.23-3.75,9.15,9.15,0,0,1,2.31-2,4.59,4.59,0,0,1,2.31-.67,2.43,2.43,0,0,1,1.66.53,2.59,2.59,0,0,1,.8,1.6l.41-1.67Zm-1.28,1.15V24c1.08-.12,2.17-.28,3.28-.45s1.71-.26,1.8-.26c.44,0,1,2,1.73,6,.29,1.59.52,2.88.71,3.84.84-1.75,1.41-3,1.72-3.81A5.33,5.33,0,0,0,73,27.63c0-.3-.26-.65-.78-1.06a1.8,1.8,0,0,1-.78-1.39,1.89,1.89,0,0,1,1.76-2h.24a1.8,1.8,0,0,1,1.39.54,2.23,2.23,0,0,1,.49,1.53,12.23,12.23,0,0,1-1.14,4A55.92,55.92,0,0,1,71,35.39a27.1,27.1,0,0,1-4.09,5.7,5.26,5.26,0,0,1-3.55,1.79,2.75,2.75,0,0,1-1.78-.52,1.69,1.69,0,0,1-.67-1.42,1.74,1.74,0,0,1,.57-1.34,1.91,1.91,0,0,1,1.41-.54,2.57,2.57,0,0,1,1.45.55,2.55,2.55,0,0,0,1,.54c.31,0,.67-.26,1.06-.8a2.55,2.55,0,0,0,.6-1.52,10.2,10.2,0,0,0-.09-1.35c-.06-.55-.16-1.22-.29-2-.26-1.7-.52-3.26-.78-4.66s-.52-2.5-.73-3.31a3.69,3.69,0,0,0-.58-1.35,1.24,1.24,0,0,0-1-.31h-.31m17.28,8.72A12.68,12.68,0,0,1,78.1,36.3a3.5,3.5,0,0,1-2.17,1,1.57,1.57,0,0,1-1.28-.53,2,2,0,0,1-.46-1.42,3.91,3.91,0,0,1,.06-.68,4.92,4.92,0,0,1,.17-.85l2.38-9.53H74.29l.24-.82a5.84,5.84,0,0,0,2.86-1.58,11.35,11.35,0,0,0,2.25-3.38h.85L79.4,23.25h2.29l-.23,1H79.1l-2.3,9.21c0,.2-.09.39-.12.56v.45a1.06,1.06,0,0,0,.2.67.72.72,0,0,0,.54.25,1.73,1.73,0,0,0,1.07-.56A12.81,12.81,0,0,0,80.07,33Zm2.34-3.13a8.35,8.35,0,0,0,4.67-1.54,4,4,0,0,0,1.87-3.21,1.24,1.24,0,0,0-.3-.92,1.22,1.22,0,0,0-.89-.29A4.13,4.13,0,0,0,85.14,26a10.94,10.94,0,0,0-2.22,4.39m-.28,1a8.05,8.05,0,0,0-.18,1,6.22,6.22,0,0,0-.06.86A2.65,2.65,0,0,0,83,35.06a2.21,2.21,0,0,0,1.68.74,5.68,5.68,0,0,0,2.48-.87,17,17,0,0,0,3.12-2.29l.61.94A17.5,17.5,0,0,1,87,36.38a7.89,7.89,0,0,1-3.56.9,3.43,3.43,0,0,1-2.67-1,4.32,4.32,0,0,1-.94-3,10.17,10.17,0,0,1,.74-3.74,10.94,10.94,0,0,1,2-3.37A9,9,0,0,1,85.31,24a6.71,6.71,0,0,1,3-.76,3.42,3.42,0,0,1,2.29.67,2.24,2.24,0,0,1,.83,1.87,4.4,4.4,0,0,1-2.42,3.7,13.71,13.71,0,0,1-6.41,1.91m18,.19V33.4a10.13,10.13,0,0,1-2.84,2.92,6.16,6.16,0,0,1-3.33,1,4.15,4.15,0,0,1-3.25-1.35A5.15,5.15,0,0,1,90,32.29a8.88,8.88,0,0,1,.7-3.37,10.29,10.29,0,0,1,2-3.06A8.11,8.11,0,0,1,95.2,24a6.59,6.59,0,0,1,2.89-.67,3.85,3.85,0,0,1,2.47.73,2.36,2.36,0,0,1,.91,1.93,1.73,1.73,0,0,1-.48,1.24,1.48,1.48,0,0,1-1.13.51,1.15,1.15,0,0,1-.87-.36,1.28,1.28,0,0,1-.33-.94,2.2,2.2,0,0,1,.26-.94,1.91,1.91,0,0,0,.26-.67.44.44,0,0,0-.26-.41,1.37,1.37,0,0,0-.74-.15,3.64,3.64,0,0,0-2,.6,6,6,0,0,0-1.74,1.7,10.87,10.87,0,0,0-1.4,2.76,8.93,8.93,0,0,0-.48,2.85,3.8,3.8,0,0,0,.78,2.52,2.76,2.76,0,0,0,2.14,1,4,4,0,0,0,2.1-.79,10.6,10.6,0,0,0,3.06-3.33m-1.57,5.7,4.7-17.38a1.91,1.91,0,0,0,.06-.33,1.6,1.6,0,0,0,0-.31.79.79,0,0,0-.23-.64,2.74,2.74,0,0,0-1.27-.17h-1.07l.17-.79a16.48,16.48,0,0,0,2.42-.29,11.84,11.84,0,0,0,2.1-.64h.86l-3.26,12a31.61,31.61,0,0,1,4.6-4.05,6.58,6.58,0,0,1,3.33-1.43,1.31,1.31,0,0,1,1,.32,1.42,1.42,0,0,1,.34,1,2.07,2.07,0,0,1-.06.5,3.37,3.37,0,0,1-.15.68L110.25,34a5,5,0,0,0-.11.53,3.41,3.41,0,0,0,0,.55.41.41,0,0,0,.13.29c.09.08.19.22.31.22s.55-.26,1-.58a8.25,8.25,0,0,0,1.29-1.35l.48.43a12.56,12.56,0,0,1-2.35,2.37,3.61,3.61,0,0,1-2.1.82,1.47,1.47,0,0,1-1-.31,1.08,1.08,0,0,1-.36-.85,2.71,2.71,0,0,1,0-.41c0-.17.08-.33.13-.48l2.44-8.46.09-.42V26a.72.72,0,0,0-.18-.5.8.8,0,0,0-.52-.16,3.22,3.22,0,0,0-1.53.68A19.48,19.48,0,0,0,105.6,28a13.46,13.46,0,0,0-1.75,1.87,5.36,5.36,0,0,0-.81,1.6l-1.62,5.84c-.18,0-.83-.05-1-.06h-.7l-.58.06M71.25,42.07v.22a.88.88,0,0,0,0,.33c.07.27.29.42.67.42a1.21,1.21,0,0,0,.38-.06.62.62,0,0,0,.34-.8.6.6,0,0,0-.2-.27l-.42-.24-.49-.23a2.34,2.34,0,0,1-.49-.27,1,1,0,0,1-.41-.83.89.89,0,0,1,.46-.83,2,2,0,0,1,.92-.2,1.55,1.55,0,0,1,1,.28,1.19,1.19,0,0,1,.26.87v.08h-.67v-.31c0-.32-.24-.47-.6-.46s-.67.18-.67.55a.67.67,0,0,0,.42.58c.18.1.38.19.6.29a2.73,2.73,0,0,1,.54.27,1,1,0,0,1,.5.92q-.08,1.11-1.47,1.11a1.75,1.75,0,0,1-1-.21.89.89,0,0,1-.42-.72v-.49Zm2.59-1.39a2.22,2.22,0,0,1,.09-.73.89.89,0,0,1,.6-.52,2.25,2.25,0,0,1,1.45,0,.9.9,0,0,1,.59.52,2.31,2.31,0,0,1,.09.74V42a3.39,3.39,0,0,1,0,.64c-.08.53-.52.81-1.33.81a1.52,1.52,0,0,1-1.2-.38A1.79,1.79,0,0,1,73.87,42ZM74.51,42a1.74,1.74,0,0,0,.07.68.49.49,0,0,0,.26.23.9.9,0,0,0,.39.1.94.94,0,0,0,.36-.08.55.55,0,0,0,.35-.46V40.69a1.2,1.2,0,0,0-.1-.62.65.65,0,0,0-.62-.29,1,1,0,0,0-.34.06.54.54,0,0,0-.37.48,1.15,1.15,0,0,0,0,.37Zm2.73-2.7h.66V42.4c0,.39.26.59.67.6s.67-.19.67-.56a2.67,2.67,0,0,0,0-.4v-2.7h.66v2.8a4.51,4.51,0,0,1,0,.52.69.69,0,0,1-.22.47,1.57,1.57,0,0,1-1,.36,1.47,1.47,0,0,1-1.13-.37.69.69,0,0,1-.22-.47,4.51,4.51,0,0,1,0-.52Zm4.51,0h.4a2.09,2.09,0,0,1,.43,0,.87.87,0,0,1,.76,1h0a1.11,1.11,0,0,1-.2.68,1.28,1.28,0,0,1-.74.3h0a1.38,1.38,0,0,1,.49.1.5.5,0,0,1,.27.35,2.58,2.58,0,0,1,0,.38v.47a2.22,2.22,0,0,0,.06.44,1.19,1.19,0,0,0,.1.32h-.67l-.07-.26a1.31,1.31,0,0,1,0-.28V42.1a.55.55,0,0,0-.41-.53h-.9v1.84h-.67v-4Zm-.45.45v1.31h.86a.55.55,0,0,0,.42-.25.9.9,0,0,0,.08-.46.5.5,0,0,0-.22-.46,1.34,1.34,0,0,0-.62-.11Zm4.58.62v-.15c0-.32-.21-.49-.57-.48s-.53.09-.63.26a.44.44,0,0,0-.08.25v1.93a1.18,1.18,0,0,0,.08.56.64.64,0,0,0,.58.26.53.53,0,0,0,.59-.47.06.06,0,0,1,0,0l0-.27v-.11h.67v.4a1,1,0,0,1-.31.67,1,1,0,0,1-.39.21,2.08,2.08,0,0,1-.55.07,3,3,0,0,1-.52-.05A1,1,0,0,1,84,42.3V40.68a3.84,3.84,0,0,1,0-.48,1,1,0,0,1,.18-.47,1.43,1.43,0,0,1,1.16-.42c.77,0,1.19.26,1.25.76a1.61,1.61,0,0,1,0,.31v.17h-.66Zm1.26-1.07h2.2v.45H87.81v1.29h1.44v.46H87.81v1.4h1.57v.46H87.14Zm4,1.31a2.22,2.22,0,0,1,.09-.73.87.87,0,0,1,.59-.52,2.27,2.27,0,0,1,.72-.12,2.18,2.18,0,0,1,.72.12.9.9,0,0,1,.59.52,2.22,2.22,0,0,1,.09.73V42a3.33,3.33,0,0,1,0,.63c-.08.54-.52.81-1.33.81a1.48,1.48,0,0,1-1.19-.37A1.75,1.75,0,0,1,91.15,42ZM91.8,42a2,2,0,0,0,.07.68.53.53,0,0,0,.26.23,1.12,1.12,0,0,0,.4.1.73.73,0,0,0,.35-.09.49.49,0,0,0,.35-.45V40.65a1.31,1.31,0,0,0-.1-.62.65.65,0,0,0-.62-.29.93.93,0,0,0-.34.06.56.56,0,0,0-.38.48,2.28,2.28,0,0,0,0,.37Zm4.89-2.7v.45H95.21V41h1.43v.45H95.22v1.87h-.67V39.3ZM98.93,42v.22a.91.91,0,0,0,0,.33c.07.27.29.42.67.42a1,1,0,0,0,.38-.07.59.59,0,0,0,.35-.77.56.56,0,0,0-.21-.29,4.49,4.49,0,0,0-.42-.24l-.5-.23a2.27,2.27,0,0,1-.48-.27.94.94,0,0,1-.4-.83.86.86,0,0,1,.45-.83,2,2,0,0,1,.92-.2,1.58,1.58,0,0,1,1,.28,1.17,1.17,0,0,1,.24.87v.08h-.66v-.31c0-.32-.24-.47-.6-.46s-.67.18-.67.55a.68.68,0,0,0,.43.58,6.52,6.52,0,0,0,.59.29,3.11,3.11,0,0,1,.55.27,1,1,0,0,1,.48.91c0,.75-.48,1.12-1.44,1.12a1.73,1.73,0,0,1-.94-.21.89.89,0,0,1-.42-.72v-.41Zm2.61-2.7h.67v3.06c0,.4.25.6.67.61a.61.61,0,0,0,.7-.56V39.3h.66v2.84a2.26,2.26,0,0,1,0,.52.69.69,0,0,1-.22.47,1.94,1.94,0,0,1-2.27,0,.73.73,0,0,1-.21-.48,4.51,4.51,0,0,1,0-.52Zm5.38,1.07v-.11c0-.32-.2-.49-.57-.48a.65.65,0,0,0-.63.26.44.44,0,0,0-.08.25v1.93a1.18,1.18,0,0,0,.08.56.66.66,0,0,0,.58.26.54.54,0,0,0,.6-.47v-.42h.67v.4a1,1,0,0,1-.3.67,1,1,0,0,1-.39.21,2.39,2.39,0,0,1-.59.08,2.94,2.94,0,0,1-.51,0,1,1,0,0,1-.84-1.14V40.69a2,2,0,0,1,0-.49.85.85,0,0,1,.18-.46,1.42,1.42,0,0,1,1.15-.42c.78,0,1.2.26,1.26.75v.48h-.66Zm3.26,0v-.11c0-.32-.2-.49-.56-.48s-.54.09-.63.26a.54.54,0,0,0-.09.25v1.93a1.32,1.32,0,0,0,.08.56.67.67,0,0,0,.58.26.54.54,0,0,0,.6-.47v-.42h.67v.4a1,1,0,0,1-.31.67.88.88,0,0,1-.39.21,2.32,2.32,0,0,1-.58.08,3,3,0,0,1-.52,0,1,1,0,0,1-.84-1.14V40.69a4,4,0,0,1,0-.49.93.93,0,0,1,.18-.46,1.44,1.44,0,0,1,1.16-.42c.78,0,1.19.26,1.25.75a1.71,1.71,0,0,1,0,.32v.16h-.66Zm1.26-1.07h2.21v.45h-1.54V41h1.44v.46h-1.44v1.4h1.58v.46h-2.25Zm3.24,2.7v.22a.91.91,0,0,0,0,.33c.07.27.29.42.67.42a1,1,0,0,0,.38-.07.59.59,0,0,0,.35-.77.56.56,0,0,0-.21-.29,4.49,4.49,0,0,0-.42-.24l-.49-.23a2.62,2.62,0,0,1-.49-.27.93.93,0,0,1-.4-.83.86.86,0,0,1,.45-.83,2,2,0,0,1,.92-.2,1.58,1.58,0,0,1,1,.28,1.17,1.17,0,0,1,.24.87v.08h-.66v-.31c0-.32-.24-.47-.6-.46s-.67.18-.67.55a.68.68,0,0,0,.43.58,5.55,5.55,0,0,0,.6.29,3.4,3.4,0,0,1,.54.27,1,1,0,0,1,.48.91c0,.75-.48,1.12-1.44,1.12a1.71,1.71,0,0,1-.94-.21.86.86,0,0,1-.42-.72v-.41Zm3.13,0v.22a.73.73,0,0,0,0,.33c.06.27.28.42.66.42a1,1,0,0,0,.38-.07.57.57,0,0,0,.4-.58.59.59,0,0,0-.26-.48,2.86,2.86,0,0,0-.42-.24l-.49-.23a2.62,2.62,0,0,1-.49-.27,1,1,0,0,1-.4-.83.87.87,0,0,1,.46-.83,1.93,1.93,0,0,1,.92-.2,1.55,1.55,0,0,1,1,.28,1.18,1.18,0,0,1,.25.87v.08h-.67v-.31c0-.32-.24-.47-.6-.46s-.66.18-.66.55a.67.67,0,0,0,.42.58c.18.1.38.19.6.29a3,3,0,0,1,.54.27,1,1,0,0,1,.49.91q0,1.2-1.47,1.2a1.75,1.75,0,0,1-1-.21.89.89,0,0,1-.42-.72v-.49Z" fill="#fff" fill-rule="evenodd" clip-rule="evenodd"/></svg>
