<svg xmlns="http://www.w3.org/2000/svg" fill="currentColor" viewBox="0 0 120 60"><path fill="#f19021" fill-rule="evenodd" d="M103.33 21.41c-6 .37-3.33 8.14 3.28 7.74 6.45-.4 3.05-8.14-3.28-7.74Zm-2.51-4.8a19.22 19.22 0 1 0 13.55 5.63 19.22 19.22 0 0 0-13.55-5.63Zm0 36.45a17.2 17.2 0 1 1 9.61-2.91 17.21 17.21 0 0 1-9.61 2.91Zm-.61-49.84a9.75 9.75 0 0 0-3.76 8.74S93.58 4.5 89.85 0c-.5 5.78 1.34 13.5 1.34 13.5a9.77 9.77 0 0 0-8-5.09 16.57 16.57 0 0 1 7 9 19.11 19.11 0 0 1 9.33-2.83 16.47 16.47 0 0 1 .71-11.4Z" clip-rule="evenodd"/><path fill="#fff" fill-rule="evenodd" d="M1.67 42.57v4.06H0V36.22h3.52a3.76 3.76 0 0 1 2.67.86 3 3 0 0 1 .9 2.33 3 3 0 0 1-.89 2.31 3.84 3.84 0 0 1-2.67.85Zm3.74-3.16a1.78 1.78 0 0 0-.49-1.33 2.18 2.18 0 0 0-1.59-.47H1.67v3.59h1.66c1.38 0 2.07-.59 2.07-1.79ZM14 46.63l-2.58-4.14h-1.17v4.14H8.58V36.22h3.65a3.81 3.81 0 0 1 2.67.87 3 3 0 0 1 .92 2.29 3 3 0 0 1-.67 2 3.23 3.23 0 0 1-2 1l2.73 4.25Zm-3.77-5.34h1.84c1.34 0 2-.59 2-1.79a1.8 1.8 0 0 0-.49-1.34 2.23 2.23 0 0 0-1.53-.48h-1.8Zm13.3 3h-4.37l-.79 2.29h-1.79l3.81-10.21h1.92l3.8 10.21h-1.78ZM23.07 43l-1.74-4.8-1.72 4.85Zm11.5-6a4.19 4.19 0 0 1 1.62 2.48h-1.76a2.81 2.81 0 0 0-1.1-1.33 3.28 3.28 0 0 0-1.83-.5 3.53 3.53 0 0 0-1.74.45 3.13 3.13 0 0 0-1.2 1.3 4.28 4.28 0 0 0-.43 2 4.49 4.49 0 0 0 .44 2 3 3 0 0 0 1.24 1.32 3.67 3.67 0 0 0 1.86.46 3.22 3.22 0 0 0 2.21-.81A3.43 3.43 0 0 0 35 42.29h-3.8V41h5.2v1.61a5 5 0 0 1-.81 2.06 4.7 4.7 0 0 1-1.69 1.5 5.13 5.13 0 0 1-2.4.56 5.3 5.3 0 0 1-2.67-.73 4.54 4.54 0 0 1-1.78-1.88 6.21 6.21 0 0 1 0-5.48 4.53 4.53 0 0 1 1.78-1.85 5.16 5.16 0 0 1 2.66-.67 5 5 0 0 1 3.08.91Zm13.64-.67v10.3h-1.69v-7.69l-3 7.69h-1.41l-3-7.69v7.69h-1.64V36.39h2l3.38 8.15 3.34-8.15Zm8.19 8H52l-.79 2.29h-1.76l3.81-10.21h1.92L59 46.63h-1.81ZM55.93 43l-1.72-4.85L52.49 43Zm10.21-6.8v1.33h-2.89v9.08h-1.69v-9h-2.89v-1.36Zm2.57 0v10.43H67V36.22Zm9.46.87a4.64 4.64 0 0 1 1.7 2.66h-1.78a3.15 3.15 0 0 0-1.16-1.39 3.44 3.44 0 0 0-2-.55 3 3 0 0 0-1.65.46 3.22 3.22 0 0 0-1.15 1.33 5 5 0 0 0 0 4 3.13 3.13 0 0 0 1.16 1.18 3 3 0 0 0 1.66.46 3.38 3.38 0 0 0 2-.55 3.11 3.11 0 0 0 1.16-1.47h1.78a4.71 4.71 0 0 1-1.7 2.62 5.62 5.62 0 0 1-5.77.3 4.59 4.59 0 0 1-1.75-1.88 6.36 6.36 0 0 1 0-5.49 4.48 4.48 0 0 1 1.74-1.87 5.33 5.33 0 0 1 5.76.26Zm9.59 5.48v4.06h-1.67V36.22h3.52a3.76 3.76 0 0 1 2.67.86 3.07 3.07 0 0 1 .91 2.33 3 3 0 0 1-.93 2.31 3.86 3.86 0 0 1-2.67.85Zm3.75-3.16a1.78 1.78 0 0 0-.51-1.31 2.19 2.19 0 0 0-1.58-.46h-1.66v3.59h1.67c1.39 0 2.08-.59 2.08-1.79Zm4.57 5.93h3.58v1.33h-5.25V36.22h1.67Zm11.25-1H103l-.8 2.29h-1.79l3.81-10.21h1.92L110 46.57h-1.8Zm-.46-1.32-1.72-4.85-1.72 4.85Zm9.76-6.83-3.44 6.6v3.84h-1.69v-3.79l-3.5-6.6h1.93l2.38 4.8 2.38-4.8Z" clip-rule="evenodd"/></svg>
