<svg xmlns="http://www.w3.org/2000/svg" viewBox="0 0 120 60"><path fill="#ab1918" d="M1.49 20a.93.93 0 0 1 .85-1h5.19a14.4 14.4 0 0 1-4.26 8 8 8 0 0 1-2.51 1.45c.24-2.82.47-5.64.73-8.45Zm6.35-1h4.51c.39 0 .85-.05 1.17.25a1.44 1.44 0 0 1 .15 1q-.36 4.11-.7 8.22a7 7 0 0 1-3.92-3.85A14.45 14.45 0 0 1 7.84 19Zm6.39 1.73a1.28 1.28 0 0 1 .66 1.27c-.44 5.49-.89 11-1.39 16.41 0 .46-.19 1.1-.77 1.07H2.36c-.47 0-.67-.42-.79-.78 3.45-.05 6.89 0 10.34 0a.84.84 0 0 0 .85-.9q.74-8.55 1.47-17.06ZM14 39.28c.53-5.72 1-11.45 1.51-17.17a1.37 1.37 0 0 1 .65 1.35L14.7 40a.86.86 0 0 1-.95.9h-10c-.53.06-.81-.39-1-.82 3.46-.08 6.93 0 10.39 0a.76.76 0 0 0 .86-.8ZM0 37.16c.22-2.82.48-5.64.72-8.46a7.45 7.45 0 0 1 4.17 4.48 15.42 15.42 0 0 1 1 4.94H.79a.77.77 0 0 1-.79-.96Zm10.2-6.81a8.24 8.24 0 0 1 2.73-1.66c-.22 2.82-.48 5.63-.72 8.45a.91.91 0 0 1-.87 1H6.17a14.74 14.74 0 0 1 4.03-7.79Zm7.68 1.21c0-.34.16-.51.44-.5H119v.51Z"/><path fill="#fff" d="M19 19h9.9a3.53 3.53 0 0 1 2.42.58 2.72 2.72 0 0 1 .6 2.23 7.16 7.16 0 0 1-.51 2.76 2.29 2.29 0 0 1-1.5 1c.55.1 1.2.33 1.34.95a15.1 15.1 0 0 1-.12 3.22H28a6.66 6.66 0 0 0 0-2.27c-.16-.43-.67-.43-1-.45h-5.3c-.09.91-.17 1.82-.25 2.73h-3.33c.29-3.56.62-7.12.91-10.68m2.83 5.23c2 0 3.93.08 5.89-.06.74-.06.87-1 .87-1.56a.81.81 0 0 0-.89-.89h-5.65c-.08.78-.16 1.62-.22 2.46Zm10.47 5.4c.32-3.57.61-7.13.94-10.7H45l-.21 2.51h-8.52c0 .5-.1 1-.14 1.51h8.1L44 25.41h-8.08c-.06.56-.11 1.11-.16 1.67h8.59c-.07.87-.15 1.75-.23 2.62ZM50.73 19h5.08c1.51 3.57 3.07 7.11 4.59 10.68h-3.71c-.25-.61-.5-1.22-.76-1.82H49c-.35.61-.7 1.22-1.07 1.82H44.2c2.18-3.57 4.36-7.12 6.53-10.69m2 2.52c-.77 1.33-1.56 2.65-2.33 4H55c-.54-1.33-1.1-2.65-1.65-4ZM61.54 19H65c-.22 2.64-.47 5.28-.68 7.92h7.48c-.08.92-.16 1.84-.23 2.77H60.62c.31-3.56.63-7.12.92-10.69ZM70 21.73c.08-.91.16-1.82.23-2.72H83c-.09.9-.16 1.81-.25 2.72h-4.63c-.22 2.66-.46 5.31-.68 8H74c.24-2.66.47-5.31.69-8ZM84.08 19h3.42c-.29 3.56-.61 7.13-.92 10.69h-3.43c.31-3.55.63-7.11.93-10.69Zm4.83 0c2-.06 3.93 0 5.89 0 .85 2.27 1.66 4.56 2.52 6.83L101 19h5.85q-.47 5.34-.92 10.69h-3.23c.26-2.67.53-5.34.77-8-.55 0-.73.5-1 .88-1.38 2.39-2.8 4.75-4.17 7.14h-2.66c-1.09-2.65-2.2-5.29-3.27-7.95h-.53c-.22 2.66-.41 5.32-.62 8H88c.3-3.62.64-7.17.91-10.76Zm19.36 0H120c-.07.84-.15 1.68-.23 2.52h-8.5c-.06.51-.1 1-.13 1.52h8.07c0 .79-.12 1.58-.19 2.37h-8.1c0 .56-.09 1.11-.13 1.67h8.57c-.06.87-.14 1.74-.22 2.62h-11.79q.47-5.35.92-10.7ZM19.55 32.93a29.82 29.82 0 0 1 4.91-.13 3.7 3.7 0 0 1 2.56.66c.5.5.38 1.29.43 1.94h-1.13c-.1-.46.08-1.21-.51-1.38a10.69 10.69 0 0 0-2.88-.24 13.62 13.62 0 0 0-3.38.24c-.55.18-.67.83-.76 1.32a21.12 21.12 0 0 0-.25 3.46.9.9 0 0 0 .62 1 20.66 20.66 0 0 0 3.77.16 6.17 6.17 0 0 0 2.67-.32c.48-.45.41-1.2.56-1.8h-4.23c0-.33.07-.67.1-1h5.33c-.17 1.15-.07 2.45-.8 3.42-.9.84-2.24.65-3.38.77h-1.89a10.91 10.91 0 0 1-3-.35c-.79-.34-.89-1.3-.89-2.06a15 15 0 0 1 .6-4.46 1.89 1.89 0 0 1 1.55-1.23Zm20.76-.16h1.75c1.27 2.73 2.58 5.44 3.86 8.17h-1.26c-.27-.57-.54-1.14-.8-1.71h-6.45c-.38.57-.74 1.14-1.11 1.71H35c1.77-2.73 3.52-5.46 5.31-8.18M38 38.22h5.36a47.88 47.88 0 0 0-2.27-4.6c-1.09 1.47-2.01 3.09-3.09 4.6Zm17.46-5.45h2.18c1.27 2.28 2.5 4.58 3.76 6.86l4.87-6.86h2.22c-.25 2.72-.47 5.45-.72 8.17h-1.1c.21-2.39.42-4.78.61-7.17-.43 0-.64.42-.87.72-1.52 2.16-3.08 4.29-4.6 6.45h-1Q59 37.6 57.18 34.26a.74.74 0 0 0-.65-.47c-.21 2.39-.42 4.77-.61 7.16h-1.15c.23-2.73.46-5.45.72-8.18Zm23.16 0h1.13c-.22 2.72-.49 5.45-.7 8.17h-1.11c.24-2.72.46-5.44.71-8.16Zm11.45 0h1.85c2.19 2.42 4.35 4.87 6.57 7.26.27-2.42.42-4.85.66-7.27h1.13c-.24 2.73-.47 5.46-.71 8.18h-1.82c-2.22-2.39-4.34-4.86-6.57-7.23-.29 2.4-.43 4.82-.66 7.22h-1.14c.25-2.71.47-5.43.72-8.16Zm20.5.2a27.6 27.6 0 0 1 5-.18c.9.08 2 0 2.66.71.49.5.38 1.26.43 1.9h-1.15c0-.41-.07-.83-.11-1.25a12 12 0 0 0-4-.37 9.39 9.39 0 0 0-2.7.26c-.48.14-.59.69-.68 1.12a21.61 21.61 0 0 0-.3 3.41c0 .42 0 1 .52 1.17a15.55 15.55 0 0 0 3.55.2 7.86 7.86 0 0 0 2.9-.27c.62-.38.49-1.23.66-1.85h-4.22l.09-1h5.34c-.17 1.14-.1 2.41-.78 3.38-.87.87-2.23.68-3.35.8h-1.9a12.29 12.29 0 0 1-3-.33 1.68 1.68 0 0 1-.9-1.67 14.86 14.86 0 0 1 .53-4.79A1.81 1.81 0 0 1 110.6 33Z"/></svg>
