<svg xmlns="http://www.w3.org/2000/svg" viewBox="0 0 120 60"><defs><clipPath id="clip-path"><path d="M40.46 27.05h3.4v1.7h-3.4z" class="cls-1"/></clipPath><clipPath id="clip-path-2"><path d="m41.59 27.64 1.26 1.28a13.16 13.16 0 0 0 1.44-.92 2.51 2.51 0 0 1-1.45-.31 2.28 2.28 0 0 0-1.25-.06" class="cls-1"/></clipPath><clipPath id="clip-path-3"><path d="M42.16 27.05h1.7v1.7h-1.7z" class="cls-1"/></clipPath><clipPath id="clip-path-5"><path d="M40.46 27.05h5.11v3.4h-5.11z" class="cls-1"/></clipPath><clipPath id="clip-path-7"><path d="M45.57 27.05h3.4v1.7h-3.4z" class="cls-1"/></clipPath><clipPath id="clip-path-8"><path d="M48.08 27.7a2.53 2.53 0 0 1-1.45.31c-.34-.13 1.58.91 1.58.91l1.12-1.28a2.28 2.28 0 0 0-1.25.06" class="cls-1"/></clipPath><clipPath id="clip-path-9"><path d="M47.27 27.05h1.7v1.7h-1.7z" class="cls-1"/></clipPath><clipPath id="clip-path-12"><path d="m41.59 27.64 1.12 1.28s1.92-1 1.58-.91a2.51 2.51 0 0 1-1.45-.31 2.28 2.28 0 0 0-1.25-.06" class="cls-1"/></clipPath><clipPath id="clip-path-16"><path d="M41.44 27.54 42.87 29s2-1.17 1.63-1a2.75 2.75 0 0 1-1.65-.34 2.41 2.41 0 0 0-.8-.14 4 4 0 0 0-.61.08" class="cls-1"/></clipPath><clipPath id="clip-path-21"><path d="M45.57 27.05h5.11v1.7h-5.11z" class="cls-1"/></clipPath><clipPath id="clip-path-22"><path d="M48.16 27.62a3 3 0 0 1-1.66.38 20.49 20.49 0 0 0 1.8 1l1.27-1.46a3.13 3.13 0 0 0-.61-.06 1.93 1.93 0 0 0-.8.14" class="cls-1"/></clipPath><clipPath id="clip-path-26"><path d="M41.44 27.54 42.71 29s2.18-1.19 1.79-1a2.91 2.91 0 0 1-1.65-.34 2.41 2.41 0 0 0-.8-.14 3 3 0 0 0-.61.06" class="cls-1"/></clipPath><style>.cls-1,.cls-23{fill:none}.cls-2{fill:#010101}.cls-25,.cls-3{fill:#fff}.cls-4{fill:#9dadb2}.cls-23,.cls-25{stroke:#010101;stroke-miterlimit:10}.cls-7{clip-path:url(#clip-path)}.cls-8{clip-path:url(#clip-path-2)}.cls-9{clip-path:url(#clip-path-3)}.cls-10{fill:#111719}.cls-11{clip-path:url(#clip-path-5)}.cls-14{clip-path:url(#clip-path-8)}.cls-15{clip-path:url(#clip-path-9)}.cls-16{clip-path:url(#clip-path-12)}.cls-18{clip-path:url(#clip-path-16)}.cls-21{clip-path:url(#clip-path-22)}.cls-22{clip-path:url(#clip-path-26)}.cls-23{stroke-width:.15px}.cls-25{stroke-width:.07px}</style></defs><path d="M118.78 33.4v-8a2.1 2.1 0 0 0 1.22-1.91v-1.88a2.08 2.08 0 0 0-2.1-2.09h-4.7a2.15 2.15 0 0 0-1.17.35 2.17 2.17 0 0 0-1.17-.35h-4.63a2.06 2.06 0 0 0-1.74.93 4.61 4.61 0 0 0-6.59.4 6.31 6.31 0 0 0-1.17 1.88l-.18-.33a6.29 6.29 0 0 0-5.67-2.88h-2.81a2 2 0 0 0-.91.21 2 2 0 0 0-.91-.21h-2.1a3.76 3.76 0 0 0-1.44-.26 4.12 4.12 0 0 0-2.65.89 2.07 2.07 0 0 0-1.5-.63h-4a2.11 2.11 0 0 0-.8.16 2.21 2.21 0 0 0-.81-.16h-3.46a2.13 2.13 0 0 0-.91.21 2.22 2.22 0 0 0-.93-.21h-4.57a2.15 2.15 0 0 0-1.06.29 2 2 0 0 0-1.02-.28h-3.82a2.31 2.31 0 0 0-.46 0 2.42 2.42 0 0 0-.47 0h-3.91a2 2 0 0 0-.84.18 1.17 1.17 0 0 1 .1-.26 1.12 1.12 0 0 0 .47-.4 1.35 1.35 0 0 0 .23-1A1.3 1.3 0 0 0 51.12 17a1.27 1.27 0 0 0-1.24-.5 1.24 1.24 0 0 0-.88.5 1.29 1.29 0 0 0-.23.95.56.56 0 0 0 0 .07 1.42 1.42 0 0 0-.51 0 1.21 1.21 0 0 0-.88.61c0-.08-.06-.14-.08-.21a1.3 1.3 0 0 0 .11-.78 1.29 1.29 0 0 0-.51-.83 1.36 1.36 0 0 0-1-.23 1.29 1.29 0 0 0-1.06 1.48 1.32 1.32 0 0 0 .14.41 5.71 5.71 0 0 1-.27.69 9.92 9.92 0 0 0-1 .48 2.91 2.91 0 0 1 .48-.85 13.3 13.3 0 0 0-1.35.59 5.07 5.07 0 0 1-.41-.5 1 1 0 0 0 0-.43A1.3 1.3 0 0 0 41 17.4a1.24 1.24 0 0 0-.83.52 1.25 1.25 0 0 0-.22 1 1.35 1.35 0 0 0 .36.69v.2a1.29 1.29 0 0 0-1-.29 1.32 1.32 0 0 0-.49.19.13.13 0 0 0 0-.08 1.28 1.28 0 0 0-1.47-1.05 1.2 1.2 0 0 0-.83.51 1.08 1.08 0 0 0-.2.4 1.66 1.66 0 0 0-.4.31 2 2 0 0 0-1-.27h-4.54a2 2 0 0 0-.82.17 2 2 0 0 0-.82-.17h-7.19a2 2 0 0 0-.81.17 1.94 1.94 0 0 0-.8-.17h-7.18a2.09 2.09 0 0 0-2.08 1.88s-.06-.08-.1-.1A6.25 6.25 0 0 0 6 19.49H2.09A2.08 2.08 0 0 0 0 21.58v1.88a2.1 2.1 0 0 0 1.31 1.94v7.92A2.09 2.09 0 0 0 0 35.26v1.88a2.08 2.08 0 0 0 2.09 2.09h4.67a2.13 2.13 0 0 0 .81-.16 2.15 2.15 0 0 0 .8.16H11a2.35 2.35 0 0 0 .88-.19 2 2 0 0 0 .88.19H20a2.11 2.11 0 0 0 .8-.16 2.22 2.22 0 0 0 .82.16h7.17a2.22 2.22 0 0 0 .82-.16 2.18 2.18 0 0 0 .82.16h7.11a2.08 2.08 0 0 0 2.09-2.09h10.63a2.09 2.09 0 0 0 2.1 2.09h3.91a2 2 0 0 0 .49-.06 2 2 0 0 0 .49.06h4.11a2.22 2.22 0 0 0 .87-.19 2 2 0 0 0 .87.19h4.58a2.21 2.21 0 0 0 .92-.23 2.14 2.14 0 0 0 .92.21h4a2.16 2.16 0 0 0 1.13-.32 2.1 2.1 0 0 0 1.13.32h1.75a2.08 2.08 0 0 0 2-1.39 4.9 4.9 0 0 0 3.62 1.64 4.71 4.71 0 0 0 3.23-1.23 2.09 2.09 0 0 0 1.77 1H91a6.23 6.23 0 0 0 5.55-2.85 1.69 1.69 0 0 0 .17-.29 1.14 1.14 0 0 0 .1.19 4.93 4.93 0 0 0 4.63 3.21 4.74 4.74 0 0 0 3.12-1.14 2.1 2.1 0 0 0 1.72.89h4.21a1.69 1.69 0 0 0 .56-.08 1.83 1.83 0 0 0 .57.08h.66a2.39 2.39 0 0 0 .53-.06 2.2 2.2 0 0 0 .53.06h4.58a2.09 2.09 0 0 0 2.07-2.1v-1.88a2.2 2.2 0 0 0-1.22-1.86Z" class="cls-2"/><path d="M8.53 29.54a4.16 4.16 0 0 0 1.84-3.7 4.21 4.21 0 0 0-1.18-3.13A4.25 4.25 0 0 0 6 21.52H2v2.09h1.31V35.2H2v2.07h4.87v-2.09H5.71v-5a4.31 4.31 0 0 0 .68-.05l1.92 7.11h2.81v-2.06h-1Zm-.69-3.71a2.52 2.52 0 0 1-.51 1.75 2.23 2.23 0 0 1-1.62.54V23.6a2.37 2.37 0 0 1 1.62.48 2.34 2.34 0 0 1 .51 1.75ZM12.66 23.6h1.15v11.59h-1.15v2.08h7.39v-5H18v2.91h-1.78v-5h1.58v-2.07h-1.58V23.6H18v2.66h2.09v-4.75h-7.43ZM21.45 23.6h1.15v11.59h-1.15v2.08h7.38v-5h-2.1v2.91H25v-5h1.58v-2.07H25V23.6h1.73v2.66h2.1v-4.75h-7.38ZM35.48 35.19h-1.7V23.6H35v-2.09h-4.75v2.09h1.12v11.59h-1.12v2.08h7.32v-7h-2.09ZM58 28.74l2-5.14h1v-2.09h-4v2.09h.76l-2.09 5.45V23.6h.6v-2.09h-4.05v2.09h1.11v11.59h-1.11v2.08h4.11v-2.08h-.6v-6l2.18 6h-.8v2.08h4.32v-2.08h-1ZM63 23.6h1.19v11.59H63v2.08h4.8v-2.08h-1.25V23.6h1.21v-2.09H63ZM74.45 23.6h1.06v3.51l.2 3.87-.87-3.74L73 21.52h-3.61v2.09h1.06V35.2h-1.06v2.07h4.21v-2.09h-1v-5.09l-.14-4 .69 2.81c.23.91.44 1.71.66 2.35l1.92 6h1.87V23.6h1.06v-2.09h-4.21ZM83.13 31.65h1.05a13.28 13.28 0 0 1-.18 2.73c-.14.59-.42.88-.84.88a.68.68 0 0 1-.66-.39 4.78 4.78 0 0 1-.32-1.66c-.06-.83-.08-2.18-.08-4s0-2.91.1-3.72a4.59 4.59 0 0 1 .32-1.61.67.67 0 0 1 .62-.38c.76 0 1.15 1.06 1.15 3.15v.1h2.09v-5.23h-2.12V22a2.24 2.24 0 0 0-1.56-.69 2.63 2.63 0 0 0-2.47 2 18.48 18.48 0 0 0-.76 6.22 30.56 30.56 0 0 0 .18 3.74 7.29 7.29 0 0 0 .66 2.37 3.94 3.94 0 0 0 1.21 1.45 2.86 2.86 0 0 0 1.57.47 2.92 2.92 0 0 0 2.67-1.72 9.92 9.92 0 0 0 .94-4.74v-1.53h-3.56v2.08ZM90.88 21.51H88v2.09h1.1v11.59H88v2.08h3a4.34 4.34 0 0 0 3.88-1.94 11.11 11.11 0 0 0 1.24-5.89 11.63 11.63 0 0 0-1.21-6 4.39 4.39 0 0 0-4.03-1.93Zm2.57 8.2A13.52 13.52 0 0 1 93 34a1.62 1.62 0 0 1-1.48 1.18V23.6a1.43 1.43 0 0 1 1.11.51 3.87 3.87 0 0 1 .62 1.89 27.12 27.12 0 0 1 .2 3.71ZM101.4 21.26a2.69 2.69 0 0 0-2 .94 6.16 6.16 0 0 0-1.29 2.8 20.52 20.52 0 0 0-.43 4.53 15.65 15.65 0 0 0 .89 6 3 3 0 0 0 2.83 2c2.45 0 3.69-2.71 3.69-8a15.34 15.34 0 0 0-.94-6.13 3 3 0 0 0-2.75-2.14Zm-.88 3.55c.14-.86.43-1.29.88-1.29s.7.39.84 1.18a33.07 33.07 0 0 1 .24 4.89 27.52 27.52 0 0 1-.25 4.55c-.15.76-.44 1.14-.83 1.14s-.7-.38-.86-1.14a27.82 27.82 0 0 1-.25-4.57 32.11 32.11 0 0 1 .23-4.76ZM116.78 35.19V23.6H118v-2.09h-4.9l-.5 3c-.12.69-.24 1.54-.37 2.54L112 29l-.22-2.23a24 24 0 0 0-.24-1.88l-.61-3.36h-4.83v2.09h1.17V35.2h-1.17v2.07h4.43v-2.09h-1.18v-7.82l-.12-4.05.78 5.88 1.44 8v.09h.84l1.49-8.72.69-5.24-.17 4.08v7.79h-1.17v2.09H118v-2.1h-1.17ZM50.17 23.73h.07a.15.15 0 0 0 .11-.13.14.14 0 0 0-.12-.15h-.1a.76.76 0 0 1-.28-.47v-.06a.08.08 0 0 0 0-.08.05.05 0 0 0 0-.05.67.67 0 0 1 .11-.34.23.23 0 0 0 .21-.2.16.16 0 0 0-.15-.2 5.88 5.88 0 0 1 0-.73c.08 0 .13-.18.19-.49a3.08 3.08 0 0 1 .11-.39c0-.07 0-.16.08-.27a8.58 8.58 0 0 1 .52-1.4h.1a.46.46 0 0 0 .37-.52.45.45 0 0 0-.89.15.5.5 0 0 0 .16.27c-.17.29-.56 1.21-.69 1.51 0-.72.11-1.74.11-1.93a.46.46 0 0 0 .37-.52.43.43 0 0 0-.51-.36.45.45 0 0 0-.37.52.53.53 0 0 0 .16.28c-.12.22-.74 1.36-.9 1.64a2.18 2.18 0 0 0-.14.25v-.31a.46.46 0 0 0 .24-.48.44.44 0 0 0-.51-.36.45.45 0 0 0-.37.52.44.44 0 0 0 .23.31c-.12.2-.36.67-.46.84a.51.51 0 0 1-.22-.06 1.28 1.28 0 0 1-.26-.2 5.63 5.63 0 0 1-.93-2 .43.43 0 0 0 .22-.46.45.45 0 0 0-.52-.37.44.44 0 0 0-.37.51.44.44 0 0 0 .25.33 8.22 8.22 0 0 1-.63 1.64s-.58 1.11-1.21 1.2-1.45-.72-1.45-.72A7.37 7.37 0 0 1 41.59 19a.44.44 0 0 0 .13-.39.44.44 0 0 0-.52-.36.45.45 0 0 0-.37.52.46.46 0 0 0 .35.36 5.79 5.79 0 0 1-.16 2 2 2 0 0 1-.26.49.29.29 0 0 1-.27.06c-.18-.18-.49-.48-.64-.61a.47.47 0 0 0 .11-.38.45.45 0 1 0-.88.16.43.43 0 0 0 .37.36l.1.3-.22-.17c-.25-.23-1.25-1.14-1.4-1.29a.52.52 0 0 0 .06-.3.42.42 0 0 0-.51-.36.44.44 0 1 0 .15.87 15.21 15.21 0 0 1 .73 1.79c-.2-.23-.84-.95-1.11-1.19a.41.41 0 0 0 .05-.31.45.45 0 1 0-.88.16.44.44 0 0 0 .52.36.15.15 0 0 0 .08 0 8.47 8.47 0 0 1 .98 1.14c.06.09.11.17.16.23l.11.15.11.17c.17.27.26.41.34.41a6.25 6.25 0 0 1 .28.67.2.2 0 0 0-.08.26c0 .1.16.12.22.13a.88.88 0 0 1 .22.31.07.07 0 0 0 0 .06.82.82 0 0 1-.06.56h-.06s-.06 0-.08.08a.2.2 0 0 0 0 .11s.06.07.12.09 1-.34 1.66-.5 1.84-.43 3.18-.67 2.62-.45 4-.55a18.05 18.05 0 0 1 2-.08" class="cls-3"/><path d="M39.87 23.56a10.37 10.37 0 0 0-1.57 2.64l.28.56s-.93-.5-1.38.34a3 3 0 0 0 .21 2.18 1 1 0 0 0 .24.54 6.25 6.25 0 0 0-.89 3.49l1-1.46a4.74 4.74 0 0 0-.06 4.3v-1.38s.26 2.74 3.65 5l-.72-1.15s2.22 2.26 3.91 2.47l-.37-.35a2.6 2.6 0 0 0 2.57 0l-.37.35c1.7-.21 3.91-2.47 3.91-2.47l-.71 1.15c3.39-2.3 3.64-5 3.64-5v1.38a4.77 4.77 0 0 0-.06-4.3l1 1.46a6.2 6.2 0 0 0-.9-3.49 1 1 0 0 0 .24-.54 2.92 2.92 0 0 0 .21-2.18c-.44-.84-1.37-.34-1.37-.34l.35-.63c0-1.39-1.65-2.57-1.65-2.57Z" class="cls-4"/><path d="M53.27 29.82c-.45-.41-.3-.73-.17-1.15s-.5-1-.5-1a.4.4 0 0 1 .49.07 3.83 3.83 0 0 0-.76-1 .36.36 0 0 1 .21-.34l.15-.28c0-1.39-1.64-2.57-1.64-2.57H39.89a10 10 0 0 0-1.58 2.64l.13.25a.4.4 0 0 1 .14.31 3.85 3.85 0 0 0-.75 1 .4.4 0 0 1 .49-.07s-.63.56-.5 1 .28.76-.17 1.16a6.25 6.25 0 0 0-.89 3.49l1-1.46a4.73 4.73 0 0 0-.06 4.3V34.8s.26 2.73 3.65 5l-.72-1.15s2.22 2.26 3.91 2.47l-.37-.35a2.6 2.6 0 0 0 2.57 0l-.37.35c1.7-.21 3.91-2.47 3.91-2.47l-.71 1.15c3.39-2.3 3.64-5 3.64-5v1.37a4.77 4.77 0 0 0-.06-4.3l1 1.46a6.41 6.41 0 0 0-.87-3.5" class="cls-4"/><path d="M43.44 40.53a2 2 0 0 1 .76 2.27 1.62 1.62 0 0 0 .59-1.72s.67 1.52-.25 2.42c0 0 2.46-1.35 2.51-2.89s-3.61-.08-3.61-.08" class="cls-4"/><path d="M53.27 29.82c-.45-.41-.3-.73-.17-1.15s-.5-1-.5-1a.4.4 0 0 1 .49.07 3.83 3.83 0 0 0-.76-1 .36.36 0 0 1 .21-.34l.15-.28c0-1.39-1.64-2.57-1.64-2.57H39.89a10 10 0 0 0-1.58 2.64l.13.25a.4.4 0 0 1 .14.31 3.85 3.85 0 0 0-.75 1 .4.4 0 0 1 .49-.07s-.63.56-.5 1 .28.76-.17 1.16a6.25 6.25 0 0 0-.89 3.49l1-1.46a4.73 4.73 0 0 0-.06 4.3V34.8s.26 2.73 3.65 5l-.72-1.15s2.22 2.26 3.91 2.47l-.37-.35a2.6 2.6 0 0 0 2.57 0l-.37.35c1.7-.21 3.91-2.47 3.91-2.47l-.71 1.15c3.39-2.3 3.64-5 3.64-5v1.37a4.77 4.77 0 0 0-.06-4.3l1 1.46a6.41 6.41 0 0 0-.87-3.5" class="cls-2"/><path d="M43.44 40.53a2 2 0 0 1 .76 2.27 1.62 1.62 0 0 0 .59-1.72s.67 1.52-.25 2.42c0 0 2.46-1.35 2.51-2.89s-3.61-.08-3.61-.08" class="cls-2"/><path d="M50.17 23.73h.07a.15.15 0 0 0 .11-.13.14.14 0 0 0-.12-.15h-.1a.76.76 0 0 1-.28-.47v-.06a.08.08 0 0 0 0-.08.05.05 0 0 0 0-.05.67.67 0 0 1 .11-.34.23.23 0 0 0 .21-.2.16.16 0 0 0-.15-.2 5.88 5.88 0 0 1 0-.73c.08 0 .13-.18.19-.49a3.08 3.08 0 0 1 .11-.39c0-.07 0-.16.08-.27a8.58 8.58 0 0 1 .52-1.4h.1a.46.46 0 0 0 .37-.52.45.45 0 0 0-.89.15.5.5 0 0 0 .16.27c-.17.29-.56 1.21-.69 1.51 0-.72.11-1.74.11-1.93a.46.46 0 0 0 .37-.52.43.43 0 0 0-.51-.36.45.45 0 0 0-.37.52.53.53 0 0 0 .16.28c-.12.22-.74 1.36-.9 1.64a2.18 2.18 0 0 0-.14.25v-.31a.46.46 0 0 0 .24-.48.44.44 0 0 0-.51-.36.45.45 0 0 0-.37.52.44.44 0 0 0 .23.31c-.12.2-.36.67-.46.84a.51.51 0 0 1-.22-.06 1.28 1.28 0 0 1-.26-.2 5.63 5.63 0 0 1-.93-2 .43.43 0 0 0 .22-.46.45.45 0 0 0-.52-.37.44.44 0 0 0-.37.51.44.44 0 0 0 .25.33 8.22 8.22 0 0 1-.63 1.64s-.58 1.11-1.21 1.2-1.45-.72-1.45-.72A7.37 7.37 0 0 1 41.59 19a.44.44 0 0 0 .13-.39.44.44 0 0 0-.52-.36.45.45 0 0 0-.37.52.46.46 0 0 0 .35.36 5.79 5.79 0 0 1-.16 2 2 2 0 0 1-.26.49.29.29 0 0 1-.27.06c-.18-.18-.49-.48-.64-.61a.47.47 0 0 0 .11-.38.45.45 0 1 0-.88.16.43.43 0 0 0 .37.36l.1.3-.22-.17c-.25-.23-1.25-1.14-1.4-1.29a.52.52 0 0 0 .06-.3.42.42 0 0 0-.51-.36.44.44 0 1 0 .15.87 15.21 15.21 0 0 1 .73 1.79c-.2-.23-.84-.95-1.11-1.19a.41.41 0 0 0 .05-.31.45.45 0 1 0-.88.16.44.44 0 0 0 .52.36.15.15 0 0 0 .08 0 8.47 8.47 0 0 1 .98 1.14c.06.09.11.17.16.23l.11.15.11.17c.17.27.26.41.34.41a6.25 6.25 0 0 1 .28.67.2.2 0 0 0-.08.26c0 .1.16.12.22.13a.88.88 0 0 1 .22.31.07.07 0 0 0 0 .06.82.82 0 0 1-.06.56h-.06s-.06 0-.08.08a.2.2 0 0 0 0 .11s.06.07.12.09 1-.34 1.66-.5 1.84-.43 3.18-.67 2.62-.45 4-.55a18.05 18.05 0 0 1 2-.08" style="fill:#f49e20"/><path d="M45.46 26.26c1.49 0 2.17-.67 3.8-.3 1.79.4 1.23 2.46 1.23 2.46a1.75 1.75 0 0 0-1.64-1.48c-1.38-.12-1.81.49-3.39.49s-2-.61-3.39-.49a1.75 1.75 0 0 0-1.64 1.48s-.56-2.06 1.23-2.46c1.63-.37 2.31.3 3.8.3" class="cls-4"/><path d="M41.66 26.3c1.63-.37 2.31.29 3.8.29s2.17-.66 3.8-.29a1.6 1.6 0 0 1 1.31 1.61A1.7 1.7 0 0 0 49.26 26c-1.63-.37-2.31.3-3.8.3s-2.17-.67-3.8-.3a1.7 1.7 0 0 0-1.31 1.95 1.6 1.6 0 0 1 1.31-1.61M41.14 34.32v-.15c.12-.07.24-.11.35-.17a5.42 5.42 0 0 1 1.87-.39 7.42 7.42 0 0 1 2.34.32 7.25 7.25 0 0 1 3.18 1.89l.16-.29a7 7 0 0 0-3.33-2.07 7.34 7.34 0 0 0-2.33-.31 5.25 5.25 0 0 0-1.88.39l-.34.16a4.18 4.18 0 0 0 0 .51v.11" class="cls-3"/><path d="M41.73 33a6.43 6.43 0 0 1 4.28.07 7.18 7.18 0 0 1 3.19 2.07 3.3 3.3 0 0 0 .23-1.14 3.79 3.79 0 0 0-4-3.58 3.92 3.92 0 0 0-3.84 2.67h.11" class="cls-4"/><path d="M46.18 28.41c-.67.13-.31 1.18-.72 1.18s-.05-1.06-.72-1.18c-1.14.2-2 .89-2 1.72 0 1 1.19 1.77 2.67 1.77s2.67-.79 2.67-1.77c0-.83-.83-1.5-2-1.72" class="cls-4"/><path d="M45.41 30.46c1-.06.91-1.67 1.15-1.2s1 .67 1 .67S47.32 31 45.45 31s-2.09-1.08-2.09-1.08a1.78 1.78 0 0 0 1-.67c.22-.47.11 1.14 1.15 1.2Z" style="stroke-width:.05px;stroke-miterlimit:10;stroke:#010101;fill:#010101"/><g class="cls-7"><g class="cls-8"><path d="M43.62 27.42A.85.85 0 0 1 42 28a.85.85 0 1 1 1.59-.58" class="cls-3"/></g></g><g class="cls-9"><g class="cls-8"><path d="M43.21 27.94a.37.37 0 0 1-.21.47.36.36 0 1 1 .21-.47" class="cls-10"/></g></g><g class="cls-11"><path d="M43.21 27.94a.37.37 0 0 1-.21.47.36.36 0 1 1 .21-.47Z" class="cls-8" style="stroke-width:.03px;stroke:#111719;stroke-miterlimit:10;fill:none"/></g><g class="cls-14" style="clip-path:url(#clip-path-7)"><path d="M47.3 27.42a.85.85 0 0 0 1.59.58.86.86 0 0 0-.5-1.09.84.84 0 0 0-1.09.51" class="cls-3"/></g><g class="cls-15"><g class="cls-14"><path d="M47.57 27.93a.51.51 0 0 0 .31.67.52.52 0 1 0 .35-1 .5.5 0 0 0-.66.31" class="cls-2"/></g></g><g class="cls-7"><g class="cls-16"><path d="M43.62 27.42A.85.85 0 0 1 42 28a.85.85 0 1 1 1.59-.58" class="cls-3"/></g></g><g class="cls-9"><g class="cls-16"><path d="M43.35 27.93a.52.52 0 1 1-.66-.31.51.51 0 0 1 .66.31" class="cls-2"/></g></g><path d="M43 24.53s1.73-.91 1.77-1.7.4 1-.11 1.36 1.66-.78 1.43-1.79c0 0 1.14 2 .33 1.65a2.54 2.54 0 0 1 2.67-1.58s-1.34.88-.44 1.56-5.65.5-5.65.5" class="cls-2"/><path d="M45.47 26.18c1.53 0 2.23-.69 3.9-.32 1.84.42 1.27 2.55 1.27 2.55A1.81 1.81 0 0 0 49 26.87c-1.41-.12-1.86.51-3.49.51s-2.07-.62-3.49-.51a1.8 1.8 0 0 0-1.69 1.54s-.57-2.13 1.27-2.55 2.39.32 3.92.32" class="cls-4"/><path d="M41.56 26.22c1.67-.38 2.37.31 3.9.31s2.23-.69 3.9-.31a1.66 1.66 0 0 1 1.35 1.66 1.77 1.77 0 0 0-1.35-2c-1.67-.38-2.38.32-3.9.32s-2.23-.7-3.9-.32a1.74 1.74 0 0 0-1.35 2 1.66 1.66 0 0 1 1.35-1.66" class="cls-3"/><path d="M41.64 33.15a6.68 6.68 0 0 1 4.41.06 7.48 7.48 0 0 1 3.28 2.14c.15-.38-.06-.8-.06-1.22A3.82 3.82 0 0 0 45 30.24c-3.3.22-3.35 1.22-3.8 2.79 0 0 .36.13.4.12" class="cls-4"/><path d="M46.2 28.4c-.69.13-.32 1.22-.73 1.22s0-1.09-.73-1.22c-1.16.21-2 .92-2 1.75 0 1 1.24 1.83 2.75 1.83s2.75-.83 2.75-1.83c0-.83-.86-1.54-2-1.75" class="cls-4"/><path d="M45.42 30.5c1.07-.06.94-1.72 1.19-1.24a1.76 1.76 0 0 0 .85.7s-.07 1.11-2 1.11-2-1.11-2-1.11a1.77 1.77 0 0 0 .86-.7c.24-.48.11 1.16 1.18 1.24Z" style="stroke-width:.06px;stroke-miterlimit:10;stroke:#010101;fill:#010101"/><g class="cls-7"><g class="cls-18"><path d="M43.74 27.29a.95.95 0 1 1-1.22-.57.94.94 0 0 1 1.22.57" class="cls-3"/></g></g><g class="cls-9"><g class="cls-18"><path d="M43.29 27.9a.42.42 0 0 1-.24.52.41.41 0 0 1-.53-.24.42.42 0 0 1 .24-.52.39.39 0 0 1 .53.24" class="cls-10"/></g></g><g class="cls-11"><path d="M43.29 27.9a.42.42 0 0 1-.24.52.41.41 0 0 1-.53-.24.42.42 0 0 1 .24-.52.39.39 0 0 1 .53.24Z" class="cls-18" style="stroke-width:.04px;stroke:#111719;stroke-miterlimit:10;fill:none"/></g><g class="cls-21" style="clip-path:url(#clip-path-21)"><path d="M47.26 27.29a1 1 0 1 0 1.23-.57 1 1 0 0 0-1.23.57" class="cls-3"/></g><g class="cls-15"><g class="cls-21"><path d="M47.57 27.87a.59.59 0 0 0 .35.76.6.6 0 0 0 .75-.36.57.57 0 0 0-.35-.75.57.57 0 0 0-.75.35" class="cls-2"/></g></g><g class="cls-7"><g class="cls-22"><path d="M43.74 27.29a.95.95 0 1 1-1.22-.57.94.94 0 0 1 1.22.57" class="cls-3"/></g></g><g class="cls-9"><g class="cls-22"><path d="M43.44 27.87a.6.6 0 0 1-.35.76.61.61 0 0 1-.76-.36.59.59 0 0 1 .36-.75.57.57 0 0 1 .75.35" class="cls-2"/></g></g><path d="M45.75 37.37a4.67 4.67 0 0 0 4-2.57c.5-.87-3.59-2.19-5.87-2.56s-2.9.41-2.94.67a3.33 3.33 0 0 0 0 .55 4.4 4.4 0 0 0 4.81 3.91" class="cls-4"/><path d="M45.75 37.37a4.67 4.67 0 0 0 4-2.57c.5-.87-3.59-2.19-5.87-2.56s-2.9.41-2.94.67a3.33 3.33 0 0 0 0 .55 4.4 4.4 0 0 0 4.81 3.91Z" class="cls-23"/><path d="M43.88 32.69c2 .32 5.28 1.35 5.84 2.18v-.07c.5-.87-3.6-2.19-5.88-2.56s-2.9.41-2.94.67a5.3 5.3 0 0 1 2.94-.22" class="cls-3"/><path d="M45.75 37.37a4.67 4.67 0 0 0 4-2.57c.5-.87-3.59-2.19-5.87-2.56s-2.9.41-2.94.67a3.33 3.33 0 0 0 0 .55 4.4 4.4 0 0 0 4.81 3.91Z" class="cls-23"/><path d="M48.67 35.22c-2.25-.14-2.31-1.34-4.05-1.81s-2.64.37-3.12 0c.29.53 1.27-.24 3 .22s1.87 1.46 4.14 1.6" class="cls-2"/><path d="M48.66 35.22c-2.24-.14-2.3-1.34-4-1.81s-2.64.37-3.12 0c.29.53 1.27-.24 3 .22s1.86 1.45 4.12 1.59Z" style="stroke-linecap:round;stroke-linejoin:round;stroke-width:.07px;stroke:#010101;fill:none"/><path d="m47.12 33 .21-.58a2 2 0 0 1 .32.83ZM42.63 32v-.61a1.91 1.91 0 0 0-.61.65Z" class="cls-25"/></svg>