<svg xmlns="http://www.w3.org/2000/svg" viewBox="0 0 120 60"><path d="M22.01,18.17l4.19-2.58s-1.37,.32-4.34,1.8c0,0-1.08-2.67-1.08-3.32l1.98,.09s-1.41-.6-2.26-.6c0,0-1.65-5.66-1.18-12.11l-1.32-1.11s-.71-.78-1.13,0c-.42,.78,.47,2.12-.61,5.99-1.13,3.91-2.69,9.03-2.69,9.03,0,0-2.88,1.47-3.25,2.21,0,0,.14-1.84-2.03-3.82,0,0-5.56-4.28-4.15-7,1.37-2.62,2.92-3.22,3.25-3.13,.33,.09,.52,.64-.42,1.47s-1.37,1.47-1.04,1.75,2.31-1.29,2.31-1.29c0,0,2.55-1.47,2.88-2.95S11.41-.2,9.62,.12,2.26,3.34,.85,6.98s1.51,5.85,2.31,6.54c.8,.69,4.71,3.59,3.91,4.79,0,0-1.08,.83-.47,1.52,.66,.69-1.84,2.3-2.36,2.21h-.9s-.38-.37,.71-.97c.8-.41,2.5-1.66,1.37-1.66S0,21.76,0,23.42s2.83,1.52,4.57,.6c1.74-.92,2.88-2.03,3.91-3.27,1.04-1.24,3.21-3.09,4.01-3.27,.8-.18-1.32,2.9-1.32,2.9,0,0,1.98,1.01,3.68-4.33,0,0,2.31-1.24,3.72-1.52l1.04,4.1s-5.14,2.99-3.58,6.63c0,0,.85,1.66,4.24,4.7s3.87,3.59,5.18,2.58c1.32-1.01,.61-3.18,0-4.79-.57-1.7-3.44-9.58-3.44-9.58Zm-6.83-3.5l2.03-6.03,1.18,5.11-3.21,.92Zm8.3,15.98c-.24,0-4.52-4.05-5.47-5.07s-1.65-2.53-.47-3.96,2.4-2.26,2.4-2.26l3.54,10.82s.24,.46,0,.46Zm.94-16.99s.09,.78,1.37,.69,1.65-.6,.33-.87c-1.27-.28-1.74-.23-1.7,.18Z" fill="#c09a5e"/><path d="M42.24,15.54v1.91h2.55v2.74c-.65,.32-1.57,.51-2.61,.51-2.42,0-4.24-1.85-4.24-4.27s1.7-4.27,4.11-4.27c1.24,0,2.22,.38,3,1.15l.2,.19,1.44-1.53-.2-.13c-1.04-1.02-2.48-1.53-4.44-1.53-3.53,0-6.2,2.62-6.2,6.19s2.61,6.19,6.4,6.19c1.31,0,3.2-.32,4.44-1.08l.13-.06v-5.93l-4.57-.06h0Zm13.91-4.78h1.83l4.96,11.29h-2.48l-.85-2.49h-5.22l-1.11,2.49h-2.29l5.16-11.29Zm2.68,7.14l-1.83-4.59h-.07l-2.02,4.59h3.92Zm8.42-7.14h3.2l3.13,8.36h.07l3.13-8.36h3.13v11.29h-2.02V12.74h-.07l-3.46,9.31h-1.63l-3.53-9.31h.13v9.31h-2.02l-.07-11.29h0Zm18.61,0h1.83v11.29h-1.83V10.76Zm7.7,0h2.74l5.55,8.74h0V10.76h2.02v11.29h-2.81l-5.42-8.68h0v8.68h-2.02V10.76h-.07Zm21.74,4.78v1.91h2.55v2.74c-.65,.32-1.57,.51-2.61,.51-2.42,0-4.18-1.85-4.18-4.27s1.7-4.27,4.11-4.27c1.24,0,2.22,.38,3,1.15l.2,.19,1.44-1.53-.13-.13c-1.04-1.02-2.48-1.53-4.44-1.53-3.53,0-6.2,2.62-6.2,6.19s2.61,6.19,6.4,6.19c1.31,0,3.2-.32,4.44-1.08l.13-.06v-5.93l-4.7-.06h0Z" fill-rule="evenodd" fill="#58595b"/></svg>
