<svg xmlns="http://www.w3.org/2000/svg" viewBox="0 0 120 60"><path d="M6.84,7.28C11.12,2.76,17.16,.03,23.29,0c4.13-.11,8.27,.99,11.87,3.08,5.65,3.23,9.89,8.95,11.44,15.41,1.08,4.49,.93,9.31-.48,13.71-1.93,6.05-6.24,11.26-11.76,14.13-4.72,2.53-10.29,3.26-15.49,2.16-5.66-1.2-10.82-4.64-14.23-9.45C1.76,35.05,.12,30.13,0,25.15v-1.28C.13,17.71,2.63,11.65,6.84,7.28ZM17.3,1.71C12.13,6.95,8.59,13.91,7.54,21.32c-1.66-2.73-2.88-5.76-3.68-8.88-.03-.02-.08-.05-.11-.07-2.07,3.66-3.22,7.88-3.19,12.13,.03,.7-.1,1.47,.33,2.08,1,1.72,2.13,3.36,3.41,4.88,.37,.45,.8,.88,1.01,1.44,1.06,2.68,2.41,5.24,4.06,7.59-1.86-.91-3.63-2-5.29-3.26,2.35,3.79,5.71,6.89,9.62,8.89-.34-.5-.68-.99-.99-1.5,.59,.46,1.1,1.01,1.64,1.51,.75,.74,1.79,1.01,2.75,1.34-1.99-1.63-3.98-3.3-5.59-5.35,4.63,1.61,9.67,1.99,14.48,1.03,.69-.14,1.38-.34,2.1-.35,4.51,0,8.98-1.13,13.05-3.11,.76-.3,1.14-1.1,1.63-1.7-3.8,2.16-8.01,3.57-12.34,3.98,1.48-.78,3.08-1.31,4.48-2.26,.77-.39,1.4-1.19,2.31-1.17,1.9-.07,3.8-.31,5.65-.77,3.19-4.9,4.42-10.99,3.68-16.81-.42,1.92-.74,3.87-1.5,5.69-1.74,4.48-4.8,8.4-8.64,11.14-3.29,.17-6.61-.35-9.78-1.27-7.57-2.24-14.25-7.41-18.53-14.22C9.14,14.15,13.09,6.45,19.08,1.03c-.6,.18-1.33,.18-1.78,.68Zm-.77,6.4c-.86,1.75-.21,4.06,1.43,5.06,1.01,.73,2.27,.55,3.42,.6,.63,.01,1.14,.71,1.03,1.34-.12,.48-.53,.93-1.03,.92-1.45,.04-2.9,0-4.35,.01,0,.93,0,1.86,0,2.79,1.53-.01,3.06,.05,4.58-.03,2.1-.11,3.78-2.33,3.42-4.46-.24-1.92-2.01-3.49-3.9-3.36-.7-.07-1.6,.23-2.09-.45-.52-.62-.13-1.74,.67-1.82,1.48-.09,2.97,0,4.46-.04,0-.92,0-1.84,0-2.75-1.5-.01-3-.04-4.5,0-1.34,.06-2.55,.98-3.15,2.19Zm11.6,6.49c1.75-.61,3.52-1.18,5.27-1.77,.96,1.82,1.89,3.65,2.86,5.45,.97-.01,1.95,0,2.93-.01-2.18-4.07-4.34-8.15-6.47-12.25-1.56,2.84-3.05,5.73-4.59,8.58Zm-.95,1.85c-.33,.61-.65,1.22-.96,1.84,.99-.02,1.98,0,2.96-.03,.5-1.02,1.04-2.02,1.58-3.02-1.18,.43-2.38,.81-3.58,1.21Zm.79,10.03c2.28-.9,4.58-1.72,6.86-2.61,1.05,2.11,2.19,4.16,3.25,6.27,.98,.02,1.96,.02,2.94,.06-2.5-4.68-5.05-9.34-7.53-14.02-1.86,3.42-3.64,6.89-5.51,10.3Zm-5.13-6.02c.45,.63,.41,1.59-.36,1.92-.93,.17-1.89,.04-2.84,.08,0-.68,0-1.36,0-2.04-.88,0-1.76,0-2.64,.02,.03,3.23,.02,6.46,.03,9.69,1.77,0,3.53,.02,5.3,0,1.91-.07,3.5-1.93,3.45-3.88,.01-.9-.38-1.74-.88-2.46,1.14-1.3,1.08-3.26,.23-4.71-.68,.59-1.44,1.08-2.28,1.37Zm4.17,7.89c-.3,.6-.62,1.21-.94,1.8,.98-.01,1.97,0,2.95-.01,.54-1.01,1.05-2.04,1.61-3.04-1.2,.45-2.42,.81-3.62,1.25Zm-21.61,2.7c.35,1.39,1.59,2.23,2.55,3.16-.89-3.82-1.03-7.81-.58-11.7-1.26-2.06-2.35-4.23-3.17-6.52-.23-.61-.35-1.28-.7-1.84-.5,5.69,.04,11.5,1.89,16.9Zm3.35,3.6c.03,.3,.25,.5,.47,.68,4.55,3.75,10.18,6.09,15.98,6.61,.87,.05,1.76,.2,2.63,0,2.66-.71,5.18-1.89,7.52-3.36-4.41-.06-8.81-1-12.86-2.82-5.84-2.57-10.88-6.92-14.51-12.29-.32,3.74-.07,7.53,.77,11.18Zm10.9-7.23c.94-.04,1.89,.1,2.82-.08,.96-.36,.86-1.91-.13-2.14-.89-.09-1.79-.02-2.69-.03,0,.75,0,1.5,0,2.25Zm34.86,10.07c.9,.12,2.09-.34,2.71,.58,.59,.76-.08,2.03-1.01,1.96-1.57,.01-3.14,.02-4.7-.02-.04,1.04-.01,2.07-.03,3.11,1.65,0,3.31,.03,4.96,0,2.11-.08,3.97-2.06,3.96-4.25,.09-1.89-1.22-3.68-2.94-4.26-.96-.3-1.96-.1-2.94-.21-.5-.06-.91-.49-1.04-.98-.18-.78,.5-1.62,1.28-1.56,1.55-.01,3.1,0,4.64,0,0-1.02,0-2.03,.02-3.05-1.65-.03-3.29-.02-4.94-.01-2.08,.03-3.96,1.95-3.99,4.1-.21,2.32,1.75,4.55,4.01,4.57Zm7.27-8.68c1.99,0,3.97-.02,5.96,0,2.16,.05,4.02,2.13,3.95,4.35,.04,2.13-1.67,4.12-3.73,4.3-1.07,.07-2.14,0-3.21,.03,.03,1.88,0,3.75,.02,5.63-.99,0-1.98,0-2.97,0,0-4.77,.02-9.55,0-14.32Zm2.98,3.05c0,.86,0,1.72,0,2.58,1.1-.08,2.25,.18,3.32-.17,1.01-.51,.75-2.16-.33-2.37-.99-.08-1.99,0-2.99-.04Zm23.53-3.02c1.87-.06,3.74-.01,5.62-.03,1.06-.04,2.14,.34,2.91,1.1,1.44,1.25,1.79,3.53,.94,5.23-.4,.83-1.1,1.44-1.83,1.94,1.01,1.99,1.89,4.06,2.9,6.05-1.1-.01-2.19-.02-3.29,0-.95-1.86-1.77-3.78-2.69-5.65-.52,0-1.03,0-1.55,0,.03,1.88,0,3.76,.01,5.63-1,0-1.99,0-2.99,0-.02-4.76,.03-9.53-.02-14.29Zm2.99,3.04c.03,.85,.03,1.7,.03,2.55,1.08-.07,2.19,.16,3.24-.14,1-.43,.88-2.07-.15-2.36-1.03-.16-2.08-.04-3.12-.05Zm8.32-.01c1,0,1.99,0,2.99,0,0,3.76,0,7.51,0,11.26,.98,0,1.97,0,2.96,0,0-3.76-.01-7.52,0-11.28,.99,.02,1.97,.02,2.96,.01-.02-1.02-.02-2.04,0-3.05-2.98,0-5.95-.01-8.93,.01,.01,1.02,.01,2.03,0,3.05Zm14.72,5.62c.83,.08,1.91-.29,2.49,.54,.64,.77-.06,2.09-1.03,2.01-1.56,.01-3.12,0-4.69,0,0,1.03,0,2.06,0,3.09,1.63-.02,3.27,.02,4.9-.01,2.13-.05,4.04-2.03,4.01-4.24,.11-1.97-1.32-3.84-3.15-4.32-.92-.22-1.87-.03-2.79-.16-.48-.08-.85-.51-.98-.97-.17-.75,.48-1.57,1.22-1.55,1.57-.03,3.15,0,4.73,0-.02-1.02-.02-2.04,0-3.06-1.66,.01-3.31-.02-4.97,0-2.16,.05-4.04,2.13-3.96,4.35-.05,2.3,1.97,4.41,4.22,4.32Zm-34.25-5.93c.92,.33,1.92,.56,2.66,1.25,1.27,1.1,1.77,3.05,1.15,4.64-.7,1.95-2.94,3.19-4.89,2.52-1.89-.64-3.78-1.28-5.66-1.95,.91,2.9,3.63,5.17,6.64,5.12,3.41,.13,6.6-2.76,6.95-6.25,.43-3-1.24-6.11-3.89-7.39-2.23-1.11-5.06-.87-7.05,.67,1.37,.42,2.73,.93,4.09,1.38Zm-3.54,2.43c.4-.64,.91-1.19,1.54-1.61-1.09-.35-2.18-.71-3.24-1.12-.42,.55-.8,1.12-1.15,1.72,.94,.36,1.9,.67,2.85,1.01ZM9.31,39.1c-.34-1.18-.79-2.32-1.1-3.5-.43-.69-1.16-1.14-1.72-1.71,.83,1.8,1.71,3.58,2.82,5.21Zm63.79-2.66c1.1,.38,2.19,.78,3.3,1.12-.25-.7-.37-1.44-.3-2.18-.95-.33-1.9-.68-2.86-.98-.07,.68-.12,1.36-.13,2.04Zm-62.06,4.68c4.2,1.65,8.84,2.15,13.29,1.54-.64-.27-1.35-.25-2.02-.38-4.8-.86-9.33-3.03-13.2-6.06,.61,1.64,1,3.44,1.93,4.9Z" fill-rule="evenodd" fill="#231f20"/><path d="M50.72,11.63c-.19-3.2,2.6-6.17,5.69-6.1,2.2,0,4.4,0,6.6,0-.02,1.41,0,2.82,0,4.24-2.26,0-4.53-.04-6.79,.02-1.25,.15-1.88,1.9-1.01,2.85,.84,1.04,2.27,.51,3.4,.64,3.28-.09,6.15,3.18,5.75,6.53-.18,2.89-2.7,5.41-5.52,5.46-2.25,.05-4.51,0-6.76,.02v-4.27c2.25-.02,4.51,.03,6.77-.02,1.24-.11,1.87-1.84,1.07-2.79-.76-1.04-2.16-.6-3.24-.69-3.1,.2-6.02-2.66-5.95-5.87Zm33.87,12.97c-3.39-6.39-6.79-12.77-10.15-19.18-2.46,4.61-4.89,9.24-7.4,13.82,2.83-.93,5.67-1.84,8.48-2.83,1.58,2.89,3.09,5.83,4.6,8.76,3.07-.01,6.14,.16,9.21,.11,1.37-.03,2.75,.09,4.11-.11,2.66-.45,4.83-3.07,4.74-5.87,.06-1.43-.48-2.82-1.34-3.92,1.84-2.12,1.83-5.65,0-7.76-1.02-1.23-2.53-2.07-4.12-2.09-2.72-.02-5.43,0-8.15,0,.04,6.36,0,12.72,.02,19.07Zm7.89-14.84c.93-.02,1.75,.93,1.64,1.88-.03,.86-.81,1.64-1.65,1.62-1.26,.03-2.53,0-3.79,0,.01-1.17,.01-2.34,0-3.51,1.27,0,2.54-.02,3.81,0Zm-.03,7.75c.91,0,1.7,.87,1.65,1.8,0,.88-.76,1.72-1.64,1.69-1.26,.02-2.53,0-3.79,0,.01-1.17,.02-2.34,0-3.5,1.26,0,2.52-.02,3.78,0Zm17.09-1.09c1.53,2.92,3.06,5.85,4.6,8.77,1.59,0,3.18,0,4.78,0-3.54-6.55-6.99-13.16-10.49-19.74-2.48,4.59-4.9,9.22-7.4,13.8,2.83-.95,5.68-1.86,8.51-2.83Z" fill="#e13c29"/><path d="M100.12,22.03c1.71-.56,3.43-1.12,5.14-1.7-.86,1.62-1.69,3.24-2.55,4.86-1.59,0-3.18,0-4.76,0,.49-.9,.93-1.83,1.43-2.72,.13-.3,.49-.32,.75-.44Z" fill="#e13c29"/><path d="M65.54,22.26c1.89-.69,3.82-1.27,5.73-1.93-.88,1.62-1.69,3.27-2.58,4.87-1.58-.05-3.16,0-4.74-.03,.57-.94,.97-2,1.59-2.91Z" fill-rule="evenodd" fill="#e13c29"/></svg>
