<svg xmlns="http://www.w3.org/2000/svg" viewBox="0 0 120 60"><path d="M2.23,.33C4.71-.4,7.52,.09,9.57,1.74c.96,.8,1.89,1.63,2.83,2.45,.64-.75,1.25-1.53,1.87-2.29,.34-.41,.69-.85,1.19-1.05,.57-.25,1.2-.17,1.8-.18,.71,.02,1.43-.05,2.14,.04,.81,.12,1.38,1.01,1.23,1.83-.07,.44-.35,.8-.62,1.13-1.14,1.38-2.26,2.78-3.39,4.17,.86,.52,1.84,.86,2.85,.76,.75-.01,1.41-.37,2.08-.67,.37-.23,.94,.04,.97,.5,.06,.82,.03,1.65,.01,2.47,0,.62-.45,1.17-1.02,1.31-2.48,.77-5.27,.26-7.35-1.34-.38,.47-.76,.93-1.12,1.41,.7,.58,1.38,1.19,2.07,1.78,.66,.57,1.49,1.16,1.59,2.13,.19,.95-.35,1.8-.94,2.45-2.83,3.47-5.64,6.95-8.46,10.42-.44,.56-1.1,.93-1.8,.91-1.03,0-2.07,.06-3.11-.04-1.02-.16-1.55-1.53-.98-2.41,.49-.73,1.1-1.36,1.62-2.06-.82-.02-1.64,.04-2.45-.02-.29,0-.41-.32-.57-.52v-.32c.3-.57,.73-1.05,1.13-1.54,1.55-1.9,3.09-3.82,4.64-5.71-1.18-1.03-2.38-2.05-3.55-3.09-.62-.52-.63-1.55-.1-2.14,1.85-2.3,3.72-4.57,5.57-6.87-1.03-.97-2.45-1.51-3.84-1.26-.73,.08-1.34,.53-2.03,.73-.34-.02-.7-.3-.67-.68-.03-.82-.03-1.64,0-2.46,.02-.62,.5-1.12,1.07-1.26ZM15.08,2.33c-2.82,3.54-5.73,7.01-8.52,10.56,1.56,1.31,3.08,2.66,4.61,3.99-2.98,3.65-5.95,7.33-8.92,10.99-.38,.37-.18,1.12,.35,1.19,.79,.06,1.57,0,2.36,.02,.58,.04,1.24-.05,1.61-.57,2.99-3.69,5.98-7.37,8.96-11.06,.48-.56,.38-1.49-.18-1.96-1.18-1.05-2.4-2.06-3.58-3.12,2.37-2.91,4.73-5.83,7.1-8.75,.28-.35,.59-.68,.82-1.07,.26-.4-.13-.97-.57-.97-.94-.03-1.87-.02-2.81,0-.52-.02-.94,.34-1.24,.74Zm16.25,3.93c-1.2,1.77-1.31,4.25-.32,6.15,.85,1.59,2.43,2.52,3.94,3.32,1.13,.63,2.36,1.17,3.23,2.19,.64,.76,.92,1.96,.35,2.84-.89,1.46-3.2,1.57-4.22,.21-.47-.52-.51-1.24-.57-1.91-.02-.34-.39-.53-.69-.51-.8,0-1.6-.02-2.39,.01-.35,0-.64,.34-.64,.7-.11,2.05,.95,4.07,2.61,5.18,1.14,.8,2.54,1.13,3.9,1.05,2.12,.07,4.25-1.11,5.32-3.01,1.38-2.38,.9-5.72-1.08-7.6-1.49-1.54-3.53-2.29-5.27-3.47-.81-.56-1.66-1.49-1.33-2.59,.42-1.66,2.81-2.16,3.82-.79,.53,.52,.39,1.54,1.13,1.86,.78,.13,1.58,.03,2.36,.06,.43,.08,.9-.29,.83-.77-.11-1.84-1.1-3.62-2.62-4.6-1.4-.9-3.14-1.16-4.74-.8-1.45,.32-2.79,1.21-3.63,2.48Zm13.15-1.65c-.02-.57,.5-1.05,1.04-.98,1.72,0,3.44,0,5.15,0,1.84,.02,3.73,.93,4.68,2.6,.81,1.33,.7,2.96,.67,4.46-.03,1.22-.61,2.33-1.32,3.27,.91,1.03,1.58,2.35,1.53,3.78-.06,1.46,.2,3.01-.4,4.39-.9,2.11-3.14,3.4-5.33,3.36-1.72-.01-3.44,0-5.16,0-.54,.02-.92-.57-.86-1.09,0-6.59,0-13.18,0-19.76Zm3.89,2.73c.03,1.62,0,3.25,.01,4.88,.84-.02,1.68,.06,2.51-.06,.77-.11,1.39-.84,1.34-1.65-.04-.95,.27-2.22-.64-2.84-.95-.63-2.16-.25-3.23-.32Zm.03,8.52c-.03,1.98,0,3.97-.01,5.95,1.1-.09,2.42,.31,3.33-.52,.59-.49,.63-1.32,.62-2.04-.02-.95,.14-2.08-.59-2.81-.89-.9-2.24-.46-3.34-.58ZM66.91,3.78c2.43-.43,5,.07,7.12,1.38,2.39,1.45,4.18,3.92,4.85,6.7,.66,2.75,.3,5.78-1.11,8.22-1.32,2.36-3.53,4.17-6.06,4.95-2.51,.78-5.32,.58-7.68-.62-2.38-1.19-4.31-3.34-5.25-5.9-1.11-2.93-.9-6.36,.55-9.12,1.51-2.95,4.39-5.09,7.58-5.61Zm.74,3.99c-2.12,.32-4.04,1.78-4.97,3.78-1.01,2.05-.89,4.63,.28,6.58,1.29,2.25,3.91,3.6,6.42,3.27,2.6-.28,4.91-2.31,5.63-4.91,.79-2.63-.19-5.67-2.29-7.33-1.41-1.16-3.29-1.66-5.07-1.39Zm13.37-2.96c-.05-.54,.3-1.14,.86-1.16,1.78-.04,3.56,0,5.33-.02,1.93,.01,3.92,1.01,4.83,2.83,.7,1.29,.52,2.82,.53,4.24-.01,1.23-.64,2.33-1.31,3.3,.95,.99,1.54,2.33,1.54,3.73,0,1.73,.2,3.63-.81,5.12-1.06,1.69-3.04,2.66-4.97,2.63-1.71-.01-3.43,0-5.14,0-.54,0-.9-.55-.86-1.07,0-6.53,0-13.06,0-19.59Zm3.9,2.53c0,1.63,0,3.26,0,4.89,.84-.02,1.68,.06,2.51-.06,.77-.11,1.43-.84,1.34-1.67-.07-.92,.28-2.11-.54-2.76-.95-.75-2.22-.29-3.31-.41Zm-.01,8.56c.02,1.97,0,3.95,0,5.92,.92-.05,1.88,.14,2.78-.16,.81-.28,1.27-1.17,1.17-2.03-.07-1.07,.28-2.37-.58-3.19-.91-.89-2.26-.47-3.38-.55Zm9.74,8.68c-.04,.54,.49,.98,.99,.91,3,0,6.01,0,9.01,0,.44,.05,.9-.26,.98-.72,.06-.69,.05-1.39,.02-2.07-.01-.45-.41-.86-.84-.85-2.12-.03-4.24,.01-6.35-.02,.01-1.96,0-3.92,0-5.87,2.07-.01,4.14,0,6.22,0,.47,.03,.95-.36,.98-.86,.04-.63,.03-1.27,0-1.9,.01-.54-.48-.98-.98-.94-2.07-.02-4.14,0-6.21,0,0-1.63,0-3.26,0-4.89,2.07,0,4.13,0,6.2,0,.53,.05,1.02-.44,1-.99,.01-.63,.03-1.26-.02-1.88-.05-.49-.52-.86-.99-.82-3-.01-6,0-9.01,0-.53-.04-1.07,.42-1,1,0,6.65,0,13.29,0,19.94Zm12.87-18.05c.03,.5,.53,.84,1,.81,1.08,.02,2.17,0,3.25,0,0,5.69,0,11.37,0,17.06-.05,.49,.27,1.04,.78,1.07,.74,.04,1.48,.02,2.22,.01,.55,.04,.97-.55,.91-1.08,0-5.69,0-11.37,0-17.06,1.1,0,2.2,.01,3.3,0,.53,.05,1.03-.44,1-.99,.01-.63,.03-1.26-.02-1.89-.06-.5-.53-.86-1-.82-3.48,0-6.97,0-10.45,0-.54-.05-1.05,.43-1.01,.99-.01,.63-.03,1.26,.02,1.89Z" fill-rule="evenodd" fill="#11345b"/></svg>
