<svg xmlns="http://www.w3.org/2000/svg" viewBox="0 0 120 60"><path fill="#ffce05" d="M46.91 15.13c2.25-2.57 4.54-5.1 6.84-7.63.12 3.39.34 6.78.43 10.16 2.26-.61 4.57-1 6.82-1.63a39.75 39.75 0 0 0-4.36 3.85c-.92 1.22-1.54 2.64-2.34 3.95A8 8 0 0 0 51.11 21a3.05 3.05 0 0 1-1-.69 14.79 14.79 0 0 1 4.18 1.66 15.83 15.83 0 0 1 2.78-4c-1.28.37-2.58.7-3.86 1.08-.25-2.52-.48-5-.78-7.56-1.8 2.06-3.72 4-5.49 6.1-.92-1.45-1.76-3-2.67-4.41a18.08 18.08 0 0 1-.51 6.63 12.87 12.87 0 0 1 4.87.11l.64.4h-.21a15.92 15.92 0 0 0-5.63.28 4.59 4.59 0 0 1-1.17 0c.38-1.66 1.17-3.23 1.22-5a16.07 16.07 0 0 0-.53-5.66c1.4 1.61 2.59 3.48 3.96 5.19Zm33.48-3.25a5.73 5.73 0 0 1 5.49-1.69c5 1.08 9.92 2.14 14.88 3.23 4.45.94 8.88 1.93 13.33 2.87 1.29.36 2.7.41 3.85 1.18a4.78 4.78 0 0 1 1.92 5.1c-1.71 5.76-3.58 11.47-5.21 17.25-1 2.66-1.66 5.4-2.53 8.08a5.94 5.94 0 0 1-4.2 4.46 10 10 0 0 1-4.44-.32c-2.71-.61-5.43-1.17-8.14-1.78-6.47-1.38-12.93-2.8-19.4-4.19a5.85 5.85 0 0 1-3.7-1.72 4.72 4.72 0 0 1-1-4.5c1.3-4.38 2.69-8.74 4-13.13 1-3.12 2-6.23 2.86-9.37.73-1.83.88-4 2.31-5.47m4.45 5.68A6.42 6.42 0 0 0 81 21.69a5 5 0 0 0 1.53 5A7 7 0 0 0 76.87 32a5.07 5.07 0 0 0 1.45 4.72 10.4 10.4 0 0 0 5.46 2.58 10.2 10.2 0 0 0 7.08-1.11 6.26 6.26 0 0 0 3-5.69 5.39 5.39 0 0 0-2.1-3.82 6.51 6.51 0 0 0 4.72-4.38 5.15 5.15 0 0 0-1.62-5.3 9.75 9.75 0 0 0-10-1.48m33.74 1.51c-.52 1-1.7 1.08-2.61 1.49a49.59 49.59 0 0 1-5.81 2.06 4.34 4.34 0 0 0 1.35 1.13 7 7 0 0 1 2.69 3.69 7.64 7.64 0 0 1-.26 3.19 7.66 7.66 0 0 1-4 4.07 6.21 6.21 0 0 1-.2 8.34c-2.15 2.52-5.71 3-8.79 2.58a11.34 11.34 0 0 1-4.33-1.42 6.73 6.73 0 0 1-3.34-4.26c-.52-1.31.12-2.63.46-3.89a9 9 0 0 1-2.94 3 11.16 11.16 0 0 1-5.93 1.14c-1.39-.47-2.92-.45-4.25-1.16a7.74 7.74 0 0 1-4.11-3.87 8.69 8.69 0 0 1 .38-5.42 3.07 3.07 0 0 1-1.29.61c-.36 0-.79.09-.88.52-1 3.11-2 6.22-3 9.36a4.17 4.17 0 0 0 1.56 4.44h.06c2.59 1.12 5.43 1.36 8.13 2.08 1.66.33 3.32.67 5 1.12 2 .15 3.79.92 5.73 1.21 2.28.55 4.6.91 6.87 1.49 1.58.44 3.23.53 4.79 1 .86.31 1.8.22 2.66.54a5.61 5.61 0 0 0 4.94-3.82C113.56 41 116 33.79 118 26.47h.16c.38-1.05.52-2.17 1-3.19a3.94 3.94 0 0 0-.51-4.17m-17.86 4.75a6 6 0 0 0-3 4.42 5.13 5.13 0 0 0 1.69 4.18 7.39 7.39 0 0 0-5.09 3.75 5.5 5.5 0 0 0 .23 5.44 8.45 8.45 0 0 0 4.82 3.11 10.82 10.82 0 0 0 8.17-.64 6.72 6.72 0 0 0 3.31-4.79 5.43 5.43 0 0 0-2.14-4.87c2.88-.66 5.49-3.56 4.84-6.72a6 6 0 0 0-2.93-3.84 9.87 9.87 0 0 0-10 0m-3.9 1.61A8.6 8.6 0 0 1 93 29a6.9 6.9 0 0 1 1.52 4.11 22.2 22.2 0 0 1-.52 2.44c1.16-1.47 2.53-3 4.4-3.4-1.57-1.91-1.29-4.61-.44-6.78Zm-8.6-4.76c1.83-.2 4.23 1.15 3.89 3.31-.84 3.27-6.26 3.26-7.12 0-.28-1.96 1.62-3.28 3.26-3.39ZM41.44 22.1c1.19-.91 2.74-1 4.16-1.12A8.28 8.28 0 0 1 53 24a17.8 17.8 0 0 1-2.17 0 11.31 11.31 0 0 0-2.27-1.7 11.54 11.54 0 0 0-7.12-.2Zm62.7 4.5a4.29 4.29 0 0 1 4.14.78 2.5 2.5 0 0 1 .5 3.12 4.06 4.06 0 0 1-5.38 1.05 2.67 2.67 0 0 1-1.43-2.5 3 3 0 0 1 2.17-2.45m.71.39a3.91 3.91 0 0 0-2 1.16 2.05 2.05 0 0 0 .62 2.79c1.55 1 4.18.82 5-1.08a1.84 1.84 0 0 0-.46-1.94 3.58 3.58 0 0 0-3.16-.92Zm-20.69 2.28c2.06-.55 4.82.23 5.52 2.5.47 1.73-1 3.19-2.52 3.63-2.1.67-5.09-.15-5.69-2.55-.44-1.78 1.15-3.2 2.69-3.58m1 .52a4.63 4.63 0 0 0-2.53.91 2.2 2.2 0 0 0 0 3.22 4.52 4.52 0 0 0 5.71.17 2.27 2.27 0 0 0 0-3.32 4.08 4.08 0 0 0-3.13-.98Zm16.28 5.09c2-.37 4.47.42 5.16 2.53.52 1.69-1 3.21-2.43 3.65-2.13.72-5.18-.09-5.8-2.55-.41-1.9 1.43-3.35 3.07-3.63m.51.56a3.42 3.42 0 0 0-3.16 2.49 2.82 2.82 0 0 0 1.67 2.26 4.25 4.25 0 0 0 2.82.53 4.11 4.11 0 0 0 2.48-1.43 2.26 2.26 0 0 0-.83-3.16 4.7 4.7 0 0 0-2.93-.69Z"/><path fill="#ffffff" d="M103 13.5c2.17-.38 4.36-.66 6.55-.95a4.25 4.25 0 0 1 4.58 3.74c-4.45-.94-8.88-1.93-13.33-2.87a10.78 10.78 0 0 0 2.2.08Zm-28 8a5.73 5.73 0 0 1 2.49-4l.6-.15c-.9 3.14-1.89 6.25-2.86 9.37a42.83 42.83 0 0 1-.23-5.19Zm39.66 18.29.25-.36a10.46 10.46 0 0 1 .28 3.06 5.43 5.43 0 0 1-2.26 4.55 5.24 5.24 0 0 0-.8.83c.87-2.65 1.57-5.39 2.52-8.05Zm-38.72 6.28c6.47 1.39 12.93 2.81 19.4 4.19-4.77.54-9.52 1.29-14.28 1.92a4.35 4.35 0 0 1-4.73-2.6 7.85 7.85 0 0 1-.39-3.51Z"/><path fill="#0d1221" d="M84.84 17.56a9.75 9.75 0 0 1 10 1.48 5.15 5.15 0 0 1 1.66 5.3 6.51 6.51 0 0 1-4.72 4.38 5.39 5.39 0 0 1 2.1 3.82 6.26 6.26 0 0 1-3 5.69 10.2 10.2 0 0 1-7.08 1.11 10.4 10.4 0 0 1-5.46-2.58A5.07 5.07 0 0 1 76.87 32a7 7 0 0 1 5.63-5.3 5 5 0 0 1-1.53-5 6.42 6.42 0 0 1 3.87-4.13m3.38 3.11c-1.64.1-3.54 1.42-3.22 3.32.86 3.26 6.28 3.27 7.12 0 .34-2.16-2.06-3.51-3.89-3.31m-4.06 8.6c-1.54.38-3.13 1.8-2.69 3.58.6 2.4 3.59 3.22 5.69 2.55 1.49-.44 3-1.9 2.52-3.63-.69-2.29-3.47-3.07-5.53-2.52Zm16.56-5.45a9.87 9.87 0 0 1 10 0 6 6 0 0 1 2.93 3.84c.65 3.16-2 6.06-4.84 6.72a5.43 5.43 0 0 1 2.14 4.87 6.72 6.72 0 0 1-3.31 4.79 10.82 10.82 0 0 1-8.17.64 8.45 8.45 0 0 1-4.82-3.11 5.5 5.5 0 0 1-.23-5.44 7.39 7.39 0 0 1 5.09-3.75 5.13 5.13 0 0 1-1.69-4.18 6 6 0 0 1 3-4.42m3.42 2.78a3 3 0 0 0-2.25 2.47 2.67 2.67 0 0 0 1.43 2.5 4.06 4.06 0 0 0 5.38-1.05 2.5 2.5 0 0 0-.5-3.12 4.29 4.29 0 0 0-4.14-.78m-2.65 8.28c-1.64.28-3.48 1.73-3.07 3.63.62 2.46 3.67 3.27 5.8 2.55 1.48-.44 3-2 2.43-3.65-.68-2.11-3.22-2.9-5.19-2.53Z"/><path fill="#f8aa14" d="M118.58 19.07a3.94 3.94 0 0 1 .51 4.17c-.43 1-.57 2.14-1 3.19h-.16c-1.13.3-2.19.79-3.29 1.2-.11-.34-.21-.68-.32-1-.07.26-.12.52-.17.79a7 7 0 0 0-2.69-3.69 4.34 4.34 0 0 1-1.35-1.13 49.59 49.59 0 0 0 5.89-2.04c.88-.41 2.06-.49 2.58-1.49Zm-21.76 6.36 1.18-.06c-.85 2.17-1.13 4.87.44 6.78-1.87.44-3.24 1.93-4.4 3.4a22.2 22.2 0 0 0 .52-2.45A6.9 6.9 0 0 0 93 29a8.6 8.6 0 0 0 3.82-3.57Zm8 1.56a3.58 3.58 0 0 1 3.17.93 1.84 1.84 0 0 1 .46 1.94c-.83 1.9-3.46 2.07-5 1.08a2.05 2.05 0 0 1-.62-2.79 3.91 3.91 0 0 1 2.02-1.15ZM75.6 30.3a3.07 3.07 0 0 0 1.29-.61 8.69 8.69 0 0 0-.38 5.42A7.74 7.74 0 0 0 80.62 39c1.33.71 2.86.69 4.25 1.16h-1.63l.42.44c-1.58.82-3.3 1.25-4.92 2-1.78.76-3.64 1.28-5.39 2.11h-.06a4.17 4.17 0 0 1-1.56-4.44c1-3.14 2-6.25 3-9.36.08-.52.51-.58.87-.61Zm9.61-.51a4.08 4.08 0 0 1 3.17 1 2.27 2.27 0 0 1 0 3.32 4.52 4.52 0 0 1-5.71-.17 2.2 2.2 0 0 1 0-3.22 4.63 4.63 0 0 1 2.54-.93Z"/><path fill="#ffffff" d="M44.52 22.88a9.14 9.14 0 0 1 7 2.55 9.45 9.45 0 0 1 2.56 8A14.08 14.08 0 0 1 43 45.16a9.81 9.81 0 0 1-7.59-1.55 9 9 0 0 1-3.61-8.09 13.84 13.84 0 0 1 12.72-12.64m-2.73 4.47a9.18 9.18 0 0 0-5.9 7.58 6 6 0 0 0 2.59 5.47 6.45 6.45 0 0 0 6.51.08 9 9 0 0 0 5-8.16A5.73 5.73 0 0 0 45.36 27a7.59 7.59 0 0 0-3.57.35Zm-38.31.32A8 8 0 0 1 9.61 23a8.68 8.68 0 0 1 7.94 2.39c-1.09 1.06-2.28 2-3.4 3.05-1.43-1.8-4.39-2.32-6.11-.67a2 2 0 0 0-.24 2.94c1.8 1.55 4.32 1.81 6.13 3.36a4.86 4.86 0 0 1 1.69 4.73 7.44 7.44 0 0 1-4.22 5.66 10.32 10.32 0 0 1-6.73.65A9.27 9.27 0 0 1 0 42.43q1.71-1.57 3.49-3.08a6 6 0 0 0 5.32 1.93 2.92 2.92 0 0 0 2.54-2.8c-.21-1-1.25-1.54-2.1-2-1.91-.92-4.2-1.49-5.48-3.37a5.74 5.74 0 0 1-.29-5.44ZM16.2 44.91c1.27-7.21 2.63-14.4 3.88-21.61h4.19c-1.11 5.82-2.05 11.7-3.22 17.5h10c-.3 1.36-.5 2.74-.77 4.11-4.69-.01-9.39.01-14.08 0Zm39-17.83c.22-1.26.47-2.51.66-3.78h15.65c-.3 1.25-.45 2.53-.73 3.79h-5.71C64 33 62.92 39 61.81 44.92h-4.16C58.81 39 59.79 33 60.94 27.07Z"/><path fill="#f18619" d="M114.69 27.67c1.1-.41 2.16-.9 3.29-1.2-2 7.32-4.42 14.51-6.55 21.79a5.61 5.61 0 0 1-4.94 3.82c-.86-.32-1.8-.23-2.66-.54-1.56-.51-3.21-.6-4.79-1-2.27-.58-4.59-.94-6.87-1.49-1.94-.29-3.77-1.06-5.73-1.21-1.64-.45-3.3-.79-5-1.12-2.7-.72-5.54-1-8.13-2.08 1.75-.83 3.61-1.35 5.39-2.11 1.62-.7 3.34-1.13 4.92-2l-.42-.44h1.63A11.16 11.16 0 0 0 90.8 39a9 9 0 0 0 2.94-3c-.34 1.26-1 2.58-.46 3.89a6.73 6.73 0 0 0 3.34 4.26 11.34 11.34 0 0 0 4.38 1.47c3.08.46 6.64-.06 8.79-2.58a6.21 6.21 0 0 0 .2-8.34 7.66 7.66 0 0 0 4-4.07 7.64 7.64 0 0 0 .26-3.19c0-.27.1-.53.17-.79.06.35.16.68.27 1.02ZM102 35.44a4.7 4.7 0 0 1 3 .69 2.26 2.26 0 0 1 .83 3.16 4.11 4.11 0 0 1-2.48 1.43 4.25 4.25 0 0 1-2.82-.53 2.82 2.82 0 0 1-1.67-2.26 3.42 3.42 0 0 1 3.14-2.49Z"/></svg>
