<svg xmlns="http://www.w3.org/2000/svg" viewBox="0 0 120 60"><path fill="#ba181b" fill-rule="evenodd" d="M11 35.41v-.31l.28.09s2.92.82 4.37-.56 1.89-4.43.1-7.55S10 21 9.2 20.42c-.79.58-4.9 3.66-6.6 6.66s-1.27 6.23.12 7.55 4.33.56 4.36.56l.28-.09v.31a4.81 4.81 0 0 1-1.06 3.25 5.92 5.92 0 0 1-4.74 1.77v1.07A6.88 6.88 0 0 0 7 39.41a5.81 5.81 0 0 0 1.41-4.11l-.14-1.54-1.41.4c-.62.17-2.58.51-3.45-.31-1.1-1.05-1.4-3.6.06-6.23 1.35-2.37 4.4-4.88 5.77-5.93 1.36 1 4.39 3.54 5.76 5.93 1.51 2.63 1.16 5.18.06 6.23-.86.82-2.81.5-3.45.31l-1.41-.4-.12 1.56a5.9 5.9 0 0 0 1.32 4.09 6.85 6.85 0 0 0 5.47 2.09v-1.06a5.93 5.93 0 0 1-4.73-1.76A4.78 4.78 0 0 1 11 35.41Zm5.63.4c1.88-1.8 2.62-5.66.39-9.55C15 22.68 10.1 19.14 9.87 19l-.7-.49-.7.49c-.15.15-5.08 3.69-7.09 7.25-2.24 3.89-1.5 7.75.39 9.55A5.07 5.07 0 0 0 5.6 37a2.16 2.16 0 0 1-.41.62 4.56 4.56 0 0 1-3.63 1.23v1.06a5.48 5.48 0 0 0 4.38-1.6 4.25 4.25 0 0 0 1-2.55c-.83.18-3.15.55-4.51-.76-1.58-1.5-2.15-4.81-.2-8.22S8.9 20 9.11 19.85l.14-.11.14.11c.21.14 4.93 3.52 6.88 6.91s1.36 6.72-.2 8.22c-1.35 1.3-3.68.94-4.51.76a4.25 4.25 0 0 0 1 2.55 5.47 5.47 0 0 0 4.38 1.6v-1.06a4.64 4.64 0 0 1-3.63-1.23 2.9 2.9 0 0 1-.41-.62 5 5 0 0 0 3.8-1.17Z"/><path fill="#fff" fill-rule="evenodd" d="M28.61 29.82c-1-.77-1.61-1.3-1.89-1.55s-.34-.39-.54-.64a1.6 1.6 0 0 1-.32-1.05 1.88 1.88 0 0 1 .47-1.36 1.63 1.63 0 0 1 1.29-.51c1.18 0 1.88.76 2.06 2.24h.42v-2.24c0-.1 0-.17-.07-.2-.21-.27-1-.4-2.26-.4a4.08 4.08 0 0 0-2.42.7 2.68 2.68 0 0 0-1.12 2.3 2.47 2.47 0 0 0 .43 1.49 7.8 7.8 0 0 0 1.59 1.5 12.85 12.85 0 0 1 2.39 2.09 2.57 2.57 0 0 1 .58 1.66 2.3 2.3 0 0 1-.61 1.63 2 2 0 0 1-1.58.64A2.39 2.39 0 0 1 24.92 35a4.7 4.7 0 0 1-.47-1.59h-.4v2.44a.36.36 0 0 0 .18.37 4.29 4.29 0 0 0 1.16.34 8.63 8.63 0 0 0 1.52.17 4.28 4.28 0 0 0 2.89-.94 3.09 3.09 0 0 0 1.11-2.44 3.2 3.2 0 0 0-.49-1.7 9.3 9.3 0 0 0-1.81-1.83Zm8.48-2.26A3.36 3.36 0 0 0 34.27 29v-1.44a6 6 0 0 1-2.76.7v.43h.38a1.29 1.29 0 0 1 .7.15.9.9 0 0 1 .21.7v9.06a2.75 2.75 0 0 1-.19 1.4 1.89 1.89 0 0 1-1.13.37v.47h4.45v-.45a3.14 3.14 0 0 1-1.45-.39 2.56 2.56 0 0 1-.22-1.39v-2.35a4.64 4.64 0 0 0 1.83.4 3.86 3.86 0 0 0 3.08-1.39 5.31 5.31 0 0 0 1.23-3.6 4.51 4.51 0 0 0-.91-3 3 3 0 0 0-2.4-1.11Zm1 7.47a2.26 2.26 0 0 1-2 1.06 2.66 2.66 0 0 1-1.83-.82v-3a12.51 12.51 0 0 1 .13-2c.25-1.19.89-1.8 1.93-1.8a2.07 2.07 0 0 1 1.79 1A4.66 4.66 0 0 1 38.8 32a5.37 5.37 0 0 1-.69 3Zm9.76.47a.47.47 0 0 1-.46-.28 2.94 2.94 0 0 1-.12-1v-3.87a3 3 0 0 0-.64-2.09 2.85 2.85 0 0 0-2.11-.66 4.67 4.67 0 0 0-2.11.46.67.67 0 0 0-.42.5l-.26 1c0 .09 0 .14.13.17l.5.14a.28.28 0 0 0 .13 0c.07 0 .2-.13.34-.42.43-.84.93-1.27 1.53-1.27.9 0 1.4.83 1.4 2.53l-1.73.73a10.11 10.11 0 0 0-1.56.74 2.44 2.44 0 0 0-1.24 2.16 2.39 2.39 0 0 0 .57 1.7 2 2 0 0 0 1.53.65 2.17 2.17 0 0 0 1.17-.48l1.26-.89a3.07 3.07 0 0 0 .4 1.39l2.3-.8-.1-.49a1.14 1.14 0 0 1-.51.13Zm-2-2.79c0 1.93-.6 2.89-1.78 2.89a1.27 1.27 0 0 1-1-.41 1.54 1.54 0 0 1-.36-1A2.38 2.38 0 0 1 44.4 32c.36-.17.85-.35 1.45-.58ZM57.3 35.5c-.39 0-.57-.43-.57-1.3V23.65a7.27 7.27 0 0 1-2.76.52v.48h.43a1.16 1.16 0 0 1 .66.14c.13.11.19.39.19.85v2.21a5.63 5.63 0 0 0-1.78-.29 4.16 4.16 0 0 0-3.17 1.28 4.62 4.62 0 0 0-1.21 3.32 4.86 4.86 0 0 0 1.06 3.21 3.21 3.21 0 0 0 2.55 1.29 2.86 2.86 0 0 0 1.41-.53l1.08-.7v.12a2.12 2.12 0 0 0 .36 1.11l2.35-.79-.12-.49a1.12 1.12 0 0 1-.48.14Zm-2-2a2.32 2.32 0 0 1-.3 1.36 2.65 2.65 0 0 1-.7.59 2.22 2.22 0 0 1-.94.27 2.16 2.16 0 0 1-2-1.4 5.66 5.66 0 0 1-.6-2.62 4.66 4.66 0 0 1 .61-2.42 2.3 2.3 0 0 1 3.13-.81 2.16 2.16 0 0 1 .78.75v4.28Zm9.9-3.69a2.73 2.73 0 0 0-2.85-2.22 3.35 3.35 0 0 0-2.69 1.21 4.8 4.8 0 0 0-1.11 3.2 5.38 5.38 0 0 0 1.1 3.39 3.75 3.75 0 0 0 3.17 1.33h.43l2.1-1.08-.25-.52a4 4 0 0 1-1.88.59 2.88 2.88 0 0 1-1.52-.4c-1-.62-1.58-1.83-1.59-3.61h5.24a7.25 7.25 0 0 0-.18-1.86Zm-2.26 1.27H60.1a12 12 0 0 1 .18-1.2c.31-1.12.94-1.69 1.9-1.69a1.69 1.69 0 0 1 1.26.54A2 2 0 0 1 64 30a.9.9 0 0 1-.78 1Zm11.31-3.28-.19-.21a10.06 10.06 0 0 1-2.32.25h-.42a4.22 4.22 0 0 0-1.41-.24 3.5 3.5 0 0 0-2.36.81 2.66 2.66 0 0 0-.9 2.13 2.89 2.89 0 0 0 1.85 2.79l-1.56 1.4V35c0 .52.35.87 1.06 1l-1.72 1c-.12.08-.2.29-.2.62a3 3 0 0 0 .48 1.75 3.24 3.24 0 0 0 1.33 1 4.51 4.51 0 0 0 1.91.39 4.1 4.1 0 0 0 2.58-.8 3 3 0 0 0 1.29-2.47 2.14 2.14 0 0 0-1.29-2.09 6.94 6.94 0 0 0-1.8-.48 8.28 8.28 0 0 1-1.71-.37.45.45 0 0 1-.33-.41 1 1 0 0 1 .46-.7h.64a3.18 3.18 0 0 0 2.27-.86 2.77 2.77 0 0 0 .92-2.09 3.07 3.07 0 0 0-.71-2h1.67Zm-5.56 8.37 1.6.3c.33.06.67.14 1 .23a1.52 1.52 0 0 1 1.15 1.55 1.89 1.89 0 0 1-.71 1.48 2.69 2.69 0 0 1-1.79.57 2.65 2.65 0 0 1-1.83-.62 2 2 0 0 1-.71-1.58 1.73 1.73 0 0 1 .28-1 3.66 3.66 0 0 1 1-1Zm1.24-3.09a1.42 1.42 0 0 1-1.22-.79 3.69 3.69 0 0 1-.49-2 2.85 2.85 0 0 1 .42-1.63 1.37 1.37 0 0 1 1.18-.58 1.22 1.22 0 0 1 1.1.69 4.14 4.14 0 0 1 .41 2c0 1.51-.49 2.28-1.4 2.28Zm10.93 2.48a.45.45 0 0 1-.45-.28 2.73 2.73 0 0 1-.13-1v-3.93a2.94 2.94 0 0 0-.65-2.09 2.82 2.82 0 0 0-2.11-.66 4.81 4.81 0 0 0-2.11.46.75.75 0 0 0-.42.5l-.24 1c0 .09 0 .14.13.17l.51.14a.24.24 0 0 0 .12 0c.09 0 .21-.13.35-.42.42-.84.92-1.27 1.5-1.27.93 0 1.41.83 1.41 2.53l-1.77.7a12.51 12.51 0 0 0-1.57.74 2.47 2.47 0 0 0-1.24 2.17 2.42 2.42 0 0 0 .57 1.68 1.93 1.93 0 0 0 1.53.66 2.17 2.17 0 0 0 1.19-.49l1.25-.88a3.42 3.42 0 0 0 .4 1.39l2.3-.79-.09-.48a1.33 1.33 0 0 1-.48.1Zm-2-2.79c0 1.93-.6 2.89-1.77 2.89a1.32 1.32 0 0 1-1-.4 1.64 1.64 0 0 1-.36-1.06 2.38 2.38 0 0 1 1.64-2.2l1.45-.58Zm16.25 1.61v-3.71a7.17 7.17 0 0 0-.1-1.39 2 2 0 0 0-2.2-1.72 3.73 3.73 0 0 0-2.93 1.53A2.9 2.9 0 0 0 89 27.9a2.14 2.14 0 0 0-1.3-.34 3.56 3.56 0 0 0-3 1.53v-1.53a5.78 5.78 0 0 1-2.7.74v.44h.38a1.16 1.16 0 0 1 .7.17c.13.09.19.33.19.69v4.7a3.27 3.27 0 0 1-.17 1.39c-.1.16-.5.31-1.1.31v.45h4V36c-.64-.06-1-.18-1.14-.34a3 3 0 0 1-.18-1.39v-2a5.27 5.27 0 0 1 .6-3 1.8 1.8 0 0 1 1.54-.7 1.34 1.34 0 0 1 1.24.57 4.51 4.51 0 0 1 .33 2v3.17a3.17 3.17 0 0 1-.17 1.4 2 2 0 0 1-1.13.33v.46h4.11V36a2 2 0 0 1-1.14-.33 3.17 3.17 0 0 1-.17-1.4v-2a15 15 0 0 1 0-1.57 3.24 3.24 0 0 1 .51-1.44 1.81 1.81 0 0 1 1.6-.72 1.33 1.33 0 0 1 1.24.59 4 4 0 0 1 .36 2v3.17a3.17 3.17 0 0 1-.17 1.4c-.11.15-.49.27-1.13.33v.46h4.07V36c-.65-.06-1-.16-1.15-.32a3.71 3.71 0 0 1-.14-1.41Zm3.68-7.89a.89.89 0 0 0 .71-.28 1.05 1.05 0 0 0 0-1.44.83.83 0 0 0-.66-.31.85.85 0 0 0-.7.31 1 1 0 0 0-.29.69 1.06 1.06 0 0 0 .29.74.75.75 0 0 0 .65.22Zm.88 7.8V27.5a5.8 5.8 0 0 1-2.76.76v.44h.38a1.3 1.3 0 0 1 .7.14.89.89 0 0 1 .19.7v4.7a3.17 3.17 0 0 1-.17 1.4 2 2 0 0 1-1.13.33v.46h4.07v-.51c-.65-.07-1-.18-1.14-.35a3 3 0 0 1-.14-1.35Zm10.31 0v-3.74a5.9 5.9 0 0 0-.15-1.57 2.1 2.1 0 0 0-2.25-1.48 4.11 4.11 0 0 0-3.29 1.5v-1.5a6 6 0 0 1-2.77.69v.44h.39a1.2 1.2 0 0 1 .7.15c.14.1.21.33.21.7v4.72a3.1 3.1 0 0 1-.18 1.35 1.85 1.85 0 0 1-1.11.37v.46h4.08v-.46a2.15 2.15 0 0 1-1.15-.37 3.25 3.25 0 0 1-.17-1.35v-2.12a9.74 9.74 0 0 1 .13-1.79 2.1 2.1 0 0 1 2.23-1.87 1.65 1.65 0 0 1 1.41.57 3.66 3.66 0 0 1 .4 2v3.23a3.92 3.92 0 0 1-.12 1.32c-.13.2-.5.34-1.18.41v.45h4.07v-.48c-.66-.07-1-.18-1.16-.37a2.86 2.86 0 0 1-.13-1.33ZM120 27.78l-.19-.21a10.06 10.06 0 0 1-2.32.25h-.42a4.22 4.22 0 0 0-1.41-.24 3.45 3.45 0 0 0-2.35.81 2.67 2.67 0 0 0-.91 2.13 2.89 2.89 0 0 0 1.85 2.79l-1.55 1.39v.14a.38.38 0 0 0 0 .15c0 .52.35.87 1 1L112 37c-.12.08-.19.28-.19.62a3.11 3.11 0 0 0 .53 1.8 3.33 3.33 0 0 0 1.33 1 4.63 4.63 0 0 0 1.91.39 4.18 4.18 0 0 0 2.6-.8 3.08 3.08 0 0 0 1.28-2.58 2.15 2.15 0 0 0-1.29-2.1 7.54 7.54 0 0 0-1.81-.47 9.48 9.48 0 0 1-1.74-.38.47.47 0 0 1-.33-.42 1 1 0 0 1 .46-.7h.62a3.14 3.14 0 0 0 2.28-.86 2.76 2.76 0 0 0 .91-2.09 3.05 3.05 0 0 0-.7-2h1.68Zm-5.55 8.37 1.59.3c.34.06.67.14 1 .23a1.52 1.52 0 0 1 1.15 1.55 1.85 1.85 0 0 1-.7 1.48 2.77 2.77 0 0 1-1.8.57 2.64 2.64 0 0 1-1.82-.62 2 2 0 0 1-.7-1.58 1.73 1.73 0 0 1 .28-1 3.61 3.61 0 0 1 1-1.05Zm1.23-3.09a1.42 1.42 0 0 1-1.22-.79 3.77 3.77 0 0 1-.48-2 2.7 2.7 0 0 1 .42-1.63 1.33 1.33 0 0 1 1.16-.58 1.2 1.2 0 0 1 1.09.69 4.13 4.13 0 0 1 .4 2c0 1.44-.45 2.22-1.37 2.22Z"/></svg>
