<svg xmlns="http://www.w3.org/2000/svg" viewBox="0 0 120 60"><path fill="#fff" d="M0 14.5h23.1v31H0v-31m1.55 2.14v27.12l.18.19C5 44 8.31 44 11.6 44h10V16.06H1.94c-.36-.06-.44.32-.39.58Zm92.71 1.61c3.45 3.5 6.82 7.09 10.24 10.63 0-3.32.06-6.65 0-10h1.75v14.09c-3.41-3.55-6.8-7.12-10.24-10.65 0 3.36-.06 6.72 0 10.08h-1.73c-.02-4.7.03-9.4-.02-14.15Zm-31.7.66h8.16v1.49h-3.25v12h-1.71c.1-4 0-8 0-12h-3.25Zm10.52 0c1.89 0 3.89-.27 5.65.56a3.88 3.88 0 0 1 .84 5.86 4 4 0 0 1-2.29 1.24c1.49 1.91 2.86 3.91 4.32 5.83h-2.09c-1.25-1.79-2.51-3.59-3.78-5.4-.17-.33-.59-.27-.9-.36v5.79h-1.71c0-4.5.06-9 0-13.49m1.76 1.48v4.92c1.3-.09 3 0 3.8-1.19a2.48 2.48 0 0 0-.54-3.08 6 6 0 0 0-3.3-.66ZM84 18.9h7.33v1.51h-5.61v3.79h5.45v1.55h-5.45v5.1h5.6v1.55H84V18.9Zm25.6 0c2.68 0 5.66-.25 7.92 1.46a5.91 5.91 0 0 1 2.53 5v.5a6.09 6.09 0 0 1-2.75 5.24c-2.24 1.58-5.1 1.33-7.7 1.34V18.9m1.7 1.51v10.43a8.1 8.1 0 0 0 5.41-1.31 4.58 4.58 0 0 0 1.64-3.82 4.6 4.6 0 0 0-1.88-4.1 8.91 8.91 0 0 0-5.22-1.2Z"/><path fill="#fff" d="M1.55 16.64c-.05-.26 0-.66.39-.6h9.65a17.16 17.16 0 0 1 0 2q4.3 1.88 8.57 3.85v5.83c-1.71-.62-3.49-1.07-5.15-1.82v16a25.25 25.25 0 0 0-3.37.07v2C8.31 44 5 44 1.74 44l-.18-.19V16.69m1.52 5.29v5.8c1.74-.58 3.5-1.1 5.2-1.81v16c1.11.05 2.21 0 3.32 0V18.12c-2.89 1.24-5.73 2.49-8.53 3.81Z"/><path fill="#d62428" d="M11.59 16h10v27.94h-10v-2a25.25 25.25 0 0 1 3.41-.01v-16c1.66.75 3.44 1.2 5.15 1.82v-5.83q-4.26-2-8.57-3.85a17.16 17.16 0 0 0 .01-2.07Zm-8.52 5.93c2.8-1.32 5.64-2.57 8.48-3.81v23.85H8.23v-16c-1.7.71-3.46 1.23-5.2 1.81.06-1.98.04-3.91.04-5.85Zm39-3.2a6.72 6.72 0 0 1 5.56 1.06 7.52 7.52 0 0 1 1.19 10.58 6.59 6.59 0 0 1-9.44.78 7.55 7.55 0 0 1-1.06-9.77 6.49 6.49 0 0 1 3.75-2.65m.47 2.6a4.55 4.55 0 0 0-2.43 6c.63 1.4 1.83 2.89 3.52 2.86s3.17-1.5 3.8-3a4.61 4.61 0 0 0-1.7-5.4 3.67 3.67 0 0 0-3.15-.46Zm-15.08-2.39c2.73-.13 5.47 0 8.21-.05 0 .77 0 1.55-.06 2.32h-2.74v11.2h-2.63v-11.2h-2.73c.01-.76 0-1.51-.05-2.27Zm25.4-.05h4a4.86 4.86 0 0 1 3.28 1.17 4.61 4.61 0 0 1 1 3.76 3.58 3.58 0 0 1-2.39 3.25 10.67 10.67 0 0 1-3.24.27v5.06h-2.62V18.87m2.67 6.26a4.15 4.15 0 0 0 2.44-.44 2.77 2.77 0 0 0 .27-2.78c-.57-.92-1.8-.8-2.74-.85-.01 1.37 0 2.73 0 4.09Zm10.16 10.3c.72 1.36 1.22 2.82 1.91 4.19.62-1.42 1.23-2.85 1.94-4.23.29 2 .62 3.92 1 5.86l-.89-.06c-.22-1.06-.24-2.16-.54-3.2-.51 1.17-1.06 2.33-1.56 3.51-.58-1.15-.97-2.37-1.58-3.5-.17 1.08-.38 2.15-.54 3.23h-.87q.59-2.88 1.13-5.8Zm25.46 0c1.34 1.36 2.59 2.81 4 4.11v-3.75l.86.1c-.09 1.88 0 3.76 0 5.63-1.38-1.3-2.61-2.76-4-4.05v3.76h-.84c0-1.93.03-3.86-.02-5.8ZM36 38.58a2.82 2.82 0 0 1 3.13-2.87 3.32 3.32 0 0 1 2 1.08l-.61.55a2 2 0 1 0-2.63 3 1.77 1.77 0 0 0 2.61-1.13H39c0-.2.07-.59.09-.79h2.25a2.68 2.68 0 0 1-2 2.88A2.78 2.78 0 0 1 36 38.58Zm14.13 2.67c.92-1.91 1.81-3.84 2.71-5.77.89 1.91 1.7 3.86 2.62 5.75h-.91L54 39.92h-2.34l-.61 1.27-.92.06m1.81-2.09h1.71c-.28-.63-.54-1.25-.84-1.87-.27.63-.55 1.26-.87 1.87Zm28.45-3.36.82.06v5.37h-.84c.01-1.8-.02-3.62.02-5.43Zm25.35 3a2.83 2.83 0 0 1 3.26-3.07 3.22 3.22 0 0 1 1.82 1l-.53.58a2.21 2.21 0 0 0-2.27-.79 2 2 0 0 0-.74 3.5 1.84 1.84 0 0 0 3-.83h-1.48v-.79a15.51 15.51 0 0 1 2.26.05 2.58 2.58 0 0 1-2.11 2.86 2.8 2.8 0 0 1-3.21-2.51Z"/></svg>
