<svg xmlns="http://www.w3.org/2000/svg" width="120" height="60" fill="none"><path fill="#75441B" d="M53.4 5.489c2.26-.53 4.58-.48 6.88-.48-.16 0-.48.02-.64.03-1.3.03-2.58.25-3.87.36-.79-.05-1.59-.05-2.37.07v.02ZM57.43 28.059c.66 0 1.31 0 1.97-.04-.2.78-.4 1.56-.59 2.33-.62-.15-1.24-.29-1.86-.43.17-.62.32-1.24.49-1.87l-.01.01Z"/><path fill="#FAF077" d="M60.28 5.009c2.09-.07 4.16.29 6.19.75l-.59.24c-.78-.14-1.57-.14-2.35-.06.41.26.82.54 1.21.84-1.47-.21-2.97-.09-4.42-.44.77-.2 1.57-.26 2.37-.21-.56-.09-1.11-.2-1.65-.33-.47-.24-.94-.49-1.39-.76.16 0 .48-.02.64-.03h-.01Z"/><path fill="#FDE46C" d="M55.77 5.419c1.29-.11 2.57-.32 3.87-.36.45.27.92.52 1.39.76-1.85-.02-3.7 0-5.54-.06l.28-.34Z"/><path fill="#9D6A33" d="M51.17 6.029c.66-.18 1.32-.35 1.99-.51-.25.29-.41.64-.58.99-.21.07-.43.14-.64.22a5.56 5.56 0 0 0-.98-.39c.05-.08.16-.23.21-.3v-.01ZM48.89 31.249c.9-.05 1.76-.37 2.63-.62-.14.51-.33 1-.54 1.48-1.25.21-2.45.6-3.66.96-.44.19-.89.02-1.31-.15 1.18-.03 2.26-.66 2.88-1.67ZM42.2 45.419c-.23-.3-.09-.67-.07-1 .21.21.42.42.63.64.22 1.11 1.11 1.86 1.85 2.63.46.48.99.88 1.56 1.23.89.69 1.88 1.24 2.79 1.91-.27.17-.57.14-.81-.05-1.38-.85-2.72-1.8-3.88-2.95l-.29-.27c-.66-.65-1.29-1.34-1.76-2.14h-.02Z"/><path fill="#D39038" d="m53.16 5.529.24-.04c.79-.12 1.58-.12 2.37-.07l-.28.34c-1 .14-1.96.43-2.91.75.16-.34.33-.69.58-.99v.01Z"/><path fill="#FCF5A7" d="M52.58 6.509c.95-.32 1.92-.62 2.91-.75 1.85.06 3.7.04 5.54.06.55.13 1.1.24 1.65.33-.79-.05-1.59 0-2.37.21-1.64 0-3.32-.17-4.93.27-1.32.34-2.66.65-3.95 1.1-.48.21-.99.09-1.48.03.41-.32.83-.61 1.32-.8.16-.06.49-.18.66-.25.21-.08.43-.15.64-.22v.02h.01Z"/><path fill="#D08241" d="M66.47 5.779c1.79.56 3.64 1.13 5.17 2.25l-.31-.02c-2.16-.85-4.38-1.69-6.73-1.72 1.34.54 2.74.93 3.96 1.72h-.59c-.75-.15-1.49-.34-2.24-.49-.66-.2-1.32-.38-2.01-.44-2.4-.36-4.86-.47-7.28-.2-1.92.45-3.82.99-5.75 1.39l-.03-.05c-.37-.66-1.16-.37-1.73-.29.54-.31 1.08-.62 1.67-.84l.68-.12c-.48.19-.91.48-1.32.8.49.05 1.01.17 1.48-.03 1.29-.45 2.63-.76 3.95-1.1 1.61-.44 3.28-.28 4.93-.27 1.45.35 2.95.22 4.42.44-.39-.29-.79-.57-1.21-.84.78-.08 1.57-.08 2.35.06l.59-.24v-.01Z"/><path fill="#784F1F" d="M47.63 7.529c1.11-.65 2.33-1.07 3.54-1.5-.05.08-.16.23-.21.3.34.1.67.23.98.39-.16.06-.49.18-.66.25l-.68.12c-1.04-.16-1.95.53-2.97.43v.01ZM40.89 28.069h2.19c.02.92.06 1.88.44 2.73-.77-.02-1.55 0-2.32.03-.24-.9-.33-1.83-.32-2.76h.01Z"/><path fill="#4C3119" d="M64.6 6.299c2.35.02 4.57.87 6.73 1.72-.92.07-1.85.1-2.77 0-1.22-.79-2.63-1.18-3.96-1.72Z"/><path fill="#7D5226" d="M56.45 6.889c2.42-.27 4.87-.15 7.28.2-2.4.13-4.88-.26-7.21.53-1.4.48-2.82.96-4.31 1.09-.5.05-.98-.15-1.45-.33l-.06-.11c1.93-.4 3.83-.94 5.75-1.39v.01Z"/><path fill="#2A180E" d="M47.63 7.529c1.02.1 1.94-.59 2.97-.43-.58.22-1.13.52-1.67.84-2.16.23-4.36.15-6.53.13 1.4-.12 2.81 0 4.21-.07.34-.12.65-.31.96-.47h.06Z"/><path fill="#452815" d="M56.51 7.619c2.33-.79 4.81-.4 7.21-.53.68.07 1.35.25 2.01.44-2.71.39-5.55-.32-8.18.63-1.95.68-3.92 2.04-6.06 1.31.26.54.55 1.06.88 1.56.53.81.99 1.67 1.54 2.47 1.5-.46 3.06-.81 4.64-.75 1.72 0 3.48-.1 5.12.52-2.15-.41-4.37-.5-6.54-.16-1.02.23-2.03.54-3.07.7.16 1.23.65 2.4.98 3.59.87 2.79 1.68 5.61 2.55 8.4-.07.34-.15.69-.23 1.03-.02.08-.08.23-.1.31-.83-1.04-.63-2.47-1.17-3.64-.31-.65-.71-1.26-1.07-1.89-.13.15-.25.29-.38.43-.02-.51-.07-1.03-.21-1.53l-1.08-3.5c-.85-2.88-1.82-5.73-2.59-8.63.46.17.94.38 1.45.33 1.49-.14 2.91-.61 4.31-1.09h-.01Z"/><path fill="#20170E" d="M57.54 8.169c2.64-.96 5.48-.24 8.18-.63.75.15 1.49.34 2.24.49-.02.03-.06.1-.08.13-.72-.15-1.45-.14-2.18-.07l-.22.27c-1.26-.11-2.52-.16-3.79-.1-1.25.02-2.41.52-3.6.82.18.06.52.19.7.25-1.05.44-2.2.58-3.25 1.01-1.02.4-2.1.61-3.18.7-.33-.5-.62-1.03-.88-1.56 2.14.73 4.11-.63 6.06-1.31ZM54.63 22.049c.12-.15.25-.29.38-.43.36.63.75 1.24 1.07 1.89.54 1.17.34 2.6 1.17 3.64-.1.36-.18.73-.26 1.1-.68-1.79-.72-3.79-1.62-5.48-.12.04-.37.13-.49.17 0-.06-.04-.17-.05-.23-.05-.16-.14-.49-.19-.66h-.01Z"/><path fill="#FBE2AA" d="M42.41 8.069c2.18.02 4.37.11 6.53-.13.58-.08 1.36-.37 1.73.29-.99.74-2.14 1.21-3.15 1.93-1.29.82-2.3 2.01-3.57 2.86l-.2-.72-.04-.2-.12-.56c1.21-1.28 2.81-2.04 4.14-3.15-.55 0-1.15-.05-1.62.28-.99.66-1.86 1.48-2.87 2.11l-.07-.3c.82-.76 1.85-1.24 2.63-2.06-1.07-.07-2.17-.23-3.21.14h-.02c-.04-.12-.13-.37-.17-.5l.01.01Z"/><path fill="#FAE8B5" d="M67.97 8.029h.59c.92.1 1.85.07 2.77 0l.31.02h.05c.5.04 1.01.08 1.51.1-.09.35-.17.71-.26 1.06-.82-.94-2.13-.97-3.26-.77.92.73 1.97 1.27 2.89 2.01-.04.11-.11.34-.14.45-1.07-.85-2.26-1.53-3.46-2.18-1.07-.58-2.32-.28-3.48-.35l.22-.27c.72-.07 1.46-.08 2.18.07.02-.03.06-.1.08-.13v-.01ZM64.99 23.689c.2-.76.37-1.53.54-2.29.93.03 1.87 0 2.8.13-.22 1.01-.5 2-.75 3-.15-.3-.3-.6-.45-.91-.49-.13-.97-.26-1.46-.38-.23.15-.45.3-.68.45Z"/><path fill="#583518" d="M71.69 8.039c.52-.02 1.05-.02 1.58 0 .32.59.56 1.27 1.12 1.69 1.12.87 2.19 1.83 3.09 2.94-.91-.64-1.72-1.42-2.65-2.04.45 1.03 1.2 1.9 1.61 2.94-.18.94-.56 1.82-.83 2.74-.52 1.59-1.03 3.18-1.51 4.79-1.6.1-3.21.03-4.82 0 .21-.85.48-1.68.74-2.51.5-1.65 1.04-3.29 1.55-4.94.28-.91.57-1.83.86-2.74.03-.11.1-.34.14-.45.13-.41.26-.82.37-1.23.1-.35.18-.71.26-1.06-.5-.02-1.01-.06-1.51-.1v-.03Z"/><path fill="#CBBB8D" d="m50.66 8.229.03.05.06.11c.77 2.91 1.74 5.75 2.59 8.63-.19.26-.38.51-.57.77-.32-.72-.66-1.43-1.05-2.11-.6.12-1.21.24-1.81.34-.1-.05-.31-.14-.42-.19.28-.23.54-.48.81-.73-.58.14-1.14.33-1.71.51-.83.27-1.8.03-2.52.64.1.51.17 1.03.24 1.54-.21-.51-.46-1-.77-1.45-.1.13-.31.4-.42.53-.33-1.07-.67-2.15-1-3.23-.06-.21-.12-.41-.19-.62 1.27-.86 2.28-2.04 3.57-2.86 1-.72 2.15-1.19 3.15-1.93h.01Z"/><path fill="#010101" d="M58.1 9.079c1.19-.3 2.35-.8 3.6-.82 1.26-.05 2.53 0 3.79.1-.52 1.87-1.16 3.71-1.72 5.57-.57 1.83-1.14 3.65-1.7 5.48-.21.68-.45 1.35-.67 2.03-.9-.05-1.8-.04-2.7-.04-.3 1.21-.62 2.41-.92 3.62-.07.27-.14.54-.2.81-.87-2.8-1.68-5.61-2.55-8.4-.33-1.19-.82-2.36-.98-3.59 1.04-.15 2.05-.47 3.07-.7 2.17-.34 4.38-.25 6.54.16-1.64-.62-3.4-.51-5.12-.52-1.58-.06-3.14.29-4.64.75-.55-.8-1.01-1.66-1.54-2.47 1.09-.09 2.16-.3 3.18-.7 1.06-.43 2.2-.57 3.25-1.01-.18-.06-.52-.19-.7-.25v-.02h.01ZM75.6 16.299c.49 1.02 1.28 1.85 1.88 2.8.5.76.92 1.58 1.49 2.3.04 0 .11.02.15.02v4.48c-.09 2.99-.02 5.99-.07 8.98-.03.74.45 1.34.81 1.95-.43.04-.87.08-1.3.11v-.32c-.09-1.03.27-2.23-.44-3.1-.26-.4-.53-.81-.78-1.22-1.79-.04-3.58 0-5.37-.05v-2.24c1.34.02 2.67 0 4.01.04-.28.06-.55.13-.83.18-.97.07-1.99-.15-2.93.17-.28.42-.11.99-.08 1.46.37.55.97.14 1.44 0 1.41-.03 2.82.06 4.23.07 0-1 .08-2.01-.02-3.01-.26-.74-.8-1.34-1.21-2l-.07-.11c-1.17-.02-2.33.02-3.5-.03.32-.17.68-.26 1.04-.32 1.47.04 2.93.24 4.4.2-.05-1.09.09-2.2-.05-3.28-.29-.63-.77-1.15-1.16-1.71 0-.06-.02-.19-.03-.26h-3.37c-1.55-.03-3.1-.02-4.65 0 .02-.08.07-.24.09-.32 1.6.04 3.21.11 4.82 0 .48-1.6.99-3.2 1.51-4.79h-.01ZM46.63 26.689c.39-.05.79-.08 1.18-.11.11.08.32.24.43.32.22.91.49 1.82.85 2.68-.29.94-.67 1.96-1.57 2.47-.93.57-2.17.39-2.95-.36.14-1.18.02-2.44.6-3.51.32-.63.89-1.08 1.45-1.48l.01-.01ZM42.73 38.889c.73 0 1.47.02 2.2.02 1.15 1.83 2.67 3.38 4.29 4.79-1.48-1.48-3.05-2.91-4.09-4.76 2.25-.09 4.51.02 6.77-.05.27.79.53 1.57.76 2.37.15.51.3 1.02.46 1.53.18.6.36 1.2.51 1.8.14.58.28 1.16.49 1.72.64 1.26 1.44 2.42 2.12 3.66-1.04 0-2.02-.39-3.02-.66-2.64-.75-4.96-2.47-6.57-4.7-1.22-1.06-2.55-2.11-3.2-3.65-.22-.7-.37-1.42-.73-2.07h.01Z"/><path fill="#C9BB95" d="M42.6 8.569c1.03-.37 2.14-.22 3.21-.14-.77.82-1.81 1.3-2.63 2.06l-.16-.6c-.14-.44-.29-.88-.42-1.32Z"/><path fill="#D2C199" d="M46.11 8.669c.48-.33 1.07-.28 1.62-.28-1.33 1.12-2.94 1.87-4.14 3.15l-.08.07c-.09-.28-.18-.55-.26-.84 1.01-.64 1.88-1.45 2.87-2.11l-.01.01Z"/><path fill="#CABB91" d="M65.49 8.359c1.16.07 2.41-.23 3.48.35 1.2.65 2.39 1.33 3.46 2.18-.29.91-.58 1.83-.86 2.74-.33.22-.66.44-.98.66-.07-.27-.13-.53-.2-.8-1.58-.68-3.15-1.4-4.64-2.28-.54.87-.89 1.83-1.2 2.8-.26-.02-.52-.06-.77-.09.56-1.86 1.19-3.7 1.72-5.57l-.01.01Z"/><path fill="#CDBC96" d="M69.68 8.429c1.13-.2 2.44-.17 3.26.77-.12.41-.25.82-.37 1.23-.92-.73-1.97-1.27-2.89-2.01v.01Z"/><path fill="#070605" d="m43.02 9.889.16.6.07.3c.08.28.17.56.26.84-1.7 1.49-3.11 3.29-4.25 5.24-.09-.09-.27-.26-.35-.34 1.13-1.8 2.29-3.61 3.82-5.09.25-.22.39-.5.43-.83-.03-.17-.1-.52-.13-.7v-.02h-.01ZM38.74 23.709c1.2-3.63 2.64-7.35 5.4-10.07.32 1.08.66 2.15 1 3.23.2.66.39 1.32.58 1.98-.8.85-1.81 1.74-1.95 2.97-.41.28-.8.59-1.15.94-.83.81-1.36 1.88-1.73 2.98-.1.39-.17.8-.23 1.2-.45-.7-.81-1.47-1.37-2.09-.18-.38-.35-.76-.54-1.13l-.01-.01Z"/><path fill="#F0974F" d="M36.12 21.749c1.11-4.33 3.64-8.29 7.03-11.16-.03.34-.18.62-.43.83-1.53 1.49-2.69 3.3-3.82 5.09-.84 1.41-1.47 2.95-1.93 4.53-.05.34-.28.57-.55.75l-.32-.06.02.02Z"/><path fill="#15100E" d="M74.82 10.619c.92.62 1.74 1.4 2.65 2.04 2.23 2.42 3.87 5.42 4.82 8.58l-.38.15c-1.2-2.58-2.65-5.14-4.78-7.04 2.01 1.96 3.34 4.48 4.51 7.02-.47 0-.95.02-1.42.03-1.09-2.06-2.49-3.98-4.21-5.54.58.91 1.34 1.68 1.94 2.57.66.92 1.15 1.95 1.77 2.89-.19.02-.57.07-.76.09-.57-.72-.99-1.54-1.49-2.3-.61-.95-1.39-1.78-1.88-2.8.27-.91.65-1.8.83-2.74-.41-1.04-1.16-1.91-1.61-2.94l.01-.01Zm1.61 3.85c.2.81.78 1.48 1.43 1.97-.33-.73-.69-1.58-1.43-1.97ZM53.38 53.779c1.17.1 2.31.45 3.48.57 1.53.17 3.07.16 4.61.07.85-.06 1.73-.08 2.49-.51 0 .24-.02.48-.03.72-.58-.02-1.15 0-1.72.09-1.76.3-3.56.19-5.33.03-1.17-.26-2.52-.26-3.5-.99v.02Z"/><path fill="#CAB782" d="M64.54 14.019c.31-.97.66-1.93 1.2-2.8 1.49.88 3.06 1.59 4.64 2.28.07.27.13.53.2.8.33-.22.65-.44.98-.66-.51 1.65-1.05 3.29-1.55 4.94-.23-.16-.47-.32-.7-.47 0-.72.57-1.86-.29-2.23-1.35-.63-2.76-1.12-4.15-1.67-.64 1.28-1.14 2.62-1.6 3.96-.22.54-.46 1.38-1.2 1.25.56-1.83 1.13-3.65 1.7-5.48l.77.09v-.01Z"/><path fill="#FDBB4E" d="m43.51 11.619.08-.07.12.56c-.7 1.04-1.6 1.94-2.51 2.79-.03.13-.08.38-.11.51-.11.05-.23.09-.34.14-1.42 2.07-2.65 4.28-3.46 6.68l-.16-.12c.23-1.9 1.26-3.58 2.12-5.25 1.14-1.95 2.55-3.75 4.25-5.24h.01ZM59.86 25.779c.7.06 1.41.06 2.11 0l.03.11c.15.72.3 1.44.5 2.15-.67 0-1.33 0-1.99-.02.16.72.33 1.44.52 2.15.11.44.22.87.32 1.31.06.28.11.55.17.83-.07.11-.2.32-.27.42-.13-.6-.29-1.2-.45-1.8-.23-1.04-.52-2.07-.7-3.12.26-.7.07-1.4-.23-2.04l-.01.01ZM31.04 38.629c1.95 0 3.89.02 5.84-.07.79-.08 1.47.49 2.26.36.66 1.6 1.76 2.98 3.08 4.07 1.59 1.24 2.46 3.24 4.27 4.23.96.64 1.93 1.28 3.02 1.65 1.04.51 2.14.94 3.3 1.07-.12.02-.36.05-.49.07-2.66-.65-5.25-1.73-7.49-3.33-.26-.19-.51-.4-.76-.6-.85-2.29-3.22-3.36-4.47-5.35-.3-.54-.55-1.11-.82-1.67-.16-.03-.49-.11-.66-.14l-.13-.04-.19-.14c-2.25-.15-4.5-.1-6.76-.12v.01Z"/><path fill="#FDBB4E" d="M41.22 43.509c.29.31.6.6.9.9-.02.33-.15.7.07 1 .48.8 1.11 1.49 1.76 2.14-.08.09-.24.26-.32.35-.92-.9-1.8-1.87-2.49-2.96l.29.21c-.16-.53-.31-1.08-.22-1.65l.01.01Z"/><path fill="#26160F" d="M41.2 14.899c.91-.86 1.8-1.75 2.51-2.79l.04.2c-.32.55-.71 1.05-1.09 1.55-2.06 2.77-3.54 5.98-4.24 9.37-.34-.37-.71-.71-1.12-1.01.8-2.4 2.03-4.61 3.46-6.68.11-.05.23-.09.34-.14.03-.13.08-.38.11-.51l-.01.01Z"/><path fill="#C77B43" d="m43.75 12.309.2.72c.06.2.12.41.19.62-2.76 2.72-4.2 6.44-5.4 10.07-.1-.16-.21-.32-.33-.48.7-3.39 2.19-6.6 4.24-9.37.38-.51.78-1 1.09-1.55l.01-.01ZM77.13 14.339c2.13 1.91 3.58 4.47 4.78 7.04l.38-.15h.04v.16c.84-.02 1.69-.03 2.52.1-1.91-.08-3.82-.06-5.73-.07-.04 0-.11-.02-.15-.02.19-.02.57-.07.76-.09-.62-.94-1.11-1.97-1.77-2.89-.6-.89-1.36-1.66-1.94-2.57 1.72 1.56 3.12 3.48 4.21 5.54.47 0 .95-.02 1.42-.03-1.17-2.54-2.5-5.06-4.51-7.02h-.01ZM60.44 53.639c1.76.03 3.47-.42 5.22-.54-.4.19-.8.38-1.24.47-2.42.5-4.91.57-7.35.32 1.12-.21 2.26-.07 3.38-.24l-.01-.01Z"/><path fill="#CBAE6B" d="M64.88 14.189c1.38.55 2.8 1.04 4.15 1.67.86.37.29 1.52.29 2.23.24.16.47.31.7.47-.26.83-.53 1.66-.74 2.51-.02.08-.07.24-.09.32l-.2.26c-.16-.03-.49-.1-.65-.14-.93-.12-1.87-.09-2.8-.13.9-.03 1.81-.04 2.71-.13l.08-.28c.09-.46.14-.93.19-1.4-1.15-.42-2.35-.7-3.49-1.16-.42-.15-.85-.34-1.31-.32-.53.81-.78 1.76-1.06 2.67-.16.46-.38.91-.61 1.34-.19-.15-.4-.41-.68-.28 0-.14.02-.28.05-.41.22-.68.46-1.35.67-2.03.75.13.98-.71 1.2-1.25.47-1.35.96-2.69 1.6-3.96v.02h-.01Z"/><path fill="#452919" d="M76.43 14.479c.75.39 1.1 1.23 1.43 1.97-.66-.49-1.23-1.16-1.43-1.97Z"/><path fill="#CDB67C" d="M48.59 15.609c.57-.18 1.13-.38 1.71-.51-.26.25-.53.5-.81.73-1.39.79-2.25 2.26-3.68 2.96l-.1.05c-.19-.66-.39-1.32-.58-1.98.1-.13.31-.39.42-.53.3.46.56.94.77 1.45-.07-.51-.14-1.03-.24-1.54.71-.6 1.69-.36 2.52-.64l-.01.01Z"/><path fill="#CBAF6C" d="M49.91 16.019c.61-.1 1.21-.22 1.81-.34.38.68.73 1.39 1.05 2.11.19-.26.38-.51.57-.77l1.08 3.5c-.03.12-.08.36-.11.48-.25 0-.5-.02-.76-.03-.2-.54-.41-1.08-.63-1.62-1.36.69-2.89.86-4.36 1.21-.38.07-.71.28-1.01.51-.07.04-.19.14-.26.18-.26-.03-.51-.05-.77-.06-.12-.34-.25-.67-.38-1.01.66-.64.91-1.57 1.52-2.25.65-.74 1.42-1.37 2.24-1.92l.01.01Z"/><path fill="#E7C37D" d="M45.81 18.789c1.43-.7 2.29-2.17 3.68-2.96.1.05.31.14.42.19-.82.54-1.58 1.18-2.24 1.92-.61.68-.87 1.6-1.52 2.25-.19-.45-.27-.92-.34-1.4Z"/><path fill="#402414" d="M36.98 21.049c.45-1.58 1.09-3.12 1.93-4.53.09.09.27.26.35.34-.86 1.67-1.89 3.35-2.12 5.25-.23-.11-.47-.21-.71-.31.27-.18.5-.42.55-.75ZM30.3 38.219c1.45-.07 2.91-.02 4.36-.03h40.29c-.12.1-.38.29-.5.39-.07.05-.2.15-.27.19-.2.03-.6.09-.8.13-.26-.23-.59-.36-.93-.31-1.39 0-2.78-.03-4.16.08-1.53.12-3.06-.09-4.58.13-3.83.23-7.68.06-11.52.08-.38-.17-.77-.37-1.2-.33-3.33.05-6.67.06-10 .07-.64-.02-1.26.12-1.87.31-.79.13-1.47-.44-2.26-.36-1.94.1-3.89.07-5.84.07 2.25.02 4.51-.03 6.76.12l.19.14c-2.38.14-4.77-.02-7.16.08-.19-.23-.37-.48-.53-.74v-.02h.02Z"/><path fill="#402414" d="M63.68 38.799c2.03 0 4.06.05 6.08-.13 1.03.07 2.12-.18 3.11.15l.24.36c-.49 2.04-2.21 3.53-3.81 4.73.1-.96 1.06-1.39 1.48-2.18.5-.89.92-1.83 1.44-2.72a71.7 71.7 0 0 0-3.88 0c-1.28 4.26-2.67 8.49-4.03 12.72l-.08.05c-.95-1.74-1.98-3.45-3.1-5.09-.95-.21-1.96-.06-2.87.27.39.2.8.38 1.2.57 0 .72.16 1.48-.08 2.18-.45.71-1.37.77-2.08 1.06.71.07 1.43.11 2.14.15v.3c-.56.05-1.13.12-1.68.21 1.54.4 3.16.07 4.72.34-1.7.08-3.41 0-5.11 0-.3-.36-.47-1.01-1.04-.96-1.36-.12-2.81-.07-4.04-.78.12-.02.36-.05.49-.07 1.27.12 2.51.44 3.77.6-.11-.2-.22-.39-.33-.59-.67-1.24-1.48-2.4-2.12-3.66.49-.13.98-.25 1.5-.25h5.77c.2-.47.39-.95.54-1.43l.45-1.53c.19-.58.38-1.17.56-1.75.27-.85.56-1.69.75-2.56v.02l.01-.01Z"/><path fill="#CBA553" d="M63.71 18.109c.46-.03.89.16 1.31.32 1.14.45 2.34.74 3.49 1.16-.05.47-.1.94-.19 1.4-.91-.04-1.82 0-2.72-.04-.84 0-1.54-.6-2.37-.66-.2.15-.4.32-.58.5.28-.91.53-1.87 1.06-2.67v-.01Z"/><path fill="#734D1E" d="m45.71 18.849.1-.05c.07.48.15.95.34 1.4.12.34.25.67.38 1.01-.46 0-.91.02-1.36.08.52-.45.75-1.1.73-1.79-.64.57-1.22 1.23-1.52 2.06l-.61.27c.15-1.23 1.15-2.12 1.95-2.97l-.01-.01Z"/><path fill="#CDAA54" d="M48.57 20.559c1.47-.35 3-.52 4.36-1.21.22.54.43 1.08.63 1.62.25 0 .5.02.76.03.03-.12.08-.36.11-.48.15.5.19 1.02.21 1.53-.06-.15-.17-.46-.22-.61-.98-.02-1.96-.02-2.95 0 .2.77.43 1.53.61 2.31.04.23.12.69.17.92-.81-.32-1.15-1.16-1.69-1.77-.77-.93-1.86-1.51-3-1.82.3-.24.63-.45 1.01-.51v-.01Z"/><path fill="#FFCA5F" d="M44.38 21.549c.3-.82.88-1.48 1.52-2.06 0 .69-.21 1.34-.73 1.79-.27.09-.53.17-.79.27ZM64.98 25.549c.57.14 1.14.29 1.7.46 0 .45.07.9.19 1.34-.14.71-.32 1.42-.48 2.13-.19.74-.39 1.48-.56 2.23-.07-.11-.2-.33-.28-.44l.05-.22c.11-.48.22-.95.33-1.42.13-.52.27-1.03.4-1.55-.68 0-1.36-.03-2.04-.05-.19.65-.37 1.31-.53 1.97-.1.41-.17.82-.25 1.24-.06 0-.19.04-.25.05-.14-.68-.27-1.37-.43-2.04l-.33-1.2c-.2-.71-.35-1.43-.5-2.15.1.05.32.14.43.19.33 1.21.58 2.44.9 3.66.26-.46.36-.99.48-1.5l.27-1.09c.04-.18.13-.54.17-.72l.09.07s.15.13.2.17c.15-.38.29-.75.44-1.13ZM85.93 25.429c.65.2 1.33.35 1.91.73.19.7.27 1.42.39 2.13-.04.23-.08.47-.11.7-.38.82-.94 1.52-1.61 2.11.3.53.6 1.07.91 1.6h-.49l-.51-1.02c-.15-.29-.29-.59-.44-.88.69-.35 1.22-.95 1.59-1.63.11-.34.29-.68.26-1.05-.71-.09-1.43-.07-2.14-.07-.31.28-.62.57-.95.82-.09-.08-.27-.23-.37-.31l-.03-.02c.58-.25.93-.76 1.16-1.34.07-.09.2-.27.27-.35.08-.47.12-.95.16-1.42Z"/><path fill="#CC9B40" d="M62.65 20.779c.18-.18.37-.35.58-.5.83.06 1.53.65 2.37.66.91.03 1.81 0 2.72.04l-.08.28c-.9.09-1.81.1-2.71.13-.17.77-.34 1.53-.54 2.29-.07.24-.13.49-.19.74l-.04.16c-.27.11-.54.24-.82.33-.37-.27-.65-.65-.93-1-.31-.6-.65-1.19-.98-1.79.24-.43.45-.87.61-1.34h.01Z"/><path fill="#88612A" d="M47.3 21.259c.06-.05.19-.14.26-.18 1.14.31 2.23.89 3 1.82.54.61.88 1.46 1.69 1.77.07.32.16.63.24.95-.42-.22-.82-.48-1.12-.86-.14-.27-.29-.54-.44-.8-.78-1.33-2.05-2.49-3.61-2.71h-.02v.01ZM51.84 36.019c.88-.42 1.24-1.46 2.07-1.9.5.26.6.94.91 1.4.21.41.4.82.59 1.24-.97.09-1.95.14-2.93.16-.39-.12-.56-.53-.64-.9Z"/><path fill="#FFEFC6" d="M44.38 21.549c.26-.09.52-.18.79-.27.45-.07.91-.09 1.36-.08.26 0 .51.04.77.06 1.56.21 2.84 1.37 3.61 2.71-1.03-.56-1.67-1.69-2.83-2.02-.7-.21-1.49-.51-2.2-.18-1.07.39-2.12.84-3.16 1.31l-.1-.32c.35-.35.74-.66 1.15-.94l.61-.27Z"/><path fill="#FAE3A3" d="M58.7 21.389c.9 0 1.8 0 2.7.04-.02.14-.04.27-.05.41.18.68.39 1.35.55 2.03-.64-.26-1.33-.32-2.01-.31-.6.62-1.35 1.05-2.11 1.44.3-1.21.62-2.41.92-3.62v.01Z"/><path fill="#FBE7AA" d="M73.84 21.399h3.37c0 .06.02.19.03.26-.03.98-.05 1.96-.02 2.94l-.26.1c-.98-.03-1.96-.05-2.95 0-.68 0-1.37-.02-2.06-.02v.57c-.19-.21-.38-.43-.59-.62-.55 0-1.08.18-1.59.35-.59.07-.45.8-.59 1.22-.05.28-.1.56-.14.85 0-.42-.02-.85-.03-1.27.02-.89 0-1.79.02-2.69.11-.41.24-.82.37-1.23 2.55-.04 5.11-.11 7.66-.04v-.3c-1.07 0-2.15-.03-3.23-.12h.01Zm-.64 1.7c-.17.36-.33.72-.49 1.08 1.06.08 2.11.03 3.17-.06-.79-.56-1.68-1.04-2.67-1.02h-.01Z"/><path fill="#4B2B17" d="M30.19 21.629c1.82.04 3.64-.05 5.46.05-1.81-.03-3.63 0-5.44-.02.02 1.09 0 2.17 0 3.26.02.68.03 1.37.02 2.05 0 2.18-.05 4.35 0 6.53 0 .3.03.6.08.9l.18.98h2.28c.27-.68.36-1.41.33-2.15 0-.37 0-.74-.02-1.11 1.52.02 3.16.13 4.48-.78l.32.09c-.59.53-1.32.86-2.06 1.14-.1.29-.21.59-.31.88-.18.1-.36.19-.54.29.35.06.7.11 1.05.18.03.11.1.32.13.42.19.86.44 1.71.71 2.54-.89.08-1.78-.05-2.68 0-.04-1.02.06-2.05-.03-3.07-.14-.29-.4-.5-.61-.74-.03.95-.04 1.9-.08 2.85-.47-.02-.94-.09-1.41 0-.42.27-.78.64-1.26.81-.43-.42-.86-1-.78-1.65.07-4.48.13-8.96.16-13.45h.02Z"/><path fill="#FBE29C" d="M45.88 21.769c.71-.33 1.5-.03 2.2.18 1.17.33 1.81 1.46 2.83 2.02.16.26.3.53.44.8.12.3.24.61.34.91a9.563 9.563 0 0 0-5.61-1.89c1.03.45 2.75.88 2.6 2.33-.27-.41-.59-.79-.96-1.1-1.11-.73-2.65-.45-3.47.59-.11-.42.18-.78.32-1.15-1.28.25-2.67.37-3.7 1.28.37-1.1.9-2.16 1.73-2.98l.1.32c1.04-.47 2.09-.92 3.16-1.31h.02Z"/><path fill="#FAEBBB" d="M51.46 21.439c.98-.02 1.97-.02 2.95 0 .06.15.17.46.22.61.05.17.14.49.19.66-.06.16-.19.47-.25.62-.85.03-1.69.16-2.5.42-.18-.78-.42-1.54-.61-2.31Z"/><path fill="#653B1B" d="M68.33 21.519c.16.03.49.1.65.14.03.48.05.95.05 1.43-.02.89 0 1.79-.02 2.69-.85 2.93-1.57 5.9-2.35 8.85-.14-1.71.15-3.47-.27-5.14.15-.71.34-1.42.48-2.13.13-.52.28-1.03.41-1.55.1-.42.2-.85.31-1.28.25-1 .53-1.99.75-3l-.01-.01Z"/><path fill="#FCFAD9" d="m68.98 21.659.2-.26c1.55-.02 3.1-.03 4.65 0 1.07.09 2.15.11 3.23.12v.3c-2.56-.07-5.11 0-7.66.04-.13.41-.26.82-.37 1.23 0-.48-.02-.96-.05-1.43Z"/><path fill="#FCF6CA" d="M79.12 21.429c1.91 0 3.82 0 5.73.07.51.13 1.03.3 1.47.6.07.13.22.37.29.5-.93-.41-1.89-.85-2.93-.82-1.53 0-3.07-.02-4.56.33v-.69.01Z"/><path fill="#FAE9B3" d="M30.2 21.659c1.81.03 3.63-.02 5.44.02.12 0 .36.05.48.06l.32.06c.24.1.48.2.71.31l.16.12c.41.29.78.63 1.12 1.01l.33.48c.19.37.36.75.54 1.13.03.18.08.53.1.71-.53-.74-.85-1.71-1.71-2.14-.88-.45-1.65-1.4-2.74-1.15-.3.31-.3.83-.61 1.14-1.3.71-2.93.59-4.12 1.53v-3.26l-.02-.02Z"/><path fill="#583419" d="M61.36 21.839c.28-.13.48.13.68.28.33.59.66 1.19.98 1.79.06.97.32 2.02 1.23 2.53-.04.18-.13.54-.17.72-.28-.32-.55-.64-.84-.96.13.7.3 1.39.57 2.05-.12.51-.22 1.04-.48 1.5-.33-1.21-.57-2.45-.9-3.66-.17-.74-.35-1.48-.52-2.22-.16-.68-.37-1.35-.55-2.03Z"/><path fill="#683E1A" d="M77.23 21.649c.39.57.87 1.08 1.16 1.71.14 1.09 0 2.19.05 3.28-1.47.04-2.93-.16-4.4-.2.32-.12.64-.25.96-.39.08-.24.16-.49.24-.73.58-.17 1.16-.39 1.71-.64l.26-.1c-.03-.98 0-1.96.02-2.94v.01Z"/><path fill="#FAEAB5" d="M79.12 22.119c1.49-.36 3.04-.33 4.56-.33-.07.26-.13.51-.2.77-.95.35-1.87.82-2.86 1.05-.53.12-1.04.29-1.51.57v-2.06h.01Z"/><path fill="#FBE29D" d="M83.68 21.779c1.04-.04 2 .4 2.93.82-.07-.13-.22-.37-.29-.5.79.49 1.36 1.26 1.73 2.1.12.41.21.82.29 1.24-.02.12-.07.36-.1.48-.23-.4-.42-.9-.91-1.03-1.19-.43-2.41-1.34-3.72-.87.6.24 1.29.4 1.67.99h-.36l-.08-.03c-.9-.34-1.86-.32-2.81-.26v1.87c-.11-.3-.22-.61-.33-.92-.04-.38-.06-.76-.08-1.14-.88.15-1.76.36-2.5.9v-1.25c.47-.28.98-.45 1.51-.57.99-.23 1.91-.7 2.86-1.05.07-.26.13-.51.2-.77l-.01-.01Z"/><path fill="#FBDF95" d="M34.33 23.389c.31-.3.31-.82.61-1.14 1.09-.25 1.85.7 2.74 1.15.85.43 1.18 1.4 1.71 2.14.1.59.12 1.18.1 1.77-.29-.5-.42-1.08-.74-1.55-.88-.57-1.88-.9-2.85-1.28.3.51.89 1 .65 1.65-.52-1.47-2.23-1.22-3.45-1.21V28.939c-.09-.92-.07-1.87-.37-2.75-.29-.4-.84-.11-1.23-.08-.56.03-.92.47-1.26.86 0-.68 0-1.36-.02-2.05 1.19-.94 2.82-.82 4.12-1.53h-.01Z"/><path fill="#FBE4A5" d="M54.82 22.709c0 .06.04.17.05.23.12.62.27 1.24.44 1.85-.81-.36-1.7-.21-2.52.02-.1.27-.21.54-.31.81-.08-.32-.17-.63-.24-.95-.04-.23-.12-.69-.17-.92.81-.26 1.65-.38 2.5-.42.06-.16.19-.47.25-.62Z"/><path fill="#5B3419" d="M54.87 22.939c.12-.04.37-.13.49-.17.9 1.7.95 3.7 1.62 5.48-.11.51-.24 1.02-.47 1.49-.33-1.21-.58-2.44-.9-3.66-.1-.43-.2-.87-.31-1.3-.17-.61-.32-1.23-.44-1.85l.01.01ZM33.09 24.919c1.23 0 2.93-.26 3.45 1.21.16.86-.06 1.71-.59 2.4 0-.37 0-.75.02-1.12-.29-.11-.58-.23-.88-.34-.23-.08-.45-.16-.68-.23-.03.66-.05 1.31-.08 1.97h-1.27v-3.89h.03Z"/><path fill="#FBD98A" d="M73.2 23.089c.99-.02 1.88.46 2.67 1.02-1.05.09-2.11.14-3.17.06.16-.36.32-.72.49-1.08h.01Z"/><path fill="#FBE19A" d="M64.99 23.689c.23-.15.45-.3.68-.45.49.12.97.25 1.46.38.15.3.3.61.45.91-.1.43-.2.85-.31 1.28-.11-.34-.23-.67-.34-1.01-.5-.12-1-.23-1.51-.32-.19.15-.38.3-.58.45l-.05-.49c.06-.25.12-.5.19-.74l.01-.01Z"/><path fill="#FDD582" d="M59.89 23.559c.68 0 1.37.05 2.01.31.17.74.35 1.48.52 2.22-.11-.05-.32-.14-.43-.19l-.03-.11c-.04-.98-1.18-1.09-1.93-1.03-.6.36-1.15.84-1.87.91-.23.42-.5.82-.82 1.17.08-.34.16-.68.23-1.03.07-.27.13-.54.2-.81.76-.4 1.51-.83 2.11-1.44h.01Z"/><path fill="#FECF67" d="M46.09 23.789c2 0 4 .69 5.61 1.89.8 2.59.48 5.59-1.1 7.82 0-.49.18-.95.38-1.39.21-.48.4-.97.54-1.48.11-.56.17-1.13.2-1.71v-.86c-.72 0-1.44 0-2.15-.02-.02.71-.03 1.44-.21 2.14-.13.36-.29.72-.45 1.07a3.485 3.485 0 0 1-2.88 1.67c-.71-.27-1.41-.63-1.95-1.18-.2-.31-.39-.62-.55-.95-.38-.86-.42-1.81-.44-2.73H40.9c0 .93.07 1.86.32 2.76.08.3.17.59.26.89.25.61.57 1.18.93 1.72.45.52.97.97 1.52 1.39-.42-.16-.84-.32-1.24-.51-.99-1.14-1.76-2.52-1.97-4.04-.17-.93-.21-1.88-.09-2.82.36-.32.61-.74.81-1.18.63-.21 1.29-.3 1.95-.34-.02.47 0 .95.13 1.4-.07 1.51-.06 3.21 1.09 4.34.78.75 2.02.93 2.95.36.9-.51 1.28-1.53 1.57-2.47.35-.95.19-1.99-.2-2.89-.06-.19-.13-.38-.2-.56.15-1.44-1.57-1.88-2.6-2.33h-.03l-.01.01Z"/><path fill="#AE8036" d="M63.01 23.909c.28.36.56.73.93 1 .28-.09.55-.21.82-.33-.17.63-.33 1.27-.43 1.92l-.09-.07c-.92-.5-1.17-1.55-1.23-2.53v.01Z"/><path fill="#FDD47A" d="M83.6 24.019c1.31-.47 2.53.44 3.72.87.49.13.68.62.91 1.03.03-.12.08-.36.1-.48.23.94.13 1.92-.11 2.85-.12-.71-.2-1.43-.39-2.13-.58-.37-1.26-.53-1.91-.73-.04.48-.08.95-.16 1.42-.07.09-.2.27-.27.35-.02-.43-.04-.85-.1-1.28-.07-.35-.3-.65-.49-.94h.36c-.38-.57-1.07-.73-1.67-.97l.01.01Z"/><path fill="#6A3F1A" d="M88.05 24.199c1.83 2.13 2.15 5.48.6 7.86-.77-.83-.14-2.07-.53-3.07.03-.24.07-.47.11-.7.24-.93.34-1.9.11-2.85-.07-.42-.17-.83-.29-1.24Z"/><path fill="#FECD67" d="M35.9 24.479c.97.38 1.97.71 2.85 1.28.32.48.45 1.06.74 1.55-.05 1.36-.57 2.71-1.53 3.68-.1.09-.29.26-.39.34-1.32.9-2.96.79-4.48.78 0 .37 0 .74.02 1.11-.16-.26-.31-.51-.47-.77.04-.2.11-.62.15-.82.57-.03 1.13-.05 1.69-.06h.23c1.77.17 3.58-.93 4.1-2.68.05-.14.16-.43.22-.57-.73 0-1.46-.07-2.18 0-.55.25-.94.84-1.57.9-.83.11-1.66.07-2.5.08-.05-.33-.09-.66-.13-.98h-2.07l-.02.84V32.189c-.04.45-.17.88-.31 1.31-.05-2.18 0-4.35 0-6.53.34-.4.7-.83 1.26-.86.39-.02.94-.31 1.23.08.29.88.27 1.83.37 2.75v-.13h2.16c.25-.08.49-.17.72-.27.53-.69.75-1.54.59-2.4.24-.66-.35-1.15-.65-1.65h-.02l-.01-.01Z"/><path fill="#FED980" d="M40.89 25.729c1.04-.9 2.42-1.02 3.7-1.28-.15.37-.43.73-.32 1.15-.31.55-.57 1.14-.78 1.74-.12-.46-.14-.93-.13-1.4-.66.04-1.32.13-1.95.34-.2.44-.45.86-.81 1.18 0-.13.04-.39.05-.52.07-.4.13-.81.23-1.2l.01-.01Z"/><path fill="#FCDD8E" d="M52.79 24.809c.82-.23 1.71-.38 2.52-.02.11.43.2.86.31 1.3-.95-.34-2.14-.65-2.97.13-.06-.2-.11-.39-.17-.59.1-.27.21-.54.31-.81v-.01Z"/><path fill="#FFD881" d="m64.76 24.589.04-.16.05.49c.19-.15.38-.3.58-.45.51.09 1.01.2 1.51.32.11.34.22.67.34 1.01-.13.52-.28 1.03-.41 1.55-.12-.44-.19-.89-.19-1.34-.56-.17-1.13-.32-1.7-.46-.14.38-.29.75-.44 1.13-.05-.04-.15-.13-.2-.17.1-.65.26-1.29.43-1.92h-.01Z"/><path fill="#FEDB8A" d="M69.77 24.969c.51-.17 1.05-.35 1.59-.35.21.19.4.4.59.62v1.57c.19 0 .56-.02.75-.02h.31c1.17.05 2.33 0 3.5.03l.07.11v.27c-1.54-.03-3.09-.03-4.63-.02-.2-.53-.4-1.07-.59-1.61-.73.21-1.45.43-2.18.64.14-.43 0-1.16.59-1.22v-.02ZM79.11 25.429c.74-.54 1.62-.76 2.5-.9.02.38.04.76.08 1.14-.66.12-1.37.14-1.98.47-.21.26-.37.57-.53.87-.02-.36-.05-.73-.07-1.09v-.49Z"/><path fill="#4D2B18" d="M44.26 25.599c.82-1.04 2.36-1.32 3.47-.59-.35.11-.69.21-1.04.32-.15.47-.31.94-.5 1.4.11 0 .32-.03.43-.05-.57.4-1.13.85-1.45 1.48-.58 1.07-.46 2.34-.6 3.51-1.15-1.13-1.17-2.83-1.09-4.34.2-.6.47-1.19.78-1.74v.01Z"/><path fill="#71431C" d="M51.36 24.769c.3.37.7.64 1.12.86.06.19.12.39.17.59.28.98.54 1.97.73 2.97-.36.76-.11 1.62-.21 2.42-.06 1.49-.85 2.78-1.46 4.1.71-.21 1.03-.91 1.31-1.54.34-.8.6-1.63.98-2.42.14.51.29 1.01.43 1.52.06.25.12.5.2.75.19.39.42.77.64 1.15-.15.12-.31.24-.46.36-.3-.46-.4-1.14-.91-1.4-.83.44-1.19 1.48-2.07 1.9.08.37.24.78.64.9h-.12c-.37 0-.73.02-1.09.03 0-.16-.03-.49-.04-.65-.39.14-.78.27-1.19.35.02-.75.09-1.53-.2-2.24.27-.29.53-.59.77-.91 1.58-2.23 1.9-5.23 1.1-7.82-.1-.31-.22-.61-.34-.91v-.01Z"/><path fill="#FFD069" d="M58.17 25.669c.72-.07 1.27-.55 1.87-.91.75-.06 1.89.05 1.93 1.03-.7.05-1.41.04-2.11 0 .3.65.49 1.34.23 2.04l-.21-.32c-.28 1.24-.62 2.47-.91 3.71-.15.62-.32 1.24-.48 1.86-.15-.34-.17-.72-.13-1.09.05-.17.14-.52.18-.7.08-.31.17-.62.25-.93.2-.78.39-1.55.59-2.33-.66.02-1.31.03-1.97.04-.16.62-.32 1.24-.49 1.87l-.21.73c-.08.19-.16.39-.25.58-.09-.36-.19-.73-.27-1.1-.15-.68-.29-1.38-.55-2.04-.72-.1-1.46-.05-2.18-.05.22.88.43 1.77.65 2.66l.24.98c.15.51.18 1.05.06 1.57-.14-.51-.29-1.01-.43-1.52-.21-.86-.41-1.71-.62-2.57-.2-1-.46-1.99-.73-2.97.83-.77 2.02-.47 2.97-.13.31 1.21.57 2.45.9 3.66.23-.47.36-.98.47-1.49.08-.37.16-.73.26-1.1.02-.08.08-.23.1-.31.32-.35.59-.75.82-1.17h.02Z"/><path fill="#391A0F" d="M71.95 24.659c.68 0 1.37 0 2.06.02-.59.22-1.18.45-1.79.63-.1.57.02 1.11.48 1.48-.19 0-.56.02-.75.02v-2.15Z"/><path fill="#542E18" d="M74 24.679c.98-.04 1.96 0 2.95 0-.56.25-1.13.47-1.71.64-.08.24-.16.49-.24.73-.32.14-.64.27-.96.39-.36.06-.71.15-1.04.32h-.31c-.46-.37-.58-.91-.48-1.48.61-.18 1.2-.4 1.79-.63v.03Z"/><path fill="#482614" d="M82.03 24.709c.94-.06 1.91-.08 2.81.26-.47.16-.95.28-1.43.38 0 .48.09.95.42 1.32-.12 0-.35-.02-.47-.03-.28-.34-.56-.67-.86-.99-.03.81-.03 1.61 0 2.42.39.11.79.21 1.18.3l.67.16.03.02c-.78-.02-1.57.02-2.35.03 0-.67.02-1.34 0-2.01 0-.62.02-1.24 0-1.87v.01Z"/><path fill="#70421B" d="M39.28 24.839c.57.62.92 1.39 1.37 2.09 0 .13-.04.39-.05.52-.12.94-.07 1.89.09 2.82-.52 1.26-1.13 2.62-2.42 3.25-.04-.84.25-1.81-.32-2.53.97-.97 1.48-2.32 1.53-3.68.02-.59 0-1.19-.1-1.77-.02-.18-.08-.53-.1-.71v.01Z"/><path fill="#683C1A" d="M47.73 25.009c.37.32.69.69.96 1.1.07.19.13.37.2.56l.09.48-.74-.27c-.11-.08-.32-.24-.43-.32-.39.03-.79.07-1.18.11-.11 0-.33.04-.43.05.19-.46.35-.93.5-1.4.35-.1.69-.21 1.04-.32l-.01.01Z"/><path fill="#60391A" d="m84.84 24.979.08.02c.19.29.42.59.49.94v.74h-1.58c-.33-.37-.42-.84-.42-1.32.49-.1.96-.22 1.43-.38Z"/><path fill="#FCD06A" d="M69.18 26.199c.73-.21 1.45-.43 2.18-.64.19.54.38 1.08.59 1.61 1.54 0 3.09-.02 4.63.02 0 .93-.02 1.87-.03 2.8l-.58.08c-1.34-.03-2.68-.02-4.01-.04v2.24c1.79.06 3.58 0 5.37.05v.73c-.49-.27-1.04-.35-1.59-.28-1.07-.04-2.13-.05-3.19 0-.33 0-.66-.03-.98-.05V29.489h1.12c1.2 0 2.4.03 3.6-.06-.03-.46-.04-.92-.05-1.38-1.02 0-2.03-.37-3.05-.14-1.25.24-2.53.09-3.79.14-.03 1.12.03 2.23 0 3.35 0 .7-.12 1.4-.34 2.07-.03-2.15-.03-4.3 0-6.45.05-.28.1-.56.14-.85l-.02.03Zm2.66 3.65c1.51 0 3.05.13 4.55-.09-1.15-.2-2.31-.06-3.47-.1-.36.03-.79-.08-1.08.19ZM30.2 37.369c9.21-.02 18.42 0 27.63-.08 10.39-.11 20.77.08 31.16.05 0 .18 0 .54-.02.73-.04-.08-.12-.23-.16-.3l-.11-.19c-10.5 0-20.99-.1-31.49-.04-7.28-.05-14.55 0-21.82-.02-1.67.03-3.35-.07-5.02.07l-.08-.02-.09-.21v.01Z"/><path fill="#FFD16D" d="M79.71 26.129c.61-.32 1.32-.34 1.98-.47.1.31.21.61.33.92.03.67.02 1.34 0 2.01.78 0 1.57-.04 2.35-.03.09.08.28.23.37.31-.98.27-2 .19-3.01.2-.04-.34-.07-.68-.09-1.01h-2.11v1.04c0 .58 0 1.16-.03 1.74 0 .35-.02.7-.02 1.06 0 .3 0 .6-.03.9-.04.09-.13.28-.17.37-.24-2.06-.09-4.14-.1-6.2.16-.3.32-.6.53-.87v.03Z"/><path fill="#643B1A" d="M82.5 25.669c.29.32.58.65.86.99.13.57.22 1.16.32 1.74-.4-.09-.79-.2-1.18-.3-.02-.81-.03-1.61 0-2.42v-.01ZM33.55 33.079c.21.24.47.45.61.74.09 1.02 0 2.04.03 3.07-1.1.08-2.23.21-3.32-.02l-.06-.14c.48-.17.84-.53 1.26-.81.47-.08.94 0 1.41 0 .04-.95.05-1.9.08-2.85l-.01.01Z"/><path fill="#321E10" d="M66.66 34.629c.79-2.95 1.5-5.92 2.35-8.85 0 .42.02.85.03 1.27-.02 2.15-.03 4.3 0 6.45 0 .5.03 1 .05 1.5l-.27-.08c-.07-1.76.04-3.53-.12-5.29-.93 2.18-1.18 4.58-1.84 6.85.85.07 1.7-.07 2.55-.08.92.1 1.84.2 2.77.14 2.12.05 4.24.19 6.37.1v.32h-.11c-5.29-.02-10.58.07-15.86-.02 1.17-.52 2.51.2 3.65-.48.15-.6.31-1.21.43-1.82v-.01Z"/><path fill="#9B763D" d="M79.04 34.889c.05-2.99-.02-5.99.07-8.98.02.36.05.73.07 1.09 0 2.07-.14 4.15.1 6.2.02.21.05.42.08.63.05.31.09.62.13.94l.04.33c-.12-.05-.37-.16-.49-.2v-.01Z"/><path fill="#231C10" d="M85.4 25.939c.06.42.09.85.1 1.28-.23.57-.58 1.09-1.16 1.34l-.67-.16c-.1-.58-.19-1.16-.32-1.74.12 0 .35.02.47.03h1.59v-.74l-.01-.01Z"/><path fill="#1A140E" d="m63.24 26.199.84.96-.27 1.09c-.26-.66-.43-1.35-.57-2.05ZM41.7 38.909c.34 0 .68-.02 1.02-.02.36.65.51 1.37.73 2.07.65 1.54 1.98 2.59 3.2 3.65 1.61 2.23 3.92 3.95 6.57 4.7.99.26 1.97.67 3.02.66.11.19.22.39.33.59-1.26-.16-2.5-.48-3.77-.6-1.16-.13-2.25-.56-3.3-1.07-.34-.55-.89-.9-1.38-1.3-.71-.55-1-1.44-1.58-2.1-1.17-1.28-2.53-2.39-3.59-3.76-.65-.81-.94-1.83-1.25-2.81v-.01Z"/><path fill="#AF8744" d="M48.89 26.679c.39.91.55 1.94.2 2.89-.37-.86-.63-1.77-.85-2.68l.74.27-.09-.48Z"/><path fill="#030303" d="M34.43 26.839c.23.07.45.15.68.23.03.57.09 1.15.13 1.72h-.89c.02-.65.05-1.3.08-1.96v.01Z"/><path fill="#6A3E19" d="M76.57 26.909c.4.67.95 1.26 1.21 2 .1 1 0 2.01.02 3.01-1.41 0-2.82-.09-4.23-.07.47-.17.95-.3 1.43-.42.05-.4.1-.8.14-1.2.28-.05.55-.12.83-.18l.58-.08c0-.93 0-1.86.03-2.8v-.27l-.01.01Z"/><path fill="#FAA74F" d="M35.24 28.789c-.04-.57-.1-1.15-.13-1.72.29.11.58.23.88.34 0 .37 0 .75-.02 1.12-.24.1-.48.19-.72.26h-.01Z"/><path fill="#633A1B" d="m59.88 27.509.21.32c.19 1.05.48 2.08.7 3.12-.65 1.52-.94 3.16-1.36 4.75-.53-1.46.29-3.1-.46-4.48.29-1.24.63-2.46.91-3.71Z"/><path fill="#784B1E" d="M53.49 28.049c.72 0 1.46-.05 2.18.05.27.65.4 1.35.55 2.04-.22.95-1.4.46-2.08.56-.22-.89-.43-1.77-.65-2.66v.01Z"/><path fill="#4B2613" d="M60.51 28.029c.66 0 1.33.02 1.99.02l.33 1.2c-.45.29-.95.45-1.46.56-.09.1-.26.29-.35.38-.19-.71-.36-1.43-.52-2.15l.01-.01Z"/><path fill="#7D5120" d="M69.37 28.059c1.26-.04 2.54.1 3.79-.14 1.01-.23 2.03.16 3.05.14 0 .46.02.92.05 1.38-.67-.72-1.73-.36-2.6-.42.83-.17 1.67-.24 2.51-.31l-.19-.3c-.95-.22-1.94-.12-2.91-.12-.04.27-.09.53-.13.8l-.26-.51c-1.06-.07-2.12-.1-3.17.03l.07.73c.65.06 1.3.13 1.96.17v1.16h-1.96l-.2.65v.1c0-1.12-.05-2.23-.02-3.35l.01-.01Z"/><path fill="#532A14" d="M85.69 28.049c.71 0 1.43-.02 2.14.07.02.37-.15.71-.26 1.05l-.38-.39c-1.03.58-2.05 1.22-3.2 1.52-.2-.29-.33-.67-.63-.88-.53-.1-1.07-.1-1.6-.15l-.02-.19c1 0 2.03.07 3.01-.2.33-.26.64-.54.95-.82l-.01-.01Z"/><path fill="#5F3516" d="M49.55 28.039c.72 0 1.44.02 2.15.02v.86c-.75.49-1.55.9-2.37 1.26.18-.7.19-1.43.21-2.14h.01Z"/><path fill="#5E3316" d="M63.77 29.999c.17-.66.34-1.32.53-1.97.68.02 1.36.03 2.04.05-.14.51-.28 1.03-.4 1.55-.71.2-1.42.48-2.17.37Z"/><path fill="#6D3D18" d="M79.53 28.079h2.11l.09 1.01.02.19c.53.05 1.07.05 1.6.15.3.21.43.58.63.88 1.16-.3 2.17-.95 3.2-1.52l.38.39c-.37.68-.89 1.28-1.59 1.63-.67.23-1.37.47-2.09.42-.43-.43-.55-1.26-1.27-1.3-.92-.15-1.87-.11-2.8-.13-.1-.22-.2-.45-.29-.68v-1.04h.01Z"/><path fill="#673716" d="M30.57 28.319h2.07c.04.33.09.66.13.98l.04.2c.79.07 1.56.24 2.34.38.8-.11 1.45-.66 2.23-.84.47-.08.94-.09 1.41-.14-.52 1.75-2.33 2.86-4.1 2.68-.18-.54-.17-1.23-.58-1.64-1.07-.24-2.18-.24-3.26-.44-.08-.09-.24-.26-.32-.35l.02-.84h.02v.01Z"/><path fill="#502913" d="M35.27 29.219c.63-.06 1.02-.65 1.57-.9.72-.06 1.45 0 2.18 0-.05.14-.16.43-.22.57-.47.05-.95.06-1.41.14-.78.17-1.44.73-2.23.84-.78-.14-1.55-.32-2.34-.38l-.04-.2c.83 0 1.67.03 2.5-.08l-.01.01Z"/><path fill="#3D190E" d="M73.07 28.289c.97 0 1.96-.09 2.91.12l.19.3c-.84.07-1.68.14-2.51.31.86.06 1.92-.3 2.6.42-1.2.09-2.4.05-3.6.06.07-.1.21-.31.29-.42.05-.27.09-.53.13-.8l-.01.01Z"/><path fill="#70441A" d="M69.51 28.609c1.05-.13 2.11-.1 3.17-.03l.26.51c-.07.11-.21.31-.29.42h-1.12c-.66-.04-1.31-.1-1.96-.17l-.07-.73h.01Z"/><path fill="#7D481D" d="M49.34 30.179c.82-.35 1.62-.76 2.37-1.26-.03.57-.09 1.14-.2 1.71-.86.25-1.72.56-2.63.62.16-.35.32-.7.45-1.07h.01Z"/><path fill="#885422" d="M30.55 29.159c.08.09.24.26.32.35 1.08.19 2.19.2 3.26.44.42.41.4 1.1.58 1.64h-.23c-1.22-.17-2.42-.41-3.64-.55-.08-.1-.22-.3-.3-.39v-1.48l.01-.01Z"/><path fill="#6D3916" d="M62.83 29.249c.16.68.29 1.36.43 2.04-.63.13-1.28.18-1.92.2-.1-.44-.2-.87-.32-1.31.09-.09.26-.28.35-.38.51-.11 1.02-.27 1.46-.56v.01ZM57.2 37.549c10.5-.06 20.99.02 31.49.04l.11.19c-9.12.05-18.22.09-27.33.11-1.35 0-2.69 0-4.04-.06l-.23-.27v-.01Z"/><path fill="#8E5B24" d="M79.53 29.119c.09.23.19.45.29.68.93.02 1.88-.02 2.8.13.72.03.84.86 1.27 1.3.72.05 1.42-.19 2.09-.42.14.29.29.59.44.88-.66.23-1.34.42-2.03.57-.16-.29-.28-.63-.53-.85-.72-.11-1.44-.07-2.16-.09-.61 0-1.21-.05-1.82-.08-.1-.09-.29-.27-.38-.36.02-.58.03-1.16.03-1.74v-.02ZM30.36 37.599c1.67-.14 3.35-.04 5.02-.07 7.28.02 14.55-.03 21.82.02l.23.27c-8.64 0-17.28-.07-25.92-.06-.39 0-.77-.08-1.15-.16Z"/><path fill="#573219" d="M88.12 28.989c.39.99-.24 2.24.53 3.07-.32.36-.66.7-.99 1.04-.08-.13-.16-.26-.24-.4-.31-.53-.61-1.07-.91-1.6.67-.59 1.23-1.3 1.61-2.11ZM75.51 47.869c.77-.72 1.56-1.42 2.25-2.23-3.29 4.39-8.1 7.64-13.43 8.85 0-.15.04-.44.06-.59 2.47-.41 4.82-1.45 6.94-2.77.78-.35 1.29-1.06 2.01-1.51.78-.51 1.51-1.1 2.18-1.74l-.01-.01Z"/><path fill="#3E2713" d="M53.17 31.599c.1-.81-.15-1.67.21-2.42.21.86.41 1.71.62 2.57-.38.79-.63 1.62-.98 2.42-.29.62-.6 1.33-1.31 1.54.61-1.31 1.4-2.61 1.46-4.1v-.01Z"/><path fill="#7A451C" d="M63.77 29.999c.75.11 1.46-.17 2.17-.37l-.33 1.42c-.7-.08-1.41 0-2.09.18.08-.41.16-.83.25-1.24v.01Z"/><path fill="#522E17" d="M66.39 29.479c.41 1.67.13 3.43.27 5.14-.12.61-.28 1.21-.43 1.82-1.15.69-2.48-.04-3.65.48-3.41.05-6.82.04-10.23 0h.12c.98-.02 1.96-.07 2.93-.16-.18-.42-.38-.83-.59-1.24.15-.12.31-.24.46-.36.9-.17 2.23.43 2.71-.63.26-.45.4-.95.51-1.46.15-.62.32-1.24.48-1.86.75 1.38-.08 3.02.46 4.48 0 .59-.48.86-.98 1 .48.19.99.16 1.5.11.82-.08 1.64-.1 2.46-.11-.24-.46-.47-.93-.7-1.4 1.04-.12 2.08-.03 3.12-.08.04-.11.13-.32.18-.43.21-1.04.64-2.02.82-3.07.17-.75.38-1.49.56-2.23Z"/><path fill="#482A16" d="M66.87 36.469c.66-2.27.91-4.66 1.84-6.85.16 1.76.05 3.52.12 5.29l.27.08c.09.03.26.1.35.14 2.55.05 5.1-.02 7.66 0-.02.11-.05.32-.07.42-1.66.17-3.34-.04-4.99.29.05.23.09.45.14.68-.93.06-1.85-.04-2.77-.14-.85 0-1.7.15-2.55.08v.01ZM42.76 45.059c.42.36.87.7 1.31 1.03.25.2.5.41.76.6-.23.99.94 1.45 1.33 2.22-.57-.34-1.1-.75-1.56-1.23-.74-.77-1.63-1.52-1.85-2.63l.01.01Z"/><path fill="#FAF285" d="M71.84 29.849c.29-.28.72-.16 1.08-.19 1.16.04 2.32-.1 3.47.1-1.5.22-3.04.1-4.55.09Z"/><path fill="#925B24" d="m56.74 30.659.21-.73c.62.14 1.24.28 1.86.43-.08.31-.17.62-.25.93-.54-.09-1.08-.17-1.62-.28-.05-.09-.15-.26-.19-.35h-.01Z"/><path fill="#A57331" d="M56.22 30.149c.08.37.18.73.27 1.1.09-.19.17-.39.25-.58.05.09.15.26.19.35.54.11 1.08.19 1.62.28-.05.17-.14.52-.18.7-1.33-.07-2.71.18-3.99-.3-.08-.33-.16-.66-.24-.98.68-.1 1.86.38 2.08-.56v-.01Z"/><path fill="#13100D" d="M38.27 33.519c1.29-.63 1.9-1.99 2.42-3.25.21 1.52.97 2.9 1.97 4.04.43.77.66 1.83 1.56 2.19.84.28 1.73.1 2.59.12 1.08-.02 2.15 0 3.23.03.4-.09.8-.22 1.19-.35 0 .16.03.49.04.65h-.85c-.74-.35-1.56-.23-2.34-.23-2.53-.03-5.06.38-7.6.1.13-.17.27-.34.4-.51-.5-.84-.78-1.86-1.42-2.6-.72-.07-1.39.35-2.12.32.31-.17.63-.34.94-.52l-.01.01Z"/><path fill="#553018" d="M72.22 30.409c.93-.32 1.96-.1 2.93-.17-.04.4-.09.8-.14 1.2-.48.12-.96.25-1.43.42-.47.15-1.06.56-1.44 0-.04-.47-.2-1.04.08-1.46v.01Z"/><path fill="#A5783F" d="M30.54 30.639c.07.1.22.3.3.39 1.22.14 2.43.38 3.64.55-.57 0-1.13.03-1.69.06-.04.2-.11.62-.15.82-.71.04-1.44.05-2.09-.28v-1.55l-.01.01Z"/><path fill="#996A32" d="M69.59 30.659h1.96v.77c-.72-.02-1.44-.06-2.16-.11l.2-.65v-.01Z"/><path fill="#9D6E34" d="M41.2 30.829c.77-.04 1.55-.05 2.32-.03.17.33.36.64.55.95-.87.02-1.74 0-2.61-.02-.1-.3-.18-.59-.26-.89v-.01Z"/><path fill="#A26E37" d="M63.52 31.239c.68-.19 1.39-.26 2.09-.18l-.05.22c-.14.48-.3.96-.43 1.44-1.1.04-2.18.31-3.28.27-.11-.22-.22-.45-.33-.68-.06-.28-.11-.55-.17-.83.64-.03 1.29-.07 1.92-.2.06 0 .19-.04.25-.05v.01Z"/><path fill="#AB8045" d="M79.5 30.869c.1.09.29.27.38.36.6.03 1.21.07 1.82.08 0 .23-.03.69-.04.92a10.6 10.6 0 0 1-2.18-.3c0-.35 0-.71.02-1.06ZM69.39 31.319c.72.05 1.44.09 2.16.11v.78c-.53 0-1.05.04-1.57 0-.51.08-.49-.57-.6-.89h.01Z"/><path fill="#5F381A" d="M37.56 31.339c.1-.09.3-.26.39-.34.57.71.28 1.68.32 2.53-.31.17-.63.34-.94.52.73.03 1.4-.39 2.12-.32.64.74.91 1.75 1.42 2.6-.13.17-.27.34-.4.51 2.53.28 5.06-.13 7.6-.1.78 0 1.61-.12 2.34.23-3.97.04-7.94.06-11.91 0l-.09-.8c-.16-.18-.32-.35-.48-.53 0-.28-.03-.55-.04-.82-.54-.29-1.15-.39-1.75-.46-.03-.11-.1-.32-.13-.42-.35-.07-.7-.13-1.05-.18.18-.1.36-.19.54-.29.1-.29.2-.59.31-.88.74-.28 1.47-.6 2.06-1.14l-.32-.09v-.02h.01Z"/><path fill="#442613" d="M59.43 35.689c.42-1.59.72-3.23 1.36-4.75.15.6.32 1.19.45 1.8.08.47.2.93.31 1.38-.24.02-.49.04-.73.07-.42.82-1.14 1.63-.88 2.61-.5.05-1.02.08-1.5-.11.51-.14.99-.41.98-1h.01Z"/><path fill="#DBB16B" d="M65.12 32.719c.13-.49.29-.96.43-1.44l.28.44c-.18 1.05-.61 2.03-.82 3.07-.07-.04-.21-.13-.29-.18-.84-.35-1.79 0-2.67-.05l-.28-.24c.21-.21.34-.59.69-.6.83-.15 1.68-.19 2.5-.41l.16-.59Z"/><path fill="#CCA361" d="M69.38 31.409v-.1c.12.32.1.98.61.89.52.03 1.05 0 1.57 0v.52c.33.02.65.04.98.05.81 1.08 2.22.51 3.19 0 .55-.08 1.1 0 1.59.28-.03.36-.07.72-.11 1.08l-.39-.59c-.98.23-1.94.59-2.94.74-.67.16-1.08-.58-1.7-.65-.87-.12-1.75-.32-2.63-.25l-.12.72v1.03c-.09-.03-.26-.1-.35-.14-.02-.5-.05-1-.05-1.5.22-.67.32-1.37.34-2.07l.01-.01Z"/><path fill="#F3C261" d="M81.7 31.309c.72.02 1.45-.02 2.16.09.25.23.37.56.53.85l.04.09c-.06.1-.18.31-.24.42-.14-.3-.28-.59-.42-.88-.59 0-1.19-.02-1.78 0 0 .52.02 1.04 0 1.56-.09-.07-.28-.21-.37-.28 0-.31 0-.62.02-.93 0-.23.03-.69.04-.92h.02Z"/><path fill="#C29554" d="M41.47 31.709c.87.03 1.74.05 2.61.02.54.55 1.23.91 1.95 1.18.41.17.87.33 1.31.15 1.21-.36 2.42-.74 3.66-.96-.2.44-.38.9-.38 1.39-.24.32-.5.62-.77.91-.5.43-1.15.54-1.78.62.56-.33 1.12-.67 1.56-1.16-1 .16-1.99.53-3.02.48-.58-.22-1.04-.77-1.69-.8-.84-.08-1.68-.07-2.52-.12-.36-.54-.68-1.12-.93-1.72v.01Z"/><path fill="#C39955" d="M54.38 31.689c1.28.48 2.66.22 3.99.3-.04.37-.02.74.13 1.09-.11.5-.25 1.01-.51 1.46-.07-.24-.22-.71-.29-.95-.9-.08-1.8-.13-2.7-.14l-.36.57c-.07-.25-.14-.5-.2-.75.12-.52.09-1.06-.06-1.57v-.01Z"/><path fill="#B27D42" d="m86.42 31.679.51 1.02c-.61.26-1.25.6-1.93.51-.23-.27-.4-.57-.57-.88l-.04-.09c.68-.15 1.36-.34 2.03-.57v.01Z"/><path fill="#BD975B" d="M79.48 31.919c.72.17 1.45.28 2.18.3 0 .31-.02.62-.02.93-.72-.16-1.46-.25-2.19-.32 0-.3.02-.6.03-.9v-.01Z"/><path fill="#583218" d="M82.01 31.879c.59-.02 1.18-.02 1.78 0 .14.3.28.59.42.88.16.35.33.7.52 1.04-.22 0-.65.02-.86.02-.12 0-.36.02-.48.02-.21.88-.24 1.78-.24 2.68v.33c1.13.03 2.27.16 3.38-.08-.37-.47-.71-.96-1.01-1.47.95-.1 1.9-.11 2.84-.04l-.14.25c-.43.15-.86.28-1.29.4 0 .13-.04.38-.05.51.71 0 1.42.03 2.14.06 0 .12 0 .35-.02.47-3.52.04-7.04.02-10.56 0h.11c.43-.03.87-.08 1.3-.11-.35-.61-.84-1.2-.81-1.95.12.05.36.15.49.2.74.07 1.47.04 2.21.03.1-.56.21-1.12.28-1.69v-1.56.02l-.01-.01Z"/><path fill="#D0AB6A" d="M30.54 32.189c.65.33 1.38.32 2.09.28.15.26.31.51.47.77.03.73-.05 1.46-.33 2.15-.07-.31-.14-.62-.2-.93-.74-.2-1.52-.35-2.25-.05-.05-.3-.08-.6-.08-.9.13-.43.27-.86.31-1.31l-.01-.01Z"/><path fill="#C79751" d="M61.51 32.319c.1.23.21.45.33.68 1.1.04 2.18-.23 3.28-.27l-.16.59c-.82.22-1.67.26-2.5.41-.35 0-.48.39-.69.6-.06-.05-.17-.15-.23-.19-.12-.46-.23-.92-.31-1.38.07-.1.2-.31.27-.42v-.02h.01Z"/><path fill="#62391B" d="M77.33 32.309c.25.41.52.82.78 1.22.71.87.35 2.07.44 3.1-2.13.09-4.25-.05-6.37-.1-.05-.23-.1-.46-.14-.68 1.65-.34 3.33-.13 4.99-.29.02-.1.05-.32.07-.42.02-.16.06-.48.09-.64 0-.09.03-.28.04-.37.04-.36.09-.72.11-1.08v-.73l-.01-.01Z"/><path fill="#CC9E5B" d="M84.44 32.339c.17.31.34.61.57.88.68.09 1.32-.25 1.93-.51h.49c.08.13.16.26.24.4l.2.33s.03.06.04.07l.17.29-.16.36c-.62-.81-1.63-.42-2.45-.24 0 .11.03.33.04.44-.06.04-.17.11-.22.15a6.52 6.52 0 0 1-.34-.4 7.81 7.81 0 0 1-.2-.3c-.19-.34-.36-.69-.52-1.04.06-.1.18-.31.24-.42h-.03v-.01Z"/><path fill="#B68449" d="M72.56 32.769c1.06-.05 2.13-.05 3.19 0-.97.52-2.39 1.08-3.19 0Z"/><path fill="#D7B373" d="M79.45 32.829c.74.07 1.47.16 2.19.32.09.07.28.21.37.28-.07.57-.18 1.13-.28 1.69l-.05-.36-.09-.86c-.74-.07-1.49-.09-2.24-.06-.03-.21-.06-.42-.08-.63.04-.09.13-.28.17-.37h.01v-.01Z"/><path fill="#E7C278" d="M42.39 33.439c.84.05 1.68.04 2.52.12.65.03 1.1.58 1.69.8 1.03.05 2.01-.32 3.02-.48-.44.48-1.01.82-1.56 1.16-.05.03-.16.09-.22.12-1.31.34-2.71.26-3.93-.33-.54-.42-1.07-.86-1.52-1.39Z"/><path fill="#E8C580" d="M55 33.439c.9 0 1.8.06 2.7.14.07.24.22.71.29.95-.49 1.06-1.81.47-2.71.63-.22-.38-.45-.76-.64-1.15l.36-.57Z"/><path fill="#E1BD79" d="M69.56 33.369c.88-.06 1.76.13 2.63.25.63.07 1.03.81 1.7.65 1-.15 1.95-.51 2.94-.74.1.15.3.44.39.59 0 .09-.03.28-.04.37-1.36-.24-2.71.45-4.07.11-1.21-.29-2.45-.38-3.68-.51l.12-.72h.01Z"/><path fill="#291910" d="M87.86 33.429s.03.06.04.07c0-.02-.03-.05-.04-.07Z"/><path fill="#E2B871" d="M85.46 33.909c.82-.18 1.83-.57 2.45.24l-.09.13c-.71.13-1.43.26-2.12.45-.05-.1-.15-.29-.2-.38 0-.11-.03-.33-.04-.44Z"/><path fill="#E8C687" d="M79.36 33.829c.75-.02 1.49 0 2.24.06l.09.86c-.72-.24-1.49-.3-2.2 0-.04-.31-.09-.62-.13-.94v.02Z"/><path fill="#2C2111" d="M83.38 33.849c.12 0 .36-.02.48-.02.78.67.56 1.72.47 2.62-.4.02-.79.05-1.18.08 0-.9.03-1.8.24-2.68h-.01Z"/><path fill="#15120E" d="M83.86 33.819c.22 0 .65-.02.86-.02.05.08.15.23.2.3-.07.18-.15.37-.22.55.35.11.65.31.82.66.3.51.64 1 1.01 1.47-1.11.24-2.26.11-3.38.08v-.33c.39-.03.79-.05 1.18-.08.09-.9.31-1.95-.47-2.62v-.01Z"/><path fill="#7E5A2F" d="M88.07 33.789c.19.33.37.67.55 1.01-.06.12-.19.35-.25.47-.95-.07-1.9-.06-2.84.04-.17-.34-.47-.54-.82-.66.08-.18.15-.37.22-.55.11.14.22.27.34.4.06-.04.17-.11.22-.15.05.1.15.29.2.38l.19.31c.76.08 1.53.06 2.29.06-.12-.28-.24-.55-.36-.82l.09-.13.16-.36h.01Z"/><path fill="#FADC97" d="M30.32 34.399c.73-.31 1.52-.16 2.25.05.06.31.13.62.2.93h-2.28l-.18-.98h.01Z"/><path fill="#714721" d="M60.83 34.189c.24-.02.49-.04.73-.07l.23.19.28.24c.06.13.18.39.24.51.78.07 1.57.06 2.35 0l.07-.46c.07.04.21.13.29.18-.04.11-.13.32-.18.43-1.04.05-2.08-.04-3.12.08.23.47.46.93.7 1.4-.82 0-1.65.04-2.46.11-.25-.99.47-1.8.88-2.61h-.01Z"/><path fill="#F6D890" d="M69.44 34.089c1.23.13 2.47.23 3.68.51 1.36.34 2.7-.35 4.07-.11-.02.16-.07.48-.09.64-2.55-.03-5.1.04-7.66 0v-1.04Z"/><path fill="#EBB660" d="M36.15 34.339c.6.07 1.2.17 1.75.46 0 .27.02.55.04.82.16.18.32.35.48.53l.09.8c-2.56.09-5.13.09-7.69 0l.05-.1c1.1.23 2.22.11 3.32.02.89-.05 1.79.08 2.68 0-.27-.84-.53-1.68-.71-2.54l-.01.01Z"/><path fill="#512E17" d="M42.66 34.309c.4.19.82.35 1.24.51 1.22.59 2.62.67 3.93.33-.34.38-.69.75-1.09 1.06.02.1.05.31.07.41-.86-.02-1.75.16-2.59-.12-.9-.36-1.12-1.42-1.56-2.19Z"/><path fill="#F9D384" d="M62.06 34.559c.88.04 1.83-.3 2.67.05l-.07.46c-.78.06-1.57.07-2.35 0-.06-.13-.18-.39-.24-.51h-.01Z"/><path fill="#F8D88E" d="M85.69 34.729c.69-.2 1.41-.33 2.12-.45.12.27.24.54.36.82-.76 0-1.53.02-2.29-.06l-.19-.31Z"/><path fill="#643B1B" d="M48.05 35.039c.63-.08 1.28-.19 1.78-.62.29.71.22 1.49.2 2.24-1.08-.02-2.15-.06-3.23-.03-.02-.1-.05-.31-.07-.41.4-.31.75-.68 1.09-1.06.06-.03.17-.09.22-.12h.01Z"/><path fill="#F9E29D" d="M79.49 34.769c.71-.31 1.48-.24 2.2 0l.05.36c-.74 0-1.48.04-2.21-.03l-.04-.33Z"/><path fill="#76451E" d="M88.62 34.799c.45.9.92 1.78 1.38 2.68l-.43.08c.04.46.02.93-.03 1.39-2.13-.04-4.26 0-6.4-.02-.44 0-.9-.03-1.32.13-.37-.23-.77-.03-1.15.04-.16.54-.41 1.05-.74 1.51v-1.82c-1.82-.18-3.69.22-5.48-.22.13-.1.38-.29.5-.39 4.67-.06 9.35-.02 14.02 0v-1.23c.02-.12.02-.35.03-.47-.71-.03-1.43-.05-2.14-.06 0-.13.04-.39.05-.51.43-.12.87-.25 1.29-.4l.14-.25c.06-.12.19-.35.25-.47h.03v.01Z"/><path fill="#FCF9CF" d="M30.26 36.959h.55c2.56.08 5.13.08 7.69 0 3.97.06 7.94.04 11.91 0h.85c.37 0 .73-.03 1.09-.03 3.41.05 6.82.06 10.23 0 5.29.09 10.58 0 15.86.02 3.52.03 7.04.05 10.56 0v.39c-10.41.02-20.79-.17-31.18-.05-9.21.07-18.41.06-27.63.08l.06-.41h.02-.01Z"/><path fill="#B49158" d="m30.28 37.579.08.02c.38.08.77.15 1.15.16 8.65 0 17.28.06 25.92.06 1.35.07 2.69.07 4.04.06 9.12-.02 18.22-.06 27.33-.11.04.08.12.23.16.3v.11c-4.67-.02-9.34-.05-14.02 0H34.65c-1.45 0-2.91-.03-4.36.03h-.07c0-.16.04-.48.05-.64l.01.01ZM51.9 38.889l1.25.18.39 1.08c.85.04 1.73.04 2.54.34.77.24 1.08 1.07 1.54 1.67 1.37.1 2.73-.11 4.08-.34-.16.51-.33 1.03-.47 1.55-.11.41-.23.82-.36 1.23-1.08-.07-2.17.09-3.26-.03-.78-.82-1.77-1.46-2.94-1.42l-.12.84c-.03-.08-.08-.25-.11-.33-.18-.51-.33-1.02-.48-1.54-.14-.48-.33-.94-.53-1.39-.26.18-.52.36-.78.55-.23-.8-.49-1.59-.76-2.37v-.02h.01Z"/><path fill="#63431D" d="M39.14 38.919c.61-.18 1.23-.33 1.87-.31 3.33 0 6.67-.02 10-.07.43-.04.82.16 1.2.33h-.29c-2.25.08-4.51-.03-6.77.06 1.04 1.85 2.61 3.28 4.09 4.76-1.62-1.41-3.14-2.96-4.29-4.79-.74 0-1.47-.02-2.2-.02-.34 0-.68 0-1.02.02h-.56l.27.93-.54-.07c.5 1.59 1.78 2.74 3.05 3.73.86.61 1.3 1.6 1.98 2.39.34.37.55.83.57 1.34-1.8-1-2.68-2.99-4.27-4.23-1.32-1.09-2.42-2.47-3.08-4.07h-.01Z"/><path fill="#E49336" d="M63.71 38.799c1.52-.22 3.06 0 4.58-.13 1.38-.11 2.78-.07 4.16-.08.35-.05.68.08.93.31.2-.03.6-.09.8-.13.02.09.05.26.07.35-.71.79-1.36 1.64-2.08 2.42-.4.42-.81.83-1.24 1.23-1.26 1.2-2.8 2.05-4.33 2.84.88-.6 1.83-1.1 2.71-1.7 1.6-1.2 3.32-2.69 3.81-4.73l-.24-.36c-.99-.33-2.08-.08-3.11-.15-2.02.18-4.05.12-6.08.13h.02Z"/><path fill="#65411F" d="M74.18 38.769c.07-.05.2-.15.27-.19 1.8.43 3.66.04 5.48.22v1.82c-.52.85-1.1 1.67-1.42 2.62l-.49.16c-.06.3-.11.59-.17.89-.86.75-1.29 2.12-2.51 2.34-.15-.44.07-.83.27-1.19.61-1.07.7-2.34 1.25-3.43.5-1.15 1.33-2.1 2.19-2.99-.33 0-.65-.03-.98-.04-.98.02-2-.16-2.95.11-.67 1.07-1.55 1.97-2.56 2.72-.1-.06-.31-.18-.42-.24.72-.79 1.37-1.63 2.08-2.42-.02-.09-.05-.26-.07-.35l.02-.03h.01Z"/><path fill="#9E7641" d="M52.19 38.879c3.84-.02 7.68.16 11.52-.08h-.03c-.39.09-.77.18-1.15.28.07.74-.44 1.86.4 2.28-.18.59-.37 1.17-.56 1.75-.26-.41-.47-.85-.66-1.29-1.35.23-2.71.44-4.08.34-.46-.6-.77-1.43-1.54-1.67-.81-.3-1.69-.3-2.54-.34l-.39-1.08-1.25-.18h.28v-.01Z"/><path fill="#F2D176" d="M38.12 38.929c.16.03.49.11.66.14.27.55.52 1.12.82 1.67-.1.04-.29.14-.39.18-.09.02-.27.05-.36.07-.26-.68-.63-1.33-.73-2.05v-.01Z"/><path fill="#382616" d="M41.14 38.919h.56c.31.98.6 1.99 1.25 2.81 1.07 1.37 2.42 2.49 3.59 3.76.58.66.87 1.55 1.58 2.1.49.39 1.04.74 1.38 1.3-1.1-.37-2.06-1.02-3.02-1.65-.03-.51-.24-.97-.57-1.34-.68-.78-1.12-1.77-1.98-2.39-1.27-.98-2.56-2.13-3.05-3.73l.54.07-.27-.93h-.01Z"/><path fill="#B68D47" d="M62.53 39.079c.38-.09.77-.19 1.15-.27-.19.87-.48 1.71-.75 2.56-.84-.42-.33-1.54-.4-2.28v-.01Z"/><path fill="#030303" d="M68.35 39.019c1.29-.03 2.58-.02 3.88 0-.52.88-.94 1.82-1.44 2.72-.41.79-1.37 1.22-1.48 2.18-.88.6-1.83 1.1-2.71 1.7 1.54-.79 3.07-1.64 4.33-2.84.08.23.15.46.23.69 1.19-.23 2.08-1.15 3.21-1.53.08.99-.62 1.74-1.03 2.57.59.9.12 2.05-.48 2.82-1.32 1.42-3.14 2.21-4.89 2.96-1.2.54-2.59.64-3.66 1.47 1.36-4.24 2.75-8.46 4.03-12.72v-.02h.01ZM48.72 51.799c1.5.72 3.01 1.41 4.62 1.86l.11.33c-1.64-.57-3.31-1.17-4.73-2.2v.01Z"/><path fill="#18120E" d="M75.13 39.069c.95-.27 1.97-.09 2.95-.11-1.11.56-1.69 1.72-2.25 2.77-.63 1.26-.63 2.72-1.13 4.03-.58 1.35-1.84 2.18-2.83 3.19.32 0 .63-.04.93-.14-3.06 1.98-6.53 3.45-10.19 3.73-4.41.58-8.97-.4-12.83-2.62 6.43 3.89 14.9 4.18 21.54.68 0 .13-.02.39-.03.53-.35-.34-.71.09-1.05.2-1.41.73-2.91 1.26-4.43 1.7l-.2.09c-1.75.12-3.46.58-5.22.54-1.12-.05-2.25.14-3.36-.08-.8-.17-1.62-.21-2.43-.14.2-.08.4-.16.61-.24-.21 0-.64-.04-.85-.06-1.88-.59-3.87-1.1-5.48-2.31-.9-.67-1.9-1.21-2.79-1.91-.39-.78-1.56-1.23-1.33-2.22 2.24 1.6 4.83 2.68 7.49 3.33 1.23.7 2.67.66 4.04.78.57-.04.73.6 1.04.96 1.7.02 3.41.09 5.11 0 .58.03 1.17.05 1.75 0l.08-.05c1.07-.83 2.46-.93 3.66-1.47 1.75-.75 3.57-1.53 4.89-2.96.6-.76 1.07-1.92.48-2.82.41-.83 1.11-1.58 1.03-2.57-1.13.38-2.02 1.29-3.21 1.53-.08-.23-.15-.46-.23-.69.43-.4.84-.8 1.24-1.23.1.06.31.18.42.24 1.01-.75 1.89-1.65 2.56-2.72v.03l.02.01Z"/><path fill="#2B1D11" d="M78.09 38.959c.33 0 .65.03.98.04-.86.89-1.69 1.84-2.19 2.99-.55 1.09-.64 2.37-1.25 3.43-.2.36-.42.75-.27 1.19-.75.84-1.6 1.58-2.54 2.2-.3.1-.62.14-.93.14.99-1.01 2.25-1.85 2.83-3.19.5-1.31.49-2.77 1.13-4.03.56-1.05 1.14-2.21 2.25-2.77h-.01Z"/><path fill="#FDE38F" d="M80.68 39.099c.38-.07.78-.27 1.15-.04-.57 1.49-1.12 2.99-1.96 4.35-.79.65-1.55 1.36-2.11 2.23-.68.81-1.48 1.51-2.25 2.23 0-.5.3-.92.5-1.36-.16.03-.49.08-.66.11 1.22-.22 1.65-1.58 2.51-2.34.06-.3.11-.59.17-.89l.49-.16c.33-.95.9-1.77 1.42-2.62.32-.46.57-.97.74-1.51Z"/><path fill="#FAF17A" d="M39.21 40.919c.1-.05.29-.14.39-.18 1.25 2 3.62 3.07 4.47 5.35-.44-.34-.89-.67-1.31-1.03-.21-.22-.42-.43-.63-.64-.3-.3-.61-.6-.9-.9-.66-.87-1.31-1.76-2.02-2.59v-.01Z"/><path fill="#A47D3E" d="M52.66 41.259c.26-.18.52-.37.78-.55.2.45.4.91.53 1.39-.15.23-.3.46-.45.68h-.41c-.15-.51-.3-1.02-.46-1.53l.01.01Z"/><path fill="#FEE761" d="M38.85 40.979c.09-.02.27-.05.36-.07.71.83 1.36 1.72 2.02 2.59-.09.56.05 1.11.22 1.65l-.29-.21c-.93-1.21-1.67-2.57-2.3-3.96h-.01Z"/><path fill="#863" d="M61.71 41.819c.19.44.4.88.66 1.29-.16.51-.3 1.02-.45 1.53-.38-.33-.56-.8-.67-1.27.14-.52.31-1.03.47-1.55h-.01Z"/><path fill="#8B6835" d="M53.53 42.799c.15-.23.3-.46.45-.68.15.52.3 1.03.48 1.54-.23.35-.5.68-.83.94-.15-.6-.33-1.2-.51-1.8h.41Z"/><path fill="#C3A86C" d="M54.68 43.139c1.17-.04 2.16.6 2.94 1.42 1.08.12 2.17-.04 3.26.03-.06.16-.17.47-.22.63-1.89.13-3.8.08-5.7.04-.14-.43-.27-.85-.4-1.27l.12-.84v-.01Z"/><path fill="#593B1E" d="M61.24 43.359c.11.48.3.94.67 1.27-.15.49-.34.96-.54 1.43H55.6c-.51 0-1.01.12-1.5.25-.21-.56-.35-1.14-.49-1.72.33-.26.6-.59.83-.94.03.08.08.25.11.33.12.43.26.85.4 1.27 1.9.04 3.8.09 5.7-.04.06-.16.17-.47.22-.63.13-.41.25-.82.36-1.23l.01.01Zm-6.43 2.16c.53.34 1.18.18 1.77.21 1.38-.05 2.77.07 4.15-.06l.15-.28c-2.02-.12-4.06-.09-6.07.12v.01Z"/><path fill="#FAA65A" d="M77.76 45.629c.56-.87 1.32-1.58 2.11-2.23-2.13 3.98-5.6 7.17-9.58 9.21-4.11 2.07-8.86 2.85-13.41 2.16 1.77.15 3.57.26 5.33-.03a8.98 8.98 0 0 1 1.72-.09c0-.24.02-.49.03-.72-.76.43-1.65.45-2.49.51-1.53.08-3.08.09-4.61-.07-1.17-.12-2.31-.48-3.48-.57l.16-.06s-.15-.05-.2-.06c-1.6-.45-3.12-1.14-4.62-1.86-.1-.06-.3-.19-.41-.25-.21-.21-.46-.39-.74-.5-1.3-.81-2.57-1.75-3.63-2.88.08-.09.23-.27.3-.36 1.16 1.15 2.49 2.1 3.88 2.95.24.19.54.22.81.05 1.61 1.2 3.6 1.71 5.48 2.31.21.02.64.05.85.06-.2.08-.4.16-.61.24.81-.07 1.63-.03 2.43.14 1.11.22 2.24.03 3.36.08-1.12.17-2.26.03-3.38.24 2.45.25 4.94.18 7.35-.32.44-.08.84-.28 1.24-.47l.2-.09c1.52-.44 3.02-.97 4.43-1.7.34-.1.69-.54 1.05-.2-2.12 1.33-4.47 2.36-6.94 2.77 0 .15-.04.44-.06.59 5.34-1.21 10.15-4.46 13.43-8.85Z"/><path fill="#27110B" d="M54.82 45.519c2.01-.21 4.05-.24 6.07-.12l-.15.28c-1.38.13-2.76 0-4.15.06-.59-.03-1.24.12-1.77-.21v-.01Z"/><path fill="#533118" d="M58.26 46.959c.91-.32 1.92-.48 2.87-.27 1.12 1.63 2.16 3.34 3.1 5.09-.58.04-1.17.02-1.75 0-1.56-.27-3.18.06-4.72-.34.56-.1 1.12-.16 1.68-.21v-.3c-.72-.03-1.43-.08-2.14-.15.71-.29 1.63-.35 2.08-1.06.24-.7.1-1.46.08-2.18-.4-.18-.8-.37-1.2-.57v-.01Z"/><path fill="#EBAB61" d="M72.83 48.819c.94-.62 1.79-1.36 2.54-2.2.17-.03.49-.08.66-.11-.2.44-.5.86-.5 1.36-.68.65-1.4 1.24-2.18 1.74-.71.45-1.23 1.16-2.01 1.51 0-.13.02-.39.03-.53-6.65 3.51-15.12 3.22-21.54-.68 3.86 2.22 8.42 3.2 12.83 2.62 3.65-.27 7.12-1.75 10.19-3.73v.02h-.02Z"/><path fill="#EFC56D" d="M43.64 47.909c.08-.09.24-.26.32-.35l.29.27c-.08.09-.23.27-.3.36-.08-.07-.23-.21-.31-.27v-.01Z"/><path fill="#2E2212" d="M47.57 51.059c.28.1.53.28.74.5-.29.3-.96-.11-.74-.5Z"/></svg>