<svg xmlns="http://www.w3.org/2000/svg" xmlns:xlink="http://www.w3.org/1999/xlink" viewBox="0 0 120 60"><defs><linearGradient id="uuid-c32c0f1f-457d-4613-98aa-b18d542aab77" x1="0" y1="22.63" x2="115.61" y2="22.63" gradientTransform="translate(0 42) scale(1 -1)" gradientUnits="userSpaceOnUse"><stop offset=".45" stop-color="#f0c103"/><stop offset="1" stop-color="#f08f03"/></linearGradient><linearGradient id="uuid-6a94a7e2-9d5a-4559-8970-c71104c802c9" x1="25.22" y1="42" x2="25.22" y2="3.26" gradientTransform="translate(0 42) scale(1 -1)" gradientUnits="userSpaceOnUse"><stop offset="0" stop-color="#b48b00"/><stop offset="0" stop-color="#b99209"/><stop offset=".04" stop-color="#cfb231"/><stop offset=".08" stop-color="#e1cb50"/><stop offset=".11" stop-color="#eedd67"/><stop offset=".14" stop-color="#f5e874"/><stop offset=".17" stop-color="#f8ec79"/><stop offset=".27" stop-color="#f1e167"/><stop offset=".61" stop-color="#dabd30"/><stop offset=".86" stop-color="#cca70d"/><stop offset="1" stop-color="#c79f00"/></linearGradient><linearGradient id="uuid-79ed6bb5-e820-4ead-b876-fd6ee664deb6" x1="81.13" y1="42" x2="81.13" y2="3.26" gradientTransform="translate(0 42) scale(1 -1)" gradientUnits="userSpaceOnUse"><stop offset="0" stop-color="#002f68"/><stop offset=".01" stop-color="#013770"/><stop offset=".05" stop-color="#025086"/><stop offset=".09" stop-color="#045f94"/><stop offset=".12" stop-color="#046499"/><stop offset=".34" stop-color="#08497c"/><stop offset=".6" stop-color="#0c3062"/><stop offset=".82" stop-color="#0e2052"/><stop offset="1" stop-color="#0f1b4c"/></linearGradient><linearGradient id="uuid-0df34ae1-b790-4404-bd7b-7dfd29bb0cc4" x1="8.03" y1="23" x2="44.84" y2="23" gradientTransform="translate(0 42) scale(1 -1)" gradientUnits="userSpaceOnUse"><stop offset="0" stop-color="#002f68"/><stop offset=".4" stop-color="#022d65"/><stop offset=".74" stop-color="#07255a"/><stop offset="1" stop-color="#0f1b4c"/></linearGradient></defs><path d="M115.22,.65H9.25v-.13c-.96,0-1.83,.19-2.53,.61-.13,.06-.29,.13-.38,.19-.22,.16-.45,.32-.64,.52-.1,.1-.19,.19-.29,.29-.51,.61-.9,1.39-1.03,2.29L1.01,27.38h-.03l-.58,4.2s.03,0,.03-.03H.43s-.03,0-.03,.03l-.29,2.29c-.03,.23-.03,.61-.03,.81-.1,2.71,2.05,5.33,4.77,5.33H110.99c.74,0,1.44-.36,2.08-.71,1.38-.77,2.4-2.32,2.63-3.94l4.26-29.41c.03-.19,.03-.32,.03-.55,.1-2.65-2.05-4.75-4.77-4.75Z" fill="#000c14"/><path d="M8.8,0c-2.37,0-4.39,1.68-4.71,4.04L.05,33.06c-.42,2.87,1.83,5.68,4.71,5.68H42.47L50.48,0H8.8Z" fill="url(#uuid-c32c0f1f-457d-4613-98aa-b18d542aab77)"/><path d="M4.12,4.04C4.44,1.68,6.43,0,8.8,0H50.44l-2.72,13.14-.03,.03-1.47,7.2h0l-3.75,18.37H4.76c-2.92,0-5.13-2.94-4.71-5.81L4.12,4.04Z" fill="url(#uuid-6a94a7e2-9d5a-4559-8970-c71104c802c9)"/><path d="M114.97,0H50.48l-2.66,12.78s-.03,.03-.06,.06l-1.51,7.33h.1l-.03,.16h-.06l-3.75,18.4H110.93c.22,0,.45,0,.67-.03,.13-.03,.29-.03,.42-.1,.13-.03,.29-.06,.42-.13,.13-.03,.22-.1,.32-.13s.16-.1,.26-.13c.13-.06,.26-.13,.38-.23,.1-.06,.16-.13,.26-.19,.06-.06,.13-.1,.19-.16,.1-.06,.16-.13,.22-.23,.06-.06,.1-.1,.16-.16s.1-.1,.16-.16c.16-.16,.29-.32,.42-.52,.06-.1,.13-.16,.16-.26,.35-.61,.61-1.29,.7-2l4.04-28.77c.03-.26,.06-.61,.03-.9-.03-2.52-2.15-4.65-4.77-4.65Z" fill="url(#uuid-79ed6bb5-e820-4ead-b876-fd6ee664deb6)"/><path d="M71.78,19.24c.45,.65,.67,1.42,.67,2.32,0,1.97-.77,3.45-2.31,4.46-1.54,1-3.59,1.52-6.15,1.52h-9.84l3.75-18.92h9.07c2.02,0,3.59,.39,4.68,1.13,1.09,.74,1.63,1.81,1.63,3.2,0,1.16-.29,2.13-.9,2.97-.61,.81-1.41,1.45-2.47,1.87,.8,.32,1.41,.81,1.86,1.45Zm-4.68,4.29c.67-.48,1.03-1.13,1.03-2.03,0-1.29-.93-1.94-2.82-1.94h-5.25l-.9,4.68h5.13c1.19,0,2.15-.23,2.82-.71Zm-5.54-11.62l-.9,4.46h4.42c1.15,0,2.02-.23,2.66-.68,.64-.45,.96-1.13,.96-2,0-1.19-.93-1.78-2.76-1.78h-4.39Zm19.64,.23l-.8,4.1h8.71l-.67,3.39h-8.75l-.87,4.39h10.25l-.7,3.52h-14.54l3.75-18.92h14.19l-.74,3.52s-9.84,0-9.84,0Zm18.39,.06h-6.02l.74-3.58h16.37l-.74,3.58h-5.99l-3.04,15.37h-4.36l3.04-15.37Z" fill="#fff"/><path d="M57.24,34.35l-.64-2c-.03-.13-.13-.39-.22-.84h-.03c-.1,.36-.16,.65-.22,.84l-.64,2h-.61l-.93-3.42h.54c.22,.87,.38,1.52,.51,1.97,.13,.45,.19,.74,.19,.9h.03c.03-.13,.06-.26,.1-.45,.06-.19,.1-.32,.13-.45l.64-1.97h.54l.61,1.97c.13,.36,.19,.65,.22,.9h.03c0-.06,.03-.19,.06-.36,.03-.16,.26-1,.64-2.52h.54l-.93,3.42h-.58Zm6.63-3.49c.45,0,.8,.16,1.06,.45,.26,.32,.38,.74,.38,1.32,0,.55-.13,1-.38,1.32s-.61,.48-1.03,.48c-.22,0-.42-.03-.61-.13-.19-.1-.35-.19-.45-.39h-.1l-.1,.45h-.38v-4.87h.51v1.19c0,.26,0,.52-.03,.71h.03c.26-.39,.61-.55,1.09-.55Zm-.1,.45c-.35,0-.61,.1-.77,.29s-.22,.55-.22,1.03,.06,.84,.22,1.03,.42,.32,.77,.32c.32,0,.54-.13,.7-.36s.22-.58,.22-1c0-.45-.06-.77-.22-1-.13-.23-.38-.32-.7-.32Zm6.7,3.1c-.51,0-.9-.16-1.19-.45-.29-.32-.45-.74-.45-1.29s.13-1,.42-1.32c.26-.32,.64-.48,1.09-.48,.42,0,.77,.13,1.03,.42s.38,.65,.38,1.13v.32h-2.34c0,.39,.1,.71,.29,.9,.19,.19,.45,.32,.8,.32s.74-.06,1.09-.23v.45c-.19,.06-.35,.13-.51,.16-.19,.06-.38,.06-.61,.06Zm-.13-3.13c-.29,0-.48,.1-.64,.26-.16,.19-.26,.42-.29,.74h1.79c0-.32-.06-.58-.22-.74-.16-.16-.38-.26-.64-.26Zm6.22,2.71c.1,0,.19,0,.26-.03,.1,0,.16-.03,.19-.03v.39c-.06,.03-.13,.06-.26,.06-.1,.03-.19,.03-.29,.03-.67,0-.99-.36-.99-1.07v-2.03h-.48v-.26l.48-.23,.22-.74h.29v.81h.99v.42h-.99v2.03c0,.19,.06,.36,.16,.48,.13,.1,.26,.16,.42,.16Zm3.94,.03c0-.13,.03-.26,.1-.32,.06-.06,.16-.1,.26-.1,.13,0,.22,.03,.29,.1s.1,.19,.1,.32-.03,.23-.1,.32c-.06,.06-.16,.1-.29,.1-.1,0-.19-.03-.26-.1s-.1-.16-.1-.32Zm5.99,.39c-.48,0-.87-.16-1.15-.45-.26-.29-.42-.74-.42-1.29,0-.58,.13-1.03,.42-1.32,.29-.32,.67-.48,1.19-.48,.16,0,.32,.03,.48,.06s.29,.06,.38,.13l-.16,.45c-.13-.03-.22-.1-.38-.13-.13-.03-.26-.03-.35-.03-.7,0-1.03,.45-1.03,1.32,0,.42,.1,.74,.26,.97s.42,.32,.74,.32c.29,0,.58-.06,.87-.19v.45c-.19,.13-.48,.19-.83,.19Zm7.5-1.78c0,.55-.13,1-.42,1.32s-.67,.48-1.15,.48c-.32,0-.58-.06-.8-.23-.22-.13-.42-.36-.54-.61-.13-.26-.19-.58-.19-.94,0-.55,.13-1,.42-1.32s.67-.45,1.15-.45,.87,.16,1.12,.48c.26,.29,.42,.71,.42,1.26Zm-2.59,0c0,.45,.1,.77,.26,1s.42,.36,.77,.36,.61-.13,.77-.36,.26-.55,.26-1-.1-.77-.26-1-.45-.36-.77-.36c-.35,0-.61,.1-.77,.32-.19,.26-.26,.58-.26,1.03Zm10.7,1.71v-2.23c0-.26-.06-.48-.16-.61-.13-.13-.29-.19-.54-.19-.32,0-.54,.1-.7,.29s-.22,.48-.22,.87v1.9h-.54v-2.23c0-.26-.06-.48-.16-.61-.13-.13-.29-.19-.54-.19-.32,0-.54,.1-.7,.29s-.22,.52-.22,.97v1.81h-.51v-3.42h.42l.1,.48h.03c.1-.16,.22-.29,.42-.39,.19-.1,.38-.13,.61-.13,.54,0,.87,.19,1.06,.58h.03c.1-.19,.26-.32,.45-.42s.42-.16,.67-.16c.38,0,.67,.1,.87,.29s.29,.52,.29,.97v2.23h-.61v-.1Z" fill="#e6e6e6"/><path d="M44.84,8.17l-11.57,21.66h-5.99l-2.4-12.59-7.21,12.59h-5.93l-3.72-21.66h5.54l2.31,14.75,7.05-12.56h5.77l2.66,12.56,7.78-14.75h5.7Z" fill="url(#uuid-0df34ae1-b790-4404-bd7b-7dfd29bb0cc4)"/><path d="M46.25,20.31l-3.78,18.43H110.9c2.37,0,4.39-2.07,4.71-4.42l2.08-14.88c-28.9-2.16-52.48-1.39-71.44,.87Z" fill="#020202" isolation="isolate" opacity=".15"/><path d="M47.75,13.01l-1.51,7.33c19-2.26,42.58-3.07,71.47-.9l1.51-10.88c-28.74-.94-52.38,1.1-71.47,4.46Zm0,0C27.09,16.66,11.74,21.86,.92,26.63l-.58,4.2c10.67-3.97,25.66-8.07,45.91-10.49l1.51-7.33ZM.34,30.61l-.29,2.32c-.42,2.91,1.83,5.81,4.71,5.81H42.47l3.75-18.43C26,22.73,11.01,26.63,.34,30.61Z" fill="#020202" isolation="isolate" opacity=".1"/></svg>
