<svg xmlns="http://www.w3.org/2000/svg" viewBox="0 0 120 60"><path fill="#fff" d="M112.89 23.85h2.28v8.33H120v2.08h-7.11Zm-4.17 10.41H111V23.85h-2.27Zm-9.91-1.59a6.53 6.53 0 0 0 4.39 1.67c2.23 0 3.8-1.16 3.8-3.23 0-1.81-1.18-2.57-3.28-3.12-1.79-.46-2.23-.69-2.23-1.37 0-.51.45-.91 1.33-.91a4.84 4.84 0 0 1 2.69 1l1.18-1.71a6 6 0 0 0-3.84-1.32c-2.12 0-3.63 1.25-3.63 3.14 0 2.07 1.35 2.65 3.43 3.18 1.73.45 2.09.75 2.09 1.33 0 .61-.56 1-1.5 1a4.73 4.73 0 0 1-3.08-1.27l-1.35 1.62m-.47 1.63-4.43-10.5h-2.1L87.37 34.3h2.32l3.14-7.74 1.36 3.36h-1.83l-.81 2H95l1 2.38ZM71.09 23.85a5.16 5.16 0 0 1 5.5 5.15 5.19 5.19 0 0 1-5.5 5.21h-3.55V23.85h3.55m3.12 5.2a3 3 0 0 0-2.81-3.13 1.61 1.61 0 0 0-.31 0h-1.28v6.27h1.28a3 3 0 0 0 3.12-2.79 1.71 1.71 0 0 0 0-.32Zm-11.76-.21v1.79h1.08v1.1a3.68 3.68 0 0 1-2.15.63 3.12 3.12 0 0 1-3.14-3.09 1.7 1.7 0 0 1 0-.22 3.12 3.12 0 0 1 3-3.24 3.78 3.78 0 0 1 2.7 1.06l1.44-1.74a5.65 5.65 0 0 0-4.07-1.43 5.31 5.31 0 0 0-5.42 5.23v.18a5.19 5.19 0 0 0 5 5.36h.42a6.73 6.73 0 0 0 4.42-1.65v-3.98Zm-11.37 0v1.79h1.08v1.1a3.68 3.68 0 0 1-2.15.63 3.13 3.13 0 0 1-3.14-3.09 1.7 1.7 0 0 1 0-.22 3.12 3.12 0 0 1 3-3.24 3.8 3.8 0 0 1 2.71 1.06L54 25.1a5.65 5.65 0 0 0-4.07-1.43 5.31 5.31 0 0 0-5.43 5.23v.18a5.19 5.19 0 0 0 5 5.36h.42a6.73 6.73 0 0 0 4.42-1.65v-3.95Zm-12.59 5.42h2.28V30.9l4-7h-2.61l-2.52 4.63-2.47-4.63h-2.66l4 7.09Zm45.64-3.72a3.23 3.23 0 0 0 2.22-3.23 3.25 3.25 0 0 0-.89-2.38 4.11 4.11 0 0 0-3-1h-4.4v10.33h2.27v-8.34h1.92c1.11 0 1.79.5 1.79 1.48 0 .88-.63 1.48-1.74 1.48h-1.12v2h.6L84 34.26h2.66Z"/><path fill="#ec6538" d="M29 30.85a14.24 14.24 0 0 1-.63 3.41 20.54 20.54 0 0 1-13.88-6.61A20.54 20.54 0 0 1 .63 34.26 14.24 14.24 0 0 1 0 30.85a17.12 17.12 0 0 0 5.25-1 14.72 14.72 0 0 0-5-2.74 14.91 14.91 0 0 1 1.07-3.27 18.46 18.46 0 0 1 7.24 4.38 17.33 17.33 0 0 0 3.33-2.77 15.16 15.16 0 0 1-8.6-4.74 14.33 14.33 0 0 1 2.48-2.41 11.73 11.73 0 0 0 4.85 3.24 20.28 20.28 0 0 1-1.38-5.17 15 15 0 0 1 3.36-.87 16.82 16.82 0 0 0 1.91 6.26 17.25 17.25 0 0 0 1.91-6.26 14.43 14.43 0 0 1 3.36.86 20.66 20.66 0 0 1-1.38 5.18 11.73 11.73 0 0 0 4.84-3.24 14.71 14.71 0 0 1 2.49 2.37 15.12 15.12 0 0 1-8.61 4.74 17.14 17.14 0 0 0 3.34 2.78 18.23 18.23 0 0 1 7.24-4.38 14.45 14.45 0 0 1 1.06 3.26 15 15 0 0 0-5 2.75A17.06 17.06 0 0 0 29 30.85ZM16.22 44.4v-4.89l4.93-6.44a20.88 20.88 0 0 1-3-1.65l-3.64 4.68-3.59-4.68a20.48 20.48 0 0 1-3.06 1.65l4.93 6.44v4.89a15.13 15.13 0 0 0 3.43 0Z"/></svg>
